G04 #@! TF.GenerationSoftware,KiCad,Pcbnew,7.0.9*
G04 #@! TF.CreationDate,2024-04-26T16:02:49+09:00*
G04 #@! TF.ProjectId,Geekble_Mini_ESP32C3,4765656b-626c-4655-9f4d-696e695f4553,1*
G04 #@! TF.SameCoordinates,Original*
G04 #@! TF.FileFunction,Copper,L4,Bot*
G04 #@! TF.FilePolarity,Positive*
%FSLAX46Y46*%
G04 Gerber Fmt 4.6, Leading zero omitted, Abs format (unit mm)*
G04 Created by KiCad (PCBNEW 7.0.9) date 2024-04-26 16:02:49*
%MOMM*%
%LPD*%
G01*
G04 APERTURE LIST*
G04 #@! TA.AperFunction,ComponentPad*
%ADD10O,1.524000X3.048000*%
G04 #@! TD*
G04 #@! TA.AperFunction,ComponentPad*
%ADD11C,1.016000*%
G04 #@! TD*
G04 #@! TA.AperFunction,ComponentPad*
%ADD12O,2.100000X1.000000*%
G04 #@! TD*
G04 #@! TA.AperFunction,ComponentPad*
%ADD13O,1.600000X1.000000*%
G04 #@! TD*
G04 #@! TA.AperFunction,ViaPad*
%ADD14C,0.500000*%
G04 #@! TD*
G04 #@! TA.AperFunction,ViaPad*
%ADD15C,0.700000*%
G04 #@! TD*
G04 #@! TA.AperFunction,Conductor*
%ADD16C,0.131000*%
G04 #@! TD*
G04 #@! TA.AperFunction,Conductor*
%ADD17C,0.130000*%
G04 #@! TD*
G04 APERTURE END LIST*
D10*
X42969990Y-27728010D03*
D11*
X42969990Y-27220010D03*
D10*
X32809990Y-27728010D03*
D11*
X32809990Y-27220010D03*
D10*
X35349990Y-27728010D03*
D11*
X35349990Y-27220010D03*
D10*
X48049990Y-27728010D03*
D11*
X48049990Y-27220010D03*
D10*
X40429990Y-44492010D03*
D11*
X40429990Y-45000010D03*
D10*
X32809990Y-44492010D03*
D11*
X32809990Y-45000010D03*
D10*
X55669990Y-44492010D03*
D11*
X55669990Y-45000010D03*
D10*
X37889990Y-44492010D03*
D11*
X37889990Y-45000010D03*
D10*
X50589990Y-27728010D03*
D11*
X50589990Y-27220010D03*
D10*
X40429990Y-27728010D03*
D11*
X40429990Y-27220010D03*
D10*
X42969990Y-44492010D03*
D11*
X42969990Y-45000010D03*
D10*
X48049990Y-44492010D03*
D11*
X48049990Y-45000010D03*
D10*
X50589990Y-44492010D03*
D11*
X50589990Y-45000010D03*
D10*
X55669990Y-27728010D03*
D11*
X55669990Y-27220010D03*
D10*
X45509990Y-27728010D03*
D11*
X45509990Y-27220010D03*
D10*
X53129990Y-27728010D03*
D11*
X53129990Y-27220010D03*
D10*
X53129990Y-44492010D03*
D11*
X53129990Y-45000010D03*
D12*
X35824690Y-31790010D03*
X35824690Y-40430010D03*
D13*
X31644690Y-31790010D03*
X31644690Y-40430010D03*
D10*
X35349990Y-44492010D03*
D11*
X35349990Y-45000010D03*
D10*
X45509990Y-44492010D03*
D11*
X45509990Y-45000010D03*
D10*
X37889990Y-27728010D03*
D11*
X37889990Y-27220010D03*
D14*
X47249990Y-42000010D03*
X49599990Y-39750010D03*
X48049990Y-42200010D03*
D15*
X42461990Y-36745010D03*
D14*
X53129990Y-33570010D03*
D15*
X40429990Y-33316010D03*
D14*
X44449990Y-40100010D03*
X48684990Y-35475010D03*
X54145990Y-34586010D03*
X48684990Y-34205010D03*
X47414990Y-34205010D03*
D15*
X51859990Y-29760010D03*
D14*
X54145990Y-37634010D03*
X48049990Y-33570010D03*
D15*
X39032990Y-32681010D03*
X40429990Y-39158010D03*
D14*
X30269990Y-32300010D03*
X54145990Y-35602010D03*
X48049990Y-34840010D03*
X54145990Y-32554010D03*
X46779990Y-34840010D03*
X30269990Y-33570010D03*
X52494990Y-31665010D03*
D15*
X37381990Y-41825010D03*
D14*
X54145990Y-33570010D03*
D15*
X47645990Y-40146010D03*
D14*
X46599990Y-38225010D03*
X54145990Y-36618010D03*
X49319990Y-34840010D03*
X30269990Y-39920010D03*
X30269990Y-38650010D03*
X47414990Y-35475010D03*
D15*
X41826990Y-40428010D03*
D14*
X48049990Y-36110010D03*
X46830790Y-29810810D03*
D15*
X44493990Y-38396010D03*
D14*
X42099990Y-34750010D03*
X45549990Y-30863010D03*
X37508990Y-40682010D03*
X36746990Y-30522010D03*
X42124990Y-32825010D03*
X49399990Y-29725010D03*
X46779990Y-41063010D03*
X52962490Y-36212510D03*
X50488390Y-31588810D03*
X50042109Y-32215337D03*
X49449990Y-31650010D03*
X47033990Y-31284010D03*
X41799990Y-33875010D03*
X39149990Y-29375010D03*
X44524990Y-35000010D03*
X44176490Y-33633510D03*
X45124990Y-32800010D03*
X44319371Y-32215744D03*
X46312046Y-31459628D03*
X53649990Y-30100010D03*
X50874990Y-38125010D03*
X50223195Y-37492805D03*
X35052000Y-37253010D03*
X35052000Y-35729010D03*
X35052000Y-34967010D03*
X35052500Y-36491010D03*
X48624990Y-38525010D03*
X39243000Y-37465000D03*
X49324990Y-38425010D03*
X39243000Y-34798000D03*
D15*
X33825990Y-36110010D03*
D16*
X47249990Y-42000010D02*
X47545490Y-41704510D01*
X47545490Y-41704510D02*
X48904490Y-41704510D01*
X48904490Y-41704510D02*
X50589990Y-43390010D01*
X50589990Y-43390010D02*
X50589990Y-43730010D01*
X46830790Y-29810810D02*
X48574190Y-29810810D01*
X48574190Y-29810810D02*
X49894990Y-28490010D01*
X49894990Y-28490010D02*
X50589990Y-28490010D01*
X32301990Y-35348010D02*
X32301990Y-39158010D01*
X36933942Y-33650010D02*
X36637442Y-33946510D01*
X39712490Y-33650010D02*
X36933942Y-33650010D01*
X49791090Y-30891510D02*
X48442490Y-30891510D01*
X41664490Y-35602010D02*
X39712490Y-33650010D01*
X50488390Y-31588810D02*
X49791090Y-30891510D01*
X36637442Y-33946510D02*
X33703490Y-33946510D01*
X32301990Y-39158010D02*
X32809990Y-39666010D01*
X45382990Y-35063299D02*
X44844279Y-35602010D01*
X33703490Y-33946510D02*
X32301990Y-35348010D01*
X48442490Y-30891510D02*
X45382990Y-33951010D01*
X32809990Y-39666010D02*
X32809990Y-43730010D01*
X45382990Y-33951010D02*
X45382990Y-35063299D01*
X44844279Y-35602010D02*
X41664490Y-35602010D01*
X50042109Y-32215337D02*
X49991890Y-32165118D01*
X34076490Y-34208510D02*
X32784590Y-35500410D01*
X48815490Y-31153510D02*
X45763990Y-34205010D01*
X37042466Y-33912010D02*
X36745966Y-34208510D01*
X39535228Y-33912010D02*
X37042466Y-33912010D01*
X33571990Y-39412010D02*
X33571990Y-41952010D01*
X49991890Y-31462834D02*
X49682566Y-31153510D01*
X32784590Y-38624610D02*
X33571990Y-39412010D01*
X45121990Y-35863010D02*
X41486228Y-35863010D01*
X41486228Y-35863010D02*
X39535228Y-33912010D01*
X33571990Y-41952010D02*
X35349990Y-43730010D01*
X49991890Y-32165118D02*
X49991890Y-31462834D01*
X49682566Y-31153510D02*
X48815490Y-31153510D01*
X45763990Y-34205010D02*
X45763990Y-35221010D01*
X32784590Y-35500410D02*
X32784590Y-38624610D01*
X36745966Y-34208510D02*
X34076490Y-34208510D01*
X45763990Y-35221010D02*
X45121990Y-35863010D01*
X34333990Y-41063010D02*
X34333990Y-39158010D01*
X39797466Y-34544772D02*
X39797466Y-34550010D01*
X45368990Y-36124010D02*
X46144990Y-35348010D01*
X39426704Y-34174010D02*
X39797466Y-34544772D01*
X34449490Y-34470510D02*
X36854490Y-34470510D01*
X48953990Y-31650010D02*
X49449990Y-31650010D01*
X34333990Y-39158010D02*
X33229490Y-38053510D01*
X39797466Y-34550010D02*
X41371466Y-36124010D01*
X33229490Y-38053510D02*
X33229490Y-35690510D01*
X33229490Y-35690510D02*
X34449490Y-34470510D01*
X36854490Y-34470510D02*
X37150990Y-34174010D01*
X37889990Y-43730010D02*
X35984990Y-41825010D01*
X46144990Y-35348010D02*
X46144990Y-34459010D01*
X46144990Y-34459010D02*
X48953990Y-31650010D01*
X35984990Y-41825010D02*
X35095990Y-41825010D01*
X37150990Y-34174010D02*
X39426704Y-34174010D01*
X41371466Y-36124010D02*
X45368990Y-36124010D01*
X35095990Y-41825010D02*
X34333990Y-41063010D01*
X42969990Y-43730010D02*
X42969990Y-42714010D01*
D17*
X51351990Y-32808010D02*
X50208990Y-33951010D01*
X50570990Y-30630010D02*
X51351990Y-31411010D01*
D16*
X49899990Y-38240866D02*
X49269190Y-37610066D01*
D17*
X47687990Y-30630010D02*
X50570990Y-30630010D01*
D16*
X49562674Y-38992510D02*
X49899990Y-38655194D01*
X49269190Y-36364010D02*
X50208990Y-35424210D01*
X50208990Y-35424210D02*
X50208990Y-35221010D01*
X46458990Y-39225010D02*
X48780174Y-39225010D01*
X49899990Y-38655194D02*
X49899990Y-38240866D01*
D17*
X50208990Y-33951010D02*
X50208990Y-35221010D01*
D16*
X49269190Y-37610066D02*
X49269190Y-36364010D01*
D17*
X47033990Y-31284010D02*
X47687990Y-30630010D01*
D16*
X42969990Y-42714010D02*
X46458990Y-39225010D01*
X48780174Y-39225010D02*
X49012674Y-38992510D01*
X49012674Y-38992510D02*
X49562674Y-38992510D01*
D17*
X51351990Y-31411010D02*
X51351990Y-32808010D01*
X41799990Y-33875010D02*
X41318990Y-33394010D01*
X41318990Y-32681010D02*
X37889990Y-29252010D01*
X41318990Y-33394010D02*
X41318990Y-32681010D01*
X37889990Y-29252010D02*
X37889990Y-28490010D01*
D16*
X44399990Y-35000010D02*
X43096990Y-33697010D01*
X43096990Y-33697010D02*
X43096990Y-32935010D01*
X43096990Y-32935010D02*
X40175990Y-30014010D01*
X44524990Y-35000010D02*
X44399990Y-35000010D01*
X40175990Y-30014010D02*
X39763990Y-30014010D01*
X39763990Y-30014010D02*
X39149990Y-29400010D01*
D17*
X43731990Y-33062010D02*
X40429990Y-29760010D01*
X44176490Y-33633510D02*
X43731990Y-33189010D01*
X43731990Y-33189010D02*
X43731990Y-33062010D01*
X40429990Y-29760010D02*
X40429990Y-28490010D01*
D16*
X45124990Y-32800010D02*
X43977990Y-32800010D01*
X43977990Y-32800010D02*
X42969990Y-31792010D01*
X42969990Y-31792010D02*
X42969990Y-28490010D01*
X44319371Y-32215744D02*
X44319371Y-31236391D01*
X43899990Y-30817010D02*
X43899990Y-29175010D01*
X44319371Y-31236391D02*
X43899990Y-30817010D01*
X44584990Y-28490010D02*
X45509990Y-28490010D01*
X43899990Y-29175010D02*
X44584990Y-28490010D01*
D17*
X50589990Y-36059210D02*
X50589990Y-34078010D01*
X50589990Y-34078010D02*
X51732990Y-32935010D01*
X51732990Y-31284010D02*
X50817990Y-30369010D01*
X46312046Y-31116954D02*
X46312046Y-31459628D01*
X50161490Y-38763510D02*
X50161490Y-38132549D01*
X49670990Y-39254010D02*
X50161490Y-38763510D01*
X49120990Y-39254010D02*
X49670990Y-39254010D01*
X51732990Y-32935010D02*
X51732990Y-31284010D01*
X47059990Y-30369010D02*
X46312046Y-31116954D01*
X45509990Y-43730010D02*
X45509990Y-40682010D01*
X49727195Y-36922005D02*
X50589990Y-36059210D01*
X45509990Y-40682010D02*
X46705490Y-39486510D01*
X50161490Y-38132549D02*
X49727195Y-37698255D01*
X50817990Y-30369010D02*
X47059990Y-30369010D01*
X46705490Y-39486510D02*
X48888490Y-39486510D01*
X48888490Y-39486510D02*
X49120990Y-39254010D01*
X49727195Y-37698255D02*
X49727195Y-36922005D01*
D16*
X50874990Y-38125010D02*
X51359990Y-37640010D01*
X53649990Y-32070534D02*
X53649990Y-30100010D01*
X51359990Y-34360534D02*
X53649990Y-32070534D01*
X51359990Y-37640010D02*
X51359990Y-34360534D01*
X50978490Y-36737510D02*
X50978490Y-34197510D01*
X55034990Y-28490010D02*
X55669990Y-28490010D01*
X53153490Y-32022510D02*
X53153490Y-29894352D01*
X50978490Y-34197510D02*
X53153490Y-32022510D01*
X53444332Y-29603510D02*
X53921490Y-29603510D01*
X50223195Y-37492805D02*
X50978490Y-36737510D01*
X53921490Y-29603510D02*
X55034990Y-28490010D01*
X53153490Y-29894352D02*
X53444332Y-29603510D01*
X35567500Y-36737510D02*
X35567500Y-36244510D01*
X35052000Y-37253010D02*
X35567500Y-36737510D01*
X35567500Y-36244510D02*
X35052000Y-35729010D01*
X34536500Y-35975010D02*
X35052500Y-36491010D01*
X35052000Y-34967010D02*
X34536500Y-35482510D01*
X34536500Y-35482510D02*
X34536500Y-35975010D01*
X41456608Y-37380010D02*
X41064990Y-37380010D01*
X39327990Y-37380010D02*
X39243000Y-37465000D01*
X40673490Y-37799510D02*
X40673490Y-37510510D01*
X48624990Y-38093412D02*
X48172088Y-37640510D01*
X40281990Y-37380010D02*
X40248618Y-37380010D01*
X40934490Y-37510510D02*
X40934490Y-37799510D01*
X40673490Y-37510510D02*
X40673490Y-36960510D01*
X40412490Y-36960510D02*
X40412490Y-37249510D01*
X40248618Y-37380010D02*
X39327990Y-37380010D01*
X48624990Y-38525010D02*
X48624990Y-38093412D01*
X48172088Y-37640510D02*
X41717108Y-37640510D01*
X41717108Y-37640510D02*
X41456608Y-37380010D01*
X40542990Y-36829990D02*
G75*
G03*
X40412490Y-36960510I10J-130510D01*
G01*
X41064990Y-37379990D02*
G75*
G03*
X40934490Y-37510510I10J-130510D01*
G01*
X40673490Y-37799510D02*
G75*
G03*
X40803990Y-37930010I130510J10D01*
G01*
X40673490Y-36960510D02*
G75*
G03*
X40542990Y-36830010I-130490J10D01*
G01*
X40281990Y-37379990D02*
G75*
G03*
X40412490Y-37249510I10J130490D01*
G01*
X40803990Y-37929990D02*
G75*
G03*
X40934490Y-37799510I10J130490D01*
G01*
D17*
X41825010Y-37380010D02*
X48279990Y-37380010D01*
X48279990Y-37380010D02*
X49324990Y-38425010D01*
X39243000Y-34798000D02*
X41825010Y-37380010D01*
G04 #@! TA.AperFunction,Conductor*
G36*
X31772990Y-27640472D02*
G01*
X31827528Y-27695010D01*
X31847490Y-27769510D01*
X31847490Y-28538834D01*
X31862329Y-28684755D01*
X31862329Y-28684756D01*
X31920930Y-28871535D01*
X32015930Y-29042690D01*
X32015934Y-29042696D01*
X32143435Y-29191217D01*
X32143439Y-29191221D01*
X32298235Y-29311043D01*
X32440942Y-29381043D01*
X32473985Y-29397251D01*
X32663489Y-29446318D01*
X32858991Y-29456232D01*
X33052487Y-29426590D01*
X33236055Y-29358604D01*
X33402181Y-29255057D01*
X33544061Y-29120189D01*
X33655889Y-28959522D01*
X33733085Y-28779633D01*
X33772490Y-28587887D01*
X33772490Y-27769510D01*
X33792452Y-27695010D01*
X33846990Y-27640472D01*
X33921490Y-27620510D01*
X34238490Y-27620510D01*
X34312990Y-27640472D01*
X34367528Y-27695010D01*
X34387490Y-27769510D01*
X34387490Y-28538834D01*
X34402329Y-28684755D01*
X34402329Y-28684756D01*
X34460930Y-28871535D01*
X34555930Y-29042690D01*
X34555934Y-29042696D01*
X34683435Y-29191217D01*
X34683439Y-29191221D01*
X34838235Y-29311043D01*
X34980942Y-29381043D01*
X35013985Y-29397251D01*
X35203489Y-29446318D01*
X35398991Y-29456232D01*
X35592487Y-29426590D01*
X35776055Y-29358604D01*
X35942181Y-29255057D01*
X36084061Y-29120189D01*
X36195889Y-28959522D01*
X36273085Y-28779633D01*
X36312490Y-28587887D01*
X36312490Y-27769510D01*
X36332452Y-27695010D01*
X36386990Y-27640472D01*
X36461490Y-27620510D01*
X36778490Y-27620510D01*
X36852990Y-27640472D01*
X36907528Y-27695010D01*
X36927490Y-27769510D01*
X36927490Y-28538834D01*
X36942329Y-28684755D01*
X36942329Y-28684756D01*
X37000930Y-28871535D01*
X37095930Y-29042690D01*
X37095934Y-29042696D01*
X37223435Y-29191217D01*
X37223439Y-29191221D01*
X37378235Y-29311043D01*
X37553984Y-29397251D01*
X37593754Y-29407547D01*
X37650783Y-29422313D01*
X37705304Y-29449249D01*
X37731498Y-29469763D01*
X37738248Y-29475742D01*
X38186976Y-29924470D01*
X38190811Y-29928608D01*
X38221236Y-29964028D01*
X38224449Y-29967498D01*
X38231881Y-29972673D01*
X38252098Y-29989592D01*
X39635824Y-31373318D01*
X41009849Y-32747342D01*
X41048413Y-32814137D01*
X41053490Y-32852701D01*
X41053490Y-33353182D01*
X41050627Y-33382251D01*
X41049594Y-33387447D01*
X41048288Y-33394010D01*
X41054290Y-33424181D01*
X41066339Y-33484754D01*
X41068895Y-33497604D01*
X41127572Y-33585422D01*
X41127574Y-33585424D01*
X41127575Y-33585425D01*
X41131122Y-33587795D01*
X41137537Y-33592081D01*
X41160119Y-33610613D01*
X41226168Y-33676662D01*
X41245357Y-33702218D01*
X41245933Y-33701824D01*
X41250068Y-33707857D01*
X41280898Y-33744534D01*
X41312074Y-33807116D01*
X41314934Y-33819592D01*
X41317158Y-33829295D01*
X41320814Y-33847417D01*
X41333297Y-33909303D01*
X41334673Y-33915217D01*
X41336455Y-33921965D01*
X41338304Y-33928172D01*
X41371179Y-34026989D01*
X41372670Y-34031011D01*
X41372673Y-34031016D01*
X41381456Y-34044766D01*
X41386445Y-34053933D01*
X41417106Y-34121070D01*
X41417107Y-34121071D01*
X41417108Y-34121073D01*
X41501941Y-34218977D01*
X41610921Y-34289014D01*
X41626113Y-34293474D01*
X41691968Y-34333613D01*
X41728934Y-34401306D01*
X41727101Y-34478412D01*
X41719670Y-34498335D01*
X41663292Y-34621784D01*
X41644857Y-34750006D01*
X41644857Y-34750014D01*
X41657749Y-34839683D01*
X41648593Y-34916265D01*
X41602371Y-34978009D01*
X41531470Y-35008370D01*
X41454888Y-34999214D01*
X41404907Y-34966246D01*
X39929481Y-33490821D01*
X39910951Y-33468242D01*
X39909695Y-33466362D01*
X39904265Y-33458235D01*
X39837078Y-33413342D01*
X39816279Y-33399444D01*
X39816276Y-33399443D01*
X39738687Y-33384010D01*
X39712490Y-33378799D01*
X39712489Y-33378799D01*
X39700685Y-33381147D01*
X39671617Y-33384010D01*
X36974815Y-33384010D01*
X36945747Y-33381147D01*
X36933943Y-33378799D01*
X36933942Y-33378799D01*
X36907745Y-33384010D01*
X36830155Y-33399443D01*
X36830152Y-33399444D01*
X36742167Y-33458234D01*
X36742165Y-33458236D01*
X36735479Y-33468243D01*
X36716952Y-33490818D01*
X36570904Y-33636868D01*
X36504109Y-33675433D01*
X36465544Y-33680510D01*
X36037230Y-33680510D01*
X35962730Y-33660548D01*
X35908192Y-33606010D01*
X35888230Y-33531510D01*
X35902411Y-33468068D01*
X35907038Y-33458235D01*
X35923063Y-33424181D01*
X35954096Y-33261496D01*
X35943697Y-33096205D01*
X35892518Y-32938693D01*
X35820373Y-32825010D01*
X35803777Y-32798859D01*
X35803776Y-32798858D01*
X35690008Y-32692021D01*
X35649367Y-32626475D01*
X35646945Y-32549385D01*
X35674690Y-32497640D01*
X35674690Y-32090010D01*
X35974690Y-32090010D01*
X35974690Y-32490010D01*
X36417023Y-32490010D01*
X36543442Y-32474660D01*
X36702387Y-32414379D01*
X36842281Y-32317818D01*
X36842288Y-32317812D01*
X36955010Y-32190575D01*
X37034007Y-32040058D01*
X37058667Y-31940010D01*
X36637347Y-31940010D01*
X36647891Y-31926048D01*
X36678585Y-31818170D01*
X36668236Y-31706489D01*
X36635133Y-31640010D01*
X37058666Y-31640010D01*
X37034007Y-31539961D01*
X36955010Y-31389444D01*
X36955011Y-31389444D01*
X36842288Y-31262207D01*
X36842283Y-31262203D01*
X36795944Y-31230218D01*
X36745971Y-31171469D01*
X36732067Y-31095604D01*
X36757958Y-31022952D01*
X36816707Y-30972979D01*
X36838598Y-30964630D01*
X36936059Y-30936014D01*
X37045039Y-30865977D01*
X37129872Y-30768073D01*
X37183687Y-30650236D01*
X37196811Y-30558955D01*
X37202123Y-30522013D01*
X37202123Y-30522006D01*
X37186379Y-30412510D01*
X37183687Y-30393784D01*
X37129872Y-30275947D01*
X37129871Y-30275946D01*
X37129871Y-30275945D01*
X37062336Y-30198005D01*
X37045039Y-30178043D01*
X36936059Y-30108006D01*
X36811762Y-30071510D01*
X36682218Y-30071510D01*
X36557921Y-30108006D01*
X36557918Y-30108007D01*
X36557917Y-30108008D01*
X36448945Y-30178040D01*
X36448942Y-30178041D01*
X36448941Y-30178043D01*
X36448939Y-30178044D01*
X36448938Y-30178046D01*
X36364108Y-30275945D01*
X36310292Y-30393786D01*
X36291857Y-30522006D01*
X36291857Y-30522013D01*
X36310292Y-30650233D01*
X36364108Y-30768074D01*
X36429410Y-30843437D01*
X36463110Y-30912813D01*
X36457607Y-30989744D01*
X36414375Y-31053618D01*
X36344999Y-31087318D01*
X36316802Y-31090010D01*
X35974690Y-31090010D01*
X35974690Y-31490010D01*
X35674690Y-31490010D01*
X35674690Y-31090010D01*
X35232356Y-31090010D01*
X35105937Y-31105359D01*
X34946992Y-31165640D01*
X34807098Y-31262201D01*
X34807091Y-31262207D01*
X34694369Y-31389444D01*
X34615372Y-31539961D01*
X34590713Y-31640010D01*
X35012033Y-31640010D01*
X35001489Y-31653972D01*
X34970795Y-31761850D01*
X34981144Y-31873531D01*
X35014247Y-31940010D01*
X34590713Y-31940010D01*
X34615372Y-32040058D01*
X34694369Y-32190575D01*
X34694368Y-32190575D01*
X34807091Y-32317812D01*
X34807098Y-32317818D01*
X34948898Y-32415695D01*
X34998871Y-32474444D01*
X35012774Y-32550309D01*
X34986882Y-32622961D01*
X34951838Y-32658863D01*
X34842402Y-32738373D01*
X34842399Y-32738377D01*
X34736836Y-32865979D01*
X34736830Y-32865990D01*
X34666318Y-33015834D01*
X34666317Y-33015836D01*
X34635284Y-33178524D01*
X34645683Y-33343816D01*
X34645684Y-33343819D01*
X34691708Y-33485467D01*
X34695745Y-33562489D01*
X34660729Y-33631211D01*
X34596044Y-33673217D01*
X34550001Y-33680510D01*
X33744363Y-33680510D01*
X33715295Y-33677647D01*
X33703491Y-33675299D01*
X33703490Y-33675299D01*
X33677293Y-33680510D01*
X33599703Y-33695943D01*
X33599700Y-33695944D01*
X33511713Y-33754736D01*
X33505025Y-33764745D01*
X33486500Y-33787317D01*
X32142800Y-35131018D01*
X32120228Y-35149543D01*
X32110216Y-35156233D01*
X32051424Y-35244220D01*
X32051423Y-35244223D01*
X32033166Y-35336010D01*
X32030779Y-35348010D01*
X32032750Y-35357921D01*
X32033127Y-35359812D01*
X32035990Y-35388882D01*
X32035990Y-39117137D01*
X32033127Y-39146204D01*
X32030779Y-39158010D01*
X32043311Y-39221010D01*
X32051424Y-39261798D01*
X32110215Y-39349785D01*
X32120224Y-39356472D01*
X32142801Y-39375001D01*
X32266556Y-39498756D01*
X32305120Y-39565551D01*
X32305120Y-39642679D01*
X32266556Y-39709474D01*
X32199761Y-39748038D01*
X32122633Y-39748038D01*
X32117211Y-39746288D01*
X32113444Y-39745360D01*
X31987024Y-39730010D01*
X31794690Y-39730010D01*
X31794690Y-40130010D01*
X31494690Y-40130010D01*
X31494690Y-39730010D01*
X31302356Y-39730010D01*
X31175937Y-39745359D01*
X31016992Y-39805640D01*
X30877098Y-39902201D01*
X30877091Y-39902207D01*
X30764369Y-40029444D01*
X30685372Y-40179961D01*
X30660713Y-40280010D01*
X31082033Y-40280010D01*
X31071489Y-40293972D01*
X31040795Y-40401850D01*
X31051144Y-40513531D01*
X31084247Y-40580010D01*
X30660713Y-40580010D01*
X30685372Y-40680058D01*
X30764369Y-40830575D01*
X30764368Y-40830575D01*
X30877091Y-40957812D01*
X30877098Y-40957818D01*
X31016992Y-41054379D01*
X31175937Y-41114660D01*
X31302356Y-41130010D01*
X31494690Y-41130010D01*
X31494690Y-40730010D01*
X31794690Y-40730010D01*
X31794690Y-41130010D01*
X31987023Y-41130010D01*
X32113442Y-41114660D01*
X32272387Y-41054379D01*
X32310349Y-41028177D01*
X32383001Y-41002285D01*
X32458866Y-41016188D01*
X32517615Y-41066161D01*
X32543507Y-41138813D01*
X32543990Y-41150802D01*
X32543990Y-42126852D01*
X32533935Y-42180659D01*
X32427574Y-42455312D01*
X32426211Y-42458597D01*
X32304667Y-42732829D01*
X32302706Y-42736914D01*
X32184047Y-42965947D01*
X32181117Y-42971091D01*
X32147171Y-43025542D01*
X32123388Y-43054706D01*
X32075920Y-43099828D01*
X31964089Y-43260501D01*
X31936741Y-43324228D01*
X31934037Y-43329865D01*
X31928839Y-43339625D01*
X31925399Y-43348834D01*
X31925219Y-43348766D01*
X31922059Y-43358442D01*
X31886894Y-43440388D01*
X31847490Y-43632129D01*
X31847490Y-44450510D01*
X31827528Y-44525010D01*
X31772990Y-44579548D01*
X31698490Y-44599510D01*
X31047213Y-44599510D01*
X30972713Y-44579548D01*
X30918175Y-44525010D01*
X30898213Y-44450510D01*
X30918175Y-44376010D01*
X30942463Y-44346017D01*
X30942135Y-44345722D01*
X30947357Y-44339921D01*
X30947361Y-44339918D01*
X31059366Y-44185757D01*
X31136871Y-44011677D01*
X31176490Y-43825287D01*
X31176490Y-43634733D01*
X31136871Y-43448343D01*
X31059366Y-43274264D01*
X30988935Y-43177324D01*
X30947366Y-43120108D01*
X30947363Y-43120105D01*
X30947361Y-43120102D01*
X30860217Y-43041637D01*
X30805753Y-42992597D01*
X30640729Y-42897320D01*
X30640727Y-42897319D01*
X30459497Y-42838434D01*
X30317498Y-42823510D01*
X30317496Y-42823510D01*
X30222484Y-42823510D01*
X30222482Y-42823510D01*
X30080482Y-42838434D01*
X29899252Y-42897319D01*
X29899250Y-42897320D01*
X29734226Y-42992597D01*
X29649190Y-43069165D01*
X29580468Y-43104180D01*
X29503446Y-43100143D01*
X29438761Y-43058136D01*
X29403746Y-42989414D01*
X29400490Y-42958436D01*
X29400490Y-31940010D01*
X30660713Y-31940010D01*
X30685372Y-32040058D01*
X30764369Y-32190575D01*
X30764368Y-32190575D01*
X30877091Y-32317812D01*
X30877098Y-32317818D01*
X31016992Y-32414379D01*
X31175937Y-32474660D01*
X31302356Y-32490010D01*
X31494690Y-32490010D01*
X31494690Y-32090010D01*
X31794690Y-32090010D01*
X31794690Y-32490010D01*
X31987023Y-32490010D01*
X32113442Y-32474660D01*
X32272387Y-32414379D01*
X32412281Y-32317818D01*
X32412288Y-32317812D01*
X32525010Y-32190575D01*
X32604007Y-32040058D01*
X32628667Y-31940010D01*
X32207347Y-31940010D01*
X32217891Y-31926048D01*
X32248585Y-31818170D01*
X32238236Y-31706489D01*
X32205133Y-31640010D01*
X32628666Y-31640010D01*
X32604007Y-31539961D01*
X32525010Y-31389444D01*
X32525011Y-31389444D01*
X32412288Y-31262207D01*
X32412281Y-31262201D01*
X32272387Y-31165640D01*
X32113442Y-31105359D01*
X31987024Y-31090010D01*
X31794690Y-31090010D01*
X31794690Y-31490010D01*
X31494690Y-31490010D01*
X31494690Y-31090010D01*
X31302356Y-31090010D01*
X31175937Y-31105359D01*
X31016992Y-31165640D01*
X30877098Y-31262201D01*
X30877091Y-31262207D01*
X30764369Y-31389444D01*
X30685372Y-31539961D01*
X30660713Y-31640010D01*
X31082033Y-31640010D01*
X31071489Y-31653972D01*
X31040795Y-31761850D01*
X31051144Y-31873531D01*
X31084247Y-31940010D01*
X30660713Y-31940010D01*
X29400490Y-31940010D01*
X29400490Y-29261583D01*
X29420452Y-29187083D01*
X29474990Y-29132545D01*
X29549490Y-29112583D01*
X29623990Y-29132545D01*
X29649187Y-29150852D01*
X29734228Y-29227423D01*
X29899252Y-29322700D01*
X30080480Y-29381585D01*
X30151482Y-29389047D01*
X30222482Y-29396510D01*
X30222484Y-29396510D01*
X30317498Y-29396510D01*
X30374297Y-29390540D01*
X30459500Y-29381585D01*
X30640728Y-29322700D01*
X30805752Y-29227423D01*
X30947361Y-29099918D01*
X31059366Y-28945757D01*
X31136871Y-28771677D01*
X31176490Y-28585287D01*
X31176490Y-28394733D01*
X31136871Y-28208343D01*
X31059366Y-28034264D01*
X30964277Y-27903385D01*
X30947366Y-27880108D01*
X30942135Y-27874299D01*
X30943095Y-27873434D01*
X30905506Y-27815556D01*
X30901468Y-27738534D01*
X30936483Y-27669812D01*
X31001167Y-27627803D01*
X31047213Y-27620510D01*
X31698490Y-27620510D01*
X31772990Y-27640472D01*
G37*
G04 #@! TD.AperFunction*
G04 #@! TA.AperFunction,Conductor*
G36*
X38753884Y-34459972D02*
G01*
X38808422Y-34514510D01*
X38828384Y-34589010D01*
X38814919Y-34650907D01*
X38806302Y-34669774D01*
X38787867Y-34797996D01*
X38787867Y-34798003D01*
X38806302Y-34926223D01*
X38860118Y-35044064D01*
X38898686Y-35088574D01*
X38944951Y-35141967D01*
X39053931Y-35212004D01*
X39057576Y-35213074D01*
X39063011Y-35214670D01*
X39087580Y-35225101D01*
X39087655Y-35224934D01*
X39094336Y-35227912D01*
X39094340Y-35227913D01*
X39094343Y-35227915D01*
X39167678Y-35252311D01*
X39189769Y-35259660D01*
X39195866Y-35261481D01*
X39201353Y-35262936D01*
X39202620Y-35263273D01*
X39208644Y-35264678D01*
X39288712Y-35280830D01*
X39310882Y-35285911D01*
X39373471Y-35317088D01*
X39385038Y-35326811D01*
X39410146Y-35347917D01*
X39410148Y-35347918D01*
X39410305Y-35348009D01*
X39410502Y-35348123D01*
X39411151Y-35348621D01*
X39415486Y-35351662D01*
X39415354Y-35351849D01*
X39441282Y-35371756D01*
X40424187Y-36354661D01*
X40462751Y-36421456D01*
X40462751Y-36498584D01*
X40424187Y-36565379D01*
X40393338Y-36589052D01*
X40299514Y-36643230D01*
X40225691Y-36717066D01*
X40173500Y-36807480D01*
X40146486Y-36908327D01*
X40146485Y-36908331D01*
X40146490Y-36955215D01*
X40146490Y-36965010D01*
X40126528Y-37039510D01*
X40071990Y-37094048D01*
X39997490Y-37114010D01*
X39756637Y-37114010D01*
X39725944Y-37110814D01*
X39716819Y-37108893D01*
X39715395Y-37108877D01*
X39638860Y-37108022D01*
X39633975Y-37107807D01*
X39591635Y-37104550D01*
X39581624Y-37103091D01*
X39557741Y-37097938D01*
X39548658Y-37095366D01*
X39505021Y-37079969D01*
X39501592Y-37078663D01*
X39427252Y-37048238D01*
X39427246Y-37048236D01*
X39416744Y-37046171D01*
X39410132Y-37044554D01*
X39307776Y-37014501D01*
X39307774Y-37014500D01*
X39307772Y-37014500D01*
X39178228Y-37014500D01*
X39053931Y-37050996D01*
X39053928Y-37050997D01*
X39053927Y-37050998D01*
X38944955Y-37121030D01*
X38944952Y-37121031D01*
X38944951Y-37121033D01*
X38944949Y-37121034D01*
X38944948Y-37121036D01*
X38860118Y-37218935D01*
X38806302Y-37336776D01*
X38787867Y-37464996D01*
X38787867Y-37465003D01*
X38806302Y-37593223D01*
X38806302Y-37593224D01*
X38806303Y-37593226D01*
X38818645Y-37620250D01*
X38860118Y-37711064D01*
X38915282Y-37774727D01*
X38944951Y-37808967D01*
X39053931Y-37879004D01*
X39178228Y-37915500D01*
X39178231Y-37915500D01*
X39307769Y-37915500D01*
X39307772Y-37915500D01*
X39432069Y-37879004D01*
X39442434Y-37872342D01*
X39450864Y-37867665D01*
X39455920Y-37865272D01*
X39455934Y-37865268D01*
X39549063Y-37809431D01*
X39560817Y-37801219D01*
X39574502Y-37790162D01*
X39574501Y-37790162D01*
X39574507Y-37790158D01*
X39574506Y-37790158D01*
X39585004Y-37780390D01*
X39585005Y-37780389D01*
X39619209Y-37743798D01*
X39652781Y-37707883D01*
X39657152Y-37702916D01*
X39657755Y-37702185D01*
X39720597Y-37657471D01*
X39743509Y-37651409D01*
X39743491Y-37651332D01*
X39747401Y-37650379D01*
X39748785Y-37650013D01*
X39749149Y-37649955D01*
X39749150Y-37649954D01*
X39754906Y-37649022D01*
X39754967Y-37649400D01*
X39783228Y-37646010D01*
X40258490Y-37646010D01*
X40332990Y-37665972D01*
X40387528Y-37720510D01*
X40407490Y-37795010D01*
X40407490Y-37830168D01*
X40407492Y-37830220D01*
X40407494Y-37846623D01*
X40407494Y-37851727D01*
X40434518Y-37952561D01*
X40486717Y-38042967D01*
X40560533Y-38116783D01*
X40650939Y-38168982D01*
X40751773Y-38196006D01*
X40803970Y-38196010D01*
X40850873Y-38196013D01*
X40850873Y-38196012D01*
X40856020Y-38196013D01*
X40856166Y-38195994D01*
X40856166Y-38195993D01*
X40856168Y-38195994D01*
X40957011Y-38168981D01*
X40999151Y-38144656D01*
X41047423Y-38116791D01*
X41047423Y-38116790D01*
X41047426Y-38116789D01*
X41121252Y-38042975D01*
X41173458Y-37952568D01*
X41200486Y-37851729D01*
X41200486Y-37851726D01*
X41201762Y-37842045D01*
X41205121Y-37842487D01*
X41220448Y-37785286D01*
X41274986Y-37730748D01*
X41349486Y-37710786D01*
X41423986Y-37730748D01*
X41454845Y-37754427D01*
X41500116Y-37799698D01*
X41518647Y-37822279D01*
X41525331Y-37832283D01*
X41525333Y-37832285D01*
X41544724Y-37845242D01*
X41544733Y-37845249D01*
X41554432Y-37851729D01*
X41567745Y-37860624D01*
X41577708Y-37867281D01*
X41613318Y-37891075D01*
X41613319Y-37891075D01*
X41613320Y-37891076D01*
X41690911Y-37906510D01*
X41717108Y-37911721D01*
X41717109Y-37911721D01*
X41728913Y-37909373D01*
X41757981Y-37906510D01*
X43877896Y-37906510D01*
X43952396Y-37926472D01*
X44006934Y-37981010D01*
X44026896Y-38055510D01*
X44015555Y-38112529D01*
X44013129Y-38118383D01*
X44013129Y-38118385D01*
X43966255Y-38231552D01*
X43957658Y-38252307D01*
X43938740Y-38396007D01*
X43938740Y-38396012D01*
X43957658Y-38539716D01*
X44013128Y-38673635D01*
X44047703Y-38718693D01*
X44101369Y-38788631D01*
X44122376Y-38804750D01*
X44216364Y-38876871D01*
X44350283Y-38932341D01*
X44493987Y-38951260D01*
X44493990Y-38951260D01*
X44493993Y-38951260D01*
X44637696Y-38932341D01*
X44637698Y-38932340D01*
X44637699Y-38932340D01*
X44771615Y-38876871D01*
X44886611Y-38788631D01*
X44974851Y-38673635D01*
X45030320Y-38539719D01*
X45030320Y-38539718D01*
X45030321Y-38539716D01*
X45049240Y-38396012D01*
X45049240Y-38396007D01*
X45030321Y-38252307D01*
X45030320Y-38252306D01*
X45030320Y-38252301D01*
X44974851Y-38118385D01*
X44974850Y-38118383D01*
X44972425Y-38112529D01*
X44962359Y-38036060D01*
X44991875Y-37964804D01*
X45053065Y-37917851D01*
X45110084Y-37906510D01*
X48000190Y-37906510D01*
X48074690Y-37926472D01*
X48105549Y-37950151D01*
X48233259Y-38077861D01*
X48271823Y-38144656D01*
X48271823Y-38221784D01*
X48246659Y-38269208D01*
X48247867Y-38269985D01*
X48242108Y-38278945D01*
X48237586Y-38288846D01*
X48235446Y-38293534D01*
X48235224Y-38294020D01*
X48231060Y-38301863D01*
X48223614Y-38314073D01*
X48219757Y-38320982D01*
X48217156Y-38326096D01*
X48215291Y-38329854D01*
X48215069Y-38330823D01*
X48205392Y-38359340D01*
X48188292Y-38396783D01*
X48188292Y-38396784D01*
X48169857Y-38525006D01*
X48169857Y-38525013D01*
X48188292Y-38653235D01*
X48231622Y-38748113D01*
X48244412Y-38824173D01*
X48217459Y-38896438D01*
X48157984Y-38945545D01*
X48096087Y-38959010D01*
X46499863Y-38959010D01*
X46470795Y-38956147D01*
X46458991Y-38953799D01*
X46458990Y-38953799D01*
X46432793Y-38959010D01*
X46355203Y-38974443D01*
X46355200Y-38974444D01*
X46267213Y-39033236D01*
X46260523Y-39043248D01*
X46241998Y-39065820D01*
X42810800Y-42497018D01*
X42788228Y-42515543D01*
X42778215Y-42522233D01*
X42723722Y-42603787D01*
X42719426Y-42610216D01*
X42719424Y-42610221D01*
X42703736Y-42689088D01*
X42669622Y-42758261D01*
X42664825Y-42763475D01*
X42635289Y-42794087D01*
X42628922Y-42799961D01*
X42581628Y-42838758D01*
X42550098Y-42856856D01*
X42550704Y-42858091D01*
X42543922Y-42861417D01*
X42377801Y-42964961D01*
X42377795Y-42964966D01*
X42324859Y-43015285D01*
X42319448Y-43019955D01*
X42315458Y-43023078D01*
X42315072Y-43023381D01*
X42310553Y-43027157D01*
X42304993Y-43031802D01*
X42298505Y-43038814D01*
X42298350Y-43038671D01*
X42289377Y-43049014D01*
X42235920Y-43099829D01*
X42124090Y-43260500D01*
X42046895Y-43440385D01*
X42046895Y-43440387D01*
X42007490Y-43632129D01*
X42007490Y-44450510D01*
X41987528Y-44525010D01*
X41932990Y-44579548D01*
X41858490Y-44599510D01*
X41541490Y-44599510D01*
X41466990Y-44579548D01*
X41412452Y-44525010D01*
X41392490Y-44450510D01*
X41392490Y-43681185D01*
X41377650Y-43535264D01*
X41377650Y-43535263D01*
X41377650Y-43535261D01*
X41333304Y-43393920D01*
X41319049Y-43348484D01*
X41224049Y-43177329D01*
X41224045Y-43177323D01*
X41096544Y-43028802D01*
X41096540Y-43028798D01*
X40941744Y-42908976D01*
X40765996Y-42822769D01*
X40652683Y-42793430D01*
X40576491Y-42773702D01*
X40576492Y-42773702D01*
X40504533Y-42770053D01*
X40380989Y-42763788D01*
X40380988Y-42763788D01*
X40380986Y-42763788D01*
X40187493Y-42793429D01*
X40003927Y-42861415D01*
X40003925Y-42861416D01*
X39837798Y-42964963D01*
X39695918Y-43099832D01*
X39584090Y-43260500D01*
X39506895Y-43440385D01*
X39506895Y-43440387D01*
X39467490Y-43632129D01*
X39467490Y-44450510D01*
X39447528Y-44525010D01*
X39392990Y-44579548D01*
X39318490Y-44599510D01*
X39001490Y-44599510D01*
X38926990Y-44579548D01*
X38872452Y-44525010D01*
X38852490Y-44450510D01*
X38852490Y-43681185D01*
X38837650Y-43535264D01*
X38837650Y-43535263D01*
X38837650Y-43535261D01*
X38793304Y-43393920D01*
X38779049Y-43348484D01*
X38684049Y-43177329D01*
X38684045Y-43177323D01*
X38556544Y-43028802D01*
X38556540Y-43028798D01*
X38401744Y-42908976D01*
X38225996Y-42822769D01*
X38112683Y-42793430D01*
X38036491Y-42773702D01*
X38036492Y-42773702D01*
X37964533Y-42770053D01*
X37840989Y-42763788D01*
X37840988Y-42763788D01*
X37840986Y-42763788D01*
X37740682Y-42779154D01*
X37673038Y-42773888D01*
X37468193Y-42708862D01*
X37458769Y-42705148D01*
X37226654Y-42594936D01*
X37218792Y-42590605D01*
X36982609Y-42441293D01*
X36956869Y-42420709D01*
X36201981Y-41665821D01*
X36183451Y-41643242D01*
X36176765Y-41633235D01*
X36147302Y-41613548D01*
X36088779Y-41574444D01*
X36088776Y-41574443D01*
X36011187Y-41559010D01*
X35984990Y-41553799D01*
X35984989Y-41553799D01*
X35973185Y-41556147D01*
X35944117Y-41559010D01*
X35267889Y-41559010D01*
X35193389Y-41539048D01*
X35162530Y-41515369D01*
X35019582Y-41372421D01*
X34981018Y-41305626D01*
X34981018Y-41228498D01*
X35019582Y-41161703D01*
X35086377Y-41123139D01*
X35142901Y-41119148D01*
X35232356Y-41130010D01*
X35674690Y-41130010D01*
X35674690Y-40730010D01*
X35974690Y-40730010D01*
X35974690Y-41130010D01*
X36417023Y-41130010D01*
X36543442Y-41114660D01*
X36702387Y-41054379D01*
X36842281Y-40957818D01*
X36842287Y-40957813D01*
X36887369Y-40906926D01*
X36951713Y-40864398D01*
X37028701Y-40859741D01*
X37097702Y-40894201D01*
X37124244Y-40925174D01*
X37126105Y-40928070D01*
X37151877Y-40957813D01*
X37210941Y-41025977D01*
X37319921Y-41096014D01*
X37444218Y-41132510D01*
X37444221Y-41132510D01*
X37573759Y-41132510D01*
X37573762Y-41132510D01*
X37698059Y-41096014D01*
X37807039Y-41025977D01*
X37891872Y-40928073D01*
X37945687Y-40810236D01*
X37958798Y-40719046D01*
X37964123Y-40682013D01*
X37964123Y-40682006D01*
X37945687Y-40553786D01*
X37945687Y-40553784D01*
X37891872Y-40435947D01*
X37891871Y-40435946D01*
X37891871Y-40435945D01*
X37814357Y-40346489D01*
X37807039Y-40338043D01*
X37698059Y-40268006D01*
X37573762Y-40231510D01*
X37444218Y-40231510D01*
X37319921Y-40268006D01*
X37319918Y-40268007D01*
X37319915Y-40268009D01*
X37267179Y-40301900D01*
X37193713Y-40325383D01*
X37118348Y-40308987D01*
X37061278Y-40257105D01*
X37041956Y-40212211D01*
X37034007Y-40179963D01*
X37034005Y-40179956D01*
X36955010Y-40029444D01*
X36955011Y-40029444D01*
X36842288Y-39902207D01*
X36842281Y-39902201D01*
X36702387Y-39805640D01*
X36543442Y-39745359D01*
X36417024Y-39730010D01*
X35974690Y-39730010D01*
X35974690Y-40130010D01*
X35674690Y-40130010D01*
X35674690Y-39722742D01*
X35646054Y-39673143D01*
X35646054Y-39596015D01*
X35684618Y-39529220D01*
X35702393Y-39514038D01*
X35746977Y-39481647D01*
X35852546Y-39354036D01*
X35923063Y-39204181D01*
X35954096Y-39041496D01*
X35943697Y-38876205D01*
X35892518Y-38718693D01*
X35803776Y-38578858D01*
X35683046Y-38465484D01*
X35683043Y-38465482D01*
X35537912Y-38385696D01*
X35377500Y-38344510D01*
X35377499Y-38344510D01*
X35253448Y-38344510D01*
X35253445Y-38344510D01*
X35130377Y-38360057D01*
X34976388Y-38421026D01*
X34842406Y-38518370D01*
X34842399Y-38518377D01*
X34736836Y-38645979D01*
X34736830Y-38645990D01*
X34666318Y-38795834D01*
X34663422Y-38804750D01*
X34659961Y-38803625D01*
X34634164Y-38856545D01*
X34570231Y-38899687D01*
X34493291Y-38905082D01*
X34423962Y-38871285D01*
X34416334Y-38864173D01*
X33539131Y-37986970D01*
X33500567Y-37920175D01*
X33495490Y-37881611D01*
X33495490Y-36790470D01*
X33515452Y-36715970D01*
X33569990Y-36661432D01*
X33644490Y-36641470D01*
X33672584Y-36645169D01*
X33672598Y-36645066D01*
X33825987Y-36665260D01*
X33825990Y-36665260D01*
X33825993Y-36665260D01*
X33969696Y-36646341D01*
X33969698Y-36646340D01*
X33969699Y-36646340D01*
X34103615Y-36590871D01*
X34218611Y-36502631D01*
X34302832Y-36392873D01*
X34306159Y-36388537D01*
X34367349Y-36341585D01*
X34443817Y-36331518D01*
X34515074Y-36361034D01*
X34562026Y-36422224D01*
X34570385Y-36449579D01*
X34585846Y-36525683D01*
X34587246Y-36531656D01*
X34589031Y-36538357D01*
X34590840Y-36544405D01*
X34623695Y-36643019D01*
X34625144Y-36646933D01*
X34625148Y-36646940D01*
X34633947Y-36660720D01*
X34638928Y-36669875D01*
X34669616Y-36737070D01*
X34669621Y-36737078D01*
X34701742Y-36774148D01*
X34735443Y-36843524D01*
X34729940Y-36920455D01*
X34701743Y-36969293D01*
X34669121Y-37006941D01*
X34669118Y-37006945D01*
X34615302Y-37124786D01*
X34596867Y-37253006D01*
X34596867Y-37253013D01*
X34615302Y-37381233D01*
X34615302Y-37381234D01*
X34615303Y-37381236D01*
X34626078Y-37404829D01*
X34669118Y-37499074D01*
X34704831Y-37540289D01*
X34753951Y-37596977D01*
X34862931Y-37667014D01*
X34987228Y-37703510D01*
X34987231Y-37703510D01*
X35116769Y-37703510D01*
X35116772Y-37703510D01*
X35241069Y-37667014D01*
X35350049Y-37596977D01*
X35434882Y-37499073D01*
X35467594Y-37427441D01*
X35470606Y-37421560D01*
X35481892Y-37401756D01*
X35513642Y-37306451D01*
X35515428Y-37300494D01*
X35517217Y-37293796D01*
X35517218Y-37293794D01*
X35518640Y-37287736D01*
X35518641Y-37287733D01*
X35534888Y-37207771D01*
X35540034Y-37185510D01*
X35571190Y-37123151D01*
X35602207Y-37086285D01*
X35602443Y-37085876D01*
X35603032Y-37085109D01*
X35605949Y-37080954D01*
X35606127Y-37081079D01*
X35626050Y-37055138D01*
X35726691Y-36954497D01*
X35749267Y-36935971D01*
X35759275Y-36929285D01*
X35818066Y-36841298D01*
X35828995Y-36786353D01*
X35838711Y-36737510D01*
X35838623Y-36737070D01*
X35836363Y-36725704D01*
X35833500Y-36696637D01*
X35833500Y-36285382D01*
X35836363Y-36256312D01*
X35836879Y-36253719D01*
X35838711Y-36244510D01*
X35818066Y-36140722D01*
X35818065Y-36140720D01*
X35803689Y-36119205D01*
X35759274Y-36052734D01*
X35749266Y-36046047D01*
X35726687Y-36027517D01*
X35626116Y-35926946D01*
X35606914Y-35901381D01*
X35606348Y-35901770D01*
X35602210Y-35895740D01*
X35602208Y-35895735D01*
X35571187Y-35858863D01*
X35540034Y-35796506D01*
X35534887Y-35774246D01*
X35518642Y-35694284D01*
X35517217Y-35688221D01*
X35515428Y-35681523D01*
X35513641Y-35675566D01*
X35513640Y-35675561D01*
X35480820Y-35577043D01*
X35479367Y-35573119D01*
X35479364Y-35573113D01*
X35470568Y-35559336D01*
X35465592Y-35550192D01*
X35434882Y-35482947D01*
X35402506Y-35445583D01*
X35368807Y-35376208D01*
X35374309Y-35299277D01*
X35402507Y-35250436D01*
X35407892Y-35244222D01*
X35434882Y-35213073D01*
X35488697Y-35095236D01*
X35499473Y-35020290D01*
X35507133Y-34967013D01*
X35507133Y-34967008D01*
X35498464Y-34906716D01*
X35507620Y-34830133D01*
X35553841Y-34768388D01*
X35624741Y-34738027D01*
X35645947Y-34736510D01*
X36813617Y-34736510D01*
X36842686Y-34739373D01*
X36854490Y-34741721D01*
X36958278Y-34721076D01*
X36975489Y-34709576D01*
X37046265Y-34662285D01*
X37052955Y-34652271D01*
X37071474Y-34629704D01*
X37217531Y-34483649D01*
X37284325Y-34445087D01*
X37322888Y-34440010D01*
X38679384Y-34440010D01*
X38753884Y-34459972D01*
G37*
G04 #@! TD.AperFunction*
G04 #@! TA.AperFunction,Conductor*
G36*
X54412350Y-29699549D02*
G01*
X54450913Y-29766344D01*
X54455990Y-29804907D01*
X54455990Y-44450510D01*
X54436028Y-44525010D01*
X54381490Y-44579548D01*
X54306990Y-44599510D01*
X54240990Y-44599510D01*
X54166490Y-44579548D01*
X54111952Y-44525010D01*
X54091990Y-44450510D01*
X54091990Y-43742142D01*
X53310262Y-44523869D01*
X53274582Y-44507575D01*
X53166324Y-44492010D01*
X53093656Y-44492010D01*
X52985398Y-44507575D01*
X52949717Y-44523869D01*
X52167990Y-43742142D01*
X52167990Y-44450510D01*
X52148028Y-44525010D01*
X52093490Y-44579548D01*
X52018990Y-44599510D01*
X51701490Y-44599510D01*
X51626990Y-44579548D01*
X51572452Y-44525010D01*
X51552490Y-44450510D01*
X51552490Y-43681185D01*
X51537650Y-43535264D01*
X51537650Y-43535263D01*
X51537650Y-43535261D01*
X51493304Y-43393920D01*
X51489648Y-43382268D01*
X52232380Y-43382268D01*
X52621990Y-43771878D01*
X52621990Y-43803049D01*
X52663145Y-43943211D01*
X52742121Y-44066100D01*
X52852520Y-44161762D01*
X52985398Y-44222445D01*
X53087192Y-44237080D01*
X53129989Y-44279877D01*
X53172784Y-44237081D01*
X53274582Y-44222445D01*
X53407460Y-44161762D01*
X53517859Y-44066100D01*
X53596835Y-43943211D01*
X53637990Y-43803049D01*
X53637990Y-43771876D01*
X54028759Y-43381107D01*
X54018587Y-43348686D01*
X54018581Y-43348673D01*
X53923638Y-43177620D01*
X53923635Y-43177616D01*
X53796190Y-43029160D01*
X53641482Y-42909406D01*
X53465820Y-42823239D01*
X53276416Y-42774200D01*
X53081011Y-42764290D01*
X52887623Y-42793916D01*
X52887621Y-42793916D01*
X52704151Y-42861865D01*
X52704148Y-42861866D01*
X52538109Y-42965359D01*
X52396299Y-43100159D01*
X52284531Y-43260740D01*
X52232380Y-43382268D01*
X51489648Y-43382268D01*
X51479049Y-43348484D01*
X51384049Y-43177329D01*
X51384045Y-43177323D01*
X51256544Y-43028802D01*
X51256540Y-43028798D01*
X51101744Y-42908976D01*
X50925996Y-42822769D01*
X50736491Y-42773702D01*
X50736493Y-42773702D01*
X50664552Y-42770053D01*
X50625481Y-42762763D01*
X50522361Y-42728791D01*
X50502686Y-42720710D01*
X50430489Y-42684832D01*
X50317317Y-42628591D01*
X50309234Y-42623922D01*
X50112574Y-42493252D01*
X50106152Y-42488469D01*
X49902128Y-42318732D01*
X49896807Y-42315035D01*
X49896999Y-42314757D01*
X49871133Y-42294973D01*
X49121481Y-41545321D01*
X49102951Y-41522742D01*
X49096265Y-41512735D01*
X49042802Y-41477012D01*
X49008279Y-41453944D01*
X49008276Y-41453943D01*
X48930687Y-41438510D01*
X48904490Y-41433299D01*
X48904489Y-41433299D01*
X48892685Y-41435647D01*
X48863617Y-41438510D01*
X47647192Y-41438510D01*
X47623554Y-41436623D01*
X47607848Y-41434099D01*
X47576122Y-41435274D01*
X47551370Y-41433299D01*
X47545488Y-41433299D01*
X47537941Y-41434800D01*
X47514392Y-41437561D01*
X47499577Y-41438109D01*
X47495390Y-41438265D01*
X47488857Y-41438716D01*
X47481606Y-41439449D01*
X47475110Y-41440315D01*
X47383318Y-41455556D01*
X47374852Y-41457330D01*
X47364511Y-41459957D01*
X47365800Y-41459572D01*
X47288703Y-41461775D01*
X47220834Y-41425134D01*
X47180378Y-41359468D01*
X47178175Y-41282371D01*
X47187604Y-41254916D01*
X47216687Y-41191236D01*
X47221296Y-41159179D01*
X47235123Y-41063013D01*
X47235123Y-41063006D01*
X47216687Y-40934786D01*
X47216687Y-40934784D01*
X47162872Y-40816947D01*
X47162871Y-40816946D01*
X47162871Y-40816945D01*
X47103426Y-40748342D01*
X47078039Y-40719043D01*
X46969059Y-40649006D01*
X46844762Y-40612510D01*
X46715218Y-40612510D01*
X46590921Y-40649006D01*
X46590918Y-40649007D01*
X46590917Y-40649008D01*
X46481945Y-40719040D01*
X46481942Y-40719041D01*
X46481941Y-40719043D01*
X46481939Y-40719044D01*
X46481938Y-40719046D01*
X46397108Y-40816945D01*
X46343292Y-40934786D01*
X46324857Y-41063006D01*
X46324857Y-41063013D01*
X46343292Y-41191233D01*
X46397108Y-41309074D01*
X46440775Y-41359468D01*
X46481941Y-41406977D01*
X46590921Y-41477014D01*
X46715218Y-41513510D01*
X46715221Y-41513510D01*
X46749183Y-41513510D01*
X46823683Y-41533472D01*
X46878221Y-41588010D01*
X46898183Y-41662510D01*
X46878221Y-41737010D01*
X46872646Y-41744837D01*
X46872870Y-41744981D01*
X46867108Y-41753945D01*
X46813292Y-41871786D01*
X46794857Y-42000006D01*
X46794857Y-42000013D01*
X46813292Y-42128233D01*
X46813292Y-42128234D01*
X46813293Y-42128236D01*
X46831910Y-42169001D01*
X46867108Y-42246074D01*
X46894032Y-42277146D01*
X46951941Y-42343977D01*
X47060921Y-42414014D01*
X47185218Y-42450510D01*
X47185221Y-42450510D01*
X47314759Y-42450510D01*
X47314762Y-42450510D01*
X47439059Y-42414014D01*
X47460524Y-42400218D01*
X47533987Y-42376735D01*
X47609352Y-42393129D01*
X47659415Y-42438637D01*
X47660129Y-42438019D01*
X47665302Y-42443989D01*
X47666424Y-42445009D01*
X47666425Y-42445010D01*
X47667107Y-42446071D01*
X47667108Y-42446073D01*
X47751941Y-42543977D01*
X47751943Y-42543978D01*
X47751944Y-42543979D01*
X47767363Y-42553888D01*
X47819244Y-42610958D01*
X47835639Y-42686324D01*
X47812155Y-42759790D01*
X47755085Y-42811671D01*
X47738557Y-42818960D01*
X47623927Y-42861415D01*
X47623925Y-42861416D01*
X47457798Y-42964963D01*
X47315918Y-43099832D01*
X47204090Y-43260500D01*
X47126895Y-43440385D01*
X47126895Y-43440387D01*
X47087490Y-43632129D01*
X47087490Y-44450510D01*
X47067528Y-44525010D01*
X47012990Y-44579548D01*
X46938490Y-44599510D01*
X46621490Y-44599510D01*
X46546990Y-44579548D01*
X46492452Y-44525010D01*
X46472490Y-44450510D01*
X46472490Y-43681185D01*
X46457650Y-43535264D01*
X46457650Y-43535263D01*
X46457650Y-43535261D01*
X46413304Y-43393920D01*
X46399049Y-43348484D01*
X46304049Y-43177329D01*
X46304045Y-43177323D01*
X46177016Y-43029352D01*
X46163660Y-43011173D01*
X46138630Y-42971054D01*
X46135697Y-42965909D01*
X46016941Y-42736869D01*
X46014988Y-42732805D01*
X45893345Y-42458559D01*
X45891992Y-42455302D01*
X45785558Y-42180659D01*
X45775490Y-42126818D01*
X45775490Y-40853701D01*
X45795452Y-40779201D01*
X45819131Y-40748342D01*
X46771822Y-39795651D01*
X46838617Y-39757087D01*
X46877181Y-39752010D01*
X48847662Y-39752010D01*
X48876731Y-39754873D01*
X48878258Y-39755176D01*
X48888490Y-39757212D01*
X48992083Y-39736605D01*
X49057738Y-39692736D01*
X49079390Y-39678269D01*
X49092104Y-39669774D01*
X49092110Y-39669769D01*
X49101102Y-39663760D01*
X49117496Y-39633090D01*
X49120888Y-39629585D01*
X49187324Y-39563150D01*
X49254119Y-39524587D01*
X49292682Y-39519510D01*
X49630162Y-39519510D01*
X49659231Y-39522373D01*
X49660758Y-39522676D01*
X49670990Y-39524712D01*
X49774583Y-39504105D01*
X49840238Y-39460236D01*
X49840237Y-39460236D01*
X49862405Y-39445425D01*
X49862406Y-39445422D01*
X49874602Y-39437275D01*
X49874610Y-39437269D01*
X49883601Y-39431260D01*
X49899998Y-39400587D01*
X49903357Y-39397115D01*
X50320364Y-38980108D01*
X50342934Y-38961586D01*
X50352905Y-38954925D01*
X50353658Y-38953799D01*
X50367995Y-38932341D01*
X50411585Y-38867103D01*
X50420369Y-38822944D01*
X50432192Y-38763510D01*
X50429853Y-38751751D01*
X50426990Y-38722682D01*
X50426990Y-38645481D01*
X50446952Y-38570981D01*
X50501490Y-38516443D01*
X50575990Y-38496481D01*
X50650490Y-38516443D01*
X50656500Y-38520106D01*
X50685921Y-38539014D01*
X50810218Y-38575510D01*
X50810221Y-38575510D01*
X50939759Y-38575510D01*
X50939762Y-38575510D01*
X51064059Y-38539014D01*
X51173039Y-38468977D01*
X51257872Y-38371073D01*
X51290584Y-38299441D01*
X51293596Y-38293560D01*
X51304882Y-38273756D01*
X51336632Y-38178451D01*
X51338418Y-38172494D01*
X51340207Y-38165796D01*
X51340208Y-38165794D01*
X51341630Y-38159736D01*
X51350356Y-38116791D01*
X51357878Y-38079771D01*
X51363024Y-38057512D01*
X51394178Y-37995152D01*
X51425197Y-37958285D01*
X51425430Y-37957881D01*
X51426013Y-37957122D01*
X51428948Y-37952942D01*
X51429127Y-37953067D01*
X51449040Y-37927139D01*
X51519185Y-37856994D01*
X51541754Y-37838473D01*
X51551765Y-37831785D01*
X51566702Y-37809431D01*
X51567015Y-37808963D01*
X51586105Y-37780393D01*
X51610553Y-37743802D01*
X51610556Y-37743798D01*
X51625990Y-37666207D01*
X51625990Y-37666206D01*
X51626922Y-37661524D01*
X51631201Y-37640010D01*
X51631201Y-37640008D01*
X51628853Y-37628204D01*
X51625990Y-37599137D01*
X51625990Y-36212513D01*
X52507357Y-36212513D01*
X52525792Y-36340733D01*
X52525792Y-36340734D01*
X52525793Y-36340736D01*
X52547211Y-36387635D01*
X52579608Y-36458574D01*
X52634772Y-36522237D01*
X52664441Y-36556477D01*
X52773421Y-36626514D01*
X52897718Y-36663010D01*
X52897721Y-36663010D01*
X53027259Y-36663010D01*
X53027262Y-36663010D01*
X53151559Y-36626514D01*
X53260539Y-36556477D01*
X53345372Y-36458573D01*
X53399187Y-36340736D01*
X53417623Y-36212510D01*
X53417623Y-36212506D01*
X53399187Y-36084286D01*
X53399187Y-36084284D01*
X53345372Y-35966447D01*
X53345371Y-35966446D01*
X53345371Y-35966445D01*
X53288993Y-35901381D01*
X53260539Y-35868543D01*
X53151559Y-35798506D01*
X53027262Y-35762010D01*
X52897718Y-35762010D01*
X52773421Y-35798506D01*
X52773418Y-35798507D01*
X52773417Y-35798508D01*
X52664445Y-35868540D01*
X52664442Y-35868541D01*
X52664441Y-35868543D01*
X52664439Y-35868544D01*
X52664438Y-35868546D01*
X52579608Y-35966445D01*
X52525792Y-36084286D01*
X52507357Y-36212506D01*
X52507357Y-36212513D01*
X51625990Y-36212513D01*
X51625990Y-34532431D01*
X51645952Y-34457931D01*
X51669627Y-34427076D01*
X53809181Y-32287521D01*
X53831757Y-32268995D01*
X53841765Y-32262309D01*
X53900556Y-32174322D01*
X53915990Y-32096731D01*
X53921201Y-32070534D01*
X53918853Y-32058729D01*
X53915990Y-32029661D01*
X53915990Y-30645932D01*
X53920487Y-30614285D01*
X53919812Y-30614160D01*
X53921152Y-30606963D01*
X53921152Y-30606962D01*
X53921153Y-30606959D01*
X53925289Y-30558952D01*
X53947354Y-30492829D01*
X53959456Y-30473449D01*
X54004510Y-30405418D01*
X54007797Y-30400112D01*
X54011267Y-30394111D01*
X54014209Y-30388648D01*
X54058567Y-30299972D01*
X54060694Y-30295721D01*
X54061444Y-30294085D01*
X54062465Y-30291861D01*
X54063571Y-30286840D01*
X54073543Y-30257015D01*
X54086687Y-30228236D01*
X54102405Y-30118914D01*
X54105123Y-30100013D01*
X54105123Y-30100006D01*
X54086687Y-29971786D01*
X54086687Y-29971784D01*
X54082660Y-29962968D01*
X54069871Y-29886909D01*
X54096823Y-29814644D01*
X54112842Y-29795707D01*
X54113259Y-29795288D01*
X54113265Y-29795285D01*
X54119951Y-29785277D01*
X54138478Y-29762700D01*
X54201632Y-29699546D01*
X54268427Y-29660984D01*
X54345555Y-29660984D01*
X54412350Y-29699549D01*
G37*
G04 #@! TD.AperFunction*
G04 #@! TA.AperFunction,Conductor*
G36*
X51035063Y-31873375D02*
G01*
X51078295Y-31937248D01*
X51086490Y-31985983D01*
X51086490Y-32636317D01*
X51066528Y-32710817D01*
X51042849Y-32741676D01*
X50050118Y-33734406D01*
X50027546Y-33752931D01*
X50017577Y-33759592D01*
X50017572Y-33759597D01*
X49973080Y-33826187D01*
X49958895Y-33847416D01*
X49938288Y-33951010D01*
X49940627Y-33962768D01*
X49943490Y-33991838D01*
X49943490Y-35186076D01*
X49943131Y-35193384D01*
X49942990Y-35194814D01*
X49942990Y-35252311D01*
X49923028Y-35326811D01*
X49899349Y-35357670D01*
X49110000Y-36147018D01*
X49087428Y-36165543D01*
X49077416Y-36172233D01*
X49028469Y-36245488D01*
X49018624Y-36260221D01*
X49018624Y-36260222D01*
X48997979Y-36364009D01*
X49000327Y-36375812D01*
X49003190Y-36404882D01*
X49003190Y-37368018D01*
X48983228Y-37442518D01*
X48928690Y-37497056D01*
X48854190Y-37517018D01*
X48779690Y-37497056D01*
X48748831Y-37473377D01*
X48496593Y-37221139D01*
X48478061Y-37198557D01*
X48471405Y-37188595D01*
X48389150Y-37133635D01*
X48383583Y-37129915D01*
X48383582Y-37129914D01*
X48383581Y-37129914D01*
X48375117Y-37128231D01*
X48357789Y-37124784D01*
X48279990Y-37109308D01*
X48279989Y-37109308D01*
X48268231Y-37111647D01*
X48239162Y-37114510D01*
X41996702Y-37114510D01*
X41922202Y-37094548D01*
X41891343Y-37070869D01*
X41464843Y-36644369D01*
X41426279Y-36577574D01*
X41426279Y-36500446D01*
X41464843Y-36433651D01*
X41531638Y-36395087D01*
X41570202Y-36390010D01*
X45328117Y-36390010D01*
X45357186Y-36392873D01*
X45368990Y-36395221D01*
X45472778Y-36374576D01*
X45490426Y-36362784D01*
X45560765Y-36315785D01*
X45567451Y-36305777D01*
X45585977Y-36283201D01*
X46304184Y-35564995D01*
X46326759Y-35546470D01*
X46336765Y-35539785D01*
X46351846Y-35517216D01*
X46395556Y-35451798D01*
X46416201Y-35348010D01*
X46413853Y-35336205D01*
X46410990Y-35307137D01*
X46410990Y-34630908D01*
X46430952Y-34556408D01*
X46454631Y-34525549D01*
X47736159Y-33244021D01*
X48966072Y-32014108D01*
X49032865Y-31975546D01*
X49109993Y-31975546D01*
X49153058Y-31994819D01*
X49233916Y-32047774D01*
X49242116Y-32052617D01*
X49242122Y-32052620D01*
X49242125Y-32052622D01*
X49245447Y-32054382D01*
X49250850Y-32057541D01*
X49260921Y-32064014D01*
X49385218Y-32100510D01*
X49385221Y-32100510D01*
X49441357Y-32100510D01*
X49515857Y-32120472D01*
X49570395Y-32175010D01*
X49588840Y-32228305D01*
X49605411Y-32343560D01*
X49605411Y-32343561D01*
X49605412Y-32343563D01*
X49619545Y-32374510D01*
X49659227Y-32461401D01*
X49704610Y-32513776D01*
X49744060Y-32559304D01*
X49853040Y-32629341D01*
X49977337Y-32665837D01*
X49977340Y-32665837D01*
X50106878Y-32665837D01*
X50106881Y-32665837D01*
X50231178Y-32629341D01*
X50340158Y-32559304D01*
X50424991Y-32461400D01*
X50478806Y-32343563D01*
X50489528Y-32268990D01*
X50497242Y-32215340D01*
X50497242Y-32215334D01*
X50493598Y-32189990D01*
X50502754Y-32113408D01*
X50548975Y-32051663D01*
X50599099Y-32025821D01*
X50677459Y-32002814D01*
X50786439Y-31932777D01*
X50824883Y-31888408D01*
X50888755Y-31845178D01*
X50965687Y-31839675D01*
X51035063Y-31873375D01*
G37*
G04 #@! TD.AperFunction*
G04 #@! TA.AperFunction,Conductor*
G36*
X47013490Y-27640472D02*
G01*
X47068028Y-27695010D01*
X47087990Y-27769510D01*
X47087990Y-28477877D01*
X47869717Y-27696150D01*
X47905398Y-27712445D01*
X48013656Y-27728010D01*
X48086324Y-27728010D01*
X48145504Y-27719501D01*
X48158904Y-27769510D01*
X48138942Y-27844010D01*
X48115263Y-27874869D01*
X48007192Y-27982939D01*
X47905398Y-27997575D01*
X47772520Y-28058258D01*
X47662121Y-28153920D01*
X47583145Y-28276809D01*
X47541990Y-28416971D01*
X47541990Y-28448141D01*
X47151220Y-28838911D01*
X47161394Y-28871337D01*
X47161396Y-28871343D01*
X47256341Y-29042399D01*
X47256344Y-29042403D01*
X47383789Y-29190859D01*
X47496345Y-29277985D01*
X47543039Y-29339373D01*
X47552783Y-29415883D01*
X47522966Y-29487014D01*
X47461578Y-29533708D01*
X47405141Y-29544810D01*
X47376717Y-29544810D01*
X47345066Y-29540311D01*
X47344941Y-29540987D01*
X47337743Y-29539646D01*
X47289727Y-29535507D01*
X47223611Y-29513445D01*
X47207260Y-29503236D01*
X47204230Y-29501344D01*
X47136199Y-29456288D01*
X47130893Y-29453002D01*
X47124893Y-29449532D01*
X47119429Y-29446589D01*
X47023286Y-29398497D01*
X47022170Y-29397862D01*
X47019859Y-29396806D01*
X46895563Y-29360310D01*
X46895562Y-29360310D01*
X46766018Y-29360310D01*
X46641721Y-29396806D01*
X46641718Y-29396807D01*
X46641717Y-29396808D01*
X46532745Y-29466840D01*
X46532742Y-29466841D01*
X46532741Y-29466843D01*
X46532739Y-29466844D01*
X46532738Y-29466846D01*
X46447908Y-29564745D01*
X46394092Y-29682586D01*
X46375657Y-29810806D01*
X46375657Y-29810813D01*
X46394092Y-29939033D01*
X46394092Y-29939034D01*
X46394093Y-29939036D01*
X46401160Y-29954510D01*
X46447908Y-30056874D01*
X46492214Y-30108006D01*
X46532741Y-30154777D01*
X46600009Y-30198007D01*
X46651889Y-30255076D01*
X46668284Y-30330441D01*
X46644801Y-30403907D01*
X46624812Y-30428712D01*
X46241740Y-30811784D01*
X46234060Y-30818480D01*
X46223364Y-30826589D01*
X46151937Y-30855690D01*
X46075528Y-30845178D01*
X46014612Y-30797871D01*
X45992219Y-30744266D01*
X45989690Y-30745009D01*
X45986689Y-30734788D01*
X45932871Y-30616945D01*
X45850612Y-30522013D01*
X45848039Y-30519043D01*
X45739059Y-30449006D01*
X45614762Y-30412510D01*
X45485218Y-30412510D01*
X45360921Y-30449006D01*
X45360918Y-30449007D01*
X45360917Y-30449008D01*
X45251945Y-30519040D01*
X45251942Y-30519041D01*
X45251941Y-30519043D01*
X45251939Y-30519044D01*
X45251938Y-30519046D01*
X45167108Y-30616945D01*
X45113292Y-30734786D01*
X45094857Y-30863006D01*
X45094857Y-30863013D01*
X45113292Y-30991233D01*
X45113292Y-30991234D01*
X45113293Y-30991236D01*
X45128085Y-31023625D01*
X45167108Y-31109074D01*
X45187497Y-31132604D01*
X45251941Y-31206977D01*
X45360921Y-31277014D01*
X45485218Y-31313510D01*
X45485221Y-31313510D01*
X45614759Y-31313510D01*
X45614762Y-31313510D01*
X45667064Y-31298152D01*
X45744170Y-31296317D01*
X45811864Y-31333280D01*
X45852006Y-31399139D01*
X45855571Y-31448971D01*
X45856913Y-31448971D01*
X45856913Y-31459631D01*
X45875348Y-31587851D01*
X45875348Y-31587852D01*
X45875349Y-31587854D01*
X45891767Y-31623803D01*
X45929164Y-31705692D01*
X45931854Y-31708796D01*
X46013997Y-31803595D01*
X46122977Y-31873632D01*
X46247274Y-31910128D01*
X46247277Y-31910128D01*
X46376815Y-31910128D01*
X46376818Y-31910128D01*
X46501115Y-31873632D01*
X46610095Y-31803595D01*
X46669177Y-31735408D01*
X46733048Y-31692178D01*
X46809980Y-31686674D01*
X46843682Y-31697448D01*
X46844915Y-31698011D01*
X46844917Y-31698011D01*
X46844921Y-31698014D01*
X46924682Y-31721433D01*
X46990538Y-31761575D01*
X47027502Y-31829268D01*
X47025667Y-31906375D01*
X46988061Y-31969756D01*
X45752360Y-33205457D01*
X45685565Y-33244021D01*
X45608437Y-33244021D01*
X45541642Y-33205457D01*
X45503078Y-33138662D01*
X45503078Y-33061534D01*
X45511463Y-33038209D01*
X45561687Y-32928236D01*
X45570637Y-32865990D01*
X45580123Y-32800013D01*
X45580123Y-32800006D01*
X45561687Y-32671786D01*
X45561687Y-32671784D01*
X45507872Y-32553947D01*
X45507871Y-32553946D01*
X45507871Y-32553945D01*
X45452471Y-32490010D01*
X45423039Y-32456043D01*
X45314059Y-32386006D01*
X45189762Y-32349510D01*
X45060218Y-32349510D01*
X45060215Y-32349510D01*
X45060213Y-32349511D01*
X44964284Y-32377677D01*
X44887178Y-32379511D01*
X44819485Y-32342547D01*
X44779343Y-32276688D01*
X44775750Y-32226401D01*
X44774504Y-32226401D01*
X44774504Y-32215740D01*
X44756068Y-32087518D01*
X44750167Y-32074598D01*
X44740559Y-32053560D01*
X44732392Y-32031044D01*
X44728529Y-32016943D01*
X44683590Y-31927105D01*
X44683021Y-31926048D01*
X44680649Y-31921642D01*
X44677178Y-31915639D01*
X44673890Y-31910332D01*
X44649414Y-31873375D01*
X44628836Y-31842302D01*
X44616734Y-31822920D01*
X44594670Y-31756799D01*
X44590534Y-31708794D01*
X44590412Y-31708336D01*
X44590286Y-31707376D01*
X44589409Y-31702368D01*
X44589624Y-31702330D01*
X44585371Y-31669907D01*
X44585371Y-31277263D01*
X44588234Y-31248193D01*
X44590582Y-31236391D01*
X44569937Y-31132603D01*
X44525985Y-31066824D01*
X44525984Y-31066823D01*
X44511146Y-31044616D01*
X44501136Y-31037928D01*
X44478562Y-31019401D01*
X44209631Y-30750470D01*
X44171067Y-30683675D01*
X44165990Y-30645111D01*
X44165990Y-29346906D01*
X44185952Y-29272406D01*
X44209624Y-29241555D01*
X44252587Y-29198591D01*
X44319376Y-29160031D01*
X44346602Y-29155385D01*
X44398302Y-29151442D01*
X44421163Y-29151457D01*
X44569513Y-29162982D01*
X44591581Y-29166375D01*
X44748566Y-29202742D01*
X44758560Y-29205810D01*
X44925736Y-29270278D01*
X44934292Y-29274217D01*
X44977566Y-29297568D01*
X44998009Y-29310867D01*
X44998236Y-29311043D01*
X45045533Y-29334243D01*
X45111710Y-29369952D01*
X45116395Y-29372328D01*
X45119841Y-29373966D01*
X45119842Y-29373966D01*
X45119844Y-29373967D01*
X45127648Y-29376666D01*
X45127446Y-29377247D01*
X45147923Y-29384467D01*
X45173985Y-29397251D01*
X45363489Y-29446318D01*
X45558991Y-29456232D01*
X45752487Y-29426590D01*
X45936055Y-29358604D01*
X46102181Y-29255057D01*
X46244061Y-29120189D01*
X46355889Y-28959522D01*
X46433085Y-28779633D01*
X46472490Y-28587887D01*
X46472490Y-27769510D01*
X46492452Y-27695010D01*
X46546990Y-27640472D01*
X46621490Y-27620510D01*
X46938990Y-27620510D01*
X47013490Y-27640472D01*
G37*
G04 #@! TD.AperFunction*
G04 #@! TA.AperFunction,Conductor*
G36*
X52092990Y-27640472D02*
G01*
X52147528Y-27695010D01*
X52167490Y-27769510D01*
X52167490Y-28538834D01*
X52182329Y-28684755D01*
X52182329Y-28684756D01*
X52240930Y-28871535D01*
X52335930Y-29042690D01*
X52335934Y-29042696D01*
X52463435Y-29191217D01*
X52463439Y-29191221D01*
X52618235Y-29311043D01*
X52793984Y-29397251D01*
X52860171Y-29414388D01*
X52922244Y-29430460D01*
X52989363Y-29468458D01*
X53028489Y-29534925D01*
X53029140Y-29612050D01*
X52991142Y-29679169D01*
X52967686Y-29698586D01*
X52961717Y-29702574D01*
X52914609Y-29773076D01*
X52902925Y-29790560D01*
X52902923Y-29790565D01*
X52882279Y-29894351D01*
X52884627Y-29906154D01*
X52887490Y-29935224D01*
X52887490Y-31850611D01*
X52867528Y-31925111D01*
X52843849Y-31955970D01*
X52252849Y-32546970D01*
X52186054Y-32585534D01*
X52108926Y-32585534D01*
X52042131Y-32546970D01*
X52003567Y-32480175D01*
X51998490Y-32441611D01*
X51998490Y-31324832D01*
X52001353Y-31295762D01*
X52003691Y-31284010D01*
X51983085Y-31180417D01*
X51977010Y-31171325D01*
X51924405Y-31092595D01*
X51920536Y-31090010D01*
X51914439Y-31085936D01*
X51891858Y-31067405D01*
X51034592Y-30210138D01*
X51016063Y-30187560D01*
X51009405Y-30177595D01*
X50921583Y-30118915D01*
X50921582Y-30118914D01*
X50921581Y-30118914D01*
X50920517Y-30118703D01*
X50817990Y-30098308D01*
X50817989Y-30098308D01*
X50806231Y-30100647D01*
X50777162Y-30103510D01*
X49954239Y-30103510D01*
X49879739Y-30083548D01*
X49825201Y-30029010D01*
X49805239Y-29954510D01*
X49818704Y-29892612D01*
X49836687Y-29853236D01*
X49848212Y-29773076D01*
X49855123Y-29725013D01*
X49855123Y-29725006D01*
X49838882Y-29612050D01*
X49836687Y-29596784D01*
X49789253Y-29492921D01*
X49776464Y-29416861D01*
X49803417Y-29344596D01*
X49862891Y-29295489D01*
X49938952Y-29282699D01*
X49939127Y-29282715D01*
X50015362Y-29290133D01*
X50070841Y-29308960D01*
X50071452Y-29307715D01*
X50078234Y-29311042D01*
X50078236Y-29311043D01*
X50253985Y-29397251D01*
X50443489Y-29446318D01*
X50638991Y-29456232D01*
X50832487Y-29426590D01*
X51016055Y-29358604D01*
X51182181Y-29255057D01*
X51324061Y-29120189D01*
X51435889Y-28959522D01*
X51513085Y-28779633D01*
X51552490Y-28587887D01*
X51552490Y-27769510D01*
X51572452Y-27695010D01*
X51626990Y-27640472D01*
X51701490Y-27620510D01*
X52018490Y-27620510D01*
X52092990Y-27640472D01*
G37*
G04 #@! TD.AperFunction*
G04 #@! TA.AperFunction,Conductor*
G36*
X47623852Y-41642577D02*
G01*
X47627583Y-41650718D01*
X47627591Y-41651151D01*
X47627591Y-41760725D01*
X47624164Y-41768998D01*
X47618550Y-41772119D01*
X47550326Y-41788041D01*
X47518513Y-41837126D01*
X47518511Y-41837133D01*
X47513842Y-41880357D01*
X47510665Y-41909770D01*
X47507419Y-41963499D01*
X47505373Y-41997372D01*
X47505044Y-41999508D01*
X47484250Y-42082543D01*
X47478916Y-42089736D01*
X47470058Y-42091051D01*
X47468439Y-42090517D01*
X47253503Y-42001871D01*
X47247161Y-41995549D01*
X47158644Y-41779591D01*
X47158677Y-41770640D01*
X47164758Y-41764447D01*
X47267042Y-41719454D01*
X47347951Y-41682801D01*
X47348401Y-41682621D01*
X47419355Y-41658052D01*
X47421245Y-41657572D01*
X47505536Y-41643577D01*
X47506268Y-41643503D01*
X47615458Y-41639459D01*
X47623852Y-41642577D01*
G37*
G04 #@! TD.AperFunction*
G04 #@! TA.AperFunction,Conductor*
G36*
X49770696Y-42476706D02*
G01*
X49986311Y-42656086D01*
X50210132Y-42804803D01*
X50430002Y-42914066D01*
X50433959Y-42916033D01*
X50657768Y-42989766D01*
X50657773Y-42989766D01*
X50657774Y-42989767D01*
X50867015Y-43023652D01*
X50874633Y-43028358D01*
X50876694Y-43037072D01*
X50875959Y-43039666D01*
X50592768Y-43725699D01*
X50586443Y-43732039D01*
X50585529Y-43732375D01*
X49841960Y-43971045D01*
X49833035Y-43970311D01*
X49827244Y-43963481D01*
X49826727Y-43960912D01*
X49806989Y-43732375D01*
X49796364Y-43609346D01*
X49764738Y-43284952D01*
X49733112Y-43002348D01*
X49701486Y-42761534D01*
X49670796Y-42568401D01*
X49672882Y-42559693D01*
X49674072Y-42558298D01*
X49754943Y-42477427D01*
X49763215Y-42474001D01*
X49770696Y-42476706D01*
G37*
G04 #@! TD.AperFunction*
G04 #@! TA.AperFunction,Conductor*
G36*
X46936938Y-29585110D02*
G01*
X46937647Y-29585435D01*
X46969581Y-29601409D01*
X47024717Y-29628989D01*
X47025331Y-29629344D01*
X47093056Y-29674197D01*
X47152221Y-29711139D01*
X47188226Y-29723632D01*
X47224225Y-29736123D01*
X47224226Y-29736123D01*
X47224232Y-29736125D01*
X47320095Y-29744388D01*
X47328043Y-29748513D01*
X47330790Y-29756045D01*
X47330790Y-29865574D01*
X47327363Y-29873847D01*
X47320095Y-29877231D01*
X47259609Y-29882444D01*
X47224232Y-29885493D01*
X47224230Y-29885493D01*
X47224225Y-29885494D01*
X47152225Y-29910478D01*
X47152219Y-29910480D01*
X47093056Y-29947422D01*
X47025331Y-29992274D01*
X47024717Y-29992629D01*
X46937655Y-30036180D01*
X46928723Y-30036816D01*
X46921957Y-30030950D01*
X46921628Y-30030233D01*
X46905823Y-29992471D01*
X46831679Y-29815325D01*
X46831647Y-29806373D01*
X46921628Y-29591385D01*
X46927984Y-29585077D01*
X46936938Y-29585110D01*
G37*
G04 #@! TD.AperFunction*
G04 #@! TA.AperFunction,Conductor*
G36*
X49839773Y-28009548D02*
G01*
X50585290Y-28485848D01*
X50590417Y-28493190D01*
X50590691Y-28495719D01*
X50590005Y-29234766D01*
X50586570Y-29243036D01*
X50578294Y-29246455D01*
X50573972Y-29245623D01*
X50341320Y-29152859D01*
X50341312Y-29152856D01*
X50092633Y-29091182D01*
X49843957Y-29066985D01*
X49595287Y-29080265D01*
X49352770Y-29129765D01*
X49343978Y-29128062D01*
X49342157Y-29126574D01*
X49261574Y-29045991D01*
X49258147Y-29037718D01*
X49260900Y-29030178D01*
X49368778Y-28902201D01*
X49483581Y-28730467D01*
X49483585Y-28730460D01*
X49598383Y-28523196D01*
X49598382Y-28523196D01*
X49598384Y-28523193D01*
X49713187Y-28280377D01*
X49822658Y-28014946D01*
X49828980Y-28008605D01*
X49837935Y-28008592D01*
X49839773Y-28009548D01*
G37*
G04 #@! TD.AperFunction*
G04 #@! TA.AperFunction,Conductor*
G36*
X50189365Y-31195850D02*
G01*
X50190174Y-31196531D01*
X50262990Y-31257792D01*
X50262992Y-31257793D01*
X50331580Y-31291044D01*
X50394755Y-31305653D01*
X50399538Y-31306759D01*
X50479145Y-31322932D01*
X50479825Y-31323113D01*
X50572187Y-31353884D01*
X50578952Y-31359749D01*
X50579588Y-31368681D01*
X50579314Y-31369421D01*
X50490954Y-31584986D01*
X50484645Y-31591341D01*
X50484566Y-31591374D01*
X50293403Y-31669731D01*
X50269082Y-31679701D01*
X50269001Y-31679734D01*
X50260046Y-31679701D01*
X50253737Y-31673346D01*
X50253471Y-31672628D01*
X50222693Y-31580245D01*
X50222512Y-31579565D01*
X50206339Y-31499958D01*
X50190624Y-31432001D01*
X50190624Y-31432000D01*
X50185023Y-31420446D01*
X50183928Y-31416667D01*
X50181649Y-31396434D01*
X50176622Y-31388433D01*
X50175123Y-31384814D01*
X50173022Y-31375606D01*
X50152197Y-31349493D01*
X50151817Y-31348957D01*
X50146099Y-31339857D01*
X50138500Y-31332258D01*
X50138062Y-31331768D01*
X50117236Y-31305653D01*
X50108724Y-31301554D01*
X50105528Y-31299286D01*
X50096440Y-31290198D01*
X50093013Y-31281925D01*
X50096439Y-31273653D01*
X50173562Y-31196530D01*
X50181834Y-31193104D01*
X50189365Y-31195850D01*
G37*
G04 #@! TD.AperFunction*
G04 #@! TA.AperFunction,Conductor*
G36*
X32875748Y-42209437D02*
G01*
X32878384Y-42213483D01*
X33003189Y-42535766D01*
X33130888Y-42823885D01*
X33130889Y-42823886D01*
X33258584Y-43070360D01*
X33258584Y-43070359D01*
X33258587Y-43070364D01*
X33386286Y-43275204D01*
X33386288Y-43275207D01*
X33386289Y-43275208D01*
X33504509Y-43426293D01*
X33506909Y-43434920D01*
X33502505Y-43442717D01*
X33499785Y-43444307D01*
X32814480Y-43729143D01*
X32805526Y-43729154D01*
X32805500Y-43729143D01*
X32120194Y-43444307D01*
X32113869Y-43437967D01*
X32113880Y-43429013D01*
X32115466Y-43426299D01*
X32233693Y-43275204D01*
X32361392Y-43070364D01*
X32361395Y-43070359D01*
X32361395Y-43070360D01*
X32489090Y-42823886D01*
X32489091Y-42823885D01*
X32616790Y-42535766D01*
X32741595Y-42213484D01*
X32747778Y-42207008D01*
X32752505Y-42206010D01*
X32867475Y-42206010D01*
X32875748Y-42209437D01*
G37*
G04 #@! TD.AperFunction*
G04 #@! TA.AperFunction,Conductor*
G36*
X34326584Y-42611065D02*
G01*
X34583253Y-42773329D01*
X34583262Y-42773334D01*
X34779236Y-42866385D01*
X34847843Y-42898961D01*
X35112427Y-42982951D01*
X35377011Y-43025302D01*
X35624157Y-43025967D01*
X35632421Y-43029416D01*
X35635826Y-43037698D01*
X35634941Y-43042131D01*
X35352552Y-43726222D01*
X35346227Y-43732562D01*
X35346202Y-43732572D01*
X34601072Y-44040238D01*
X34592118Y-44040228D01*
X34585793Y-44033889D01*
X34585146Y-44031775D01*
X34515601Y-43692671D01*
X34443212Y-43381492D01*
X34370824Y-43112107D01*
X34340330Y-43016235D01*
X34298433Y-42884504D01*
X34228818Y-42705813D01*
X34229008Y-42696860D01*
X34231444Y-42693296D01*
X34312060Y-42612680D01*
X34320332Y-42609254D01*
X34326584Y-42611065D01*
G37*
G04 #@! TD.AperFunction*
G04 #@! TA.AperFunction,Conductor*
G36*
X50055406Y-31728753D02*
G01*
X50058732Y-31735495D01*
X50071564Y-31832703D01*
X50108542Y-31901420D01*
X50108547Y-31901427D01*
X50160003Y-31955886D01*
X50216766Y-32019539D01*
X50218246Y-32021615D01*
X50266680Y-32108223D01*
X50267727Y-32117117D01*
X50262179Y-32124146D01*
X50260985Y-32124727D01*
X50046626Y-32214446D01*
X50037672Y-32214479D01*
X50037592Y-32214446D01*
X49822201Y-32124296D01*
X49815892Y-32117940D01*
X49815925Y-32108986D01*
X49816021Y-32108763D01*
X49853311Y-32025498D01*
X49856169Y-32019539D01*
X49885664Y-31958037D01*
X49885663Y-31958038D01*
X49885666Y-31958032D01*
X49908461Y-31898217D01*
X49921950Y-31826998D01*
X49925901Y-31736515D01*
X49929686Y-31728400D01*
X49937590Y-31725326D01*
X50047133Y-31725326D01*
X50055406Y-31728753D01*
G37*
G04 #@! TD.AperFunction*
G04 #@! TA.AperFunction,Conductor*
G36*
X49352956Y-31423104D02*
G01*
X49358507Y-31429047D01*
X49448811Y-31644799D01*
X49448844Y-31653753D01*
X49448821Y-31653810D01*
X49359735Y-31867959D01*
X49353393Y-31874281D01*
X49344438Y-31874268D01*
X49342522Y-31873253D01*
X49260964Y-31819839D01*
X49258781Y-31817992D01*
X49189567Y-31743091D01*
X49130974Y-31679917D01*
X49130973Y-31679916D01*
X49130971Y-31679915D01*
X49071202Y-31656332D01*
X49071199Y-31656333D01*
X49005260Y-31694631D01*
X48996385Y-31695823D01*
X48991111Y-31692787D01*
X48913870Y-31615546D01*
X48910443Y-31607273D01*
X48913870Y-31599000D01*
X48914617Y-31598315D01*
X48994989Y-31530795D01*
X48997430Y-31529217D01*
X49071466Y-31493553D01*
X49073935Y-31492689D01*
X49148507Y-31475700D01*
X49237715Y-31457791D01*
X49344024Y-31422461D01*
X49352956Y-31423104D01*
G37*
G04 #@! TD.AperFunction*
G04 #@! TA.AperFunction,Conductor*
G36*
X36866584Y-42611065D02*
G01*
X37123253Y-42773329D01*
X37123262Y-42773334D01*
X37319236Y-42866385D01*
X37387843Y-42898961D01*
X37652427Y-42982951D01*
X37917011Y-43025302D01*
X38164157Y-43025967D01*
X38172421Y-43029416D01*
X38175826Y-43037698D01*
X38174941Y-43042131D01*
X37892552Y-43726222D01*
X37886227Y-43732562D01*
X37886202Y-43732572D01*
X37141072Y-44040238D01*
X37132118Y-44040228D01*
X37125793Y-44033889D01*
X37125146Y-44031775D01*
X37055601Y-43692671D01*
X36983212Y-43381492D01*
X36910824Y-43112107D01*
X36880330Y-43016235D01*
X36838433Y-42884504D01*
X36768818Y-42705813D01*
X36769008Y-42696860D01*
X36771444Y-42693296D01*
X36852060Y-42612680D01*
X36860332Y-42609254D01*
X36866584Y-42611065D01*
G37*
G04 #@! TD.AperFunction*
G04 #@! TA.AperFunction,Conductor*
G36*
X43291188Y-42317078D02*
G01*
X43292875Y-42318476D01*
X43373093Y-42398694D01*
X43376248Y-42404461D01*
X43435209Y-42673336D01*
X43494903Y-42913175D01*
X43554597Y-43120635D01*
X43554598Y-43120636D01*
X43614292Y-43295713D01*
X43669457Y-43427579D01*
X43669488Y-43436533D01*
X43663178Y-43442888D01*
X43663146Y-43442901D01*
X42976518Y-43727715D01*
X42967563Y-43727720D01*
X42963751Y-43725170D01*
X42441707Y-43201755D01*
X42438291Y-43193478D01*
X42441729Y-43185209D01*
X42443933Y-43183484D01*
X42601516Y-43088249D01*
X42771858Y-42948505D01*
X42942200Y-42771963D01*
X43039268Y-42650392D01*
X43112541Y-42558625D01*
X43274931Y-42320163D01*
X43282421Y-42315254D01*
X43291188Y-42317078D01*
G37*
G04 #@! TD.AperFunction*
G04 #@! TA.AperFunction,Conductor*
G36*
X47349168Y-30892082D02*
G01*
X47425917Y-30968831D01*
X47429344Y-30977104D01*
X47426600Y-30984632D01*
X47364668Y-31058308D01*
X47331506Y-31126974D01*
X47315911Y-31195015D01*
X47299837Y-31274696D01*
X47299654Y-31275386D01*
X47268912Y-31367798D01*
X47263049Y-31374567D01*
X47254117Y-31375207D01*
X47253373Y-31374931D01*
X47037814Y-31286574D01*
X47031458Y-31280265D01*
X47031425Y-31280185D01*
X46943068Y-31064626D01*
X46943101Y-31055672D01*
X46949457Y-31049363D01*
X46950201Y-31049087D01*
X47042628Y-31018338D01*
X47043295Y-31018161D01*
X47122983Y-31002087D01*
X47191023Y-30986492D01*
X47259685Y-30953333D01*
X47333367Y-30891398D01*
X47341905Y-30888699D01*
X47349168Y-30892082D01*
G37*
G04 #@! TD.AperFunction*
G04 #@! TA.AperFunction,Conductor*
G36*
X41500612Y-33482399D02*
G01*
X41574288Y-33544330D01*
X41574291Y-33544331D01*
X41574293Y-33544333D01*
X41642955Y-33577492D01*
X41710995Y-33593087D01*
X41790679Y-33609160D01*
X41791354Y-33609339D01*
X41867674Y-33634729D01*
X41883778Y-33640087D01*
X41890547Y-33645950D01*
X41891187Y-33654882D01*
X41890911Y-33655626D01*
X41802554Y-33871185D01*
X41796245Y-33877541D01*
X41796165Y-33877574D01*
X41580606Y-33965931D01*
X41571652Y-33965898D01*
X41565343Y-33959542D01*
X41565067Y-33958798D01*
X41559709Y-33942694D01*
X41534319Y-33866374D01*
X41534140Y-33865696D01*
X41518067Y-33786015D01*
X41502472Y-33717975D01*
X41469313Y-33649313D01*
X41469311Y-33649311D01*
X41469310Y-33649308D01*
X41407379Y-33575632D01*
X41404679Y-33567094D01*
X41408061Y-33559832D01*
X41484812Y-33483081D01*
X41493084Y-33479655D01*
X41500612Y-33482399D01*
G37*
G04 #@! TD.AperFunction*
G04 #@! TA.AperFunction,Conductor*
G36*
X38637696Y-28489996D02*
G01*
X38645965Y-28493431D01*
X38649384Y-28501707D01*
X38649151Y-28504019D01*
X38616545Y-28664942D01*
X38581100Y-28877893D01*
X38545656Y-29128864D01*
X38510211Y-29417854D01*
X38475211Y-29740765D01*
X38471852Y-29747777D01*
X38391767Y-29827862D01*
X38383494Y-29831289D01*
X38375221Y-29827862D01*
X38374619Y-29827212D01*
X38176509Y-29596570D01*
X37970175Y-29395666D01*
X37970169Y-29395661D01*
X37970167Y-29395659D01*
X37763849Y-29234079D01*
X37763838Y-29234071D01*
X37557512Y-29111795D01*
X37557502Y-29111790D01*
X37367581Y-29035422D01*
X37361184Y-29029156D01*
X37361091Y-29020202D01*
X37363662Y-29016305D01*
X37714104Y-28664942D01*
X37885850Y-28492744D01*
X37894116Y-28489307D01*
X38637696Y-28489996D01*
G37*
G04 #@! TD.AperFunction*
G04 #@! TA.AperFunction,Conductor*
G36*
X44175751Y-34680855D02*
G01*
X44212407Y-34707129D01*
X44257081Y-34739152D01*
X44257085Y-34739154D01*
X44336243Y-34753313D01*
X44415834Y-34744845D01*
X44416152Y-34744821D01*
X44505521Y-34741047D01*
X44508814Y-34741378D01*
X44607504Y-34765786D01*
X44614711Y-34771098D01*
X44616052Y-34779952D01*
X44615520Y-34781580D01*
X44527554Y-34996185D01*
X44521245Y-35002541D01*
X44521165Y-35002574D01*
X44304724Y-35091293D01*
X44295770Y-35091260D01*
X44289512Y-35085026D01*
X44255659Y-35005010D01*
X44254460Y-35002574D01*
X44224500Y-34941690D01*
X44190629Y-34890919D01*
X44178848Y-34877480D01*
X44144133Y-34837878D01*
X44144126Y-34837871D01*
X44144120Y-34837864D01*
X44083195Y-34775975D01*
X44079834Y-34767676D01*
X44083260Y-34759496D01*
X44160665Y-34682091D01*
X44168937Y-34678665D01*
X44175751Y-34680855D01*
G37*
G04 #@! TD.AperFunction*
G04 #@! TA.AperFunction,Conductor*
G36*
X39378139Y-29284198D02*
G01*
X39384448Y-29290554D01*
X39384782Y-29291477D01*
X39414113Y-29384621D01*
X39414524Y-29386404D01*
X39426691Y-29467756D01*
X39437672Y-29538232D01*
X39437673Y-29538234D01*
X39437674Y-29538239D01*
X39465862Y-29605980D01*
X39467132Y-29609031D01*
X39525062Y-29680208D01*
X39528206Y-29684070D01*
X39530771Y-29692650D01*
X39527405Y-29699729D01*
X39449942Y-29777192D01*
X39441669Y-29780619D01*
X39434010Y-29777764D01*
X39362844Y-29716135D01*
X39362842Y-29716134D01*
X39319276Y-29692262D01*
X39297278Y-29680208D01*
X39232619Y-29660770D01*
X39232617Y-29660769D01*
X39156201Y-29641540D01*
X39155699Y-29641390D01*
X39082925Y-29615971D01*
X39065964Y-29610047D01*
X39059285Y-29604084D01*
X39058777Y-29595144D01*
X39058979Y-29594609D01*
X39147426Y-29378831D01*
X39153733Y-29372478D01*
X39369186Y-29284165D01*
X39378139Y-29284198D01*
G37*
G04 #@! TD.AperFunction*
G04 #@! TA.AperFunction,Conductor*
G36*
X43877112Y-33240899D02*
G01*
X43950788Y-33302830D01*
X43950791Y-33302831D01*
X43950793Y-33302833D01*
X44019455Y-33335992D01*
X44087495Y-33351587D01*
X44167179Y-33367660D01*
X44167854Y-33367839D01*
X44244174Y-33393229D01*
X44260278Y-33398587D01*
X44267047Y-33404450D01*
X44267687Y-33413382D01*
X44267411Y-33414126D01*
X44179054Y-33629685D01*
X44172745Y-33636041D01*
X44172665Y-33636074D01*
X43957106Y-33724431D01*
X43948152Y-33724398D01*
X43941843Y-33718042D01*
X43941567Y-33717298D01*
X43936209Y-33701194D01*
X43910819Y-33624874D01*
X43910640Y-33624196D01*
X43894567Y-33544515D01*
X43878972Y-33476475D01*
X43845813Y-33407813D01*
X43845811Y-33407811D01*
X43845810Y-33407808D01*
X43783879Y-33334132D01*
X43781179Y-33325594D01*
X43784561Y-33318332D01*
X43861312Y-33241581D01*
X43869584Y-33238155D01*
X43877112Y-33240899D01*
G37*
G04 #@! TD.AperFunction*
G04 #@! TA.AperFunction,Conductor*
G36*
X40436518Y-28492304D02*
G01*
X41121096Y-28776268D01*
X41127425Y-28782603D01*
X41127420Y-28791558D01*
X41126473Y-28793374D01*
X41038295Y-28931394D01*
X41038294Y-28931396D01*
X40942618Y-29117469D01*
X40942617Y-29117470D01*
X40846929Y-29339883D01*
X40846928Y-29339883D01*
X40751242Y-29598610D01*
X40656424Y-29890977D01*
X40653568Y-29895641D01*
X40574975Y-29974234D01*
X40566702Y-29977661D01*
X40558429Y-29974234D01*
X40556297Y-29971312D01*
X40517381Y-29895641D01*
X40429141Y-29724060D01*
X40354629Y-29598610D01*
X40294653Y-29497633D01*
X40294653Y-29497634D01*
X40294649Y-29497627D01*
X40160158Y-29306276D01*
X40025666Y-29150009D01*
X39900317Y-29037062D01*
X39896466Y-29028980D01*
X39899458Y-29020540D01*
X39899843Y-29020133D01*
X40423751Y-28494848D01*
X40432020Y-28491411D01*
X40436518Y-28492304D01*
G37*
G04 #@! TD.AperFunction*
G04 #@! TA.AperFunction,Conductor*
G36*
X45033822Y-32579869D02*
G01*
X45034151Y-32580586D01*
X45124099Y-32795493D01*
X45124132Y-32804447D01*
X45124099Y-32804527D01*
X45034151Y-33019433D01*
X45027795Y-33025742D01*
X45018841Y-33025709D01*
X45018124Y-33025380D01*
X44931061Y-32981829D01*
X44930447Y-32981474D01*
X44862722Y-32936622D01*
X44803558Y-32899680D01*
X44803552Y-32899678D01*
X44731552Y-32874694D01*
X44731547Y-32874693D01*
X44731546Y-32874693D01*
X44692265Y-32871307D01*
X44635685Y-32866431D01*
X44627737Y-32862306D01*
X44624990Y-32854774D01*
X44624990Y-32745245D01*
X44628417Y-32736972D01*
X44635684Y-32733588D01*
X44731546Y-32725325D01*
X44803557Y-32700339D01*
X44862722Y-32663397D01*
X44930447Y-32618543D01*
X44931061Y-32618189D01*
X44937781Y-32614827D01*
X45018125Y-32574638D01*
X45027056Y-32574003D01*
X45033822Y-32579869D01*
G37*
G04 #@! TD.AperFunction*
G04 #@! TA.AperFunction,Conductor*
G36*
X42974480Y-28490876D02*
G01*
X43659784Y-28775712D01*
X43666109Y-28782052D01*
X43666098Y-28791006D01*
X43664508Y-28793726D01*
X43546289Y-28944810D01*
X43546286Y-28944815D01*
X43418587Y-29149655D01*
X43418584Y-29149660D01*
X43418584Y-29149659D01*
X43334546Y-29311865D01*
X43290888Y-29396134D01*
X43219787Y-29556553D01*
X43163189Y-29684252D01*
X43038385Y-30006535D01*
X43032202Y-30013012D01*
X43027475Y-30014010D01*
X42912505Y-30014010D01*
X42904232Y-30010583D01*
X42901595Y-30006535D01*
X42776790Y-29684252D01*
X42720191Y-29556553D01*
X42649091Y-29396134D01*
X42605432Y-29311865D01*
X42521395Y-29149659D01*
X42521395Y-29149660D01*
X42521392Y-29149655D01*
X42393693Y-28944815D01*
X42275469Y-28793725D01*
X42273070Y-28785099D01*
X42277474Y-28777302D01*
X42280188Y-28775715D01*
X42965500Y-28490875D01*
X42974453Y-28490865D01*
X42974480Y-28490876D01*
G37*
G04 #@! TD.AperFunction*
G04 #@! TA.AperFunction,Conductor*
G36*
X44382409Y-31719171D02*
G01*
X44385793Y-31726439D01*
X44394055Y-31822306D01*
X44419039Y-31894306D01*
X44419041Y-31894312D01*
X44455983Y-31953476D01*
X44500835Y-32021201D01*
X44501190Y-32021815D01*
X44544741Y-32108878D01*
X44545377Y-32117810D01*
X44539511Y-32124576D01*
X44538794Y-32124905D01*
X44323888Y-32214853D01*
X44314934Y-32214886D01*
X44314854Y-32214853D01*
X44099947Y-32124905D01*
X44093638Y-32118549D01*
X44093671Y-32109595D01*
X44093991Y-32108896D01*
X44137550Y-32021815D01*
X44137905Y-32021201D01*
X44182758Y-31953476D01*
X44219700Y-31894311D01*
X44244686Y-31822300D01*
X44252949Y-31726438D01*
X44257074Y-31718491D01*
X44264606Y-31715744D01*
X44374136Y-31715744D01*
X44382409Y-31719171D01*
G37*
G04 #@! TD.AperFunction*
G04 #@! TA.AperFunction,Conductor*
G36*
X44757490Y-27937522D02*
G01*
X44759206Y-27938565D01*
X45503285Y-28483871D01*
X45507932Y-28491525D01*
X45507176Y-28497791D01*
X45223348Y-29182040D01*
X45217013Y-29188369D01*
X45208058Y-29188364D01*
X45206985Y-29187854D01*
X45016260Y-29084938D01*
X45016249Y-29084933D01*
X44814137Y-29006992D01*
X44814131Y-29006990D01*
X44814130Y-29006990D01*
X44768084Y-28996323D01*
X44612001Y-28960164D01*
X44409879Y-28944462D01*
X44409878Y-28944462D01*
X44409876Y-28944462D01*
X44213110Y-28959473D01*
X44204600Y-28956685D01*
X44203947Y-28956080D01*
X44123631Y-28875764D01*
X44120204Y-28867491D01*
X44123631Y-28859218D01*
X44123870Y-28858985D01*
X44241692Y-28747707D01*
X44368266Y-28594245D01*
X44494841Y-28406864D01*
X44621415Y-28185564D01*
X44741810Y-27942805D01*
X44748556Y-27936916D01*
X44757490Y-27937522D01*
G37*
G04 #@! TD.AperFunction*
G04 #@! TA.AperFunction,Conductor*
G36*
X46385604Y-30968049D02*
G01*
X46386112Y-30968528D01*
X46462426Y-31044842D01*
X46465853Y-31053115D01*
X46463846Y-31059668D01*
X46443426Y-31089873D01*
X46427466Y-31113481D01*
X46428525Y-31167914D01*
X46450071Y-31208139D01*
X46457856Y-31222674D01*
X46490578Y-31270423D01*
X46498756Y-31282357D01*
X46500696Y-31285187D01*
X46501025Y-31285728D01*
X46536909Y-31352580D01*
X46537802Y-31361490D01*
X46532133Y-31368422D01*
X46531094Y-31368916D01*
X46318599Y-31457314D01*
X46309644Y-31457327D01*
X46305799Y-31454751D01*
X46143000Y-31290644D01*
X46139606Y-31282357D01*
X46142554Y-31274639D01*
X46201551Y-31208139D01*
X46241028Y-31148563D01*
X46271467Y-31094214D01*
X46271678Y-31093868D01*
X46310819Y-31034799D01*
X46311320Y-31034148D01*
X46369088Y-30969035D01*
X46377141Y-30965122D01*
X46385604Y-30968049D01*
G37*
G04 #@! TD.AperFunction*
G04 #@! TA.AperFunction,Conductor*
G36*
X45575250Y-42209437D02*
G01*
X45577886Y-42213482D01*
X45702790Y-42535782D01*
X45830586Y-42823902D01*
X45830586Y-42823901D01*
X45958383Y-43070378D01*
X46086179Y-43275208D01*
X46086192Y-43275226D01*
X46204499Y-43426292D01*
X46206902Y-43434918D01*
X46202502Y-43442717D01*
X46199778Y-43444310D01*
X45514480Y-43729143D01*
X45505526Y-43729154D01*
X45505500Y-43729143D01*
X44820201Y-43444310D01*
X44813876Y-43437970D01*
X44813887Y-43429016D01*
X44815480Y-43426292D01*
X44933793Y-43275218D01*
X45061592Y-43070385D01*
X45189391Y-42823905D01*
X45189393Y-42823901D01*
X45189393Y-42823902D01*
X45317189Y-42535782D01*
X45442094Y-42213482D01*
X45448278Y-42207006D01*
X45453003Y-42206010D01*
X45566977Y-42206010D01*
X45575250Y-42209437D01*
G37*
G04 #@! TD.AperFunction*
G04 #@! TA.AperFunction,Conductor*
G36*
X51189818Y-37732731D02*
G01*
X51267268Y-37810181D01*
X51270695Y-37818454D01*
X51267948Y-37825986D01*
X51206005Y-37899610D01*
X51206004Y-37899612D01*
X51172754Y-37968200D01*
X51172753Y-37968202D01*
X51157040Y-38036158D01*
X51140866Y-38115765D01*
X51140683Y-38116450D01*
X51109916Y-38208805D01*
X51104050Y-38215571D01*
X51095118Y-38216207D01*
X51094379Y-38215933D01*
X50878814Y-38127574D01*
X50872458Y-38121265D01*
X50784065Y-37905618D01*
X50784098Y-37896666D01*
X50790453Y-37890357D01*
X50791163Y-37890093D01*
X50883552Y-37859313D01*
X50884233Y-37859132D01*
X50963840Y-37842959D01*
X51031798Y-37827244D01*
X51100386Y-37793993D01*
X51174015Y-37732050D01*
X51182550Y-37729347D01*
X51189818Y-37732731D01*
G37*
G04 #@! TD.AperFunction*
G04 #@! TA.AperFunction,Conductor*
G36*
X53869413Y-30190848D02*
G01*
X53875722Y-30197204D01*
X53875689Y-30206158D01*
X53875360Y-30206875D01*
X53831809Y-30293937D01*
X53831454Y-30294551D01*
X53786602Y-30362276D01*
X53749660Y-30421439D01*
X53749658Y-30421445D01*
X53724674Y-30493445D01*
X53716412Y-30589315D01*
X53712287Y-30597263D01*
X53704755Y-30600010D01*
X53595225Y-30600010D01*
X53586952Y-30596583D01*
X53583568Y-30589315D01*
X53575305Y-30493452D01*
X53550319Y-30421441D01*
X53513377Y-30362276D01*
X53468524Y-30294551D01*
X53468169Y-30293937D01*
X53424619Y-30206875D01*
X53423983Y-30197943D01*
X53429849Y-30191177D01*
X53430553Y-30190853D01*
X53645474Y-30100899D01*
X53654427Y-30100867D01*
X53869413Y-30190848D01*
G37*
G04 #@! TD.AperFunction*
G04 #@! TA.AperFunction,Conductor*
G36*
X50538023Y-37100526D02*
G01*
X50615473Y-37177976D01*
X50618900Y-37186249D01*
X50616153Y-37193781D01*
X50554210Y-37267405D01*
X50554209Y-37267407D01*
X50520959Y-37335995D01*
X50520958Y-37335997D01*
X50505245Y-37403953D01*
X50489071Y-37483560D01*
X50488888Y-37484245D01*
X50458121Y-37576600D01*
X50452255Y-37583366D01*
X50443323Y-37584002D01*
X50442584Y-37583728D01*
X50227019Y-37495369D01*
X50220663Y-37489060D01*
X50132270Y-37273413D01*
X50132303Y-37264461D01*
X50138658Y-37258152D01*
X50139368Y-37257888D01*
X50231757Y-37227108D01*
X50232438Y-37226927D01*
X50312045Y-37210754D01*
X50380003Y-37195039D01*
X50448591Y-37161788D01*
X50522220Y-37099845D01*
X50530755Y-37097142D01*
X50538023Y-37100526D01*
G37*
G04 #@! TD.AperFunction*
G04 #@! TA.AperFunction,Conductor*
G36*
X54919877Y-28027738D02*
G01*
X54929111Y-28033415D01*
X55665117Y-28485873D01*
X55670371Y-28493125D01*
X55670690Y-28495851D01*
X55670005Y-29235410D01*
X55666570Y-29243680D01*
X55658294Y-29247099D01*
X55654361Y-29246414D01*
X55423301Y-29163692D01*
X55423296Y-29163690D01*
X55176621Y-29112441D01*
X54929928Y-29098252D01*
X54683253Y-29121127D01*
X54683240Y-29121130D01*
X54442948Y-29179516D01*
X54434100Y-29178140D01*
X54431913Y-29176420D01*
X54351332Y-29095839D01*
X54347905Y-29087566D01*
X54350465Y-29080263D01*
X54456742Y-28947305D01*
X54569554Y-28769937D01*
X54682366Y-28556336D01*
X54710909Y-28493125D01*
X54795173Y-28306513D01*
X54811119Y-28266075D01*
X54902870Y-28033413D01*
X54909092Y-28026976D01*
X54918045Y-28026823D01*
X54919877Y-28027738D01*
G37*
G04 #@! TD.AperFunction*
G04 #@! TA.AperFunction,Conductor*
G36*
X35366828Y-36860731D02*
G01*
X35444278Y-36938181D01*
X35447705Y-36946454D01*
X35444958Y-36953986D01*
X35383015Y-37027610D01*
X35383014Y-37027612D01*
X35349764Y-37096200D01*
X35349763Y-37096202D01*
X35334050Y-37164158D01*
X35317876Y-37243765D01*
X35317693Y-37244450D01*
X35286926Y-37336805D01*
X35281060Y-37343571D01*
X35272128Y-37344207D01*
X35271389Y-37343933D01*
X35055824Y-37255574D01*
X35049468Y-37249265D01*
X34961075Y-37033618D01*
X34961108Y-37024666D01*
X34967463Y-37018357D01*
X34968173Y-37018093D01*
X35060562Y-36987313D01*
X35061243Y-36987132D01*
X35140850Y-36970959D01*
X35208808Y-36955244D01*
X35277396Y-36921993D01*
X35351025Y-36860050D01*
X35359560Y-36857347D01*
X35366828Y-36860731D01*
G37*
G04 #@! TD.AperFunction*
G04 #@! TA.AperFunction,Conductor*
G36*
X35280343Y-35638118D02*
G01*
X35286652Y-35644473D01*
X35286926Y-35645213D01*
X35317693Y-35737567D01*
X35317876Y-35738252D01*
X35334050Y-35817860D01*
X35349763Y-35885815D01*
X35349764Y-35885817D01*
X35383014Y-35954405D01*
X35383015Y-35954407D01*
X35416917Y-35994703D01*
X35443898Y-36026774D01*
X35444958Y-36028033D01*
X35447662Y-36036570D01*
X35444278Y-36043838D01*
X35366828Y-36121288D01*
X35358555Y-36124715D01*
X35351023Y-36121968D01*
X35277397Y-36060025D01*
X35277395Y-36060024D01*
X35242058Y-36042893D01*
X35208808Y-36026774D01*
X35208806Y-36026773D01*
X35208805Y-36026773D01*
X35140850Y-36011060D01*
X35061242Y-35994886D01*
X35060557Y-35994703D01*
X34998690Y-35974092D01*
X34968202Y-35963935D01*
X34961437Y-35958070D01*
X34960801Y-35949138D01*
X34961061Y-35948434D01*
X35049436Y-35732831D01*
X35055743Y-35726478D01*
X35271391Y-35638085D01*
X35280343Y-35638118D01*
G37*
G04 #@! TD.AperFunction*
G04 #@! TA.AperFunction,Conductor*
G36*
X34753475Y-36098050D02*
G01*
X34754284Y-36098731D01*
X34827100Y-36159992D01*
X34827102Y-36159993D01*
X34895690Y-36193244D01*
X34963648Y-36208959D01*
X35043255Y-36225132D01*
X35043935Y-36225313D01*
X35136297Y-36256084D01*
X35143062Y-36261949D01*
X35143698Y-36270881D01*
X35143424Y-36271621D01*
X35055064Y-36487186D01*
X35048755Y-36493541D01*
X35048676Y-36493574D01*
X34857513Y-36571931D01*
X34833192Y-36581901D01*
X34833111Y-36581934D01*
X34824156Y-36581901D01*
X34817847Y-36575546D01*
X34817581Y-36574828D01*
X34786803Y-36482445D01*
X34786622Y-36481765D01*
X34770449Y-36402158D01*
X34754734Y-36334202D01*
X34754734Y-36334200D01*
X34721483Y-36265612D01*
X34721482Y-36265610D01*
X34673821Y-36208959D01*
X34659540Y-36191985D01*
X34656837Y-36183449D01*
X34660220Y-36176182D01*
X34737672Y-36098730D01*
X34745944Y-36095304D01*
X34753475Y-36098050D01*
G37*
G04 #@! TD.AperFunction*
G04 #@! TA.AperFunction,Conductor*
G36*
X34832584Y-34876075D02*
G01*
X35048177Y-34964446D01*
X35054531Y-34970754D01*
X35054564Y-34970834D01*
X35142923Y-35186399D01*
X35142890Y-35195353D01*
X35136534Y-35201662D01*
X35135795Y-35201936D01*
X35043440Y-35232703D01*
X35042755Y-35232886D01*
X34963148Y-35249060D01*
X34895192Y-35264773D01*
X34895190Y-35264774D01*
X34826602Y-35298024D01*
X34826600Y-35298025D01*
X34752976Y-35359968D01*
X34744439Y-35362672D01*
X34737171Y-35359288D01*
X34659721Y-35281838D01*
X34656294Y-35273565D01*
X34659040Y-35266035D01*
X34720983Y-35192406D01*
X34754234Y-35123818D01*
X34769949Y-35055860D01*
X34786122Y-34976253D01*
X34786305Y-34975568D01*
X34790011Y-34964445D01*
X34817074Y-34883210D01*
X34822939Y-34876447D01*
X34831871Y-34875811D01*
X34832584Y-34876075D01*
G37*
G04 #@! TD.AperFunction*
G04 #@! TA.AperFunction,Conductor*
G36*
X39430152Y-37271470D02*
G01*
X39430151Y-37271470D01*
X39430155Y-37271471D01*
X39430159Y-37271473D01*
X39497027Y-37295066D01*
X39529623Y-37302100D01*
X39556888Y-37307985D01*
X39556890Y-37307985D01*
X39556894Y-37307986D01*
X39627377Y-37313408D01*
X39714527Y-37314380D01*
X39722760Y-37317899D01*
X39726095Y-37326079D01*
X39726095Y-37435554D01*
X39722668Y-37443827D01*
X39716267Y-37447103D01*
X39617689Y-37463081D01*
X39617684Y-37463083D01*
X39551449Y-37508247D01*
X39551448Y-37508249D01*
X39500789Y-37569534D01*
X39500554Y-37569801D01*
X39439773Y-37634824D01*
X39437242Y-37636869D01*
X39350261Y-37689020D01*
X39341404Y-37690335D01*
X39334210Y-37685001D01*
X39333455Y-37683508D01*
X39243889Y-37469515D01*
X39243857Y-37460563D01*
X39334190Y-37244735D01*
X39340545Y-37238428D01*
X39349412Y-37238426D01*
X39430152Y-37271470D01*
G37*
G04 #@! TD.AperFunction*
G04 #@! TA.AperFunction,Conductor*
G36*
X48630823Y-38007389D02*
G01*
X48631192Y-38007775D01*
X48704063Y-38087629D01*
X48705135Y-38088995D01*
X48752173Y-38159070D01*
X48753181Y-38160908D01*
X48783225Y-38229700D01*
X48783396Y-38230137D01*
X48812368Y-38314322D01*
X48851952Y-38418766D01*
X48851679Y-38427716D01*
X48845528Y-38433705D01*
X48630200Y-38523831D01*
X48621246Y-38523864D01*
X48621189Y-38523841D01*
X48406621Y-38434581D01*
X48400299Y-38428239D01*
X48400312Y-38419284D01*
X48401121Y-38417694D01*
X48446741Y-38342891D01*
X48448117Y-38341068D01*
X48509222Y-38274753D01*
X48558075Y-38217505D01*
X48572302Y-38159824D01*
X48535130Y-38099223D01*
X48533726Y-38090382D01*
X48536829Y-38084837D01*
X48614278Y-38007388D01*
X48622550Y-38003962D01*
X48630823Y-38007389D01*
G37*
G04 #@! TD.AperFunction*
G04 #@! TA.AperFunction,Conductor*
G36*
X49025612Y-38032399D02*
G01*
X49099288Y-38094330D01*
X49099291Y-38094331D01*
X49099293Y-38094333D01*
X49167955Y-38127492D01*
X49235995Y-38143087D01*
X49315679Y-38159160D01*
X49316354Y-38159339D01*
X49392674Y-38184729D01*
X49408778Y-38190087D01*
X49415547Y-38195950D01*
X49416187Y-38204882D01*
X49415911Y-38205626D01*
X49327554Y-38421185D01*
X49321245Y-38427541D01*
X49321165Y-38427574D01*
X49105606Y-38515931D01*
X49096652Y-38515898D01*
X49090343Y-38509542D01*
X49090067Y-38508798D01*
X49084709Y-38492694D01*
X49059319Y-38416374D01*
X49059140Y-38415696D01*
X49043067Y-38336015D01*
X49027472Y-38267975D01*
X48994313Y-38199313D01*
X48994311Y-38199311D01*
X48994310Y-38199308D01*
X48932379Y-38125632D01*
X48929679Y-38117094D01*
X48933061Y-38109832D01*
X49009812Y-38033081D01*
X49018084Y-38029655D01*
X49025612Y-38032399D01*
G37*
G04 #@! TD.AperFunction*
G04 #@! TA.AperFunction,Conductor*
G36*
X39471337Y-34707111D02*
G01*
X39477646Y-34713467D01*
X39477922Y-34714211D01*
X39508664Y-34806622D01*
X39508847Y-34807312D01*
X39524921Y-34886993D01*
X39540516Y-34955033D01*
X39573678Y-35023699D01*
X39635610Y-35097377D01*
X39638310Y-35105915D01*
X39634927Y-35113178D01*
X39558178Y-35189927D01*
X39549905Y-35193354D01*
X39542377Y-35190610D01*
X39468699Y-35128678D01*
X39400033Y-35095516D01*
X39331993Y-35079921D01*
X39252312Y-35063847D01*
X39251622Y-35063664D01*
X39159211Y-35032922D01*
X39152442Y-35027059D01*
X39151802Y-35018127D01*
X39152078Y-35017383D01*
X39240436Y-34801822D01*
X39246743Y-34795468D01*
X39462384Y-34707078D01*
X39471337Y-34707111D01*
G37*
G04 #@! TD.AperFunction*
M02*
