G04 #@! TF.GenerationSoftware,KiCad,Pcbnew,7.0.9*
G04 #@! TF.CreationDate,2024-04-26T16:02:49+09:00*
G04 #@! TF.ProjectId,Geekble_Mini_ESP32C3,4765656b-626c-4655-9f4d-696e695f4553,1*
G04 #@! TF.SameCoordinates,Original*
G04 #@! TF.FileFunction,Soldermask,Top*
G04 #@! TF.FilePolarity,Negative*
%FSLAX46Y46*%
G04 Gerber Fmt 4.6, Leading zero omitted, Abs format (unit mm)*
G04 Created by KiCad (PCBNEW 7.0.9) date 2024-04-26 16:02:49*
%MOMM*%
%LPD*%
G01*
G04 APERTURE LIST*
G04 Aperture macros list*
%AMRoundRect*
0 Rectangle with rounded corners*
0 $1 Rounding radius*
0 $2 $3 $4 $5 $6 $7 $8 $9 X,Y pos of 4 corners*
0 Add a 4 corners polygon primitive as box body*
4,1,4,$2,$3,$4,$5,$6,$7,$8,$9,$2,$3,0*
0 Add four circle primitives for the rounded corners*
1,1,$1+$1,$2,$3*
1,1,$1+$1,$4,$5*
1,1,$1+$1,$6,$7*
1,1,$1+$1,$8,$9*
0 Add four rect primitives between the rounded corners*
20,1,$1+$1,$2,$3,$4,$5,0*
20,1,$1+$1,$4,$5,$6,$7,0*
20,1,$1+$1,$6,$7,$8,$9,0*
20,1,$1+$1,$8,$9,$2,$3,0*%
%AMFreePoly0*
4,1,35,1.765657,1.893655,1.793593,1.888098,1.818825,1.877646,1.842508,1.861822,1.861822,1.842508,1.877646,1.818825,1.888098,1.793593,1.893655,1.765657,1.895000,1.752000,1.895000,-1.752000,1.893655,-1.765657,1.888098,-1.793593,1.877646,-1.818825,1.861822,-1.842508,1.842508,-1.861822,1.818825,-1.877646,1.793593,-1.888098,1.765657,-1.893655,1.752000,-1.895000,-1.752000,-1.895000,
-1.765657,-1.893655,-1.793593,-1.888098,-1.818825,-1.877646,-1.842508,-1.861822,-1.861822,-1.842508,-1.877646,-1.818825,-1.888098,-1.793593,-1.893655,-1.765657,-1.895000,-1.752000,-1.895000,1.624250,-1.874497,1.673746,-1.673746,1.874497,-1.624250,1.895000,1.752000,1.895000,1.765657,1.893655,1.765657,1.893655,$1*%
%AMFreePoly1*
4,1,72,0.115470,0.647547,0.117456,0.646900,0.122282,0.646677,0.148051,0.636959,0.174228,0.628455,0.178135,0.625615,0.180096,0.624877,0.193705,0.617130,0.693704,0.217130,0.704241,0.205565,0.706684,0.201850,0.710289,0.199232,0.728456,0.174227,0.731966,0.163421,0.738206,0.153938,0.746383,0.124133,0.746176,0.119686,0.747552,0.115453,0.750000,0.100000,0.750000,-0.500000,
0.747553,-0.515451,0.745106,-0.522982,0.745106,-0.530902,0.735556,-0.560293,0.730900,-0.566699,0.728455,-0.574228,0.710289,-0.599231,0.703884,-0.603884,0.699231,-0.610289,0.674228,-0.628455,0.666699,-0.630900,0.660293,-0.635556,0.630902,-0.645106,0.622982,-0.645106,0.615450,-0.647553,0.600000,-0.650000,-0.600000,-0.650000,-0.615450,-0.647553,-0.622982,-0.645106,-0.630902,-0.645106,
-0.660293,-0.635556,-0.666699,-0.630900,-0.674228,-0.628455,-0.699231,-0.610289,-0.703884,-0.603884,-0.710289,-0.599231,-0.728455,-0.574228,-0.730900,-0.566699,-0.735556,-0.560293,-0.745106,-0.530902,-0.745106,-0.522982,-0.747553,-0.515451,-0.750000,-0.500000,-0.750000,0.500000,-0.747553,0.515451,-0.745106,0.522982,-0.745106,0.530902,-0.735556,0.560293,-0.730900,0.566699,-0.728455,0.574228,
-0.710289,0.599231,-0.703884,0.603884,-0.699231,0.610289,-0.674228,0.628455,-0.666699,0.630900,-0.660293,0.635556,-0.630902,0.645106,-0.622981,0.645106,-0.615450,0.647553,-0.600000,0.650000,0.100000,0.650000,0.115470,0.647547,0.115470,0.647547,$1*%
G04 Aperture macros list end*
%ADD10C,0.120000*%
%ADD11C,0.010000*%
%ADD12O,1.624000X3.148000*%
%ADD13C,1.116000*%
%ADD14RoundRect,0.268750X-0.218750X-0.256250X0.218750X-0.256250X0.218750X0.256250X-0.218750X0.256250X0*%
%ADD15RoundRect,0.190000X-0.140000X-0.170000X0.140000X-0.170000X0.140000X0.170000X-0.140000X0.170000X0*%
%ADD16RoundRect,0.185000X-0.135000X-0.185000X0.135000X-0.185000X0.135000X0.185000X-0.135000X0.185000X0*%
%ADD17C,1.300000*%
%ADD18RoundRect,0.185000X0.185000X-0.135000X0.185000X0.135000X-0.185000X0.135000X-0.185000X-0.135000X0*%
%ADD19RoundRect,0.190000X-0.219203X-0.021213X-0.021213X-0.219203X0.219203X0.021213X0.021213X0.219203X0*%
%ADD20RoundRect,0.190000X0.021213X-0.219203X0.219203X-0.021213X-0.021213X0.219203X-0.219203X0.021213X0*%
%ADD21RoundRect,0.190000X-0.021213X0.219203X-0.219203X0.021213X0.021213X-0.219203X0.219203X-0.021213X0*%
%ADD22RoundRect,0.200000X-0.500000X0.350000X-0.500000X-0.350000X0.500000X-0.350000X0.500000X0.350000X0*%
%ADD23RoundRect,0.200000X0.500000X-0.350000X0.500000X0.350000X-0.500000X0.350000X-0.500000X-0.350000X0*%
%ADD24RoundRect,0.185000X-0.185000X0.135000X-0.185000X-0.135000X0.185000X-0.135000X0.185000X0.135000X0*%
%ADD25RoundRect,0.170000X-0.194454X-0.159099X-0.159099X-0.194454X0.194454X0.159099X0.159099X0.194454X0*%
%ADD26RoundRect,0.170000X-0.159099X0.194454X-0.194454X0.159099X0.159099X-0.194454X0.194454X-0.159099X0*%
%ADD27FreePoly0,225.000000*%
%ADD28RoundRect,0.190000X-0.170000X0.140000X-0.170000X-0.140000X0.170000X-0.140000X0.170000X0.140000X0*%
%ADD29RoundRect,0.185000X-0.226274X-0.035355X-0.035355X-0.226274X0.226274X0.035355X0.035355X0.226274X0*%
%ADD30RoundRect,0.200000X0.400000X0.150000X-0.400000X0.150000X-0.400000X-0.150000X0.400000X-0.150000X0*%
%ADD31RoundRect,0.350000X-0.700000X0.300000X-0.700000X-0.300000X0.700000X-0.300000X0.700000X0.300000X0*%
%ADD32RoundRect,0.250000X-0.800000X0.200000X-0.800000X-0.200000X0.800000X-0.200000X0.800000X0.200000X0*%
%ADD33RoundRect,0.190000X0.170000X-0.140000X0.170000X0.140000X-0.170000X0.140000X-0.170000X-0.140000X0*%
%ADD34RoundRect,0.175000X-0.125000X0.175000X-0.125000X-0.175000X0.125000X-0.175000X0.125000X0.175000X0*%
%ADD35RoundRect,0.190000X0.140000X0.170000X-0.140000X0.170000X-0.140000X-0.170000X0.140000X-0.170000X0*%
%ADD36RoundRect,0.185000X0.135000X0.185000X-0.135000X0.185000X-0.135000X-0.185000X0.135000X-0.185000X0*%
%ADD37RoundRect,0.190000X0.219203X0.021213X0.021213X0.219203X-0.219203X-0.021213X-0.021213X-0.219203X0*%
%ADD38C,0.750000*%
%ADD39RoundRect,0.200000X0.575000X-0.150000X0.575000X0.150000X-0.575000X0.150000X-0.575000X-0.150000X0*%
%ADD40RoundRect,0.125000X0.650000X-0.075000X0.650000X0.075000X-0.650000X0.075000X-0.650000X-0.075000X0*%
%ADD41O,2.200000X1.100000*%
%ADD42O,1.700000X1.100000*%
%ADD43FreePoly1,180.000000*%
%ADD44RoundRect,0.170000X0.580000X0.480000X-0.580000X0.480000X-0.580000X-0.480000X0.580000X-0.480000X0*%
G04 APERTURE END LIST*
D10*
G36*
X30068032Y-37135242D02*
G01*
X30058653Y-37016980D01*
X30065787Y-37017090D01*
X30072680Y-37016980D01*
X30079333Y-37016650D01*
X30085746Y-37016101D01*
X30091918Y-37015331D01*
X30097850Y-37014342D01*
X30106296Y-37012446D01*
X30114202Y-37010056D01*
X30121567Y-37007171D01*
X30128391Y-37003791D01*
X30134673Y-36999917D01*
X30140415Y-36995548D01*
X30143943Y-36992360D01*
X30148814Y-36987167D01*
X30153206Y-36981479D01*
X30157119Y-36975297D01*
X30160553Y-36968620D01*
X30163507Y-36961448D01*
X30165983Y-36953782D01*
X30167979Y-36945621D01*
X30169497Y-36936966D01*
X30170242Y-36930921D01*
X30170774Y-36924656D01*
X30171094Y-36918172D01*
X30171200Y-36911467D01*
X30171105Y-36904359D01*
X30170818Y-36897433D01*
X30170340Y-36890689D01*
X30169671Y-36884127D01*
X30168810Y-36877747D01*
X30167759Y-36871549D01*
X30166516Y-36865534D01*
X30165082Y-36859700D01*
X30163457Y-36854048D01*
X30160661Y-36845912D01*
X30157434Y-36838185D01*
X30153777Y-36830868D01*
X30149691Y-36823960D01*
X30146727Y-36819583D01*
X30142039Y-36813369D01*
X30137206Y-36807642D01*
X30132229Y-36802402D01*
X30127108Y-36797649D01*
X30121843Y-36793383D01*
X30116433Y-36789604D01*
X30110880Y-36786311D01*
X30105181Y-36783505D01*
X30099339Y-36781186D01*
X30093352Y-36779354D01*
X30089281Y-36778404D01*
X30082840Y-36777363D01*
X30076707Y-36776987D01*
X30069754Y-36777414D01*
X30063244Y-36778800D01*
X30057176Y-36781145D01*
X30053377Y-36783240D01*
X30047961Y-36787366D01*
X30043652Y-36791821D01*
X30039529Y-36797198D01*
X30036364Y-36802165D01*
X30033319Y-36807722D01*
X30030393Y-36813870D01*
X30027585Y-36820609D01*
X30025493Y-36826281D01*
X30023024Y-36833551D01*
X30020926Y-36840052D01*
X30018618Y-36847452D01*
X30016097Y-36855752D01*
X30014300Y-36861784D01*
X30012409Y-36868216D01*
X30010423Y-36875048D01*
X30008344Y-36882279D01*
X30006171Y-36889910D01*
X30003904Y-36897940D01*
X30001544Y-36906370D01*
X30000328Y-36910734D01*
X29997153Y-36921823D01*
X29993894Y-36932448D01*
X29990549Y-36942610D01*
X29987121Y-36952308D01*
X29983607Y-36961542D01*
X29980008Y-36970312D01*
X29976325Y-36978619D01*
X29972558Y-36986462D01*
X29968705Y-36993841D01*
X29964768Y-37000757D01*
X29960746Y-37007209D01*
X29956639Y-37013197D01*
X29952448Y-37018722D01*
X29948171Y-37023783D01*
X29943811Y-37028380D01*
X29939365Y-37032514D01*
X29932977Y-37037796D01*
X29926416Y-37042616D01*
X29919683Y-37046974D01*
X29912776Y-37050869D01*
X29905697Y-37054301D01*
X29898444Y-37057271D01*
X29891019Y-37059778D01*
X29883421Y-37061823D01*
X29875650Y-37063405D01*
X29867706Y-37064525D01*
X29859590Y-37065182D01*
X29851300Y-37065377D01*
X29842838Y-37065109D01*
X29834202Y-37064378D01*
X29825394Y-37063185D01*
X29816413Y-37061530D01*
X29810611Y-37060226D01*
X29804857Y-37058732D01*
X29799149Y-37057048D01*
X29793488Y-37055174D01*
X29787874Y-37053109D01*
X29782307Y-37050855D01*
X29776787Y-37048411D01*
X29771314Y-37045776D01*
X29765887Y-37042952D01*
X29760508Y-37039937D01*
X29755176Y-37036733D01*
X29749890Y-37033338D01*
X29744652Y-37029754D01*
X29739461Y-37025979D01*
X29734316Y-37022014D01*
X29729218Y-37017859D01*
X29724202Y-37013519D01*
X29719338Y-37009035D01*
X29714626Y-37004406D01*
X29710067Y-36999633D01*
X29705659Y-36994715D01*
X29701404Y-36989654D01*
X29697302Y-36984448D01*
X29693351Y-36979098D01*
X29689553Y-36973604D01*
X29685907Y-36967965D01*
X29682414Y-36962182D01*
X29679072Y-36956255D01*
X29675883Y-36950184D01*
X29672846Y-36943968D01*
X29669962Y-36937608D01*
X29667230Y-36931104D01*
X29664656Y-36924450D01*
X29662249Y-36917677D01*
X29660008Y-36910785D01*
X29657933Y-36903774D01*
X29656024Y-36896643D01*
X29654281Y-36889394D01*
X29652704Y-36882025D01*
X29651293Y-36874538D01*
X29650048Y-36866931D01*
X29648969Y-36859205D01*
X29648056Y-36851361D01*
X29647308Y-36843397D01*
X29646727Y-36835314D01*
X29646312Y-36827112D01*
X29646063Y-36818791D01*
X29645980Y-36810351D01*
X29646030Y-36803463D01*
X29646180Y-36796704D01*
X29646430Y-36790072D01*
X29646780Y-36783569D01*
X29647229Y-36777195D01*
X29647778Y-36770948D01*
X29648428Y-36764830D01*
X29649177Y-36758840D01*
X29650026Y-36752978D01*
X29652024Y-36741639D01*
X29654421Y-36730813D01*
X29657218Y-36720500D01*
X29660415Y-36710700D01*
X29664011Y-36701412D01*
X29668007Y-36692638D01*
X29672402Y-36684376D01*
X29677197Y-36676628D01*
X29682391Y-36669392D01*
X29687985Y-36662669D01*
X29693978Y-36656459D01*
X29697125Y-36653547D01*
X29703651Y-36648068D01*
X29710445Y-36643062D01*
X29717504Y-36638529D01*
X29724831Y-36634468D01*
X29732425Y-36630881D01*
X29740285Y-36627766D01*
X29748412Y-36625124D01*
X29756806Y-36622955D01*
X29765466Y-36621259D01*
X29774393Y-36620036D01*
X29783587Y-36619285D01*
X29793048Y-36619008D01*
X29802776Y-36619203D01*
X29812770Y-36619871D01*
X29823031Y-36621012D01*
X29833559Y-36622626D01*
X29833559Y-36742060D01*
X29825346Y-36741932D01*
X29817579Y-36742205D01*
X29810258Y-36742880D01*
X29803382Y-36743956D01*
X29796952Y-36745435D01*
X29790967Y-36747315D01*
X29785429Y-36749598D01*
X29778737Y-36753266D01*
X29772837Y-36757649D01*
X29768932Y-36761404D01*
X29764295Y-36767140D01*
X29760277Y-36773797D01*
X29757669Y-36779393D01*
X29755408Y-36785507D01*
X29753496Y-36792139D01*
X29751931Y-36799289D01*
X29750714Y-36806956D01*
X29749844Y-36815141D01*
X29749322Y-36823844D01*
X29749168Y-36829934D01*
X29749149Y-36833065D01*
X29749232Y-36839480D01*
X29749483Y-36845755D01*
X29749901Y-36851891D01*
X29750486Y-36857886D01*
X29751238Y-36863743D01*
X29752680Y-36872265D01*
X29754498Y-36880473D01*
X29756691Y-36888366D01*
X29759261Y-36895946D01*
X29762207Y-36903211D01*
X29765530Y-36910162D01*
X29769228Y-36916799D01*
X29770544Y-36918941D01*
X29774135Y-36924100D01*
X29778018Y-36928732D01*
X29783285Y-36933782D01*
X29789009Y-36938009D01*
X29795191Y-36941412D01*
X29801832Y-36943993D01*
X29807474Y-36945466D01*
X29813876Y-36946375D01*
X29819985Y-36946353D01*
X29825800Y-36945401D01*
X29832391Y-36943031D01*
X29837561Y-36940033D01*
X29842437Y-36936105D01*
X29843377Y-36935208D01*
X29848184Y-36929556D01*
X29851846Y-36924008D01*
X29855556Y-36917336D01*
X29859316Y-36909541D01*
X29861850Y-36903720D01*
X29864405Y-36897401D01*
X29866982Y-36890582D01*
X29869581Y-36883263D01*
X29872202Y-36875446D01*
X29874844Y-36867130D01*
X29877508Y-36858314D01*
X29880194Y-36848999D01*
X29882902Y-36839185D01*
X29884264Y-36834091D01*
X29886978Y-36823938D01*
X29889700Y-36814143D01*
X29892428Y-36804704D01*
X29895163Y-36795623D01*
X29897905Y-36786899D01*
X29900654Y-36778532D01*
X29903410Y-36770522D01*
X29906172Y-36762870D01*
X29908942Y-36755575D01*
X29911718Y-36748637D01*
X29914501Y-36742056D01*
X29917291Y-36735832D01*
X29920088Y-36729966D01*
X29922892Y-36724457D01*
X29925703Y-36719305D01*
X29928521Y-36714510D01*
X29932898Y-36707749D01*
X29937566Y-36701369D01*
X29942525Y-36695370D01*
X29947775Y-36689753D01*
X29953317Y-36684517D01*
X29959149Y-36679662D01*
X29965273Y-36675188D01*
X29971687Y-36671096D01*
X29978393Y-36667384D01*
X29985390Y-36664055D01*
X29990216Y-36662046D01*
X29997714Y-36659375D01*
X30005533Y-36657185D01*
X30013675Y-36655476D01*
X30022138Y-36654250D01*
X30030924Y-36653505D01*
X30036959Y-36653276D01*
X30043138Y-36653261D01*
X30049460Y-36653460D01*
X30055926Y-36653873D01*
X30062534Y-36654501D01*
X30069285Y-36655342D01*
X30076180Y-36656398D01*
X30083217Y-36657668D01*
X30086790Y-36658383D01*
X30093285Y-36659844D01*
X30099729Y-36661515D01*
X30106122Y-36663397D01*
X30112463Y-36665490D01*
X30118752Y-36667794D01*
X30124990Y-36670308D01*
X30131177Y-36673033D01*
X30137312Y-36675968D01*
X30143395Y-36679114D01*
X30149427Y-36682471D01*
X30155407Y-36686039D01*
X30161336Y-36689817D01*
X30167213Y-36693806D01*
X30173039Y-36698005D01*
X30178813Y-36702415D01*
X30184536Y-36707036D01*
X30190141Y-36711816D01*
X30195563Y-36716742D01*
X30200802Y-36721814D01*
X30205858Y-36727030D01*
X30210731Y-36732392D01*
X30215420Y-36737900D01*
X30219927Y-36743553D01*
X30224250Y-36749351D01*
X30228390Y-36755295D01*
X30232346Y-36761384D01*
X30236120Y-36767618D01*
X30239710Y-36773998D01*
X30243118Y-36780523D01*
X30246342Y-36787194D01*
X30249382Y-36794010D01*
X30252240Y-36800972D01*
X30254920Y-36808069D01*
X30257426Y-36815329D01*
X30259760Y-36822751D01*
X30261921Y-36830336D01*
X30263909Y-36838083D01*
X30265725Y-36845993D01*
X30267367Y-36854066D01*
X30268836Y-36862301D01*
X30270133Y-36870699D01*
X30271257Y-36879259D01*
X30272207Y-36887982D01*
X30272985Y-36896868D01*
X30273590Y-36905916D01*
X30274023Y-36915126D01*
X30274282Y-36924499D01*
X30274368Y-36934035D01*
X30274317Y-36940980D01*
X30274163Y-36947802D01*
X30273906Y-36954502D01*
X30273546Y-36961077D01*
X30273084Y-36967530D01*
X30272519Y-36973860D01*
X30271851Y-36980067D01*
X30271080Y-36986151D01*
X30270207Y-36992111D01*
X30269231Y-36997949D01*
X30266970Y-37009254D01*
X30264299Y-37020068D01*
X30261216Y-37030389D01*
X30257722Y-37040218D01*
X30253818Y-37049554D01*
X30249502Y-37058399D01*
X30244775Y-37066751D01*
X30239638Y-37074610D01*
X30234089Y-37081978D01*
X30228129Y-37088853D01*
X30221759Y-37095235D01*
X30214976Y-37101145D01*
X30207816Y-37106600D01*
X30200280Y-37111600D01*
X30192367Y-37116146D01*
X30184077Y-37120237D01*
X30175411Y-37123874D01*
X30166368Y-37127056D01*
X30156949Y-37129784D01*
X30147152Y-37132057D01*
X30136980Y-37133875D01*
X30126430Y-37135240D01*
X30115504Y-37136149D01*
X30104201Y-37136604D01*
X30092521Y-37136605D01*
X30086540Y-37136435D01*
X30080465Y-37136151D01*
X30074296Y-37135754D01*
X30068032Y-37135242D01*
G37*
G36*
X29996023Y-36119104D02*
G01*
X30007469Y-36119791D01*
X30019182Y-36121020D01*
X30025139Y-36121838D01*
X30031163Y-36122791D01*
X30037254Y-36123879D01*
X30043412Y-36125103D01*
X30049607Y-36126449D01*
X30055736Y-36127903D01*
X30061798Y-36129467D01*
X30067794Y-36131139D01*
X30073723Y-36132920D01*
X30079586Y-36134809D01*
X30085383Y-36136808D01*
X30091113Y-36138915D01*
X30096777Y-36141131D01*
X30102374Y-36143455D01*
X30107905Y-36145889D01*
X30113370Y-36148431D01*
X30118768Y-36151082D01*
X30124100Y-36153842D01*
X30129365Y-36156710D01*
X30134564Y-36159688D01*
X30139696Y-36162774D01*
X30144762Y-36165969D01*
X30149762Y-36169272D01*
X30154696Y-36172684D01*
X30159562Y-36176206D01*
X30164363Y-36179835D01*
X30169097Y-36183574D01*
X30173765Y-36187421D01*
X30178366Y-36191378D01*
X30182901Y-36195443D01*
X30187370Y-36199616D01*
X30191772Y-36203899D01*
X30196107Y-36208290D01*
X30200377Y-36212790D01*
X30204579Y-36217399D01*
X30208716Y-36222116D01*
X30212755Y-36226906D01*
X30216666Y-36231733D01*
X30220449Y-36236597D01*
X30224103Y-36241497D01*
X30227630Y-36246434D01*
X30231028Y-36251407D01*
X30234297Y-36256417D01*
X30237439Y-36261464D01*
X30240452Y-36266547D01*
X30243337Y-36271667D01*
X30248723Y-36282017D01*
X30253596Y-36292513D01*
X30257955Y-36303156D01*
X30261802Y-36313945D01*
X30265136Y-36324881D01*
X30267957Y-36335964D01*
X30270265Y-36347193D01*
X30272060Y-36358569D01*
X30273343Y-36370091D01*
X30274112Y-36381759D01*
X30274304Y-36387649D01*
X30274368Y-36393575D01*
X30274262Y-36400895D01*
X30273943Y-36408128D01*
X30273410Y-36415275D01*
X30272665Y-36422334D01*
X30271707Y-36429307D01*
X30270535Y-36436192D01*
X30269151Y-36442990D01*
X30267554Y-36449702D01*
X30265744Y-36456326D01*
X30263721Y-36462863D01*
X30261485Y-36469314D01*
X30259036Y-36475677D01*
X30256374Y-36481953D01*
X30253499Y-36488142D01*
X30250412Y-36494245D01*
X30247111Y-36500260D01*
X30243586Y-36506111D01*
X30239864Y-36511720D01*
X30235943Y-36517088D01*
X30231824Y-36522214D01*
X30227508Y-36527099D01*
X30222993Y-36531742D01*
X30218280Y-36536144D01*
X30213369Y-36540304D01*
X30208260Y-36544222D01*
X30202953Y-36547899D01*
X30197447Y-36551334D01*
X30191744Y-36554528D01*
X30185843Y-36557480D01*
X30179743Y-36560190D01*
X30173446Y-36562659D01*
X30166950Y-36564887D01*
X30160266Y-36566848D01*
X30153402Y-36568557D01*
X30146358Y-36570013D01*
X30139134Y-36571216D01*
X30131731Y-36572165D01*
X30124148Y-36572862D01*
X30116385Y-36573306D01*
X30108442Y-36573496D01*
X30100320Y-36573434D01*
X30092017Y-36573118D01*
X30083536Y-36572550D01*
X30074874Y-36571728D01*
X30066033Y-36570654D01*
X30057011Y-36569326D01*
X30047810Y-36567746D01*
X30038430Y-36565912D01*
X30031191Y-36564287D01*
X30023981Y-36562453D01*
X30016802Y-36560408D01*
X30009652Y-36558155D01*
X30002532Y-36555691D01*
X29995442Y-36553019D01*
X29988381Y-36550136D01*
X29981350Y-36547045D01*
X29974349Y-36543743D01*
X29967378Y-36540233D01*
X29960437Y-36536512D01*
X29953525Y-36532582D01*
X29946643Y-36528443D01*
X29939791Y-36524094D01*
X29932968Y-36519536D01*
X29926176Y-36514768D01*
X29919498Y-36509807D01*
X29913021Y-36504707D01*
X29906744Y-36499467D01*
X29900668Y-36494087D01*
X29894792Y-36488567D01*
X29889116Y-36482908D01*
X29883640Y-36477109D01*
X29878365Y-36471171D01*
X29873291Y-36465092D01*
X29868416Y-36458874D01*
X29863742Y-36452517D01*
X29859269Y-36446020D01*
X29854995Y-36439383D01*
X29850922Y-36432606D01*
X29847050Y-36425690D01*
X29843377Y-36418634D01*
X29839917Y-36411486D01*
X29836680Y-36404293D01*
X29833666Y-36397056D01*
X29830875Y-36389774D01*
X29828308Y-36382447D01*
X29825964Y-36375076D01*
X29823843Y-36367660D01*
X29821945Y-36360199D01*
X29820271Y-36352694D01*
X29818820Y-36345144D01*
X29817592Y-36337549D01*
X29816587Y-36329910D01*
X29815806Y-36322226D01*
X29815360Y-36316052D01*
X29899211Y-36316052D01*
X29899541Y-36324296D01*
X29900530Y-36332432D01*
X29902179Y-36340460D01*
X29904487Y-36348379D01*
X29907455Y-36356190D01*
X29911082Y-36363893D01*
X29915368Y-36371488D01*
X29918592Y-36376491D01*
X29922109Y-36381447D01*
X29925919Y-36386354D01*
X29930023Y-36391212D01*
X29934419Y-36396023D01*
X29936727Y-36398411D01*
X29941528Y-36403064D01*
X29946587Y-36407535D01*
X29951905Y-36411825D01*
X29957482Y-36415932D01*
X29963317Y-36419857D01*
X29969411Y-36423600D01*
X29975764Y-36427162D01*
X29982376Y-36430541D01*
X29989247Y-36433738D01*
X29996376Y-36436753D01*
X30003764Y-36439586D01*
X30011410Y-36442237D01*
X30019316Y-36444706D01*
X30027480Y-36446993D01*
X30035903Y-36449098D01*
X30044585Y-36451021D01*
X30053267Y-36452708D01*
X30061692Y-36454105D01*
X30069859Y-36455213D01*
X30077768Y-36456031D01*
X30085420Y-36456559D01*
X30092814Y-36456798D01*
X30099951Y-36456747D01*
X30106830Y-36456406D01*
X30113452Y-36455776D01*
X30119815Y-36454856D01*
X30125922Y-36453646D01*
X30131770Y-36452147D01*
X30137361Y-36450358D01*
X30145265Y-36447132D01*
X30152589Y-36443254D01*
X30159267Y-36438858D01*
X30165289Y-36434078D01*
X30170653Y-36428914D01*
X30175361Y-36423367D01*
X30179412Y-36417436D01*
X30182805Y-36411121D01*
X30185542Y-36404422D01*
X30187623Y-36397339D01*
X30189046Y-36389872D01*
X30189812Y-36382022D01*
X30189958Y-36376575D01*
X30189630Y-36368334D01*
X30188644Y-36360206D01*
X30187002Y-36352191D01*
X30184703Y-36344289D01*
X30181747Y-36336501D01*
X30178134Y-36328827D01*
X30173865Y-36321265D01*
X30170653Y-36316287D01*
X30167150Y-36311360D01*
X30163354Y-36306482D01*
X30159267Y-36301656D01*
X30154888Y-36296879D01*
X30152589Y-36294510D01*
X30147767Y-36289856D01*
X30142681Y-36285383D01*
X30137330Y-36281091D01*
X30131715Y-36276979D01*
X30125836Y-36273049D01*
X30119692Y-36269299D01*
X30113283Y-36265731D01*
X30106610Y-36262343D01*
X30099673Y-36259136D01*
X30092471Y-36256110D01*
X30085004Y-36253265D01*
X30077274Y-36250601D01*
X30069278Y-36248118D01*
X30061018Y-36245815D01*
X30052494Y-36243694D01*
X30043705Y-36241753D01*
X30035130Y-36240083D01*
X30026807Y-36238701D01*
X30018735Y-36237606D01*
X30010916Y-36236798D01*
X30003348Y-36236278D01*
X29996032Y-36236045D01*
X29988968Y-36236099D01*
X29982156Y-36236441D01*
X29975596Y-36237070D01*
X29969288Y-36237987D01*
X29963231Y-36239190D01*
X29957427Y-36240682D01*
X29949192Y-36243457D01*
X29941524Y-36246880D01*
X29936727Y-36249520D01*
X29930023Y-36253890D01*
X29923978Y-36258646D01*
X29918592Y-36263789D01*
X29913866Y-36269318D01*
X29909799Y-36275233D01*
X29906392Y-36281535D01*
X29903644Y-36288223D01*
X29901556Y-36295297D01*
X29900127Y-36302758D01*
X29899358Y-36310606D01*
X29899211Y-36316052D01*
X29815360Y-36316052D01*
X29815248Y-36314497D01*
X29814913Y-36306724D01*
X29814801Y-36298906D01*
X29814864Y-36292881D01*
X29815054Y-36286951D01*
X29815813Y-36275374D01*
X29817078Y-36264176D01*
X29818849Y-36253358D01*
X29821127Y-36242918D01*
X29823910Y-36232858D01*
X29827199Y-36223176D01*
X29830994Y-36213873D01*
X29835296Y-36204949D01*
X29840103Y-36196404D01*
X29845417Y-36188238D01*
X29851236Y-36180451D01*
X29857562Y-36173043D01*
X29864393Y-36166014D01*
X29871731Y-36159364D01*
X29879574Y-36153093D01*
X29887805Y-36147282D01*
X29896303Y-36142013D01*
X29905070Y-36137285D01*
X29914104Y-36133099D01*
X29923406Y-36129454D01*
X29932976Y-36126351D01*
X29942814Y-36123789D01*
X29952920Y-36121769D01*
X29963294Y-36120290D01*
X29973936Y-36119353D01*
X29984846Y-36118958D01*
X29996023Y-36119104D01*
G37*
G36*
X29996023Y-35606194D02*
G01*
X30007469Y-35606881D01*
X30019182Y-35608110D01*
X30025139Y-35608928D01*
X30031163Y-35609881D01*
X30037254Y-35610969D01*
X30043412Y-35612193D01*
X30049607Y-35613539D01*
X30055736Y-35614993D01*
X30061798Y-35616557D01*
X30067794Y-35618229D01*
X30073723Y-35620010D01*
X30079586Y-35621899D01*
X30085383Y-35623898D01*
X30091113Y-35626005D01*
X30096777Y-35628221D01*
X30102374Y-35630545D01*
X30107905Y-35632979D01*
X30113370Y-35635521D01*
X30118768Y-35638172D01*
X30124100Y-35640932D01*
X30129365Y-35643800D01*
X30134564Y-35646778D01*
X30139696Y-35649864D01*
X30144762Y-35653059D01*
X30149762Y-35656362D01*
X30154696Y-35659774D01*
X30159562Y-35663296D01*
X30164363Y-35666925D01*
X30169097Y-35670664D01*
X30173765Y-35674511D01*
X30178366Y-35678468D01*
X30182901Y-35682533D01*
X30187370Y-35686706D01*
X30191772Y-35690989D01*
X30196107Y-35695380D01*
X30200377Y-35699880D01*
X30204579Y-35704489D01*
X30208716Y-35709206D01*
X30212755Y-35713996D01*
X30216666Y-35718823D01*
X30220449Y-35723687D01*
X30224103Y-35728587D01*
X30227630Y-35733524D01*
X30231028Y-35738497D01*
X30234297Y-35743507D01*
X30237439Y-35748554D01*
X30240452Y-35753637D01*
X30243337Y-35758757D01*
X30248723Y-35769107D01*
X30253596Y-35779603D01*
X30257955Y-35790246D01*
X30261802Y-35801035D01*
X30265136Y-35811971D01*
X30267957Y-35823054D01*
X30270265Y-35834283D01*
X30272060Y-35845659D01*
X30273343Y-35857181D01*
X30274112Y-35868849D01*
X30274304Y-35874739D01*
X30274368Y-35880665D01*
X30274262Y-35887985D01*
X30273943Y-35895218D01*
X30273410Y-35902365D01*
X30272665Y-35909424D01*
X30271707Y-35916397D01*
X30270535Y-35923282D01*
X30269151Y-35930080D01*
X30267554Y-35936792D01*
X30265744Y-35943416D01*
X30263721Y-35949953D01*
X30261485Y-35956404D01*
X30259036Y-35962767D01*
X30256374Y-35969043D01*
X30253499Y-35975232D01*
X30250412Y-35981335D01*
X30247111Y-35987350D01*
X30243586Y-35993201D01*
X30239864Y-35998810D01*
X30235943Y-36004178D01*
X30231824Y-36009304D01*
X30227508Y-36014189D01*
X30222993Y-36018832D01*
X30218280Y-36023234D01*
X30213369Y-36027394D01*
X30208260Y-36031312D01*
X30202953Y-36034989D01*
X30197447Y-36038424D01*
X30191744Y-36041618D01*
X30185843Y-36044570D01*
X30179743Y-36047280D01*
X30173446Y-36049749D01*
X30166950Y-36051977D01*
X30160266Y-36053938D01*
X30153402Y-36055647D01*
X30146358Y-36057103D01*
X30139134Y-36058306D01*
X30131731Y-36059255D01*
X30124148Y-36059952D01*
X30116385Y-36060396D01*
X30108442Y-36060586D01*
X30100320Y-36060524D01*
X30092017Y-36060208D01*
X30083536Y-36059640D01*
X30074874Y-36058818D01*
X30066033Y-36057744D01*
X30057011Y-36056416D01*
X30047810Y-36054836D01*
X30038430Y-36053002D01*
X30031191Y-36051377D01*
X30023981Y-36049543D01*
X30016802Y-36047498D01*
X30009652Y-36045245D01*
X30002532Y-36042781D01*
X29995442Y-36040109D01*
X29988381Y-36037226D01*
X29981350Y-36034135D01*
X29974349Y-36030833D01*
X29967378Y-36027323D01*
X29960437Y-36023602D01*
X29953525Y-36019672D01*
X29946643Y-36015533D01*
X29939791Y-36011184D01*
X29932968Y-36006626D01*
X29926176Y-36001858D01*
X29919498Y-35996897D01*
X29913021Y-35991797D01*
X29906744Y-35986557D01*
X29900668Y-35981177D01*
X29894792Y-35975657D01*
X29889116Y-35969998D01*
X29883640Y-35964199D01*
X29878365Y-35958261D01*
X29873291Y-35952182D01*
X29868416Y-35945965D01*
X29863742Y-35939607D01*
X29859269Y-35933110D01*
X29854995Y-35926473D01*
X29850922Y-35919696D01*
X29847050Y-35912780D01*
X29843377Y-35905724D01*
X29839917Y-35898576D01*
X29836680Y-35891383D01*
X29833666Y-35884146D01*
X29830875Y-35876864D01*
X29828308Y-35869537D01*
X29825964Y-35862166D01*
X29823843Y-35854750D01*
X29821945Y-35847289D01*
X29820271Y-35839784D01*
X29818820Y-35832234D01*
X29817592Y-35824639D01*
X29816587Y-35817000D01*
X29815806Y-35809316D01*
X29815360Y-35803142D01*
X29899211Y-35803142D01*
X29899541Y-35811386D01*
X29900530Y-35819522D01*
X29902179Y-35827550D01*
X29904487Y-35835469D01*
X29907455Y-35843280D01*
X29911082Y-35850983D01*
X29915368Y-35858578D01*
X29918592Y-35863581D01*
X29922109Y-35868537D01*
X29925919Y-35873444D01*
X29930023Y-35878302D01*
X29934419Y-35883113D01*
X29936727Y-35885501D01*
X29941528Y-35890154D01*
X29946587Y-35894625D01*
X29951905Y-35898915D01*
X29957482Y-35903022D01*
X29963317Y-35906947D01*
X29969411Y-35910691D01*
X29975764Y-35914252D01*
X29982376Y-35917631D01*
X29989247Y-35920828D01*
X29996376Y-35923843D01*
X30003764Y-35926676D01*
X30011410Y-35929327D01*
X30019316Y-35931796D01*
X30027480Y-35934083D01*
X30035903Y-35936188D01*
X30044585Y-35938111D01*
X30053267Y-35939798D01*
X30061692Y-35941195D01*
X30069859Y-35942303D01*
X30077768Y-35943121D01*
X30085420Y-35943649D01*
X30092814Y-35943888D01*
X30099951Y-35943837D01*
X30106830Y-35943496D01*
X30113452Y-35942866D01*
X30119815Y-35941946D01*
X30125922Y-35940736D01*
X30131770Y-35939237D01*
X30137361Y-35937448D01*
X30145265Y-35934222D01*
X30152589Y-35930344D01*
X30159267Y-35925948D01*
X30165289Y-35921168D01*
X30170653Y-35916004D01*
X30175361Y-35910457D01*
X30179412Y-35904526D01*
X30182805Y-35898211D01*
X30185542Y-35891512D01*
X30187623Y-35884429D01*
X30189046Y-35876963D01*
X30189812Y-35869112D01*
X30189958Y-35863665D01*
X30189630Y-35855424D01*
X30188644Y-35847296D01*
X30187002Y-35839281D01*
X30184703Y-35831380D01*
X30181747Y-35823591D01*
X30178134Y-35815917D01*
X30173865Y-35808355D01*
X30170653Y-35803377D01*
X30167150Y-35798450D01*
X30163354Y-35793572D01*
X30159267Y-35788746D01*
X30154888Y-35783969D01*
X30152589Y-35781600D01*
X30147767Y-35776946D01*
X30142681Y-35772473D01*
X30137330Y-35768181D01*
X30131715Y-35764069D01*
X30125836Y-35760139D01*
X30119692Y-35756389D01*
X30113283Y-35752821D01*
X30106610Y-35749433D01*
X30099673Y-35746226D01*
X30092471Y-35743200D01*
X30085004Y-35740355D01*
X30077274Y-35737691D01*
X30069278Y-35735208D01*
X30061018Y-35732905D01*
X30052494Y-35730784D01*
X30043705Y-35728843D01*
X30035130Y-35727173D01*
X30026807Y-35725791D01*
X30018735Y-35724696D01*
X30010916Y-35723888D01*
X30003348Y-35723368D01*
X29996032Y-35723135D01*
X29988968Y-35723189D01*
X29982156Y-35723531D01*
X29975596Y-35724160D01*
X29969288Y-35725077D01*
X29963231Y-35726280D01*
X29957427Y-35727772D01*
X29949192Y-35730547D01*
X29941524Y-35733970D01*
X29936727Y-35736610D01*
X29930023Y-35740980D01*
X29923978Y-35745736D01*
X29918592Y-35750879D01*
X29913866Y-35756408D01*
X29909799Y-35762323D01*
X29906392Y-35768625D01*
X29903644Y-35775313D01*
X29901556Y-35782387D01*
X29900127Y-35789848D01*
X29899358Y-35797696D01*
X29899211Y-35803142D01*
X29815360Y-35803142D01*
X29815248Y-35801587D01*
X29814913Y-35793814D01*
X29814801Y-35785996D01*
X29814864Y-35779971D01*
X29815054Y-35774041D01*
X29815813Y-35762464D01*
X29817078Y-35751267D01*
X29818849Y-35740448D01*
X29821127Y-35730008D01*
X29823910Y-35719948D01*
X29827199Y-35710266D01*
X29830994Y-35700963D01*
X29835296Y-35692039D01*
X29840103Y-35683494D01*
X29845417Y-35675328D01*
X29851236Y-35667541D01*
X29857562Y-35660133D01*
X29864393Y-35653104D01*
X29871731Y-35646454D01*
X29879574Y-35640183D01*
X29887805Y-35634372D01*
X29896303Y-35629103D01*
X29905070Y-35624375D01*
X29914104Y-35620189D01*
X29923406Y-35616544D01*
X29932976Y-35613441D01*
X29942814Y-35610879D01*
X29952920Y-35608859D01*
X29963294Y-35607380D01*
X29973936Y-35606443D01*
X29984846Y-35606048D01*
X29996023Y-35606194D01*
G37*
G36*
X29869579Y-34990500D02*
G01*
X29878262Y-34990864D01*
X29887158Y-34991425D01*
X29896268Y-34992183D01*
X29905593Y-34993138D01*
X29915132Y-34994290D01*
X29924884Y-34995638D01*
X29934851Y-34997184D01*
X29945032Y-34998927D01*
X29955427Y-35000866D01*
X29966036Y-35003002D01*
X29975353Y-35005016D01*
X29984508Y-35007138D01*
X29993502Y-35009367D01*
X30002334Y-35011704D01*
X30011005Y-35014148D01*
X30019514Y-35016700D01*
X30027862Y-35019359D01*
X30036048Y-35022127D01*
X30044074Y-35025001D01*
X30051937Y-35027984D01*
X30059639Y-35031074D01*
X30067180Y-35034272D01*
X30074560Y-35037577D01*
X30081778Y-35040990D01*
X30088834Y-35044510D01*
X30095729Y-35048138D01*
X30103947Y-35052680D01*
X30111966Y-35057330D01*
X30119787Y-35062087D01*
X30127411Y-35066951D01*
X30134836Y-35071924D01*
X30142063Y-35077003D01*
X30149092Y-35082191D01*
X30155923Y-35087486D01*
X30162556Y-35092889D01*
X30168991Y-35098399D01*
X30175227Y-35104017D01*
X30181266Y-35109743D01*
X30187107Y-35115576D01*
X30192749Y-35121517D01*
X30198194Y-35127565D01*
X30203440Y-35133721D01*
X30207288Y-35138502D01*
X30211029Y-35143428D01*
X30214661Y-35148499D01*
X30218186Y-35153716D01*
X30221604Y-35159078D01*
X30224914Y-35164585D01*
X30228116Y-35170238D01*
X30231211Y-35176036D01*
X30234198Y-35181980D01*
X30237077Y-35188069D01*
X30239849Y-35194304D01*
X30242513Y-35200683D01*
X30245070Y-35207209D01*
X30247519Y-35213879D01*
X30249860Y-35220695D01*
X30252093Y-35227657D01*
X30254398Y-35235780D01*
X30256476Y-35244324D01*
X30257735Y-35250253D01*
X30258894Y-35256368D01*
X30259952Y-35262670D01*
X30260909Y-35269159D01*
X30261765Y-35275834D01*
X30262521Y-35282696D01*
X30263176Y-35289744D01*
X30263730Y-35296979D01*
X30264183Y-35304401D01*
X30264536Y-35312009D01*
X30264788Y-35319804D01*
X30264939Y-35327786D01*
X30264990Y-35335954D01*
X30264990Y-35560609D01*
X29655359Y-35433847D01*
X29655359Y-35335808D01*
X29758528Y-35335808D01*
X30161821Y-35419778D01*
X30161821Y-35330825D01*
X30161798Y-35324682D01*
X30161730Y-35318744D01*
X30161541Y-35310225D01*
X30161249Y-35302169D01*
X30160854Y-35294576D01*
X30160356Y-35287448D01*
X30159755Y-35280783D01*
X30159051Y-35274581D01*
X30157952Y-35267034D01*
X30156669Y-35260311D01*
X30155959Y-35257259D01*
X30153931Y-35249758D01*
X30151581Y-35242495D01*
X30148912Y-35235470D01*
X30145921Y-35228683D01*
X30142610Y-35222134D01*
X30138979Y-35215823D01*
X30135026Y-35209751D01*
X30130754Y-35203917D01*
X30125924Y-35198238D01*
X30121831Y-35194027D01*
X30117333Y-35189857D01*
X30112430Y-35185729D01*
X30107123Y-35181642D01*
X30101412Y-35177596D01*
X30095296Y-35173591D01*
X30088776Y-35169627D01*
X30081851Y-35165705D01*
X30074522Y-35161824D01*
X30071989Y-35160539D01*
X30064035Y-35156718D01*
X30058443Y-35154229D01*
X30052620Y-35151787D01*
X30046566Y-35149391D01*
X30040281Y-35147043D01*
X30033764Y-35144742D01*
X30027016Y-35142488D01*
X30020037Y-35140280D01*
X30012826Y-35138120D01*
X30005385Y-35136007D01*
X29997712Y-35133940D01*
X29989807Y-35131920D01*
X29981672Y-35129948D01*
X29973305Y-35128022D01*
X29964707Y-35126143D01*
X29960321Y-35125222D01*
X29951638Y-35123464D01*
X29943209Y-35121853D01*
X29935037Y-35120391D01*
X29927119Y-35119076D01*
X29919457Y-35117909D01*
X29912050Y-35116889D01*
X29904899Y-35116017D01*
X29898002Y-35115293D01*
X29891361Y-35114717D01*
X29884976Y-35114288D01*
X29878846Y-35114007D01*
X29872971Y-35113873D01*
X29864637Y-35113950D01*
X29856877Y-35114359D01*
X29852024Y-35114817D01*
X29845081Y-35115703D01*
X29838433Y-35116824D01*
X29832078Y-35118180D01*
X29826016Y-35119770D01*
X29820249Y-35121594D01*
X29813015Y-35124391D01*
X29806304Y-35127604D01*
X29800115Y-35131235D01*
X29794448Y-35135282D01*
X29793112Y-35136359D01*
X29788015Y-35140911D01*
X29783349Y-35145921D01*
X29779113Y-35151389D01*
X29775307Y-35157315D01*
X29771932Y-35163699D01*
X29768987Y-35170541D01*
X29766473Y-35177841D01*
X29764870Y-35183616D01*
X29764389Y-35185598D01*
X29763015Y-35192301D01*
X29762105Y-35198334D01*
X29761298Y-35205230D01*
X29760594Y-35212990D01*
X29759993Y-35221612D01*
X29759650Y-35227840D01*
X29759352Y-35234451D01*
X29759100Y-35241445D01*
X29758894Y-35248824D01*
X29758734Y-35256585D01*
X29758619Y-35264731D01*
X29758550Y-35273260D01*
X29758528Y-35282172D01*
X29758528Y-35335808D01*
X29655359Y-35335808D01*
X29655359Y-35215640D01*
X29655405Y-35206573D01*
X29655540Y-35197798D01*
X29655766Y-35189317D01*
X29656083Y-35181129D01*
X29656490Y-35173234D01*
X29656987Y-35165632D01*
X29657575Y-35158323D01*
X29658254Y-35151307D01*
X29659022Y-35144584D01*
X29659882Y-35138154D01*
X29660831Y-35132018D01*
X29661871Y-35126174D01*
X29663601Y-35117958D01*
X29665535Y-35110402D01*
X29666936Y-35105731D01*
X29669011Y-35099710D01*
X29671278Y-35093847D01*
X29673737Y-35088142D01*
X29676389Y-35082595D01*
X29679233Y-35077206D01*
X29682269Y-35071975D01*
X29685497Y-35066902D01*
X29688918Y-35061987D01*
X29692532Y-35057230D01*
X29696337Y-35052631D01*
X29700335Y-35048190D01*
X29704525Y-35043907D01*
X29708908Y-35039782D01*
X29713483Y-35035815D01*
X29718250Y-35032006D01*
X29723210Y-35028355D01*
X29728319Y-35024849D01*
X29733569Y-35021511D01*
X29738961Y-35018341D01*
X29744496Y-35015340D01*
X29750172Y-35012507D01*
X29755990Y-35009842D01*
X29761951Y-35007346D01*
X29768053Y-35005017D01*
X29774297Y-35002858D01*
X29780683Y-35000866D01*
X29787212Y-34999043D01*
X29793882Y-34997388D01*
X29800694Y-34995901D01*
X29807648Y-34994583D01*
X29814744Y-34993433D01*
X29821982Y-34992451D01*
X29829380Y-34991634D01*
X29836991Y-34991013D01*
X29844817Y-34990590D01*
X29852857Y-34990363D01*
X29861111Y-34990333D01*
X29869579Y-34990500D01*
G37*
D11*
X31919929Y-35537086D02*
X31951333Y-35575920D01*
X31967399Y-35630724D01*
X31964085Y-35693381D01*
X31963564Y-35695632D01*
X31929703Y-35785146D01*
X31882922Y-35850262D01*
X31853593Y-35884160D01*
X31822280Y-35925356D01*
X31786961Y-35973240D01*
X31752137Y-36017795D01*
X31727234Y-36053144D01*
X31715205Y-36079461D01*
X31715003Y-36081598D01*
X31702456Y-36103617D01*
X31681994Y-36120320D01*
X31654532Y-36153880D01*
X31652251Y-36195696D01*
X31675470Y-36232310D01*
X31679267Y-36235209D01*
X31708411Y-36262370D01*
X31747100Y-36306821D01*
X31789973Y-36361269D01*
X31831671Y-36418424D01*
X31866833Y-36470994D01*
X31890101Y-36511687D01*
X31896549Y-36530801D01*
X31882837Y-36570080D01*
X31849990Y-36606251D01*
X31810443Y-36626843D01*
X31799512Y-36628121D01*
X31773118Y-36615999D01*
X31736248Y-36584551D01*
X31704628Y-36549725D01*
X31614970Y-36450836D01*
X31501173Y-36343493D01*
X31369056Y-36233104D01*
X31336465Y-36207679D01*
X31297768Y-36175614D01*
X31251618Y-36134403D01*
X31236380Y-36120136D01*
X31185109Y-36077642D01*
X31128592Y-36039516D01*
X31114090Y-36031393D01*
X31058584Y-35995829D01*
X31001597Y-35948778D01*
X30950031Y-35897276D01*
X30910788Y-35848355D01*
X30890770Y-35809050D01*
X30889653Y-35802650D01*
X30887844Y-35745616D01*
X30896575Y-35711161D01*
X30918700Y-35689764D01*
X30924440Y-35686502D01*
X30963733Y-35682507D01*
X31020639Y-35699324D01*
X31089768Y-35734087D01*
X31165732Y-35783933D01*
X31243143Y-35845995D01*
X31269389Y-35869891D01*
X31348289Y-35942111D01*
X31408236Y-35991170D01*
X31452444Y-36018364D01*
X31484123Y-36024991D01*
X31506489Y-36012348D01*
X31522753Y-35981732D01*
X31525630Y-35973340D01*
X31545784Y-35926599D01*
X31568862Y-35890819D01*
X31591310Y-35859876D01*
X31621314Y-35812056D01*
X31642705Y-35774961D01*
X31681005Y-35714544D01*
X31727769Y-35653347D01*
X31777248Y-35597566D01*
X31823690Y-35553396D01*
X31861343Y-35527032D01*
X31877230Y-35522338D01*
X31919929Y-35537086D01*
G36*
X31919929Y-35537086D02*
G01*
X31951333Y-35575920D01*
X31967399Y-35630724D01*
X31964085Y-35693381D01*
X31963564Y-35695632D01*
X31929703Y-35785146D01*
X31882922Y-35850262D01*
X31853593Y-35884160D01*
X31822280Y-35925356D01*
X31786961Y-35973240D01*
X31752137Y-36017795D01*
X31727234Y-36053144D01*
X31715205Y-36079461D01*
X31715003Y-36081598D01*
X31702456Y-36103617D01*
X31681994Y-36120320D01*
X31654532Y-36153880D01*
X31652251Y-36195696D01*
X31675470Y-36232310D01*
X31679267Y-36235209D01*
X31708411Y-36262370D01*
X31747100Y-36306821D01*
X31789973Y-36361269D01*
X31831671Y-36418424D01*
X31866833Y-36470994D01*
X31890101Y-36511687D01*
X31896549Y-36530801D01*
X31882837Y-36570080D01*
X31849990Y-36606251D01*
X31810443Y-36626843D01*
X31799512Y-36628121D01*
X31773118Y-36615999D01*
X31736248Y-36584551D01*
X31704628Y-36549725D01*
X31614970Y-36450836D01*
X31501173Y-36343493D01*
X31369056Y-36233104D01*
X31336465Y-36207679D01*
X31297768Y-36175614D01*
X31251618Y-36134403D01*
X31236380Y-36120136D01*
X31185109Y-36077642D01*
X31128592Y-36039516D01*
X31114090Y-36031393D01*
X31058584Y-35995829D01*
X31001597Y-35948778D01*
X30950031Y-35897276D01*
X30910788Y-35848355D01*
X30890770Y-35809050D01*
X30889653Y-35802650D01*
X30887844Y-35745616D01*
X30896575Y-35711161D01*
X30918700Y-35689764D01*
X30924440Y-35686502D01*
X30963733Y-35682507D01*
X31020639Y-35699324D01*
X31089768Y-35734087D01*
X31165732Y-35783933D01*
X31243143Y-35845995D01*
X31269389Y-35869891D01*
X31348289Y-35942111D01*
X31408236Y-35991170D01*
X31452444Y-36018364D01*
X31484123Y-36024991D01*
X31506489Y-36012348D01*
X31522753Y-35981732D01*
X31525630Y-35973340D01*
X31545784Y-35926599D01*
X31568862Y-35890819D01*
X31591310Y-35859876D01*
X31621314Y-35812056D01*
X31642705Y-35774961D01*
X31681005Y-35714544D01*
X31727769Y-35653347D01*
X31777248Y-35597566D01*
X31823690Y-35553396D01*
X31861343Y-35527032D01*
X31877230Y-35522338D01*
X31919929Y-35537086D01*
G37*
X31411352Y-34346052D02*
X31473375Y-34358269D01*
X31531329Y-34383382D01*
X31595788Y-34425432D01*
X31641191Y-34459854D01*
X31694775Y-34505574D01*
X31756891Y-34564436D01*
X31820126Y-34628766D01*
X31877068Y-34690890D01*
X31920303Y-34743136D01*
X31934963Y-34763941D01*
X31957155Y-34817583D01*
X31970704Y-34887370D01*
X31974725Y-34960817D01*
X31968333Y-35025440D01*
X31956027Y-35060862D01*
X31923243Y-35099387D01*
X31885469Y-35126284D01*
X31835237Y-35154132D01*
X31795120Y-35179178D01*
X31718794Y-35215154D01*
X31622552Y-35237245D01*
X31552160Y-35241279D01*
X31517340Y-35243275D01*
X31482451Y-35241363D01*
X31393500Y-35239941D01*
X31333297Y-35253081D01*
X31331280Y-35254012D01*
X31278634Y-35263955D01*
X31225178Y-35243136D01*
X31169626Y-35190811D01*
X31131192Y-35138664D01*
X31082503Y-35058206D01*
X31049974Y-34983920D01*
X31031321Y-34906234D01*
X31024261Y-34815578D01*
X31024887Y-34784077D01*
X31242318Y-34784077D01*
X31249838Y-34832635D01*
X31252835Y-34845460D01*
X31278507Y-34915647D01*
X31319327Y-34961993D01*
X31381286Y-34989443D01*
X31439990Y-35000010D01*
X31552160Y-35004457D01*
X31640747Y-34988965D01*
X31704211Y-34953813D01*
X31706254Y-34951957D01*
X31732942Y-34923315D01*
X31737872Y-34898057D01*
X31725100Y-34860981D01*
X31701399Y-34820370D01*
X31663020Y-34769874D01*
X31629151Y-34731975D01*
X31582858Y-34688046D01*
X31538305Y-34652079D01*
X31511442Y-34635236D01*
X31462756Y-34612447D01*
X31426927Y-34595713D01*
X31378380Y-34589570D01*
X31330212Y-34614808D01*
X31284824Y-34669862D01*
X31268374Y-34699115D01*
X31247872Y-34745447D01*
X31242318Y-34784077D01*
X31024887Y-34784077D01*
X31026509Y-34702380D01*
X31026604Y-34700409D01*
X31031312Y-34617238D01*
X31036946Y-34559393D01*
X31045168Y-34519199D01*
X31057640Y-34488983D01*
X31076023Y-34461070D01*
X31079374Y-34456632D01*
X31127577Y-34401136D01*
X31175903Y-34366632D01*
X31234329Y-34348671D01*
X31312830Y-34342798D01*
X31334690Y-34342688D01*
X31411352Y-34346052D01*
G36*
X31411352Y-34346052D02*
G01*
X31473375Y-34358269D01*
X31531329Y-34383382D01*
X31595788Y-34425432D01*
X31641191Y-34459854D01*
X31694775Y-34505574D01*
X31756891Y-34564436D01*
X31820126Y-34628766D01*
X31877068Y-34690890D01*
X31920303Y-34743136D01*
X31934963Y-34763941D01*
X31957155Y-34817583D01*
X31970704Y-34887370D01*
X31974725Y-34960817D01*
X31968333Y-35025440D01*
X31956027Y-35060862D01*
X31923243Y-35099387D01*
X31885469Y-35126284D01*
X31835237Y-35154132D01*
X31795120Y-35179178D01*
X31718794Y-35215154D01*
X31622552Y-35237245D01*
X31552160Y-35241279D01*
X31517340Y-35243275D01*
X31482451Y-35241363D01*
X31393500Y-35239941D01*
X31333297Y-35253081D01*
X31331280Y-35254012D01*
X31278634Y-35263955D01*
X31225178Y-35243136D01*
X31169626Y-35190811D01*
X31131192Y-35138664D01*
X31082503Y-35058206D01*
X31049974Y-34983920D01*
X31031321Y-34906234D01*
X31024261Y-34815578D01*
X31024887Y-34784077D01*
X31242318Y-34784077D01*
X31249838Y-34832635D01*
X31252835Y-34845460D01*
X31278507Y-34915647D01*
X31319327Y-34961993D01*
X31381286Y-34989443D01*
X31439990Y-35000010D01*
X31552160Y-35004457D01*
X31640747Y-34988965D01*
X31704211Y-34953813D01*
X31706254Y-34951957D01*
X31732942Y-34923315D01*
X31737872Y-34898057D01*
X31725100Y-34860981D01*
X31701399Y-34820370D01*
X31663020Y-34769874D01*
X31629151Y-34731975D01*
X31582858Y-34688046D01*
X31538305Y-34652079D01*
X31511442Y-34635236D01*
X31462756Y-34612447D01*
X31426927Y-34595713D01*
X31378380Y-34589570D01*
X31330212Y-34614808D01*
X31284824Y-34669862D01*
X31268374Y-34699115D01*
X31247872Y-34745447D01*
X31242318Y-34784077D01*
X31024887Y-34784077D01*
X31026509Y-34702380D01*
X31026604Y-34700409D01*
X31031312Y-34617238D01*
X31036946Y-34559393D01*
X31045168Y-34519199D01*
X31057640Y-34488983D01*
X31076023Y-34461070D01*
X31079374Y-34456632D01*
X31127577Y-34401136D01*
X31175903Y-34366632D01*
X31234329Y-34348671D01*
X31312830Y-34342798D01*
X31334690Y-34342688D01*
X31411352Y-34346052D01*
G37*
X31511795Y-36912810D02*
X31619843Y-36939848D01*
X31673742Y-36963739D01*
X31800321Y-37045644D01*
X31912065Y-37144386D01*
X32003882Y-37254298D01*
X32070682Y-37369712D01*
X32094517Y-37432193D01*
X32113882Y-37498950D01*
X32123044Y-37546163D01*
X32123067Y-37585313D01*
X32115013Y-37627882D01*
X32113273Y-37634878D01*
X32083520Y-37710109D01*
X32030603Y-37784987D01*
X31962441Y-37854630D01*
X31912236Y-37898051D01*
X31857153Y-37941305D01*
X31804340Y-37979296D01*
X31760943Y-38006931D01*
X31734109Y-38019113D01*
X31731507Y-38019264D01*
X31712723Y-38023296D01*
X31671929Y-38038167D01*
X31605273Y-38065291D01*
X31599264Y-38067800D01*
X31532071Y-38082596D01*
X31499524Y-38082357D01*
X31448859Y-38081984D01*
X31361896Y-38067569D01*
X31283448Y-38040957D01*
X31248702Y-38021919D01*
X31208912Y-37992465D01*
X31191096Y-37966227D01*
X31188119Y-37930862D01*
X31188909Y-37918474D01*
X31187845Y-37867164D01*
X31180029Y-37802268D01*
X31172758Y-37763807D01*
X31162214Y-37708614D01*
X31156801Y-37664485D01*
X31157027Y-37646179D01*
X31148889Y-37621757D01*
X31122476Y-37586371D01*
X31103511Y-37566763D01*
X31044464Y-37505342D01*
X31009073Y-37452123D01*
X30993095Y-37397665D01*
X30992291Y-37332525D01*
X30992905Y-37325033D01*
X31190415Y-37325033D01*
X31201692Y-37371032D01*
X31228561Y-37422303D01*
X31274405Y-37486633D01*
X31293055Y-37510516D01*
X31341478Y-37571687D01*
X31313969Y-37645911D01*
X31298151Y-37694085D01*
X31295576Y-37726481D01*
X31305920Y-37757411D01*
X31311212Y-37768000D01*
X31356421Y-37821959D01*
X31422172Y-37858560D01*
X31499524Y-37875287D01*
X31579535Y-37869626D01*
X31622544Y-37855576D01*
X31700459Y-37814038D01*
X31775948Y-37760879D01*
X31842039Y-37702280D01*
X31891756Y-37644423D01*
X31918091Y-37593618D01*
X31922837Y-37529796D01*
X31909786Y-37455364D01*
X31882015Y-37385285D01*
X31871663Y-37367933D01*
X31784646Y-37254711D01*
X31692060Y-37171681D01*
X31654171Y-37147078D01*
X31565245Y-37108287D01*
X31474717Y-37092032D01*
X31388074Y-37096780D01*
X31310805Y-37120994D01*
X31248401Y-37163139D01*
X31206349Y-37221681D01*
X31191343Y-37276518D01*
X31190415Y-37325033D01*
X30992905Y-37325033D01*
X30993216Y-37321247D01*
X31015934Y-37218110D01*
X31044789Y-37159096D01*
X31070069Y-37115451D01*
X31085554Y-37081780D01*
X31087842Y-37072131D01*
X31101113Y-37043023D01*
X31135163Y-37005975D01*
X31181347Y-36968010D01*
X31231021Y-36936147D01*
X31275540Y-36917409D01*
X31279444Y-36916513D01*
X31394299Y-36904549D01*
X31511795Y-36912810D01*
G36*
X31511795Y-36912810D02*
G01*
X31619843Y-36939848D01*
X31673742Y-36963739D01*
X31800321Y-37045644D01*
X31912065Y-37144386D01*
X32003882Y-37254298D01*
X32070682Y-37369712D01*
X32094517Y-37432193D01*
X32113882Y-37498950D01*
X32123044Y-37546163D01*
X32123067Y-37585313D01*
X32115013Y-37627882D01*
X32113273Y-37634878D01*
X32083520Y-37710109D01*
X32030603Y-37784987D01*
X31962441Y-37854630D01*
X31912236Y-37898051D01*
X31857153Y-37941305D01*
X31804340Y-37979296D01*
X31760943Y-38006931D01*
X31734109Y-38019113D01*
X31731507Y-38019264D01*
X31712723Y-38023296D01*
X31671929Y-38038167D01*
X31605273Y-38065291D01*
X31599264Y-38067800D01*
X31532071Y-38082596D01*
X31499524Y-38082357D01*
X31448859Y-38081984D01*
X31361896Y-38067569D01*
X31283448Y-38040957D01*
X31248702Y-38021919D01*
X31208912Y-37992465D01*
X31191096Y-37966227D01*
X31188119Y-37930862D01*
X31188909Y-37918474D01*
X31187845Y-37867164D01*
X31180029Y-37802268D01*
X31172758Y-37763807D01*
X31162214Y-37708614D01*
X31156801Y-37664485D01*
X31157027Y-37646179D01*
X31148889Y-37621757D01*
X31122476Y-37586371D01*
X31103511Y-37566763D01*
X31044464Y-37505342D01*
X31009073Y-37452123D01*
X30993095Y-37397665D01*
X30992291Y-37332525D01*
X30992905Y-37325033D01*
X31190415Y-37325033D01*
X31201692Y-37371032D01*
X31228561Y-37422303D01*
X31274405Y-37486633D01*
X31293055Y-37510516D01*
X31341478Y-37571687D01*
X31313969Y-37645911D01*
X31298151Y-37694085D01*
X31295576Y-37726481D01*
X31305920Y-37757411D01*
X31311212Y-37768000D01*
X31356421Y-37821959D01*
X31422172Y-37858560D01*
X31499524Y-37875287D01*
X31579535Y-37869626D01*
X31622544Y-37855576D01*
X31700459Y-37814038D01*
X31775948Y-37760879D01*
X31842039Y-37702280D01*
X31891756Y-37644423D01*
X31918091Y-37593618D01*
X31922837Y-37529796D01*
X31909786Y-37455364D01*
X31882015Y-37385285D01*
X31871663Y-37367933D01*
X31784646Y-37254711D01*
X31692060Y-37171681D01*
X31654171Y-37147078D01*
X31565245Y-37108287D01*
X31474717Y-37092032D01*
X31388074Y-37096780D01*
X31310805Y-37120994D01*
X31248401Y-37163139D01*
X31206349Y-37221681D01*
X31191343Y-37276518D01*
X31190415Y-37325033D01*
X30992905Y-37325033D01*
X30993216Y-37321247D01*
X31015934Y-37218110D01*
X31044789Y-37159096D01*
X31070069Y-37115451D01*
X31085554Y-37081780D01*
X31087842Y-37072131D01*
X31101113Y-37043023D01*
X31135163Y-37005975D01*
X31181347Y-36968010D01*
X31231021Y-36936147D01*
X31275540Y-36917409D01*
X31279444Y-36916513D01*
X31394299Y-36904549D01*
X31511795Y-36912810D01*
G37*
D12*
X42969990Y-27728010D03*
D13*
X42969990Y-27220010D03*
D14*
X31438490Y-30268010D03*
X29863490Y-30268010D03*
D15*
X37663990Y-31792010D03*
X38623990Y-31792010D03*
D16*
X37633990Y-30725210D03*
X38653990Y-30725210D03*
D12*
X32809990Y-27728010D03*
D13*
X32809990Y-27220010D03*
D12*
X35349990Y-27728010D03*
D13*
X35349990Y-27220010D03*
D17*
X30269990Y-28490010D03*
D12*
X48049990Y-27728010D03*
D13*
X48049990Y-27220010D03*
D18*
X38397990Y-34588010D03*
X38397990Y-33568010D03*
D12*
X40429990Y-44492010D03*
D13*
X40429990Y-45000010D03*
D19*
X53136691Y-30878599D03*
X53815513Y-31557421D03*
D12*
X32809990Y-44492010D03*
D13*
X32809990Y-45000010D03*
D17*
X58209990Y-28490010D03*
D12*
X55669990Y-44492010D03*
D13*
X55669990Y-45000010D03*
D16*
X38141990Y-35602010D03*
X39161990Y-35602010D03*
X33061990Y-30776010D03*
X34081990Y-30776010D03*
D20*
X43531209Y-36805021D03*
X44210031Y-36126199D03*
D21*
X51601431Y-32214599D03*
X50922609Y-32893421D03*
D22*
X40607790Y-37134210D03*
X40607790Y-41334210D03*
D23*
X40607790Y-35085810D03*
X40607790Y-30885810D03*
D24*
X38397990Y-40426010D03*
X38397990Y-41446010D03*
D25*
X50936102Y-34436832D03*
X50582549Y-34083278D03*
X50228995Y-33729725D03*
X49875442Y-33376171D03*
X49521889Y-33022618D03*
X49168335Y-32669065D03*
X48814782Y-32315511D03*
X48461228Y-31961958D03*
D26*
X47541990Y-31961958D03*
X47188436Y-32315511D03*
X46834883Y-32669065D03*
X46481329Y-33022618D03*
X46127776Y-33376171D03*
X45774223Y-33729725D03*
X45420669Y-34083278D03*
X45067116Y-34436832D03*
D25*
X45067116Y-35356070D03*
X45420669Y-35709624D03*
X45774223Y-36063177D03*
X46127776Y-36416731D03*
X46481329Y-36770284D03*
X46834883Y-37123837D03*
X47188436Y-37477391D03*
X47541990Y-37830944D03*
D26*
X48461228Y-37830944D03*
X48814782Y-37477391D03*
X49168335Y-37123837D03*
X49521889Y-36770284D03*
X49875442Y-36416731D03*
X50228995Y-36063177D03*
X50582549Y-35709624D03*
X50936102Y-35356070D03*
D27*
X48001609Y-34896451D03*
D12*
X37889990Y-44492010D03*
D13*
X37889990Y-45000010D03*
D21*
X53100031Y-35059399D03*
X52421209Y-35738221D03*
X53095102Y-32277832D03*
X52416280Y-32956654D03*
D28*
X49319990Y-40456010D03*
X49319990Y-41416010D03*
D16*
X38141990Y-36668810D03*
X39161990Y-36668810D03*
D29*
X42863366Y-32447386D03*
X43584614Y-33168634D03*
D30*
X45491890Y-41049421D03*
X45491890Y-40099421D03*
X45491890Y-39149421D03*
X42891890Y-39149421D03*
X42891890Y-41049421D03*
D12*
X50589990Y-27728010D03*
D13*
X50589990Y-27220010D03*
D12*
X40429990Y-27728010D03*
D13*
X40429990Y-27220010D03*
D31*
X57955990Y-31557421D03*
D32*
X57955990Y-36857421D03*
D12*
X42969990Y-44492010D03*
D13*
X42969990Y-45000010D03*
D12*
X48049990Y-44492010D03*
D13*
X48049990Y-45000010D03*
D12*
X50589990Y-44492010D03*
D13*
X50589990Y-45000010D03*
D33*
X54399990Y-41416010D03*
X54399990Y-40456010D03*
D34*
X48049990Y-41401010D03*
X48049990Y-39201010D03*
D12*
X55669990Y-27728010D03*
D13*
X55669990Y-27220010D03*
D15*
X51125990Y-30776010D03*
X52085990Y-30776010D03*
D12*
X45509990Y-27728010D03*
D13*
X45509990Y-27220010D03*
D35*
X43609200Y-37896800D03*
X42649200Y-37896800D03*
D15*
X49195590Y-30776010D03*
X50155590Y-30776010D03*
D19*
X44408579Y-30944599D03*
X45087401Y-31623421D03*
D36*
X34055193Y-41444010D03*
X33035193Y-41444010D03*
D12*
X53129990Y-27728010D03*
D13*
X53129990Y-27220010D03*
D33*
X46779990Y-40146010D03*
X46779990Y-39186010D03*
D37*
X52383902Y-34346676D03*
X51705080Y-33667854D03*
D29*
X42863366Y-33971386D03*
X43584614Y-34692634D03*
D37*
X52388831Y-37109821D03*
X51710009Y-36430999D03*
D12*
X53129990Y-44492010D03*
D13*
X53129990Y-45000010D03*
D17*
X58209990Y-43730010D03*
D38*
X35294690Y-33220010D03*
X35294690Y-39000010D03*
D39*
X36739690Y-32860010D03*
X36739690Y-33660010D03*
D40*
X36739690Y-34860010D03*
X36739690Y-35860010D03*
X36739690Y-36360010D03*
X36739690Y-37360010D03*
D39*
X36739690Y-39360010D03*
X36739690Y-38560010D03*
D40*
X36739690Y-37860010D03*
X36739690Y-36860010D03*
X36739690Y-35360010D03*
X36739690Y-34360010D03*
D41*
X35824690Y-31790010D03*
X35824690Y-40430010D03*
D42*
X31644690Y-31790010D03*
X31644690Y-40430010D03*
D12*
X35349990Y-44492010D03*
D13*
X35349990Y-45000010D03*
D43*
X52959990Y-39324010D03*
D44*
X50759990Y-39324010D03*
X50759990Y-41024010D03*
X52959990Y-41024010D03*
D12*
X45509990Y-44492010D03*
D13*
X45509990Y-45000010D03*
D12*
X37889990Y-27728010D03*
D13*
X37889990Y-27220010D03*
D24*
X38397990Y-37860010D03*
X38397990Y-38880010D03*
D17*
X30269990Y-43730010D03*
D37*
X45667042Y-37550832D03*
X44988220Y-36872010D03*
D14*
X31438490Y-41952010D03*
X29863490Y-41952010D03*
D19*
X42884579Y-30944599D03*
X43563401Y-31623421D03*
M02*
