G04 #@! TF.GenerationSoftware,KiCad,Pcbnew,7.0.9*
G04 #@! TF.CreationDate,2024-05-28T21:08:52+09:00*
G04 #@! TF.ProjectId,Geekble_Mini_ESP32C3,4765656b-626c-4655-9f4d-696e695f4553,1*
G04 #@! TF.SameCoordinates,Original*
G04 #@! TF.FileFunction,Copper,L3,Inr*
G04 #@! TF.FilePolarity,Positive*
%FSLAX46Y46*%
G04 Gerber Fmt 4.6, Leading zero omitted, Abs format (unit mm)*
G04 Created by KiCad (PCBNEW 7.0.9) date 2024-05-28 21:08:52*
%MOMM*%
%LPD*%
G01*
G04 APERTURE LIST*
G04 #@! TA.AperFunction,ComponentPad*
%ADD10O,1.524000X3.048000*%
G04 #@! TD*
G04 #@! TA.AperFunction,ComponentPad*
%ADD11C,1.016000*%
G04 #@! TD*
G04 #@! TA.AperFunction,ComponentPad*
%ADD12O,2.100000X1.000000*%
G04 #@! TD*
G04 #@! TA.AperFunction,ComponentPad*
%ADD13O,1.600000X1.000000*%
G04 #@! TD*
G04 #@! TA.AperFunction,ViaPad*
%ADD14C,0.700000*%
G04 #@! TD*
G04 #@! TA.AperFunction,ViaPad*
%ADD15C,0.500000*%
G04 #@! TD*
G04 #@! TA.AperFunction,Conductor*
%ADD16C,0.200000*%
G04 #@! TD*
G04 APERTURE END LIST*
D10*
X42969990Y-27728010D03*
D11*
X42969990Y-27220010D03*
D10*
X32809990Y-27728010D03*
D11*
X32809990Y-27220010D03*
D10*
X35349990Y-27728010D03*
D11*
X35349990Y-27220010D03*
D10*
X48049990Y-27728010D03*
D11*
X48049990Y-27220010D03*
D10*
X40429990Y-44492010D03*
D11*
X40429990Y-45000010D03*
D10*
X32809990Y-44492010D03*
D11*
X32809990Y-45000010D03*
D10*
X55669990Y-44492010D03*
D11*
X55669990Y-45000010D03*
D10*
X37889990Y-44492010D03*
D11*
X37889990Y-45000010D03*
D10*
X50589990Y-27728010D03*
D11*
X50589990Y-27220010D03*
D10*
X40429990Y-27728010D03*
D11*
X40429990Y-27220010D03*
D10*
X42969990Y-44492010D03*
D11*
X42969990Y-45000010D03*
D10*
X48049990Y-44492010D03*
D11*
X48049990Y-45000010D03*
D10*
X50589990Y-44492010D03*
D11*
X50589990Y-45000010D03*
D10*
X55669990Y-27728010D03*
D11*
X55669990Y-27220010D03*
D10*
X45509990Y-27728010D03*
D11*
X45509990Y-27220010D03*
D10*
X53129990Y-27728010D03*
D11*
X53129990Y-27220010D03*
D10*
X53129990Y-44492010D03*
D11*
X53129990Y-45000010D03*
D12*
X35824690Y-31790010D03*
X35824690Y-40430010D03*
D13*
X31644690Y-31790010D03*
X31644690Y-40430010D03*
D10*
X35349990Y-44492010D03*
D11*
X35349990Y-45000010D03*
D10*
X45509990Y-44492010D03*
D11*
X45509990Y-45000010D03*
D10*
X37889990Y-27728010D03*
D11*
X37889990Y-27220010D03*
D14*
X42461990Y-36745010D03*
D15*
X53129990Y-33570010D03*
D14*
X40429990Y-33316010D03*
D15*
X44449990Y-40100010D03*
X48684990Y-35475010D03*
X54145990Y-34586010D03*
X48684990Y-34205010D03*
X47414990Y-34205010D03*
D14*
X51859990Y-29760010D03*
D15*
X54145990Y-37634010D03*
X48049990Y-33570010D03*
D14*
X39032990Y-32681010D03*
X40429990Y-39158010D03*
D15*
X30269990Y-32300010D03*
X54145990Y-35602010D03*
X48049990Y-34840010D03*
X54145990Y-32554010D03*
X46779990Y-34840010D03*
X30269990Y-33570010D03*
X52494990Y-31665010D03*
D14*
X37381990Y-41825010D03*
D15*
X54145990Y-33570010D03*
D14*
X47645990Y-40146010D03*
D15*
X46599990Y-38225010D03*
X49599990Y-39750010D03*
X54145990Y-36618010D03*
X49319990Y-34840010D03*
X30269990Y-39920010D03*
X30269990Y-38650010D03*
X47414990Y-35475010D03*
D14*
X41826990Y-40428010D03*
D15*
X48049990Y-36110010D03*
X46830790Y-29810810D03*
D14*
X44493990Y-38396010D03*
D15*
X42099990Y-34750010D03*
X45549990Y-30863010D03*
X37508990Y-40682010D03*
X36746990Y-30522010D03*
X42124990Y-32825010D03*
X49399990Y-29725010D03*
X46779990Y-41063010D03*
X52962490Y-36212510D03*
X50488390Y-31588810D03*
X50042109Y-32215337D03*
X49449990Y-31650010D03*
X47033990Y-31284010D03*
X47249990Y-42000010D03*
X41799990Y-33875010D03*
X39149990Y-29375010D03*
X44524990Y-35000010D03*
X44176490Y-33633510D03*
X45124990Y-32800010D03*
X44319371Y-32215744D03*
X46312046Y-31459628D03*
X53649990Y-30100010D03*
X50874990Y-38125010D03*
X50223195Y-37492805D03*
X35052000Y-37253010D03*
X35052000Y-35729010D03*
X35052000Y-34967010D03*
X35052500Y-36491010D03*
X48624990Y-38525010D03*
X39243000Y-37465000D03*
X49324990Y-38425010D03*
X39243000Y-34798000D03*
D14*
X33825990Y-36110010D03*
D15*
X48049990Y-42200010D03*
D16*
X41064990Y-38142010D02*
X44343035Y-41420055D01*
X35191466Y-38142010D02*
X41064990Y-38142010D01*
X44343035Y-41420055D02*
X45740035Y-41420055D01*
X33825990Y-36776534D02*
X35191466Y-38142010D01*
X33825990Y-36110010D02*
X33825990Y-36776534D01*
X45740035Y-41420055D02*
X48049990Y-43730010D01*
X48049990Y-42200010D02*
X54139990Y-42200010D01*
X54139990Y-42200010D02*
X55669990Y-43730010D01*
G04 #@! TA.AperFunction,Conductor*
G36*
X33829781Y-36111172D02*
G01*
X34136467Y-36238597D01*
X34142792Y-36244936D01*
X34142783Y-36253891D01*
X34141837Y-36255702D01*
X34068592Y-36370318D01*
X34066908Y-36372388D01*
X33969712Y-36467326D01*
X33889395Y-36548007D01*
X33861441Y-36629922D01*
X33915747Y-36721682D01*
X33917011Y-36730547D01*
X33913951Y-36735914D01*
X33787901Y-36861964D01*
X33779628Y-36865391D01*
X33771355Y-36861964D01*
X33770731Y-36861289D01*
X33670654Y-36744099D01*
X33669160Y-36741877D01*
X33615378Y-36637855D01*
X33614467Y-36635498D01*
X33612980Y-36629922D01*
X33586765Y-36531604D01*
X33558455Y-36407434D01*
X33506170Y-36254310D01*
X33506739Y-36245374D01*
X33512735Y-36239732D01*
X33820787Y-36111178D01*
X33829741Y-36111156D01*
X33829781Y-36111172D01*
G37*
G04 #@! TD.AperFunction*
G04 #@! TA.AperFunction,Conductor*
G36*
X31773490Y-27640472D02*
G01*
X31828028Y-27695010D01*
X31847990Y-27769510D01*
X31847990Y-28477877D01*
X32629717Y-27696150D01*
X32665398Y-27712445D01*
X32773656Y-27728010D01*
X32846324Y-27728010D01*
X32954582Y-27712445D01*
X32990262Y-27696150D01*
X33771990Y-28477877D01*
X33771990Y-27769510D01*
X33791952Y-27695010D01*
X33846490Y-27640472D01*
X33920990Y-27620510D01*
X34238490Y-27620510D01*
X34312990Y-27640472D01*
X34367528Y-27695010D01*
X34387490Y-27769510D01*
X34387490Y-28538834D01*
X34402329Y-28684755D01*
X34402329Y-28684756D01*
X34460930Y-28871535D01*
X34555930Y-29042690D01*
X34555934Y-29042696D01*
X34683435Y-29191217D01*
X34683439Y-29191221D01*
X34838235Y-29311043D01*
X34953106Y-29367389D01*
X35013985Y-29397251D01*
X35203489Y-29446318D01*
X35398991Y-29456232D01*
X35592487Y-29426590D01*
X35776055Y-29358604D01*
X35942181Y-29255057D01*
X36084061Y-29120189D01*
X36195889Y-28959522D01*
X36273085Y-28779633D01*
X36312490Y-28587887D01*
X36312490Y-27769510D01*
X36332452Y-27695010D01*
X36386990Y-27640472D01*
X36461490Y-27620510D01*
X36778490Y-27620510D01*
X36852990Y-27640472D01*
X36907528Y-27695010D01*
X36927490Y-27769510D01*
X36927490Y-28538834D01*
X36942329Y-28684755D01*
X36942329Y-28684756D01*
X37000930Y-28871535D01*
X37095930Y-29042690D01*
X37095934Y-29042696D01*
X37223435Y-29191217D01*
X37223439Y-29191221D01*
X37378235Y-29311043D01*
X37493106Y-29367389D01*
X37553985Y-29397251D01*
X37743489Y-29446318D01*
X37938991Y-29456232D01*
X38132487Y-29426590D01*
X38316055Y-29358604D01*
X38467741Y-29264057D01*
X38541519Y-29241592D01*
X38616651Y-29259026D01*
X38673000Y-29311691D01*
X38694035Y-29369301D01*
X38713292Y-29503233D01*
X38767108Y-29621074D01*
X38822272Y-29684737D01*
X38851941Y-29718977D01*
X38960921Y-29789014D01*
X39085218Y-29825510D01*
X39085221Y-29825510D01*
X39214759Y-29825510D01*
X39214762Y-29825510D01*
X39264817Y-29810813D01*
X46375657Y-29810813D01*
X46394092Y-29939033D01*
X46447908Y-30056874D01*
X46485282Y-30100006D01*
X46532741Y-30154777D01*
X46641721Y-30224814D01*
X46766018Y-30261310D01*
X46766021Y-30261310D01*
X46895559Y-30261310D01*
X46895562Y-30261310D01*
X47019859Y-30224814D01*
X47128839Y-30154777D01*
X47213672Y-30056873D01*
X47267487Y-29939036D01*
X47279721Y-29853945D01*
X47285923Y-29810813D01*
X47285923Y-29810806D01*
X47278620Y-29760012D01*
X51304740Y-29760012D01*
X51323658Y-29903716D01*
X51379128Y-30037635D01*
X51446900Y-30125955D01*
X51467369Y-30152631D01*
X51514592Y-30188867D01*
X51582364Y-30240871D01*
X51716283Y-30296341D01*
X51859987Y-30315260D01*
X51859990Y-30315260D01*
X51859993Y-30315260D01*
X52003696Y-30296341D01*
X52003698Y-30296340D01*
X52003699Y-30296340D01*
X52137615Y-30240871D01*
X52252611Y-30152631D01*
X52292986Y-30100013D01*
X53194857Y-30100013D01*
X53213292Y-30228233D01*
X53213292Y-30228234D01*
X53213293Y-30228236D01*
X53228397Y-30261309D01*
X53267108Y-30346074D01*
X53322272Y-30409737D01*
X53351941Y-30443977D01*
X53460921Y-30514014D01*
X53585218Y-30550510D01*
X53585221Y-30550510D01*
X53714759Y-30550510D01*
X53714762Y-30550510D01*
X53839059Y-30514014D01*
X53948039Y-30443977D01*
X54032872Y-30346073D01*
X54086687Y-30228236D01*
X54095905Y-30164123D01*
X54105123Y-30100013D01*
X54105123Y-30100006D01*
X54086687Y-29971786D01*
X54086687Y-29971784D01*
X54032872Y-29853947D01*
X54032871Y-29853946D01*
X54032871Y-29853945D01*
X53951476Y-29760010D01*
X53948039Y-29756043D01*
X53839059Y-29686006D01*
X53714762Y-29649510D01*
X53601915Y-29649510D01*
X53527415Y-29629548D01*
X53492106Y-29594239D01*
X53487607Y-29635061D01*
X53441957Y-29697228D01*
X53429332Y-29706307D01*
X53351942Y-29756042D01*
X53351938Y-29756046D01*
X53267108Y-29853945D01*
X53213292Y-29971786D01*
X53194857Y-30100006D01*
X53194857Y-30100013D01*
X52292986Y-30100013D01*
X52340851Y-30037635D01*
X52396320Y-29903719D01*
X52396320Y-29903718D01*
X52396321Y-29903716D01*
X52415240Y-29760012D01*
X52415240Y-29760007D01*
X52396321Y-29616303D01*
X52374965Y-29564745D01*
X52340851Y-29482385D01*
X52311700Y-29444395D01*
X52282185Y-29373140D01*
X52287129Y-29335579D01*
X52216296Y-29330185D01*
X52174972Y-29307814D01*
X52137616Y-29279149D01*
X52003696Y-29223678D01*
X51859993Y-29204760D01*
X51859987Y-29204760D01*
X51716283Y-29223678D01*
X51582364Y-29279148D01*
X51551407Y-29302903D01*
X51480150Y-29332417D01*
X51415284Y-29323876D01*
X51425847Y-29349074D01*
X51416105Y-29425584D01*
X51396416Y-29459855D01*
X51379128Y-29482384D01*
X51323658Y-29616303D01*
X51304740Y-29760007D01*
X51304740Y-29760012D01*
X47278620Y-29760012D01*
X47267487Y-29682586D01*
X47267487Y-29682584D01*
X47213672Y-29564747D01*
X47213671Y-29564746D01*
X47213671Y-29564745D01*
X47142344Y-29482429D01*
X47128839Y-29466843D01*
X47019859Y-29396806D01*
X46895562Y-29360310D01*
X46766018Y-29360310D01*
X46641721Y-29396806D01*
X46641718Y-29396807D01*
X46641717Y-29396808D01*
X46532745Y-29466840D01*
X46532742Y-29466841D01*
X46532741Y-29466843D01*
X46532739Y-29466844D01*
X46532738Y-29466846D01*
X46447908Y-29564745D01*
X46394092Y-29682586D01*
X46375657Y-29810806D01*
X46375657Y-29810813D01*
X39264817Y-29810813D01*
X39339059Y-29789014D01*
X39448039Y-29718977D01*
X39532872Y-29621073D01*
X39586687Y-29503236D01*
X39597852Y-29425584D01*
X39605123Y-29375013D01*
X39605123Y-29372432D01*
X39605923Y-29369443D01*
X39606640Y-29364462D01*
X39607235Y-29364547D01*
X39625085Y-29297932D01*
X39679623Y-29243394D01*
X39754123Y-29223432D01*
X39828623Y-29243394D01*
X39845327Y-29254607D01*
X39918235Y-29311043D01*
X40033106Y-29367389D01*
X40093985Y-29397251D01*
X40283489Y-29446318D01*
X40478991Y-29456232D01*
X40672487Y-29426590D01*
X40856055Y-29358604D01*
X41022181Y-29255057D01*
X41164061Y-29120189D01*
X41275889Y-28959522D01*
X41353085Y-28779633D01*
X41392490Y-28587887D01*
X41392490Y-27769510D01*
X41412452Y-27695010D01*
X41466990Y-27640472D01*
X41541490Y-27620510D01*
X41858490Y-27620510D01*
X41932990Y-27640472D01*
X41987528Y-27695010D01*
X42007490Y-27769510D01*
X42007490Y-28538834D01*
X42022329Y-28684755D01*
X42022329Y-28684756D01*
X42080930Y-28871535D01*
X42175930Y-29042690D01*
X42175934Y-29042696D01*
X42303435Y-29191217D01*
X42303439Y-29191221D01*
X42458235Y-29311043D01*
X42573106Y-29367389D01*
X42633985Y-29397251D01*
X42823489Y-29446318D01*
X43018991Y-29456232D01*
X43212487Y-29426590D01*
X43396055Y-29358604D01*
X43562181Y-29255057D01*
X43704061Y-29120189D01*
X43815889Y-28959522D01*
X43893085Y-28779633D01*
X43932490Y-28587887D01*
X43932490Y-27769510D01*
X43952452Y-27695010D01*
X44006990Y-27640472D01*
X44081490Y-27620510D01*
X44398490Y-27620510D01*
X44472990Y-27640472D01*
X44527528Y-27695010D01*
X44547490Y-27769510D01*
X44547490Y-28538834D01*
X44562329Y-28684755D01*
X44562329Y-28684756D01*
X44620930Y-28871535D01*
X44715930Y-29042690D01*
X44715934Y-29042696D01*
X44843435Y-29191217D01*
X44843439Y-29191221D01*
X44998235Y-29311043D01*
X45113106Y-29367389D01*
X45173985Y-29397251D01*
X45363489Y-29446318D01*
X45558991Y-29456232D01*
X45752487Y-29426590D01*
X45936055Y-29358604D01*
X46102181Y-29255057D01*
X46244061Y-29120189D01*
X46355889Y-28959522D01*
X46433085Y-28779633D01*
X46472490Y-28587887D01*
X46472490Y-27769510D01*
X46492452Y-27695010D01*
X46546990Y-27640472D01*
X46621490Y-27620510D01*
X46938490Y-27620510D01*
X47012990Y-27640472D01*
X47067528Y-27695010D01*
X47087490Y-27769510D01*
X47087490Y-28538834D01*
X47102329Y-28684755D01*
X47102329Y-28684756D01*
X47160930Y-28871535D01*
X47255930Y-29042690D01*
X47255934Y-29042696D01*
X47383435Y-29191217D01*
X47383439Y-29191221D01*
X47538235Y-29311043D01*
X47653106Y-29367389D01*
X47713985Y-29397251D01*
X47903489Y-29446318D01*
X48098991Y-29456232D01*
X48292487Y-29426590D01*
X48476055Y-29358604D01*
X48642181Y-29255057D01*
X48784061Y-29120189D01*
X48895889Y-28959522D01*
X48973085Y-28779633D01*
X49012490Y-28587887D01*
X49012490Y-27769510D01*
X49032452Y-27695010D01*
X49086990Y-27640472D01*
X49161490Y-27620510D01*
X49478490Y-27620510D01*
X49552990Y-27640472D01*
X49607528Y-27695010D01*
X49627490Y-27769510D01*
X49627490Y-28538834D01*
X49642329Y-28684755D01*
X49642329Y-28684756D01*
X49700930Y-28871535D01*
X49795930Y-29042690D01*
X49795934Y-29042696D01*
X49923435Y-29191217D01*
X49923439Y-29191221D01*
X50078235Y-29311043D01*
X50193106Y-29367389D01*
X50253985Y-29397251D01*
X50443489Y-29446318D01*
X50638991Y-29456232D01*
X50832487Y-29426590D01*
X51016055Y-29358604D01*
X51182181Y-29255057D01*
X51182186Y-29255051D01*
X51186999Y-29251327D01*
X51258130Y-29221509D01*
X51323626Y-29229848D01*
X51312978Y-29204139D01*
X51323046Y-29127671D01*
X51338410Y-29099573D01*
X51343296Y-29092553D01*
X51435889Y-28959522D01*
X51513085Y-28779633D01*
X51552490Y-28587887D01*
X51552490Y-27769510D01*
X51572452Y-27695010D01*
X51626990Y-27640472D01*
X51701490Y-27620510D01*
X52018490Y-27620510D01*
X52092990Y-27640472D01*
X52147528Y-27695010D01*
X52167490Y-27769510D01*
X52167490Y-28538834D01*
X52182329Y-28684755D01*
X52182329Y-28684756D01*
X52240930Y-28871535D01*
X52335930Y-29042690D01*
X52335934Y-29042695D01*
X52378735Y-29092553D01*
X52412115Y-29162083D01*
X52408718Y-29206686D01*
X52410460Y-29205965D01*
X52486928Y-29216031D01*
X52521114Y-29235865D01*
X52618235Y-29311043D01*
X52733106Y-29367389D01*
X52793985Y-29397251D01*
X52983489Y-29446318D01*
X53178991Y-29456232D01*
X53326216Y-29433678D01*
X53402877Y-29442129D01*
X53457759Y-29482429D01*
X53472877Y-29426010D01*
X53527415Y-29371472D01*
X53550167Y-29360785D01*
X53556050Y-29358606D01*
X53556050Y-29358605D01*
X53556055Y-29358604D01*
X53722181Y-29255057D01*
X53864061Y-29120189D01*
X53975889Y-28959522D01*
X54053085Y-28779633D01*
X54092490Y-28587887D01*
X54092490Y-27769510D01*
X54112452Y-27695010D01*
X54166990Y-27640472D01*
X54241490Y-27620510D01*
X54306990Y-27620510D01*
X54381490Y-27640472D01*
X54436028Y-27695010D01*
X54455990Y-27769510D01*
X54455990Y-31976474D01*
X54436028Y-32050974D01*
X54381490Y-32105512D01*
X54306990Y-32125474D01*
X54265014Y-32119439D01*
X54210766Y-32103511D01*
X54210764Y-32103510D01*
X54210762Y-32103510D01*
X54081218Y-32103510D01*
X53956921Y-32140006D01*
X53956918Y-32140007D01*
X53956917Y-32140008D01*
X53847945Y-32210040D01*
X53847942Y-32210041D01*
X53847941Y-32210043D01*
X53847939Y-32210044D01*
X53847938Y-32210046D01*
X53763108Y-32307945D01*
X53709292Y-32425786D01*
X53690857Y-32554006D01*
X53690857Y-32554013D01*
X53709292Y-32682233D01*
X53709292Y-32682234D01*
X53709293Y-32682236D01*
X53723804Y-32714011D01*
X53763108Y-32800074D01*
X53793500Y-32835148D01*
X53847941Y-32897977D01*
X53895025Y-32928236D01*
X53908138Y-32936663D01*
X53960019Y-32993734D01*
X53976414Y-33069099D01*
X53952930Y-33142565D01*
X53908138Y-33187357D01*
X53847945Y-33226040D01*
X53847942Y-33226041D01*
X53847941Y-33226043D01*
X53847939Y-33226044D01*
X53847938Y-33226046D01*
X53756129Y-33332001D01*
X53755082Y-33331094D01*
X53706266Y-33375471D01*
X53630901Y-33391866D01*
X53557435Y-33368382D01*
X53520495Y-33331442D01*
X53519851Y-33332001D01*
X53483059Y-33289540D01*
X53428039Y-33226043D01*
X53319059Y-33156006D01*
X53194762Y-33119510D01*
X53065218Y-33119510D01*
X52940921Y-33156006D01*
X52940918Y-33156007D01*
X52940917Y-33156008D01*
X52831945Y-33226040D01*
X52831942Y-33226041D01*
X52831941Y-33226043D01*
X52831939Y-33226044D01*
X52831938Y-33226046D01*
X52747108Y-33323945D01*
X52693292Y-33441786D01*
X52674857Y-33570006D01*
X52674857Y-33570013D01*
X52693292Y-33698233D01*
X52693292Y-33698234D01*
X52693293Y-33698236D01*
X52698041Y-33708632D01*
X52747108Y-33816074D01*
X52794927Y-33871260D01*
X52831941Y-33913977D01*
X52940921Y-33984014D01*
X53065218Y-34020510D01*
X53065221Y-34020510D01*
X53194759Y-34020510D01*
X53194762Y-34020510D01*
X53319059Y-33984014D01*
X53428039Y-33913977D01*
X53512872Y-33816073D01*
X53512871Y-33816073D01*
X53519851Y-33808019D01*
X53520898Y-33808926D01*
X53569707Y-33764551D01*
X53645072Y-33748152D01*
X53718539Y-33771633D01*
X53755483Y-33808577D01*
X53756129Y-33808019D01*
X53763108Y-33816073D01*
X53847941Y-33913977D01*
X53908138Y-33952663D01*
X53960019Y-34009734D01*
X53976414Y-34085099D01*
X53952930Y-34158565D01*
X53908138Y-34203357D01*
X53847945Y-34242040D01*
X53847942Y-34242041D01*
X53847941Y-34242043D01*
X53847939Y-34242044D01*
X53847938Y-34242046D01*
X53763108Y-34339945D01*
X53709292Y-34457786D01*
X53690857Y-34586006D01*
X53690857Y-34586013D01*
X53709292Y-34714233D01*
X53763108Y-34832074D01*
X53797517Y-34871784D01*
X53847941Y-34929977D01*
X53908138Y-34968663D01*
X53960019Y-35025734D01*
X53976414Y-35101099D01*
X53952930Y-35174565D01*
X53908138Y-35219357D01*
X53847945Y-35258040D01*
X53847942Y-35258041D01*
X53847941Y-35258043D01*
X53847939Y-35258044D01*
X53847938Y-35258046D01*
X53763108Y-35355945D01*
X53709292Y-35473786D01*
X53690857Y-35602006D01*
X53690857Y-35602013D01*
X53709292Y-35730233D01*
X53763108Y-35848074D01*
X53785127Y-35873485D01*
X53847941Y-35945977D01*
X53903658Y-35981784D01*
X53908138Y-35984663D01*
X53960019Y-36041734D01*
X53976414Y-36117099D01*
X53952930Y-36190565D01*
X53908138Y-36235356D01*
X53893217Y-36244946D01*
X53847945Y-36274040D01*
X53847942Y-36274041D01*
X53847941Y-36274043D01*
X53847939Y-36274044D01*
X53847938Y-36274046D01*
X53763108Y-36371945D01*
X53709292Y-36489786D01*
X53690857Y-36618006D01*
X53690857Y-36618013D01*
X53709292Y-36746233D01*
X53763108Y-36864074D01*
X53818272Y-36927737D01*
X53847941Y-36961977D01*
X53906090Y-36999347D01*
X53908138Y-37000663D01*
X53960019Y-37057734D01*
X53976414Y-37133099D01*
X53952930Y-37206565D01*
X53908138Y-37251357D01*
X53847945Y-37290040D01*
X53847942Y-37290041D01*
X53847941Y-37290043D01*
X53847939Y-37290044D01*
X53847938Y-37290046D01*
X53763108Y-37387945D01*
X53709292Y-37505786D01*
X53690857Y-37634006D01*
X53690857Y-37634013D01*
X53709292Y-37762233D01*
X53709292Y-37762234D01*
X53709293Y-37762236D01*
X53730635Y-37808967D01*
X53763108Y-37880074D01*
X53788002Y-37908803D01*
X53847941Y-37977977D01*
X53956921Y-38048014D01*
X54081218Y-38084510D01*
X54081221Y-38084510D01*
X54210759Y-38084510D01*
X54210762Y-38084510D01*
X54265012Y-38068580D01*
X54342118Y-38066745D01*
X54409812Y-38103708D01*
X54449954Y-38169567D01*
X54455990Y-38211545D01*
X54455990Y-41777523D01*
X54436028Y-41852023D01*
X54381490Y-41906561D01*
X54306990Y-41926523D01*
X54272874Y-41922565D01*
X54234134Y-41913452D01*
X54224268Y-41910397D01*
X54196164Y-41899510D01*
X54196163Y-41899510D01*
X54192140Y-41899510D01*
X54158027Y-41895552D01*
X54154112Y-41894631D01*
X54154108Y-41894631D01*
X54147507Y-41895552D01*
X54124256Y-41898795D01*
X54113956Y-41899510D01*
X48589775Y-41899510D01*
X48552654Y-41894812D01*
X48550322Y-41894212D01*
X48550315Y-41894211D01*
X48487139Y-41890706D01*
X48461762Y-41887090D01*
X48451878Y-41884800D01*
X48424940Y-41875779D01*
X48403740Y-41866346D01*
X48399234Y-41864157D01*
X48336507Y-41831032D01*
X48331367Y-41828480D01*
X48240984Y-41786709D01*
X48238765Y-41785737D01*
X48238408Y-41785623D01*
X48233792Y-41784459D01*
X48129873Y-41753947D01*
X48114762Y-41749510D01*
X47985218Y-41749510D01*
X47860921Y-41786006D01*
X47860917Y-41786008D01*
X47860916Y-41786009D01*
X47839453Y-41799802D01*
X47765987Y-41823284D01*
X47690622Y-41806888D01*
X47640565Y-41761381D01*
X47639851Y-41762001D01*
X47634672Y-41756024D01*
X47633552Y-41755006D01*
X47632869Y-41753943D01*
X47583908Y-41697439D01*
X47548039Y-41656043D01*
X47439059Y-41586006D01*
X47314762Y-41549510D01*
X47185218Y-41549510D01*
X47060921Y-41586006D01*
X47060918Y-41586007D01*
X47060917Y-41586008D01*
X46951945Y-41656040D01*
X46951942Y-41656041D01*
X46951941Y-41656043D01*
X46951939Y-41656044D01*
X46951938Y-41656046D01*
X46867108Y-41753945D01*
X46867106Y-41753949D01*
X46840817Y-41811513D01*
X46791710Y-41870987D01*
X46719444Y-41897940D01*
X46643384Y-41885148D01*
X46599924Y-41854973D01*
X45997571Y-41252619D01*
X45990789Y-41244826D01*
X45983993Y-41235827D01*
X45948873Y-41203811D01*
X45946396Y-41201445D01*
X45932832Y-41187881D01*
X45932826Y-41187876D01*
X45931326Y-41186848D01*
X45923241Y-41180443D01*
X45900967Y-41160138D01*
X45900965Y-41160137D01*
X45897209Y-41158682D01*
X45866834Y-41142672D01*
X45863513Y-41140397D01*
X45834177Y-41133497D01*
X45824313Y-41130442D01*
X45796209Y-41119555D01*
X45796208Y-41119555D01*
X45792185Y-41119555D01*
X45758072Y-41115597D01*
X45754157Y-41114676D01*
X45754153Y-41114676D01*
X45750763Y-41115149D01*
X45724301Y-41118840D01*
X45714001Y-41119555D01*
X44529224Y-41119555D01*
X44454724Y-41099593D01*
X44423865Y-41075914D01*
X44108917Y-40760966D01*
X44070353Y-40694171D01*
X44070353Y-40617043D01*
X44108917Y-40550248D01*
X44175712Y-40511684D01*
X44252840Y-40511684D01*
X44256254Y-40512643D01*
X44260919Y-40514012D01*
X44260921Y-40514014D01*
X44385218Y-40550510D01*
X44385221Y-40550510D01*
X44514759Y-40550510D01*
X44514762Y-40550510D01*
X44639059Y-40514014D01*
X44748039Y-40443977D01*
X44832872Y-40346073D01*
X44886687Y-40228236D01*
X44898509Y-40146012D01*
X47090740Y-40146012D01*
X47109658Y-40289716D01*
X47165128Y-40423635D01*
X47196716Y-40464800D01*
X47253369Y-40538631D01*
X47268849Y-40550509D01*
X47368364Y-40626871D01*
X47502283Y-40682341D01*
X47645987Y-40701260D01*
X47645990Y-40701260D01*
X47645993Y-40701260D01*
X47789696Y-40682341D01*
X47789698Y-40682340D01*
X47789699Y-40682340D01*
X47923615Y-40626871D01*
X48038611Y-40538631D01*
X48126851Y-40423635D01*
X48182320Y-40289719D01*
X48182320Y-40289718D01*
X48182321Y-40289716D01*
X48201240Y-40146012D01*
X48201240Y-40146007D01*
X48182321Y-40002303D01*
X48126851Y-39868384D01*
X48068073Y-39791784D01*
X48038611Y-39753389D01*
X48034211Y-39750013D01*
X49144857Y-39750013D01*
X49163292Y-39878233D01*
X49217108Y-39996074D01*
X49262304Y-40048233D01*
X49301941Y-40093977D01*
X49410921Y-40164014D01*
X49535218Y-40200510D01*
X49535221Y-40200510D01*
X49664759Y-40200510D01*
X49664762Y-40200510D01*
X49789059Y-40164014D01*
X49898039Y-40093977D01*
X49982872Y-39996073D01*
X50036687Y-39878236D01*
X50049117Y-39791784D01*
X50055123Y-39750013D01*
X50055123Y-39750006D01*
X50036687Y-39621786D01*
X50036687Y-39621784D01*
X49982872Y-39503947D01*
X49982871Y-39503946D01*
X49982871Y-39503945D01*
X49911139Y-39421162D01*
X49898039Y-39406043D01*
X49789059Y-39336006D01*
X49664762Y-39299510D01*
X49535218Y-39299510D01*
X49410921Y-39336006D01*
X49410918Y-39336007D01*
X49410917Y-39336008D01*
X49301945Y-39406040D01*
X49301942Y-39406041D01*
X49301941Y-39406043D01*
X49301939Y-39406044D01*
X49301938Y-39406046D01*
X49217108Y-39503945D01*
X49163292Y-39621786D01*
X49144857Y-39750006D01*
X49144857Y-39750013D01*
X48034211Y-39750013D01*
X48011935Y-39732920D01*
X47923615Y-39665148D01*
X47789696Y-39609678D01*
X47645993Y-39590760D01*
X47645987Y-39590760D01*
X47502283Y-39609678D01*
X47368364Y-39665148D01*
X47253371Y-39753387D01*
X47253367Y-39753391D01*
X47165128Y-39868384D01*
X47109658Y-40002303D01*
X47090740Y-40146007D01*
X47090740Y-40146012D01*
X44898509Y-40146012D01*
X44898510Y-40146007D01*
X44905123Y-40100013D01*
X44905123Y-40100006D01*
X44886687Y-39971786D01*
X44886687Y-39971784D01*
X44832872Y-39853947D01*
X44832871Y-39853946D01*
X44832871Y-39853945D01*
X44779008Y-39791784D01*
X44748039Y-39756043D01*
X44639059Y-39686006D01*
X44514762Y-39649510D01*
X44385218Y-39649510D01*
X44260921Y-39686006D01*
X44260918Y-39686007D01*
X44260917Y-39686008D01*
X44151945Y-39756040D01*
X44151942Y-39756041D01*
X44151941Y-39756043D01*
X44151939Y-39756044D01*
X44151938Y-39756046D01*
X44067108Y-39853945D01*
X44013292Y-39971786D01*
X43994857Y-40100006D01*
X43994857Y-40100013D01*
X44013292Y-40228235D01*
X44037632Y-40281531D01*
X44050422Y-40357591D01*
X44023469Y-40429856D01*
X43963994Y-40478963D01*
X43887934Y-40491753D01*
X43815669Y-40464800D01*
X43796738Y-40448787D01*
X41572965Y-38225013D01*
X46144857Y-38225013D01*
X46163292Y-38353233D01*
X46163292Y-38353234D01*
X46163293Y-38353236D01*
X46172860Y-38374184D01*
X46217108Y-38471074D01*
X46272272Y-38534737D01*
X46301941Y-38568977D01*
X46410921Y-38639014D01*
X46535218Y-38675510D01*
X46535221Y-38675510D01*
X46664759Y-38675510D01*
X46664762Y-38675510D01*
X46789059Y-38639014D01*
X46898039Y-38568977D01*
X46936133Y-38525013D01*
X48169857Y-38525013D01*
X48188292Y-38653233D01*
X48188292Y-38653234D01*
X48188293Y-38653236D01*
X48199214Y-38677149D01*
X48242108Y-38771074D01*
X48297272Y-38834737D01*
X48326941Y-38868977D01*
X48435921Y-38939014D01*
X48560218Y-38975510D01*
X48560221Y-38975510D01*
X48689759Y-38975510D01*
X48689762Y-38975510D01*
X48814059Y-38939014D01*
X48923039Y-38868977D01*
X48931309Y-38859432D01*
X48995179Y-38816200D01*
X49072110Y-38810694D01*
X49124470Y-38831655D01*
X49135921Y-38839014D01*
X49260218Y-38875510D01*
X49260221Y-38875510D01*
X49389759Y-38875510D01*
X49389762Y-38875510D01*
X49514059Y-38839014D01*
X49623039Y-38768977D01*
X49707872Y-38671073D01*
X49761687Y-38553236D01*
X49780123Y-38425010D01*
X49780123Y-38425006D01*
X49767832Y-38339526D01*
X49761687Y-38296784D01*
X49707872Y-38178947D01*
X49707871Y-38178946D01*
X49707871Y-38178945D01*
X49649003Y-38111008D01*
X49623039Y-38081043D01*
X49514059Y-38011006D01*
X49389762Y-37974510D01*
X49260218Y-37974510D01*
X49135921Y-38011006D01*
X49135918Y-38011007D01*
X49135917Y-38011008D01*
X49026945Y-38081040D01*
X49026943Y-38081041D01*
X49026941Y-38081043D01*
X49026938Y-38081045D01*
X49026936Y-38081048D01*
X49018666Y-38090592D01*
X48954792Y-38133822D01*
X48877860Y-38139323D01*
X48825507Y-38118363D01*
X48814059Y-38111006D01*
X48689762Y-38074510D01*
X48560218Y-38074510D01*
X48435921Y-38111006D01*
X48435918Y-38111007D01*
X48435917Y-38111008D01*
X48326945Y-38181040D01*
X48326942Y-38181041D01*
X48326941Y-38181043D01*
X48326939Y-38181044D01*
X48326938Y-38181046D01*
X48242108Y-38278945D01*
X48188292Y-38396786D01*
X48169857Y-38525006D01*
X48169857Y-38525013D01*
X46936133Y-38525013D01*
X46982872Y-38471073D01*
X47036687Y-38353236D01*
X47055123Y-38225010D01*
X47055123Y-38225006D01*
X47040745Y-38125006D01*
X47036687Y-38096784D01*
X46982872Y-37978947D01*
X46982871Y-37978946D01*
X46982871Y-37978945D01*
X46922988Y-37909836D01*
X46898039Y-37881043D01*
X46789059Y-37811006D01*
X46664762Y-37774510D01*
X46535218Y-37774510D01*
X46410921Y-37811006D01*
X46410918Y-37811007D01*
X46410917Y-37811008D01*
X46301945Y-37881040D01*
X46301942Y-37881041D01*
X46301941Y-37881043D01*
X46301939Y-37881044D01*
X46301938Y-37881046D01*
X46217108Y-37978945D01*
X46163292Y-38096786D01*
X46144857Y-38225006D01*
X46144857Y-38225013D01*
X41572965Y-38225013D01*
X41322526Y-37974574D01*
X41315744Y-37966781D01*
X41308948Y-37957782D01*
X41273828Y-37925766D01*
X41271351Y-37923400D01*
X41257787Y-37909836D01*
X41257781Y-37909831D01*
X41256281Y-37908803D01*
X41248196Y-37902398D01*
X41225922Y-37882093D01*
X41225920Y-37882092D01*
X41222164Y-37880637D01*
X41191789Y-37864627D01*
X41188468Y-37862352D01*
X41159132Y-37855452D01*
X41149268Y-37852397D01*
X41121164Y-37841510D01*
X41121163Y-37841510D01*
X41117140Y-37841510D01*
X41083027Y-37837552D01*
X41079112Y-37836631D01*
X41079108Y-37836631D01*
X41072507Y-37837552D01*
X41049256Y-37840795D01*
X41038956Y-37841510D01*
X39798158Y-37841510D01*
X39723658Y-37821548D01*
X39669120Y-37767010D01*
X39649158Y-37692510D01*
X39662623Y-37630612D01*
X39679697Y-37593226D01*
X39694135Y-37492808D01*
X49768062Y-37492808D01*
X49786497Y-37621028D01*
X49786497Y-37621029D01*
X49786498Y-37621031D01*
X49792427Y-37634013D01*
X49840313Y-37738869D01*
X49876857Y-37781043D01*
X49925146Y-37836772D01*
X50034126Y-37906809D01*
X50158423Y-37943305D01*
X50158426Y-37943305D01*
X50274027Y-37943305D01*
X50348527Y-37963267D01*
X50403065Y-38017805D01*
X50423027Y-38092305D01*
X50421510Y-38113510D01*
X50419857Y-38125006D01*
X50419857Y-38125013D01*
X50438292Y-38253233D01*
X50438292Y-38253234D01*
X50438293Y-38253236D01*
X50450034Y-38278945D01*
X50492108Y-38371074D01*
X50547272Y-38434737D01*
X50576941Y-38468977D01*
X50685921Y-38539014D01*
X50810218Y-38575510D01*
X50810221Y-38575510D01*
X50939759Y-38575510D01*
X50939762Y-38575510D01*
X51064059Y-38539014D01*
X51173039Y-38468977D01*
X51257872Y-38371073D01*
X51311687Y-38253236D01*
X51330123Y-38125010D01*
X51330123Y-38125006D01*
X51311687Y-37996786D01*
X51311687Y-37996784D01*
X51257872Y-37878947D01*
X51257871Y-37878946D01*
X51257871Y-37878945D01*
X51199003Y-37811008D01*
X51173039Y-37781043D01*
X51064059Y-37711006D01*
X50939762Y-37674510D01*
X50824158Y-37674510D01*
X50749658Y-37654548D01*
X50695120Y-37600010D01*
X50675158Y-37525510D01*
X50676675Y-37504305D01*
X50678328Y-37492808D01*
X50678328Y-37492801D01*
X50663252Y-37387947D01*
X50659892Y-37364579D01*
X50606077Y-37246742D01*
X50606076Y-37246741D01*
X50606076Y-37246740D01*
X50551287Y-37183510D01*
X50521244Y-37148838D01*
X50412264Y-37078801D01*
X50287967Y-37042305D01*
X50158423Y-37042305D01*
X50034126Y-37078801D01*
X50034123Y-37078802D01*
X50034122Y-37078803D01*
X49925150Y-37148835D01*
X49925147Y-37148836D01*
X49925146Y-37148838D01*
X49925144Y-37148839D01*
X49925143Y-37148841D01*
X49840313Y-37246740D01*
X49786497Y-37364581D01*
X49768062Y-37492801D01*
X49768062Y-37492808D01*
X39694135Y-37492808D01*
X39698133Y-37465003D01*
X39698133Y-37464996D01*
X39679697Y-37336776D01*
X39679697Y-37336774D01*
X39625882Y-37218937D01*
X39625881Y-37218936D01*
X39625881Y-37218935D01*
X39551504Y-37133099D01*
X39541049Y-37121033D01*
X39432069Y-37050996D01*
X39307772Y-37014500D01*
X39178228Y-37014500D01*
X39053931Y-37050996D01*
X39053928Y-37050997D01*
X39053927Y-37050998D01*
X38944955Y-37121030D01*
X38944952Y-37121031D01*
X38944951Y-37121033D01*
X38944949Y-37121034D01*
X38944948Y-37121036D01*
X38860118Y-37218935D01*
X38806302Y-37336776D01*
X38787867Y-37464996D01*
X38787867Y-37465003D01*
X38806302Y-37593223D01*
X38806302Y-37593224D01*
X38806303Y-37593226D01*
X38817622Y-37618010D01*
X38823377Y-37630612D01*
X38836167Y-37706673D01*
X38809214Y-37778938D01*
X38749740Y-37828045D01*
X38687842Y-37841510D01*
X35464424Y-37841510D01*
X35389924Y-37821548D01*
X35335386Y-37767010D01*
X35315424Y-37692510D01*
X35335386Y-37618010D01*
X35351814Y-37594939D01*
X35434882Y-37499073D01*
X35488697Y-37381236D01*
X35501808Y-37290046D01*
X35507133Y-37253013D01*
X35507133Y-37253006D01*
X35490544Y-37137631D01*
X35488697Y-37124784D01*
X35434882Y-37006947D01*
X35434881Y-37006946D01*
X35434881Y-37006945D01*
X35402757Y-36969872D01*
X35369056Y-36900496D01*
X35374559Y-36823564D01*
X35402756Y-36774725D01*
X35428503Y-36745012D01*
X41906740Y-36745012D01*
X41925658Y-36888716D01*
X41981128Y-37022635D01*
X42024228Y-37078803D01*
X42069369Y-37137631D01*
X42116592Y-37173867D01*
X42184364Y-37225871D01*
X42318283Y-37281341D01*
X42461987Y-37300260D01*
X42461990Y-37300260D01*
X42461993Y-37300260D01*
X42605696Y-37281341D01*
X42605698Y-37281340D01*
X42605699Y-37281340D01*
X42739615Y-37225871D01*
X42854611Y-37137631D01*
X42942851Y-37022635D01*
X42998320Y-36888719D01*
X42998320Y-36888718D01*
X42998321Y-36888716D01*
X43017240Y-36745012D01*
X43017240Y-36745007D01*
X42998321Y-36601303D01*
X42942851Y-36467384D01*
X42881656Y-36387635D01*
X42854611Y-36352389D01*
X42811950Y-36319654D01*
X42739615Y-36264148D01*
X42605696Y-36208678D01*
X42461993Y-36189760D01*
X42461987Y-36189760D01*
X42318283Y-36208678D01*
X42184364Y-36264148D01*
X42069371Y-36352387D01*
X42069367Y-36352391D01*
X41981128Y-36467384D01*
X41925658Y-36601303D01*
X41906740Y-36745007D01*
X41906740Y-36745012D01*
X35428503Y-36745012D01*
X35435382Y-36737073D01*
X35489197Y-36619236D01*
X35502888Y-36524011D01*
X35507633Y-36491013D01*
X35507633Y-36491006D01*
X35489197Y-36362786D01*
X35489197Y-36362784D01*
X35435382Y-36244947D01*
X35435381Y-36244946D01*
X35435381Y-36244945D01*
X35402757Y-36207295D01*
X35369056Y-36137919D01*
X35374559Y-36060987D01*
X35402756Y-36012147D01*
X35434882Y-35975073D01*
X35488697Y-35857236D01*
X35506957Y-35730236D01*
X35507133Y-35729013D01*
X35507133Y-35729006D01*
X35492775Y-35629148D01*
X35488697Y-35600784D01*
X35434882Y-35482947D01*
X35434881Y-35482946D01*
X35434881Y-35482945D01*
X35411266Y-35455693D01*
X35402506Y-35445583D01*
X35368807Y-35376208D01*
X35374309Y-35299277D01*
X35402507Y-35250436D01*
X35404186Y-35248499D01*
X35434882Y-35213073D01*
X35488697Y-35095236D01*
X35502388Y-35000013D01*
X35507133Y-34967013D01*
X35507133Y-34967006D01*
X35493442Y-34871784D01*
X35488697Y-34838784D01*
X35470073Y-34798003D01*
X38787867Y-34798003D01*
X38806302Y-34926223D01*
X38806302Y-34926224D01*
X38806303Y-34926226D01*
X38808016Y-34929977D01*
X38860118Y-35044064D01*
X38896519Y-35086073D01*
X38944951Y-35141967D01*
X39053931Y-35212004D01*
X39178228Y-35248500D01*
X39178231Y-35248500D01*
X39307769Y-35248500D01*
X39307772Y-35248500D01*
X39432069Y-35212004D01*
X39541049Y-35141967D01*
X39625882Y-35044063D01*
X39645999Y-35000013D01*
X44069857Y-35000013D01*
X44088292Y-35128233D01*
X44142108Y-35246074D01*
X44180611Y-35290509D01*
X44226941Y-35343977D01*
X44335921Y-35414014D01*
X44460218Y-35450510D01*
X44460221Y-35450510D01*
X44589759Y-35450510D01*
X44589762Y-35450510D01*
X44714059Y-35414014D01*
X44823039Y-35343977D01*
X44907872Y-35246073D01*
X44961687Y-35128236D01*
X44974875Y-35036510D01*
X44980123Y-35000013D01*
X44980123Y-35000006D01*
X44961687Y-34871786D01*
X44961687Y-34871784D01*
X44947177Y-34840013D01*
X46324857Y-34840013D01*
X46343292Y-34968233D01*
X46397108Y-35086074D01*
X46433639Y-35128233D01*
X46481941Y-35183977D01*
X46590921Y-35254014D01*
X46715218Y-35290510D01*
X46715221Y-35290510D01*
X46814429Y-35290510D01*
X46888929Y-35310472D01*
X46943467Y-35365010D01*
X46963429Y-35439510D01*
X46961912Y-35460716D01*
X46959857Y-35475008D01*
X46959857Y-35475013D01*
X46978292Y-35603233D01*
X47032108Y-35721074D01*
X47087272Y-35784737D01*
X47116941Y-35818977D01*
X47225921Y-35889014D01*
X47350218Y-35925510D01*
X47350221Y-35925510D01*
X47449429Y-35925510D01*
X47523929Y-35945472D01*
X47578467Y-36000010D01*
X47598429Y-36074510D01*
X47596912Y-36095716D01*
X47594857Y-36110008D01*
X47594857Y-36110013D01*
X47613292Y-36238233D01*
X47613292Y-36238234D01*
X47613293Y-36238236D01*
X47625127Y-36264148D01*
X47667108Y-36356074D01*
X47694455Y-36387634D01*
X47751941Y-36453977D01*
X47860921Y-36524014D01*
X47985218Y-36560510D01*
X47985221Y-36560510D01*
X48114759Y-36560510D01*
X48114762Y-36560510D01*
X48239059Y-36524014D01*
X48348039Y-36453977D01*
X48432872Y-36356073D01*
X48486687Y-36238236D01*
X48498075Y-36159032D01*
X48505123Y-36110013D01*
X48505123Y-36110008D01*
X48503068Y-36095716D01*
X48512224Y-36019133D01*
X48558445Y-35957389D01*
X48629345Y-35927027D01*
X48650551Y-35925510D01*
X48749759Y-35925510D01*
X48749762Y-35925510D01*
X48874059Y-35889014D01*
X48983039Y-35818977D01*
X49067872Y-35721073D01*
X49121687Y-35603236D01*
X49138982Y-35482947D01*
X49140123Y-35475013D01*
X49140123Y-35475008D01*
X49138068Y-35460716D01*
X49147224Y-35384133D01*
X49193445Y-35322389D01*
X49264345Y-35292027D01*
X49285551Y-35290510D01*
X49384759Y-35290510D01*
X49384762Y-35290510D01*
X49509059Y-35254014D01*
X49618039Y-35183977D01*
X49702872Y-35086073D01*
X49756687Y-34968236D01*
X49765905Y-34904123D01*
X49775123Y-34840013D01*
X49775123Y-34840006D01*
X49758004Y-34720945D01*
X49756687Y-34711784D01*
X49702872Y-34593947D01*
X49702871Y-34593946D01*
X49702871Y-34593945D01*
X49635773Y-34516510D01*
X49618039Y-34496043D01*
X49509059Y-34426006D01*
X49384762Y-34389510D01*
X49285551Y-34389510D01*
X49211051Y-34369548D01*
X49156513Y-34315010D01*
X49136551Y-34240510D01*
X49138068Y-34219304D01*
X49140123Y-34205011D01*
X49140123Y-34205006D01*
X49127832Y-34119526D01*
X49121687Y-34076784D01*
X49067872Y-33958947D01*
X49067871Y-33958946D01*
X49067871Y-33958945D01*
X48999095Y-33879573D01*
X48983039Y-33861043D01*
X48874059Y-33791006D01*
X48749762Y-33754510D01*
X48650551Y-33754510D01*
X48576051Y-33734548D01*
X48521513Y-33680010D01*
X48501551Y-33605510D01*
X48503068Y-33584304D01*
X48505123Y-33570011D01*
X48505123Y-33570006D01*
X48489451Y-33461006D01*
X48486687Y-33441784D01*
X48432872Y-33323947D01*
X48432871Y-33323946D01*
X48432871Y-33323945D01*
X48378758Y-33261495D01*
X48348039Y-33226043D01*
X48239059Y-33156006D01*
X48114762Y-33119510D01*
X47985218Y-33119510D01*
X47860921Y-33156006D01*
X47860918Y-33156007D01*
X47860917Y-33156008D01*
X47751945Y-33226040D01*
X47751942Y-33226041D01*
X47751941Y-33226043D01*
X47751939Y-33226044D01*
X47751938Y-33226046D01*
X47667108Y-33323945D01*
X47613292Y-33441786D01*
X47594857Y-33570006D01*
X47594857Y-33570011D01*
X47596912Y-33584304D01*
X47587756Y-33660887D01*
X47541535Y-33722631D01*
X47470635Y-33752993D01*
X47449429Y-33754510D01*
X47350218Y-33754510D01*
X47225921Y-33791006D01*
X47225918Y-33791007D01*
X47225917Y-33791008D01*
X47116945Y-33861040D01*
X47116942Y-33861041D01*
X47116941Y-33861043D01*
X47116939Y-33861044D01*
X47116938Y-33861046D01*
X47032108Y-33958945D01*
X46978292Y-34076786D01*
X46959857Y-34205006D01*
X46959857Y-34205011D01*
X46961912Y-34219304D01*
X46952756Y-34295887D01*
X46906535Y-34357631D01*
X46835635Y-34387993D01*
X46814429Y-34389510D01*
X46715218Y-34389510D01*
X46590921Y-34426006D01*
X46590918Y-34426007D01*
X46590917Y-34426008D01*
X46481945Y-34496040D01*
X46481942Y-34496041D01*
X46481941Y-34496043D01*
X46481939Y-34496044D01*
X46481938Y-34496046D01*
X46397108Y-34593945D01*
X46343292Y-34711786D01*
X46324857Y-34840006D01*
X46324857Y-34840013D01*
X44947177Y-34840013D01*
X44907872Y-34753947D01*
X44907871Y-34753946D01*
X44907871Y-34753945D01*
X44861206Y-34700090D01*
X44823039Y-34656043D01*
X44714059Y-34586006D01*
X44589762Y-34549510D01*
X44460218Y-34549510D01*
X44335921Y-34586006D01*
X44335918Y-34586007D01*
X44335917Y-34586008D01*
X44226945Y-34656040D01*
X44226942Y-34656041D01*
X44226941Y-34656043D01*
X44226939Y-34656044D01*
X44226938Y-34656046D01*
X44142108Y-34753945D01*
X44088292Y-34871786D01*
X44069857Y-35000006D01*
X44069857Y-35000013D01*
X39645999Y-35000013D01*
X39679697Y-34926226D01*
X39688915Y-34862113D01*
X39698133Y-34798003D01*
X39698133Y-34797996D01*
X39679697Y-34669776D01*
X39679697Y-34669774D01*
X39625882Y-34551937D01*
X39625881Y-34551936D01*
X39625881Y-34551935D01*
X39568698Y-34485942D01*
X39541049Y-34454033D01*
X39432069Y-34383996D01*
X39307772Y-34347500D01*
X39178228Y-34347500D01*
X39053931Y-34383996D01*
X39053928Y-34383997D01*
X39053927Y-34383998D01*
X38944955Y-34454030D01*
X38944952Y-34454031D01*
X38944951Y-34454033D01*
X38944949Y-34454034D01*
X38944948Y-34454036D01*
X38860118Y-34551935D01*
X38806302Y-34669776D01*
X38787867Y-34797996D01*
X38787867Y-34798003D01*
X35470073Y-34798003D01*
X35434882Y-34720947D01*
X35434881Y-34720946D01*
X35434881Y-34720945D01*
X35378643Y-34656043D01*
X35350049Y-34623043D01*
X35241069Y-34553006D01*
X35116772Y-34516510D01*
X34987228Y-34516510D01*
X34862931Y-34553006D01*
X34862928Y-34553007D01*
X34862927Y-34553008D01*
X34753955Y-34623040D01*
X34753952Y-34623041D01*
X34753951Y-34623043D01*
X34753949Y-34623044D01*
X34753948Y-34623046D01*
X34669118Y-34720945D01*
X34615302Y-34838786D01*
X34596867Y-34967006D01*
X34596867Y-34967013D01*
X34615302Y-35095233D01*
X34615302Y-35095234D01*
X34615303Y-35095236D01*
X34630374Y-35128236D01*
X34669118Y-35213074D01*
X34701493Y-35250437D01*
X34735193Y-35319814D01*
X34729689Y-35396745D01*
X34701493Y-35445583D01*
X34669118Y-35482945D01*
X34615302Y-35600786D01*
X34596867Y-35729006D01*
X34596867Y-35729008D01*
X34596867Y-35729010D01*
X34600689Y-35755597D01*
X34604997Y-35785558D01*
X34595839Y-35862140D01*
X34587345Y-35873485D01*
X34635390Y-35910351D01*
X34652715Y-35939158D01*
X34669116Y-35975070D01*
X34669121Y-35975078D01*
X34701742Y-36012725D01*
X34735443Y-36082101D01*
X34729940Y-36159032D01*
X34701744Y-36207870D01*
X34669618Y-36244946D01*
X34669616Y-36244949D01*
X34652513Y-36282399D01*
X34603405Y-36341873D01*
X34586635Y-36348127D01*
X34606320Y-36410857D01*
X34604937Y-36438355D01*
X34597367Y-36491010D01*
X34597367Y-36491013D01*
X34615802Y-36619233D01*
X34669618Y-36737074D01*
X34669621Y-36737078D01*
X34701742Y-36774148D01*
X34735443Y-36843524D01*
X34729940Y-36920455D01*
X34701745Y-36969292D01*
X34686765Y-36986581D01*
X34622893Y-37029814D01*
X34545961Y-37035318D01*
X34476584Y-37001620D01*
X34468796Y-36994369D01*
X34207493Y-36733066D01*
X34168929Y-36666271D01*
X34168929Y-36589143D01*
X34207493Y-36522348D01*
X34208689Y-36521166D01*
X34214700Y-36515295D01*
X34217229Y-36512524D01*
X34222613Y-36506629D01*
X34222614Y-36506627D01*
X34231710Y-36495447D01*
X34231709Y-36495449D01*
X34238587Y-36485932D01*
X34238587Y-36485933D01*
X34272538Y-36432802D01*
X34276213Y-36427561D01*
X34306851Y-36387635D01*
X34314872Y-36368268D01*
X34319242Y-36359423D01*
X34321908Y-36354823D01*
X34324930Y-36349038D01*
X34324939Y-36349018D01*
X34325383Y-36348170D01*
X34377568Y-36291377D01*
X34388524Y-36287938D01*
X34368653Y-36234661D01*
X34369254Y-36201051D01*
X34381240Y-36110011D01*
X34381240Y-36110009D01*
X34369456Y-36020507D01*
X34379523Y-35944038D01*
X34387261Y-35933953D01*
X34340390Y-35898866D01*
X34319856Y-35863782D01*
X34306851Y-35832385D01*
X34218611Y-35717389D01*
X34190744Y-35696006D01*
X34103615Y-35629148D01*
X33969696Y-35573678D01*
X33825993Y-35554760D01*
X33825987Y-35554760D01*
X33682283Y-35573678D01*
X33548364Y-35629148D01*
X33433371Y-35717387D01*
X33433367Y-35717391D01*
X33345128Y-35832384D01*
X33289658Y-35966303D01*
X33270740Y-36110007D01*
X33270740Y-36110012D01*
X33289658Y-36253713D01*
X33289660Y-36253722D01*
X33301523Y-36282362D01*
X33309926Y-36313606D01*
X33310018Y-36313585D01*
X33310694Y-36316462D01*
X33311553Y-36319654D01*
X33311694Y-36320712D01*
X33359226Y-36459922D01*
X33361360Y-36467439D01*
X33382651Y-36560816D01*
X33387238Y-36580933D01*
X33392710Y-36601455D01*
X33417340Y-36693828D01*
X33417340Y-36693826D01*
X33420781Y-36704396D01*
X33420782Y-36704398D01*
X33425706Y-36717138D01*
X33430277Y-36727292D01*
X33430278Y-36727294D01*
X33489325Y-36841497D01*
X33489325Y-36841498D01*
X33495333Y-36851647D01*
X33495333Y-36851646D01*
X33503409Y-36863657D01*
X33503411Y-36863660D01*
X33510549Y-36873062D01*
X33510556Y-36873070D01*
X33510556Y-36873071D01*
X33563629Y-36935220D01*
X33568437Y-36941495D01*
X33573783Y-36949298D01*
X33576628Y-36952143D01*
X33597948Y-36979058D01*
X33600070Y-36982486D01*
X33600997Y-36983502D01*
X33618498Y-36999344D01*
X33620456Y-37001462D01*
X33620683Y-37001620D01*
X33627748Y-37006544D01*
X33647910Y-37023425D01*
X34893065Y-38268580D01*
X34931629Y-38335375D01*
X34931629Y-38412503D01*
X34893065Y-38479298D01*
X34875293Y-38494476D01*
X34842403Y-38518373D01*
X34842401Y-38518374D01*
X34842401Y-38518375D01*
X34842399Y-38518377D01*
X34736836Y-38645979D01*
X34736830Y-38645990D01*
X34666318Y-38795834D01*
X34666317Y-38795836D01*
X34639006Y-38939011D01*
X34635284Y-38958524D01*
X34645683Y-39123815D01*
X34671796Y-39204181D01*
X34696862Y-39281327D01*
X34785602Y-39421160D01*
X34785603Y-39421160D01*
X34785604Y-39421162D01*
X34906334Y-39534536D01*
X34906336Y-39534537D01*
X34906337Y-39534538D01*
X34935759Y-39550713D01*
X34991428Y-39604096D01*
X35012946Y-39678162D01*
X34994549Y-39753063D01*
X34948621Y-39803907D01*
X34806761Y-39901827D01*
X34806757Y-39901830D01*
X34693957Y-40029155D01*
X34614899Y-40179785D01*
X34574190Y-40344953D01*
X34574190Y-40515066D01*
X34614899Y-40680234D01*
X34693957Y-40830864D01*
X34806757Y-40958189D01*
X34806761Y-40958193D01*
X34946760Y-41054828D01*
X35105818Y-41115150D01*
X35232318Y-41130510D01*
X35232324Y-41130510D01*
X36417055Y-41130510D01*
X36417062Y-41130510D01*
X36543562Y-41115150D01*
X36702620Y-41054828D01*
X36842619Y-40958193D01*
X36955424Y-40830862D01*
X37034480Y-40680235D01*
X37075190Y-40515066D01*
X37075190Y-40344954D01*
X37034480Y-40179785D01*
X36955424Y-40029158D01*
X36955422Y-40029156D01*
X36955422Y-40029155D01*
X36842622Y-39901830D01*
X36842620Y-39901829D01*
X36842619Y-39901827D01*
X36702620Y-39805192D01*
X36702619Y-39805191D01*
X36543564Y-39744870D01*
X36507419Y-39740481D01*
X36417062Y-39729510D01*
X35858568Y-39729510D01*
X35784068Y-39709548D01*
X35729530Y-39655010D01*
X35709568Y-39580510D01*
X35729530Y-39506010D01*
X35743762Y-39485534D01*
X35852543Y-39354040D01*
X35852543Y-39354038D01*
X35852546Y-39354036D01*
X35923063Y-39204181D01*
X35954096Y-39041496D01*
X35943697Y-38876205D01*
X35892518Y-38718693D01*
X35862472Y-38671348D01*
X35839408Y-38597749D01*
X35856233Y-38522479D01*
X35908439Y-38465705D01*
X35982038Y-38442641D01*
X35988277Y-38442510D01*
X40019213Y-38442510D01*
X40093713Y-38462472D01*
X40148251Y-38517010D01*
X40168213Y-38591510D01*
X40148251Y-38666010D01*
X40109919Y-38709719D01*
X40037371Y-38765387D01*
X40037367Y-38765391D01*
X39949128Y-38880384D01*
X39893658Y-39014303D01*
X39874740Y-39158007D01*
X39874740Y-39158012D01*
X39893658Y-39301716D01*
X39949128Y-39435635D01*
X40003128Y-39506008D01*
X40037369Y-39550631D01*
X40076308Y-39580510D01*
X40152364Y-39638871D01*
X40286283Y-39694341D01*
X40429987Y-39713260D01*
X40429990Y-39713260D01*
X40429993Y-39713260D01*
X40573696Y-39694341D01*
X40573698Y-39694340D01*
X40573699Y-39694340D01*
X40707615Y-39638871D01*
X40822611Y-39550631D01*
X40910851Y-39435635D01*
X40966320Y-39301719D01*
X40966320Y-39301718D01*
X40966321Y-39301716D01*
X40985240Y-39158012D01*
X40985240Y-39158007D01*
X40966321Y-39014303D01*
X40910851Y-38880384D01*
X40832469Y-38778236D01*
X40822611Y-38765389D01*
X40750061Y-38709719D01*
X40703109Y-38648529D01*
X40693042Y-38572061D01*
X40722558Y-38500804D01*
X40783748Y-38453852D01*
X40840767Y-38442510D01*
X40878801Y-38442510D01*
X40953301Y-38462472D01*
X40984160Y-38486151D01*
X42156284Y-39658275D01*
X42194848Y-39725070D01*
X42194848Y-39802198D01*
X42156284Y-39868993D01*
X42089489Y-39907557D01*
X42012361Y-39907557D01*
X41993908Y-39901293D01*
X41970696Y-39891678D01*
X41826993Y-39872760D01*
X41826987Y-39872760D01*
X41683283Y-39891678D01*
X41549364Y-39947148D01*
X41434371Y-40035387D01*
X41434367Y-40035391D01*
X41346128Y-40150384D01*
X41290658Y-40284303D01*
X41271740Y-40428007D01*
X41271740Y-40428012D01*
X41290658Y-40571716D01*
X41346128Y-40705635D01*
X41388586Y-40760966D01*
X41434369Y-40820631D01*
X41447705Y-40830864D01*
X41549364Y-40908871D01*
X41683283Y-40964341D01*
X41826987Y-40983260D01*
X41826990Y-40983260D01*
X41826993Y-40983260D01*
X41970696Y-40964341D01*
X41970698Y-40964340D01*
X41970699Y-40964340D01*
X42104615Y-40908871D01*
X42219611Y-40820631D01*
X42307851Y-40705635D01*
X42363320Y-40571719D01*
X42363320Y-40571718D01*
X42363321Y-40571716D01*
X42382240Y-40428012D01*
X42382240Y-40428007D01*
X42363321Y-40284303D01*
X42353707Y-40261093D01*
X42343640Y-40184625D01*
X42373156Y-40113368D01*
X42434346Y-40066416D01*
X42510814Y-40056349D01*
X42582071Y-40085865D01*
X42596724Y-40098715D01*
X44085499Y-41587490D01*
X44092280Y-41595282D01*
X44099077Y-41604283D01*
X44134182Y-41636286D01*
X44136672Y-41638663D01*
X44150237Y-41652228D01*
X44150243Y-41652233D01*
X44151732Y-41653253D01*
X44159826Y-41659664D01*
X44182102Y-41679971D01*
X44185862Y-41681427D01*
X44216236Y-41697439D01*
X44219553Y-41699711D01*
X44219555Y-41699712D01*
X44248892Y-41706612D01*
X44258755Y-41709667D01*
X44270556Y-41714238D01*
X44286862Y-41720555D01*
X44290886Y-41720555D01*
X44324999Y-41724513D01*
X44326908Y-41724961D01*
X44328916Y-41725434D01*
X44358768Y-41721269D01*
X44369069Y-41720555D01*
X45553846Y-41720555D01*
X45628346Y-41740517D01*
X45659205Y-41764196D01*
X46701774Y-42806765D01*
X46733911Y-42854716D01*
X46785806Y-42979012D01*
X46787505Y-42983481D01*
X46827499Y-43099832D01*
X46859713Y-43193548D01*
X46860770Y-43196876D01*
X46935174Y-43451581D01*
X47010843Y-43749515D01*
X47037296Y-43867265D01*
X47069740Y-44011685D01*
X47083867Y-44074566D01*
X47087490Y-44107225D01*
X47087490Y-44450510D01*
X47067528Y-44525010D01*
X47012990Y-44579548D01*
X46938490Y-44599510D01*
X46621490Y-44599510D01*
X46546990Y-44579548D01*
X46492452Y-44525010D01*
X46472490Y-44450510D01*
X46472490Y-43681185D01*
X46457650Y-43535264D01*
X46457650Y-43535263D01*
X46457650Y-43535261D01*
X46399049Y-43348485D01*
X46399049Y-43348484D01*
X46304049Y-43177329D01*
X46304045Y-43177323D01*
X46176544Y-43028802D01*
X46176540Y-43028798D01*
X46021744Y-42908976D01*
X45845996Y-42822769D01*
X45732683Y-42793430D01*
X45656491Y-42773702D01*
X45656492Y-42773702D01*
X45607615Y-42771223D01*
X45460989Y-42763788D01*
X45460988Y-42763788D01*
X45460986Y-42763788D01*
X45267493Y-42793429D01*
X45083927Y-42861415D01*
X45083925Y-42861416D01*
X44917798Y-42964963D01*
X44775918Y-43099832D01*
X44772892Y-43104180D01*
X44708374Y-43196876D01*
X44664090Y-43260500D01*
X44586895Y-43440385D01*
X44586895Y-43440387D01*
X44547490Y-43632129D01*
X44547490Y-44450510D01*
X44527528Y-44525010D01*
X44472990Y-44579548D01*
X44398490Y-44599510D01*
X44081490Y-44599510D01*
X44006990Y-44579548D01*
X43952452Y-44525010D01*
X43932490Y-44450510D01*
X43932490Y-43681185D01*
X43917650Y-43535264D01*
X43917650Y-43535263D01*
X43917650Y-43535261D01*
X43859049Y-43348485D01*
X43859049Y-43348484D01*
X43764049Y-43177329D01*
X43764045Y-43177323D01*
X43636544Y-43028802D01*
X43636540Y-43028798D01*
X43481744Y-42908976D01*
X43305996Y-42822769D01*
X43192683Y-42793430D01*
X43116491Y-42773702D01*
X43116492Y-42773702D01*
X43067615Y-42771223D01*
X42920989Y-42763788D01*
X42920988Y-42763788D01*
X42920986Y-42763788D01*
X42727493Y-42793429D01*
X42543927Y-42861415D01*
X42543925Y-42861416D01*
X42377798Y-42964963D01*
X42235918Y-43099832D01*
X42232892Y-43104180D01*
X42168374Y-43196876D01*
X42124090Y-43260500D01*
X42046895Y-43440385D01*
X42046895Y-43440387D01*
X42007490Y-43632129D01*
X42007490Y-44450510D01*
X41987528Y-44525010D01*
X41932990Y-44579548D01*
X41858490Y-44599510D01*
X41541490Y-44599510D01*
X41466990Y-44579548D01*
X41412452Y-44525010D01*
X41392490Y-44450510D01*
X41392490Y-43681185D01*
X41377650Y-43535264D01*
X41377650Y-43535263D01*
X41377650Y-43535261D01*
X41319049Y-43348485D01*
X41319049Y-43348484D01*
X41224049Y-43177329D01*
X41224045Y-43177323D01*
X41096544Y-43028802D01*
X41096540Y-43028798D01*
X40941744Y-42908976D01*
X40765996Y-42822769D01*
X40652683Y-42793430D01*
X40576491Y-42773702D01*
X40576492Y-42773702D01*
X40527615Y-42771223D01*
X40380989Y-42763788D01*
X40380988Y-42763788D01*
X40380986Y-42763788D01*
X40187493Y-42793429D01*
X40003927Y-42861415D01*
X40003925Y-42861416D01*
X39837798Y-42964963D01*
X39695918Y-43099832D01*
X39692892Y-43104180D01*
X39628374Y-43196876D01*
X39584090Y-43260500D01*
X39506895Y-43440385D01*
X39506895Y-43440387D01*
X39467490Y-43632129D01*
X39467490Y-44450510D01*
X39447528Y-44525010D01*
X39392990Y-44579548D01*
X39318490Y-44599510D01*
X39001490Y-44599510D01*
X38926990Y-44579548D01*
X38872452Y-44525010D01*
X38852490Y-44450510D01*
X38852490Y-43681185D01*
X38837650Y-43535264D01*
X38837650Y-43535263D01*
X38837650Y-43535261D01*
X38779049Y-43348485D01*
X38779049Y-43348484D01*
X38684049Y-43177329D01*
X38684045Y-43177323D01*
X38556544Y-43028802D01*
X38556540Y-43028798D01*
X38401744Y-42908976D01*
X38225996Y-42822769D01*
X38112683Y-42793430D01*
X38036491Y-42773702D01*
X38036492Y-42773702D01*
X37987615Y-42771223D01*
X37840989Y-42763788D01*
X37840988Y-42763788D01*
X37840986Y-42763788D01*
X37647493Y-42793429D01*
X37463927Y-42861415D01*
X37463925Y-42861416D01*
X37297798Y-42964963D01*
X37155918Y-43099832D01*
X37152892Y-43104180D01*
X37088374Y-43196876D01*
X37044090Y-43260500D01*
X36966895Y-43440385D01*
X36966895Y-43440387D01*
X36927490Y-43632129D01*
X36927490Y-44450510D01*
X36907528Y-44525010D01*
X36852990Y-44579548D01*
X36778490Y-44599510D01*
X36461490Y-44599510D01*
X36386990Y-44579548D01*
X36332452Y-44525010D01*
X36312490Y-44450510D01*
X36312490Y-43681185D01*
X36297650Y-43535264D01*
X36297650Y-43535263D01*
X36297650Y-43535261D01*
X36239049Y-43348485D01*
X36239049Y-43348484D01*
X36144049Y-43177329D01*
X36144045Y-43177323D01*
X36016544Y-43028802D01*
X36016540Y-43028798D01*
X35861744Y-42908976D01*
X35685996Y-42822769D01*
X35572683Y-42793430D01*
X35496491Y-42773702D01*
X35496492Y-42773702D01*
X35447615Y-42771223D01*
X35300989Y-42763788D01*
X35300988Y-42763788D01*
X35300986Y-42763788D01*
X35107493Y-42793429D01*
X34923927Y-42861415D01*
X34923925Y-42861416D01*
X34757798Y-42964963D01*
X34615918Y-43099832D01*
X34612892Y-43104180D01*
X34548374Y-43196876D01*
X34504090Y-43260500D01*
X34426895Y-43440385D01*
X34426895Y-43440387D01*
X34387490Y-43632129D01*
X34387490Y-44450510D01*
X34367528Y-44525010D01*
X34312990Y-44579548D01*
X34238490Y-44599510D01*
X33921490Y-44599510D01*
X33846990Y-44579548D01*
X33792452Y-44525010D01*
X33772490Y-44450510D01*
X33772490Y-43681185D01*
X33757650Y-43535264D01*
X33757650Y-43535263D01*
X33757650Y-43535261D01*
X33699049Y-43348485D01*
X33699049Y-43348484D01*
X33604049Y-43177329D01*
X33604045Y-43177323D01*
X33476544Y-43028802D01*
X33476540Y-43028798D01*
X33321744Y-42908976D01*
X33145996Y-42822769D01*
X33032683Y-42793430D01*
X32956491Y-42773702D01*
X32956492Y-42773702D01*
X32907615Y-42771223D01*
X32760989Y-42763788D01*
X32760988Y-42763788D01*
X32760986Y-42763788D01*
X32567493Y-42793429D01*
X32383927Y-42861415D01*
X32383925Y-42861416D01*
X32217798Y-42964963D01*
X32075918Y-43099832D01*
X32072892Y-43104180D01*
X32008374Y-43196876D01*
X31964090Y-43260500D01*
X31886895Y-43440385D01*
X31886895Y-43440387D01*
X31847490Y-43632129D01*
X31847490Y-44450510D01*
X31827528Y-44525010D01*
X31772990Y-44579548D01*
X31698490Y-44599510D01*
X31047213Y-44599510D01*
X30972713Y-44579548D01*
X30918175Y-44525010D01*
X30898213Y-44450510D01*
X30918175Y-44376010D01*
X30942463Y-44346017D01*
X30942135Y-44345722D01*
X30947357Y-44339921D01*
X30947361Y-44339918D01*
X31059366Y-44185757D01*
X31136871Y-44011677D01*
X31176490Y-43825287D01*
X31176490Y-43634733D01*
X31136871Y-43448343D01*
X31059366Y-43274264D01*
X30988939Y-43177329D01*
X30947366Y-43120108D01*
X30947363Y-43120105D01*
X30947361Y-43120102D01*
X30845962Y-43028802D01*
X30805753Y-42992597D01*
X30640729Y-42897320D01*
X30640727Y-42897319D01*
X30459497Y-42838434D01*
X30317498Y-42823510D01*
X30317496Y-42823510D01*
X30222484Y-42823510D01*
X30222482Y-42823510D01*
X30080482Y-42838434D01*
X29899252Y-42897319D01*
X29899250Y-42897320D01*
X29734226Y-42992597D01*
X29649190Y-43069165D01*
X29580468Y-43104180D01*
X29503446Y-43100143D01*
X29438761Y-43058136D01*
X29403746Y-42989414D01*
X29400490Y-42958436D01*
X29400490Y-41825012D01*
X36826740Y-41825012D01*
X36845658Y-41968716D01*
X36901128Y-42102635D01*
X36968900Y-42190955D01*
X36989369Y-42217631D01*
X37036592Y-42253867D01*
X37104364Y-42305871D01*
X37238283Y-42361341D01*
X37381987Y-42380260D01*
X37381990Y-42380260D01*
X37381993Y-42380260D01*
X37525696Y-42361341D01*
X37525698Y-42361340D01*
X37525699Y-42361340D01*
X37659615Y-42305871D01*
X37774611Y-42217631D01*
X37862851Y-42102635D01*
X37918320Y-41968719D01*
X37918320Y-41968718D01*
X37918321Y-41968716D01*
X37937240Y-41825012D01*
X37937240Y-41825007D01*
X37918321Y-41681303D01*
X37862851Y-41547384D01*
X37810847Y-41479612D01*
X37774611Y-41432389D01*
X37747935Y-41411920D01*
X37659615Y-41344148D01*
X37525696Y-41288678D01*
X37381993Y-41269760D01*
X37381987Y-41269760D01*
X37238283Y-41288678D01*
X37104364Y-41344148D01*
X36989371Y-41432387D01*
X36989367Y-41432391D01*
X36901128Y-41547384D01*
X36845658Y-41681303D01*
X36826740Y-41825007D01*
X36826740Y-41825012D01*
X29400490Y-41825012D01*
X29400490Y-39920013D01*
X29814857Y-39920013D01*
X29833292Y-40048233D01*
X29833292Y-40048234D01*
X29833293Y-40048236D01*
X29854183Y-40093979D01*
X29887108Y-40166074D01*
X29916947Y-40200510D01*
X29971941Y-40263977D01*
X30080921Y-40334014D01*
X30205218Y-40370510D01*
X30205221Y-40370510D01*
X30334759Y-40370510D01*
X30334762Y-40370510D01*
X30453214Y-40335729D01*
X30530318Y-40333894D01*
X30598012Y-40370857D01*
X30638154Y-40436716D01*
X30644190Y-40478694D01*
X30644190Y-40515066D01*
X30684899Y-40680234D01*
X30763957Y-40830864D01*
X30876757Y-40958189D01*
X30876761Y-40958193D01*
X31016760Y-41054828D01*
X31175818Y-41115150D01*
X31302318Y-41130510D01*
X31302324Y-41130510D01*
X31987055Y-41130510D01*
X31987062Y-41130510D01*
X32113562Y-41115150D01*
X32272620Y-41054828D01*
X32412619Y-40958193D01*
X32525424Y-40830862D01*
X32604480Y-40680235D01*
X32645190Y-40515066D01*
X32645190Y-40344954D01*
X32604480Y-40179785D01*
X32525424Y-40029158D01*
X32525422Y-40029156D01*
X32525422Y-40029155D01*
X32412622Y-39901830D01*
X32412620Y-39901829D01*
X32412619Y-39901827D01*
X32272620Y-39805192D01*
X32272619Y-39805191D01*
X32113564Y-39744870D01*
X32077419Y-39740481D01*
X31987062Y-39729510D01*
X31302318Y-39729510D01*
X31223255Y-39739110D01*
X31175815Y-39744870D01*
X31016761Y-39805191D01*
X30931774Y-39863854D01*
X30859122Y-39889746D01*
X30783258Y-39875843D01*
X30724508Y-39825870D01*
X30712564Y-39800815D01*
X30711114Y-39801478D01*
X30687610Y-39750013D01*
X30652872Y-39673947D01*
X30652871Y-39673946D01*
X30652871Y-39673945D01*
X30597183Y-39609678D01*
X30568039Y-39576043D01*
X30459059Y-39506006D01*
X30334762Y-39469510D01*
X30205218Y-39469510D01*
X30080921Y-39506006D01*
X30080918Y-39506007D01*
X30080917Y-39506008D01*
X29971945Y-39576040D01*
X29971942Y-39576041D01*
X29971941Y-39576043D01*
X29971939Y-39576044D01*
X29971938Y-39576046D01*
X29887108Y-39673945D01*
X29833292Y-39791786D01*
X29814857Y-39920006D01*
X29814857Y-39920013D01*
X29400490Y-39920013D01*
X29400490Y-38650013D01*
X29814857Y-38650013D01*
X29833292Y-38778233D01*
X29887108Y-38896074D01*
X29924313Y-38939011D01*
X29971941Y-38993977D01*
X30080921Y-39064014D01*
X30205218Y-39100510D01*
X30205221Y-39100510D01*
X30334759Y-39100510D01*
X30334762Y-39100510D01*
X30459059Y-39064014D01*
X30568039Y-38993977D01*
X30652872Y-38896073D01*
X30706687Y-38778236D01*
X30722055Y-38671348D01*
X30725123Y-38650013D01*
X30725123Y-38650006D01*
X30706687Y-38521786D01*
X30706687Y-38521784D01*
X30652872Y-38403947D01*
X30652871Y-38403946D01*
X30652871Y-38403945D01*
X30593455Y-38335375D01*
X30568039Y-38306043D01*
X30459059Y-38236006D01*
X30334762Y-38199510D01*
X30205218Y-38199510D01*
X30080921Y-38236006D01*
X30080918Y-38236007D01*
X30080917Y-38236008D01*
X29971945Y-38306040D01*
X29971942Y-38306041D01*
X29971941Y-38306043D01*
X29971939Y-38306044D01*
X29971938Y-38306046D01*
X29887108Y-38403945D01*
X29833292Y-38521786D01*
X29814857Y-38650006D01*
X29814857Y-38650013D01*
X29400490Y-38650013D01*
X29400490Y-33570013D01*
X29814857Y-33570013D01*
X29833292Y-33698233D01*
X29833292Y-33698234D01*
X29833293Y-33698236D01*
X29838041Y-33708632D01*
X29887108Y-33816074D01*
X29934927Y-33871260D01*
X29971941Y-33913977D01*
X30080921Y-33984014D01*
X30205218Y-34020510D01*
X30205221Y-34020510D01*
X30334759Y-34020510D01*
X30334762Y-34020510D01*
X30459059Y-33984014D01*
X30568039Y-33913977D01*
X30652872Y-33816073D01*
X30706687Y-33698236D01*
X30716649Y-33628947D01*
X30725123Y-33570013D01*
X30725123Y-33570006D01*
X30709451Y-33461006D01*
X30706687Y-33441784D01*
X30652872Y-33323947D01*
X30652871Y-33323946D01*
X30652871Y-33323945D01*
X30598758Y-33261495D01*
X30568039Y-33226043D01*
X30459059Y-33156006D01*
X30334762Y-33119510D01*
X30205218Y-33119510D01*
X30080921Y-33156006D01*
X30080918Y-33156007D01*
X30080917Y-33156008D01*
X29971945Y-33226040D01*
X29971942Y-33226041D01*
X29971941Y-33226043D01*
X29971939Y-33226044D01*
X29971938Y-33226046D01*
X29887108Y-33323945D01*
X29833292Y-33441786D01*
X29814857Y-33570006D01*
X29814857Y-33570013D01*
X29400490Y-33570013D01*
X29400490Y-32300013D01*
X29814857Y-32300013D01*
X29833292Y-32428233D01*
X29887108Y-32546074D01*
X29938588Y-32605485D01*
X29971941Y-32643977D01*
X30080921Y-32714014D01*
X30205218Y-32750510D01*
X30205221Y-32750510D01*
X30334759Y-32750510D01*
X30334762Y-32750510D01*
X30459059Y-32714014D01*
X30568039Y-32643977D01*
X30652872Y-32546073D01*
X30706687Y-32428236D01*
X30706687Y-32428235D01*
X30711114Y-32418542D01*
X30714396Y-32420041D01*
X30744282Y-32370981D01*
X30811966Y-32334000D01*
X30889073Y-32335814D01*
X30931771Y-32356164D01*
X31000181Y-32403384D01*
X31016760Y-32414828D01*
X31174781Y-32474757D01*
X31175818Y-32475150D01*
X31302318Y-32490510D01*
X31302324Y-32490510D01*
X31987055Y-32490510D01*
X31987062Y-32490510D01*
X32113562Y-32475150D01*
X32272620Y-32414828D01*
X32412619Y-32318193D01*
X32525424Y-32190862D01*
X32604480Y-32040235D01*
X32645190Y-31875066D01*
X34574190Y-31875066D01*
X34614899Y-32040234D01*
X34693957Y-32190864D01*
X34806757Y-32318189D01*
X34806761Y-32318193D01*
X34946760Y-32414828D01*
X34948470Y-32416008D01*
X34998442Y-32474757D01*
X35012345Y-32550622D01*
X34986452Y-32623274D01*
X34951409Y-32659175D01*
X34842402Y-32738373D01*
X34842399Y-32738377D01*
X34736836Y-32865979D01*
X34736830Y-32865990D01*
X34666318Y-33015834D01*
X34666317Y-33015836D01*
X34646541Y-33119510D01*
X34635284Y-33178524D01*
X34645683Y-33343815D01*
X34696862Y-33501327D01*
X34785602Y-33641160D01*
X34785603Y-33641160D01*
X34785604Y-33641162D01*
X34906334Y-33754536D01*
X35051466Y-33834323D01*
X35211881Y-33875510D01*
X35211883Y-33875510D01*
X35335933Y-33875510D01*
X35335933Y-33875509D01*
X35339860Y-33875013D01*
X41344857Y-33875013D01*
X41363292Y-34003233D01*
X41363292Y-34003234D01*
X41363293Y-34003236D01*
X41371182Y-34020510D01*
X41417108Y-34121074D01*
X41461241Y-34172006D01*
X41501941Y-34218977D01*
X41610921Y-34289014D01*
X41735218Y-34325510D01*
X41735221Y-34325510D01*
X41864759Y-34325510D01*
X41864762Y-34325510D01*
X41989059Y-34289014D01*
X42098039Y-34218977D01*
X42182872Y-34121073D01*
X42236687Y-34003236D01*
X42249520Y-33913979D01*
X42255123Y-33875013D01*
X42255123Y-33875006D01*
X42238836Y-33761733D01*
X42236687Y-33746784D01*
X42184957Y-33633513D01*
X43721357Y-33633513D01*
X43739792Y-33761733D01*
X43793608Y-33879574D01*
X43832170Y-33924077D01*
X43878441Y-33977477D01*
X43987421Y-34047514D01*
X44111718Y-34084010D01*
X44111721Y-34084010D01*
X44241259Y-34084010D01*
X44241262Y-34084010D01*
X44365559Y-34047514D01*
X44474539Y-33977477D01*
X44559372Y-33879573D01*
X44613187Y-33761736D01*
X44631623Y-33633510D01*
X44631623Y-33633506D01*
X44616891Y-33531046D01*
X44613187Y-33505284D01*
X44559372Y-33387447D01*
X44559371Y-33387446D01*
X44559371Y-33387445D01*
X44512706Y-33333590D01*
X44474539Y-33289543D01*
X44365559Y-33219506D01*
X44241262Y-33183010D01*
X44111718Y-33183010D01*
X43987421Y-33219506D01*
X43987418Y-33219507D01*
X43987417Y-33219508D01*
X43878445Y-33289540D01*
X43878442Y-33289541D01*
X43878441Y-33289543D01*
X43878439Y-33289544D01*
X43878438Y-33289546D01*
X43793608Y-33387445D01*
X43739792Y-33505286D01*
X43721357Y-33633506D01*
X43721357Y-33633513D01*
X42184957Y-33633513D01*
X42182872Y-33628947D01*
X42182871Y-33628946D01*
X42182871Y-33628945D01*
X42131800Y-33570006D01*
X42098039Y-33531043D01*
X41989059Y-33461006D01*
X41864762Y-33424510D01*
X41735218Y-33424510D01*
X41610921Y-33461006D01*
X41610918Y-33461007D01*
X41610917Y-33461008D01*
X41501945Y-33531040D01*
X41501942Y-33531041D01*
X41501941Y-33531043D01*
X41501939Y-33531044D01*
X41501938Y-33531046D01*
X41417108Y-33628945D01*
X41363292Y-33746786D01*
X41344857Y-33875006D01*
X41344857Y-33875013D01*
X35339860Y-33875013D01*
X35459002Y-33859963D01*
X35612989Y-33798995D01*
X35746977Y-33701647D01*
X35852546Y-33574036D01*
X35923063Y-33424181D01*
X35943697Y-33316012D01*
X39874740Y-33316012D01*
X39893658Y-33459716D01*
X39949128Y-33593635D01*
X40015407Y-33680010D01*
X40037369Y-33708631D01*
X40055614Y-33722631D01*
X40152364Y-33796871D01*
X40286283Y-33852341D01*
X40429987Y-33871260D01*
X40429990Y-33871260D01*
X40429993Y-33871260D01*
X40573696Y-33852341D01*
X40573698Y-33852340D01*
X40573699Y-33852340D01*
X40707615Y-33796871D01*
X40822611Y-33708631D01*
X40910851Y-33593635D01*
X40966320Y-33459719D01*
X40966320Y-33459718D01*
X40966321Y-33459716D01*
X40985240Y-33316012D01*
X40985240Y-33316007D01*
X40966321Y-33172303D01*
X40910851Y-33038384D01*
X40834353Y-32938692D01*
X40822611Y-32923389D01*
X40789488Y-32897973D01*
X40707615Y-32835148D01*
X40573696Y-32779678D01*
X40429993Y-32760760D01*
X40429987Y-32760760D01*
X40286283Y-32779678D01*
X40152364Y-32835148D01*
X40037371Y-32923387D01*
X40037367Y-32923391D01*
X39949128Y-33038384D01*
X39893658Y-33172303D01*
X39874740Y-33316007D01*
X39874740Y-33316012D01*
X35943697Y-33316012D01*
X35954096Y-33261496D01*
X35943697Y-33096205D01*
X35892518Y-32938693D01*
X35826807Y-32835149D01*
X35803777Y-32798859D01*
X35803776Y-32798858D01*
X35749751Y-32748125D01*
X35709109Y-32682575D01*
X35709060Y-32681012D01*
X38477740Y-32681012D01*
X38496658Y-32824716D01*
X38552128Y-32958635D01*
X38596021Y-33015836D01*
X38640369Y-33073631D01*
X38669788Y-33096205D01*
X38755364Y-33161871D01*
X38889283Y-33217341D01*
X39032987Y-33236260D01*
X39032990Y-33236260D01*
X39032993Y-33236260D01*
X39176696Y-33217341D01*
X39176698Y-33217340D01*
X39176699Y-33217340D01*
X39310615Y-33161871D01*
X39425611Y-33073631D01*
X39513851Y-32958635D01*
X39569320Y-32824719D01*
X39569320Y-32824718D01*
X39569321Y-32824716D01*
X39588240Y-32681012D01*
X39588240Y-32681007D01*
X39569321Y-32537303D01*
X39513851Y-32403384D01*
X39460610Y-32334000D01*
X39425611Y-32288389D01*
X39398935Y-32267920D01*
X39330944Y-32215747D01*
X43864238Y-32215747D01*
X43882673Y-32343967D01*
X43882673Y-32343968D01*
X43882674Y-32343970D01*
X43909808Y-32403384D01*
X43936488Y-32461805D01*
X43936489Y-32461808D01*
X43966870Y-32496869D01*
X44021322Y-32559711D01*
X44130302Y-32629748D01*
X44254599Y-32666244D01*
X44254602Y-32666244D01*
X44384140Y-32666244D01*
X44384143Y-32666244D01*
X44480077Y-32638075D01*
X44557179Y-32636240D01*
X44624873Y-32673203D01*
X44665016Y-32739061D01*
X44668614Y-32789353D01*
X44669857Y-32789353D01*
X44669857Y-32800013D01*
X44688292Y-32928233D01*
X44742108Y-33046074D01*
X44785547Y-33096205D01*
X44826941Y-33143977D01*
X44935921Y-33214014D01*
X45060218Y-33250510D01*
X45060221Y-33250510D01*
X45189759Y-33250510D01*
X45189762Y-33250510D01*
X45314059Y-33214014D01*
X45423039Y-33143977D01*
X45507872Y-33046073D01*
X45561687Y-32928236D01*
X45575071Y-32835148D01*
X45580123Y-32800013D01*
X45580123Y-32800006D01*
X45563657Y-32685484D01*
X45561687Y-32671784D01*
X45507872Y-32553947D01*
X45507871Y-32553946D01*
X45507871Y-32553945D01*
X45439594Y-32475149D01*
X45423039Y-32456043D01*
X45314059Y-32386006D01*
X45189762Y-32349510D01*
X45060218Y-32349510D01*
X45060216Y-32349510D01*
X44990277Y-32370045D01*
X44964284Y-32377678D01*
X44887179Y-32379513D01*
X44819485Y-32342549D01*
X44779343Y-32276690D01*
X44775749Y-32226401D01*
X44774504Y-32226401D01*
X44774504Y-32215740D01*
X44760806Y-32120472D01*
X44756068Y-32087518D01*
X44702253Y-31969681D01*
X44702252Y-31969680D01*
X44702252Y-31969679D01*
X44655587Y-31915824D01*
X44617420Y-31871777D01*
X44508440Y-31801740D01*
X44384143Y-31765244D01*
X44254599Y-31765244D01*
X44130302Y-31801740D01*
X44130299Y-31801741D01*
X44130298Y-31801742D01*
X44021326Y-31871774D01*
X44021323Y-31871775D01*
X44021322Y-31871777D01*
X44021320Y-31871778D01*
X44021319Y-31871780D01*
X43936489Y-31969679D01*
X43882673Y-32087520D01*
X43864238Y-32215740D01*
X43864238Y-32215747D01*
X39330944Y-32215747D01*
X39310615Y-32200148D01*
X39176696Y-32144678D01*
X39032993Y-32125760D01*
X39032987Y-32125760D01*
X38889283Y-32144678D01*
X38755364Y-32200148D01*
X38640371Y-32288387D01*
X38640367Y-32288391D01*
X38552128Y-32403384D01*
X38496658Y-32537303D01*
X38477740Y-32681007D01*
X38477740Y-32681012D01*
X35709060Y-32681012D01*
X35706687Y-32605485D01*
X35743134Y-32537512D01*
X35808685Y-32496869D01*
X35851750Y-32490510D01*
X36417055Y-32490510D01*
X36417062Y-32490510D01*
X36543562Y-32475150D01*
X36702620Y-32414828D01*
X36842619Y-32318193D01*
X36955424Y-32190862D01*
X37034480Y-32040235D01*
X37075190Y-31875066D01*
X37075190Y-31704954D01*
X37073479Y-31698014D01*
X37034480Y-31539785D01*
X36995091Y-31464736D01*
X36992412Y-31459631D01*
X45856913Y-31459631D01*
X45875348Y-31587851D01*
X45929164Y-31705692D01*
X45980766Y-31765244D01*
X46013997Y-31803595D01*
X46122977Y-31873632D01*
X46247274Y-31910128D01*
X46247277Y-31910128D01*
X46376815Y-31910128D01*
X46376818Y-31910128D01*
X46501115Y-31873632D01*
X46610095Y-31803595D01*
X46669177Y-31735408D01*
X46733048Y-31692178D01*
X46809980Y-31686674D01*
X46843682Y-31697448D01*
X46844915Y-31698011D01*
X46844917Y-31698011D01*
X46844921Y-31698014D01*
X46969218Y-31734510D01*
X46969221Y-31734510D01*
X47098759Y-31734510D01*
X47098762Y-31734510D01*
X47223059Y-31698014D01*
X47297750Y-31650013D01*
X48994857Y-31650013D01*
X49013292Y-31778233D01*
X49013292Y-31778234D01*
X49013293Y-31778236D01*
X49024874Y-31803595D01*
X49067108Y-31896074D01*
X49119074Y-31956046D01*
X49151941Y-31993977D01*
X49260921Y-32064014D01*
X49385218Y-32100510D01*
X49385221Y-32100510D01*
X49441357Y-32100510D01*
X49515857Y-32120472D01*
X49570395Y-32175010D01*
X49588840Y-32228305D01*
X49605411Y-32343560D01*
X49659227Y-32461401D01*
X49714391Y-32525064D01*
X49744060Y-32559304D01*
X49853040Y-32629341D01*
X49977337Y-32665837D01*
X49977340Y-32665837D01*
X50106878Y-32665837D01*
X50106881Y-32665837D01*
X50231178Y-32629341D01*
X50340158Y-32559304D01*
X50424991Y-32461400D01*
X50478806Y-32343563D01*
X50488421Y-32276690D01*
X50497242Y-32215340D01*
X50497242Y-32215334D01*
X50493598Y-32189990D01*
X50502754Y-32113408D01*
X50548975Y-32051663D01*
X50599099Y-32025821D01*
X50677459Y-32002814D01*
X50786439Y-31932777D01*
X50871272Y-31834873D01*
X50925087Y-31717036D01*
X50932566Y-31665013D01*
X52039857Y-31665013D01*
X52058292Y-31793233D01*
X52112108Y-31911074D01*
X52162890Y-31969679D01*
X52196941Y-32008977D01*
X52305921Y-32079014D01*
X52430218Y-32115510D01*
X52430221Y-32115510D01*
X52559759Y-32115510D01*
X52559762Y-32115510D01*
X52684059Y-32079014D01*
X52793039Y-32008977D01*
X52877872Y-31911073D01*
X52931687Y-31793236D01*
X52950123Y-31665010D01*
X52950123Y-31665006D01*
X52931687Y-31536786D01*
X52931687Y-31536784D01*
X52877872Y-31418947D01*
X52877871Y-31418946D01*
X52877871Y-31418945D01*
X52811845Y-31342747D01*
X52793039Y-31321043D01*
X52684059Y-31251006D01*
X52559762Y-31214510D01*
X52430218Y-31214510D01*
X52305921Y-31251006D01*
X52305918Y-31251007D01*
X52305917Y-31251008D01*
X52196945Y-31321040D01*
X52196942Y-31321041D01*
X52196941Y-31321043D01*
X52196939Y-31321044D01*
X52196938Y-31321046D01*
X52112108Y-31418945D01*
X52058292Y-31536786D01*
X52039857Y-31665006D01*
X52039857Y-31665013D01*
X50932566Y-31665013D01*
X50934724Y-31650006D01*
X50943523Y-31588813D01*
X50943523Y-31588806D01*
X50925087Y-31460586D01*
X50925087Y-31460584D01*
X50871272Y-31342747D01*
X50871271Y-31342746D01*
X50871271Y-31342745D01*
X50801155Y-31261827D01*
X50786439Y-31244843D01*
X50677459Y-31174806D01*
X50553162Y-31138310D01*
X50423618Y-31138310D01*
X50299321Y-31174806D01*
X50299318Y-31174807D01*
X50299317Y-31174808D01*
X50190345Y-31244840D01*
X50190342Y-31244841D01*
X50190341Y-31244843D01*
X50190339Y-31244844D01*
X50190338Y-31244846D01*
X50105508Y-31342745D01*
X50105507Y-31342747D01*
X50089266Y-31378310D01*
X50040158Y-31437784D01*
X49967892Y-31464736D01*
X49891832Y-31451944D01*
X49841610Y-31410476D01*
X49839851Y-31412001D01*
X49810658Y-31378310D01*
X49748039Y-31306043D01*
X49639059Y-31236006D01*
X49514762Y-31199510D01*
X49385218Y-31199510D01*
X49260921Y-31236006D01*
X49260918Y-31236007D01*
X49260917Y-31236008D01*
X49151945Y-31306040D01*
X49151942Y-31306041D01*
X49151941Y-31306043D01*
X49151939Y-31306044D01*
X49151938Y-31306046D01*
X49067108Y-31403945D01*
X49013292Y-31521786D01*
X48994857Y-31650006D01*
X48994857Y-31650013D01*
X47297750Y-31650013D01*
X47332039Y-31627977D01*
X47416872Y-31530073D01*
X47470687Y-31412236D01*
X47483798Y-31321046D01*
X47489123Y-31284013D01*
X47489123Y-31284006D01*
X47473422Y-31174806D01*
X47470687Y-31155784D01*
X47416872Y-31037947D01*
X47416871Y-31037946D01*
X47416871Y-31037945D01*
X47370206Y-30984090D01*
X47332039Y-30940043D01*
X47223059Y-30870006D01*
X47098762Y-30833510D01*
X46969218Y-30833510D01*
X46844921Y-30870006D01*
X46844918Y-30870007D01*
X46844917Y-30870008D01*
X46735945Y-30940040D01*
X46735942Y-30940041D01*
X46735941Y-30940043D01*
X46735939Y-30940044D01*
X46735938Y-30940046D01*
X46676858Y-31008229D01*
X46612985Y-31051460D01*
X46536053Y-31056962D01*
X46502358Y-31046192D01*
X46501118Y-31045626D01*
X46501115Y-31045624D01*
X46376818Y-31009128D01*
X46247274Y-31009128D01*
X46122977Y-31045624D01*
X46122974Y-31045625D01*
X46122973Y-31045626D01*
X46014001Y-31115658D01*
X46013998Y-31115659D01*
X46013997Y-31115661D01*
X46013995Y-31115662D01*
X46013994Y-31115664D01*
X45929164Y-31213563D01*
X45875348Y-31331404D01*
X45856913Y-31459624D01*
X45856913Y-31459631D01*
X36992412Y-31459631D01*
X36955424Y-31389158D01*
X36955422Y-31389156D01*
X36955422Y-31389155D01*
X36842622Y-31261830D01*
X36842620Y-31261829D01*
X36842619Y-31261827D01*
X36702620Y-31165192D01*
X36702619Y-31165191D01*
X36543564Y-31104870D01*
X36507419Y-31100481D01*
X36417062Y-31089510D01*
X35232318Y-31089510D01*
X35153255Y-31099110D01*
X35105815Y-31104870D01*
X34946760Y-31165191D01*
X34806761Y-31261827D01*
X34806757Y-31261830D01*
X34693957Y-31389155D01*
X34614899Y-31539785D01*
X34574190Y-31704953D01*
X34574190Y-31875066D01*
X32645190Y-31875066D01*
X32645190Y-31704954D01*
X32643479Y-31698014D01*
X32604480Y-31539785D01*
X32565091Y-31464736D01*
X32525424Y-31389158D01*
X32525422Y-31389156D01*
X32525422Y-31389155D01*
X32412622Y-31261830D01*
X32412620Y-31261829D01*
X32412619Y-31261827D01*
X32272620Y-31165192D01*
X32272619Y-31165191D01*
X32113564Y-31104870D01*
X32077419Y-31100481D01*
X31987062Y-31089510D01*
X31302318Y-31089510D01*
X31223255Y-31099110D01*
X31175815Y-31104870D01*
X31016760Y-31165191D01*
X30876761Y-31261827D01*
X30876757Y-31261830D01*
X30763957Y-31389155D01*
X30684899Y-31539785D01*
X30644190Y-31704953D01*
X30644190Y-31741325D01*
X30624228Y-31815825D01*
X30569690Y-31870363D01*
X30495190Y-31890325D01*
X30453216Y-31884290D01*
X30378668Y-31862401D01*
X30334763Y-31849510D01*
X30334762Y-31849510D01*
X30205218Y-31849510D01*
X30080921Y-31886006D01*
X30080918Y-31886007D01*
X30080917Y-31886008D01*
X29971945Y-31956040D01*
X29971942Y-31956041D01*
X29971941Y-31956043D01*
X29971939Y-31956044D01*
X29971938Y-31956046D01*
X29887108Y-32053945D01*
X29833292Y-32171786D01*
X29814857Y-32300006D01*
X29814857Y-32300013D01*
X29400490Y-32300013D01*
X29400490Y-29261583D01*
X29420452Y-29187083D01*
X29474990Y-29132545D01*
X29549490Y-29112583D01*
X29623990Y-29132545D01*
X29649187Y-29150852D01*
X29734228Y-29227423D01*
X29899252Y-29322700D01*
X30080480Y-29381585D01*
X30151482Y-29389047D01*
X30222482Y-29396510D01*
X30222484Y-29396510D01*
X30317498Y-29396510D01*
X30374297Y-29390540D01*
X30459500Y-29381585D01*
X30640728Y-29322700D01*
X30805752Y-29227423D01*
X30947361Y-29099918D01*
X31059366Y-28945757D01*
X31106937Y-28838911D01*
X31911220Y-28838911D01*
X31921394Y-28871337D01*
X31921396Y-28871343D01*
X32016341Y-29042399D01*
X32016344Y-29042403D01*
X32143789Y-29190859D01*
X32298497Y-29310613D01*
X32474159Y-29396780D01*
X32663563Y-29445819D01*
X32858968Y-29455729D01*
X33052356Y-29426103D01*
X33052358Y-29426103D01*
X33235828Y-29358154D01*
X33235831Y-29358153D01*
X33401870Y-29254660D01*
X33543680Y-29119860D01*
X33655449Y-28959277D01*
X33707598Y-28837750D01*
X33317990Y-28448142D01*
X33317990Y-28416971D01*
X33276835Y-28276809D01*
X33197859Y-28153920D01*
X33087460Y-28058258D01*
X32954582Y-27997575D01*
X32852787Y-27982939D01*
X32809990Y-27940142D01*
X32767192Y-27982939D01*
X32665398Y-27997575D01*
X32532520Y-28058258D01*
X32422121Y-28153920D01*
X32343145Y-28276809D01*
X32301990Y-28416971D01*
X32301990Y-28448141D01*
X31911220Y-28838911D01*
X31106937Y-28838911D01*
X31136871Y-28771677D01*
X31176490Y-28585287D01*
X31176490Y-28394733D01*
X31136871Y-28208343D01*
X31059366Y-28034264D01*
X30990983Y-27940142D01*
X30947366Y-27880108D01*
X30942135Y-27874299D01*
X30943095Y-27873434D01*
X30905506Y-27815556D01*
X30901468Y-27738534D01*
X30936483Y-27669812D01*
X31001167Y-27627803D01*
X31047213Y-27620510D01*
X31698990Y-27620510D01*
X31773490Y-27640472D01*
G37*
G04 #@! TD.AperFunction*
G04 #@! TA.AperFunction,Conductor*
G36*
X54671012Y-42586815D02*
G01*
X54786026Y-42661354D01*
X54922766Y-42749973D01*
X54922768Y-42749973D01*
X54922775Y-42749978D01*
X55182480Y-42878566D01*
X55442185Y-42967436D01*
X55701890Y-43016585D01*
X55944787Y-43025403D01*
X55952930Y-43029127D01*
X55956054Y-43037519D01*
X55955177Y-43041559D01*
X55672552Y-43726222D01*
X55666227Y-43732562D01*
X55666202Y-43732572D01*
X54920826Y-44040339D01*
X54911871Y-44040329D01*
X54905547Y-44033990D01*
X54904946Y-44032089D01*
X54830721Y-43701690D01*
X54753453Y-43397460D01*
X54676185Y-43132950D01*
X54619292Y-42967436D01*
X54598918Y-42908162D01*
X54524670Y-42730326D01*
X54524645Y-42721371D01*
X54527192Y-42717547D01*
X54656379Y-42588360D01*
X54664651Y-42584934D01*
X54671012Y-42586815D01*
G37*
G04 #@! TD.AperFunction*
G04 #@! TA.AperFunction,Conductor*
G36*
X48156285Y-41973958D02*
G01*
X48156625Y-41974107D01*
X48242568Y-42013827D01*
X48242836Y-42013960D01*
X48311597Y-42050272D01*
X48372406Y-42077329D01*
X48445185Y-42094196D01*
X48538940Y-42099397D01*
X48547009Y-42103276D01*
X48549990Y-42111078D01*
X48549990Y-42288941D01*
X48546563Y-42297214D01*
X48538938Y-42300623D01*
X48445184Y-42305823D01*
X48372406Y-42322689D01*
X48311597Y-42349747D01*
X48242843Y-42386054D01*
X48242565Y-42386192D01*
X48156677Y-42425888D01*
X48147729Y-42426248D01*
X48141147Y-42420176D01*
X48140975Y-42419784D01*
X48126890Y-42386131D01*
X48050879Y-42204525D01*
X48050847Y-42195573D01*
X48140976Y-41980232D01*
X48147331Y-41973925D01*
X48156285Y-41973958D01*
G37*
G04 #@! TD.AperFunction*
G04 #@! TA.AperFunction,Conductor*
G36*
X47051012Y-42586815D02*
G01*
X47166026Y-42661354D01*
X47302766Y-42749973D01*
X47302768Y-42749973D01*
X47302775Y-42749978D01*
X47562480Y-42878566D01*
X47822185Y-42967436D01*
X48081890Y-43016585D01*
X48324787Y-43025403D01*
X48332930Y-43029127D01*
X48336054Y-43037519D01*
X48335177Y-43041559D01*
X48052552Y-43726222D01*
X48046227Y-43732562D01*
X48046202Y-43732572D01*
X47300826Y-44040339D01*
X47291871Y-44040329D01*
X47285547Y-44033990D01*
X47284946Y-44032089D01*
X47210721Y-43701690D01*
X47133453Y-43397460D01*
X47056185Y-43132950D01*
X46999292Y-42967436D01*
X46978918Y-42908162D01*
X46904670Y-42730326D01*
X46904645Y-42721371D01*
X46907192Y-42717547D01*
X47036379Y-42588360D01*
X47044651Y-42584934D01*
X47051012Y-42586815D01*
G37*
G04 #@! TD.AperFunction*
M02*
