%TF.GenerationSoftware,KiCad,Pcbnew,9.0.0*%
%TF.CreationDate,2025-03-05T11:41:38+09:00*%
%TF.ProjectId,Geekble_Mini_ESP32C3,4765656b-626c-4655-9f4d-696e695f4553,1*%
%TF.SameCoordinates,Original*%
%TF.FileFunction,Copper,L4,Bot*%
%TF.FilePolarity,Positive*%
%FSLAX46Y46*%
G04 Gerber Fmt 4.6, Leading zero omitted, Abs format (unit mm)*
G04 Created by KiCad (PCBNEW 9.0.0) date 2025-03-05 11:41:38*
%MOMM*%
%LPD*%
G01*
G04 APERTURE LIST*
%TA.AperFunction,ComponentPad*%
%ADD10O,2.100000X1.000000*%
%TD*%
%TA.AperFunction,ComponentPad*%
%ADD11O,1.600000X1.000000*%
%TD*%
%TA.AperFunction,SMDPad,CuDef*%
%ADD12C,1.000000*%
%TD*%
%TA.AperFunction,ComponentPad*%
%ADD13O,1.524000X3.048000*%
%TD*%
%TA.AperFunction,ComponentPad*%
%ADD14C,1.016000*%
%TD*%
%TA.AperFunction,ViaPad*%
%ADD15C,0.700000*%
%TD*%
%TA.AperFunction,ViaPad*%
%ADD16C,0.500000*%
%TD*%
%TA.AperFunction,Conductor*%
%ADD17C,0.131000*%
%TD*%
%TA.AperFunction,Conductor*%
%ADD18C,0.130000*%
%TD*%
G04 APERTURE END LIST*
D10*
%TO.P,J1,S1,SHIELD*%
%TO.N,GND*%
X35824690Y-31790010D03*
%TO.P,J1,S2,SHIELD*%
X35824690Y-40430010D03*
D11*
%TO.P,J1,S3,SHIELD*%
X31644690Y-31790010D03*
%TO.P,J1,S4,SHIELD*%
X31644690Y-40430010D03*
%TD*%
D12*
%TO.P,H2,1,1*%
%TO.N,Net-(J1-D1+)*%
X31539990Y-37380010D03*
%TD*%
%TO.P,H1,1,1*%
%TO.N,Net-(J1-D1-)*%
X31539990Y-34840010D03*
%TD*%
D13*
%TO.P,J3,1,1*%
%TO.N,/GPIO21{slash}TX*%
X55669990Y-27728010D03*
D14*
X55669990Y-27220010D03*
D13*
%TO.P,J3,2,2*%
%TO.N,/GPIO20{slash}RX*%
X53129990Y-27728010D03*
D14*
X53129990Y-27220010D03*
D13*
%TO.P,J3,3,3*%
%TO.N,/CHIP_EN*%
X50589990Y-27728010D03*
D14*
X50589990Y-27220010D03*
D13*
%TO.P,J3,4,4*%
%TO.N,GND*%
X48049990Y-27728010D03*
D14*
X48049990Y-27220010D03*
D13*
%TO.P,J3,5,5*%
%TO.N,/GPIO5*%
X45509990Y-27728010D03*
D14*
X45509990Y-27220010D03*
D13*
%TO.P,J3,6,6*%
%TO.N,/GPIO6*%
X42969990Y-27728010D03*
D14*
X42969990Y-27220010D03*
D13*
%TO.P,J3,7,7*%
%TO.N,/GPIO7*%
X40429990Y-27728010D03*
D14*
X40429990Y-27220010D03*
D13*
%TO.P,J3,8,8*%
%TO.N,/GPIO8{slash}PWM*%
X37889990Y-27728010D03*
D14*
X37889990Y-27220010D03*
D13*
%TO.P,J3,9,9*%
%TO.N,/GPIO9{slash}BOOT*%
X35349990Y-27728010D03*
D14*
X35349990Y-27220010D03*
D13*
%TO.P,J3,10,10*%
%TO.N,/GPIO10*%
X32809990Y-27728010D03*
D14*
X32809990Y-27220010D03*
%TD*%
D13*
%TO.P,J2,1,1*%
%TO.N,+3V3*%
X32809990Y-44492010D03*
D14*
X32809990Y-45000010D03*
D13*
%TO.P,J2,2,2*%
%TO.N,/GPIO0*%
X35349990Y-44492010D03*
D14*
X35349990Y-45000010D03*
D13*
%TO.P,J2,3,3*%
%TO.N,/GPIO1*%
X37889990Y-44492010D03*
D14*
X37889990Y-45000010D03*
D13*
%TO.P,J2,4,4*%
%TO.N,/GPIO2*%
X40429990Y-44492010D03*
D14*
X40429990Y-45000010D03*
D13*
%TO.P,J2,5,5*%
%TO.N,/GPIO3*%
X42969990Y-44492010D03*
D14*
X42969990Y-45000010D03*
D13*
%TO.P,J2,6,6*%
%TO.N,/GPIO4*%
X45509990Y-44492010D03*
D14*
X45509990Y-45000010D03*
D13*
%TO.P,J2,7,7*%
%TO.N,VUSB*%
X48049990Y-44492010D03*
D14*
X48049990Y-45000010D03*
D13*
%TO.P,J2,8,8*%
%TO.N,/GPIO9{slash}BOOT*%
X50589990Y-44492010D03*
D14*
X50589990Y-45000010D03*
D13*
%TO.P,J2,9,9*%
%TO.N,GND*%
X53129990Y-44492010D03*
D14*
X53129990Y-45000010D03*
D13*
%TO.P,J2,10,10*%
%TO.N,VIN*%
X55669990Y-44492010D03*
D14*
X55669990Y-45000010D03*
%TD*%
D15*
%TO.N,GND*%
X42461990Y-36745010D03*
D16*
X53129990Y-33570010D03*
D15*
X40429990Y-33316010D03*
D16*
X44449990Y-40100010D03*
X48684990Y-35475010D03*
X54145990Y-34586010D03*
X48684990Y-34205010D03*
X47414990Y-34205010D03*
D15*
X51859990Y-29760010D03*
D16*
X54145990Y-37634010D03*
X48049990Y-33570010D03*
D15*
X39032990Y-32681010D03*
X40429990Y-39158010D03*
D16*
X30269990Y-32300010D03*
X54145990Y-35602010D03*
X48049990Y-34840010D03*
X54145990Y-32554010D03*
X46779990Y-34840010D03*
X30269990Y-33570010D03*
X52494990Y-31665010D03*
X54145990Y-33570010D03*
D15*
X47645990Y-40146010D03*
D16*
X46599990Y-38225010D03*
X49599990Y-39750010D03*
X54145990Y-36618010D03*
X49319990Y-34840010D03*
X30269990Y-39920010D03*
X30269990Y-38650010D03*
X47414990Y-35475010D03*
D15*
X41826990Y-40428010D03*
D16*
X48049990Y-36110010D03*
%TO.N,/CHIP_EN*%
X46830790Y-29810810D03*
D15*
%TO.N,+3V3*%
X44493990Y-38396010D03*
D16*
X42099990Y-34750010D03*
X45549990Y-30863010D03*
X37508990Y-40682010D03*
X36746990Y-30522010D03*
X42124990Y-32825010D03*
X49399990Y-29725010D03*
X46779990Y-41063010D03*
X52962490Y-36212510D03*
%TO.N,/GPIO0*%
X50488390Y-31588810D03*
%TO.N,/GPIO1*%
X50042109Y-32215337D03*
%TO.N,/GPIO2*%
X49449990Y-31650010D03*
%TO.N,/GPIO4*%
X47033990Y-31284010D03*
%TO.N,/GPIO9{slash}BOOT*%
X47249990Y-42000010D03*
X41799990Y-33875010D03*
%TO.N,/GPIO10*%
X39413990Y-30141010D03*
X44524990Y-35000010D03*
%TO.N,/GPIO8{slash}PWM*%
X44176490Y-33633510D03*
%TO.N,/GPIO7*%
X45124990Y-32800010D03*
%TO.N,/GPIO6*%
X44319371Y-32215744D03*
%TO.N,/GPIO5*%
X46312046Y-31459628D03*
%TO.N,/GPIO20{slash}RX*%
X53649990Y-30100010D03*
X50874990Y-38125010D03*
%TO.N,/GPIO21{slash}TX*%
X50223195Y-37492805D03*
%TO.N,Net-(J1-D1+)*%
X35052000Y-37253010D03*
X35052000Y-35729010D03*
%TO.N,Net-(J1-D1-)*%
X35052000Y-34967010D03*
X35052500Y-36491010D03*
%TO.N,/USB_N*%
X48624990Y-38525010D03*
X39243000Y-37465000D03*
%TO.N,/USB_P*%
X49324990Y-38425010D03*
X39243000Y-34798000D03*
D15*
%TO.N,VUSB*%
X33825990Y-36110010D03*
D16*
%TO.N,VIN*%
X48049990Y-42200010D03*
%TD*%
D17*
%TO.N,/CHIP_EN*%
X46830790Y-29810810D02*
X48574190Y-29810810D01*
X48574190Y-29810810D02*
X49894990Y-28490010D01*
X49894990Y-28490010D02*
X50589990Y-28490010D01*
%TO.N,/GPIO0*%
X38004489Y-41075511D02*
X38004489Y-34370412D01*
X38004489Y-34370412D02*
X38723891Y-33651010D01*
X45382990Y-35063299D02*
X45382990Y-33951010D01*
X35349990Y-43730010D02*
X38004489Y-41075511D01*
X49675590Y-30776010D02*
X50488390Y-31588810D01*
X38723891Y-33651010D02*
X39748990Y-33651010D01*
X45382990Y-33951010D02*
X48557990Y-30776010D01*
X39748990Y-33651010D02*
X41699990Y-35602010D01*
X44844279Y-35602010D02*
X45382990Y-35063299D01*
X48557990Y-30776010D02*
X49675590Y-30776010D01*
X41699990Y-35602010D02*
X44844279Y-35602010D01*
%TO.N,/GPIO1*%
X50042109Y-32215337D02*
X49991890Y-32165118D01*
D18*
X38831294Y-33912010D02*
X39032990Y-33912010D01*
X38264989Y-43355011D02*
X38264989Y-34478315D01*
D17*
X41504685Y-35863010D02*
X39553685Y-33912010D01*
X45763990Y-34205010D02*
X45763990Y-35221010D01*
X39553685Y-33912010D02*
X39032990Y-33912010D01*
D18*
X37889990Y-43730010D02*
X38264989Y-43355011D01*
D17*
X45121990Y-35863010D02*
X41504685Y-35863010D01*
D18*
X38264989Y-34478315D02*
X38831294Y-33912010D01*
D17*
X49991890Y-32165118D02*
X49991890Y-31462834D01*
X49991890Y-31462834D02*
X49682566Y-31153510D01*
X49682566Y-31153510D02*
X48815490Y-31153510D01*
X48815490Y-31153510D02*
X45763990Y-34205010D01*
X45763990Y-35221010D02*
X45121990Y-35863010D01*
%TO.N,/GPIO2*%
X49449990Y-31650010D02*
X48953990Y-31650010D01*
D18*
X40429990Y-43730010D02*
X38524990Y-41825010D01*
X38524990Y-41825010D02*
X38524990Y-34586010D01*
D17*
X46144990Y-35348010D02*
X45368990Y-36124010D01*
X48953990Y-31650010D02*
X46144990Y-34459010D01*
X46144990Y-34459010D02*
X46144990Y-35348010D01*
X45368990Y-36124010D02*
X41332990Y-36124010D01*
D18*
X38524990Y-34586010D02*
X38905990Y-34205010D01*
D17*
X41332990Y-36124010D02*
X39413990Y-34205010D01*
D18*
X38905990Y-34205010D02*
X39413990Y-34205010D01*
D17*
%TO.N,/GPIO4*%
X49446990Y-36186210D02*
X49446990Y-37634010D01*
D18*
X47922990Y-30395010D02*
X47033990Y-31284010D01*
D17*
X49446990Y-37634010D02*
X49899990Y-38087010D01*
X45509990Y-40936010D02*
X45509990Y-43730010D01*
X49899990Y-38087010D02*
X49899990Y-38743602D01*
D18*
X50208990Y-35424210D02*
X50285190Y-35348010D01*
D17*
X47160990Y-39285010D02*
X45509990Y-40936010D01*
D18*
X50285190Y-34281210D02*
X51351990Y-33214410D01*
D17*
X49899990Y-38743602D02*
X49358582Y-39285010D01*
D18*
X50335990Y-30395010D02*
X47922990Y-30395010D01*
X50285190Y-35348010D02*
X50285190Y-34281210D01*
D17*
X50208990Y-35424210D02*
X49446990Y-36186210D01*
D18*
X51351990Y-31411010D02*
X50335990Y-30395010D01*
D17*
X49358582Y-39285010D02*
X47160990Y-39285010D01*
D18*
X51351990Y-33214410D02*
X51351990Y-31411010D01*
D17*
%TO.N,/GPIO9{slash}BOOT*%
X48904490Y-41704510D02*
X50589990Y-43390010D01*
D18*
X38794948Y-31601510D02*
X40239490Y-31601510D01*
X41799990Y-33875010D02*
X41318990Y-33394010D01*
X41318990Y-32681010D02*
X40239490Y-31601510D01*
X35683448Y-28490010D02*
X38794948Y-31601510D01*
X41318990Y-33394010D02*
X41318990Y-32681010D01*
D17*
X50589990Y-43390010D02*
X50589990Y-43730010D01*
X47545490Y-41704510D02*
X48904490Y-41704510D01*
D18*
X35349990Y-28490010D02*
X35683448Y-28490010D01*
D17*
X47249990Y-42000010D02*
X47545490Y-41704510D01*
D18*
%TO.N,/GPIO10*%
X40366490Y-30141010D02*
X39413990Y-30141010D01*
D17*
X43096990Y-32871510D02*
X43096990Y-33697010D01*
X44399990Y-35000010D02*
X44524990Y-35000010D01*
X42017490Y-31792010D02*
X43096990Y-32871510D01*
X43096990Y-33697010D02*
X44399990Y-35000010D01*
D18*
X42017490Y-31792010D02*
X40366490Y-30141010D01*
%TO.N,/GPIO8{slash}PWM*%
X39909490Y-29881010D02*
X40677990Y-29881010D01*
X43731990Y-33189010D02*
X44176490Y-33633510D01*
X39661490Y-29633010D02*
X39909490Y-29881010D01*
X40677990Y-29881010D02*
X43731990Y-32935010D01*
X39032990Y-29633010D02*
X39661490Y-29633010D01*
X37889990Y-28490010D02*
X39032990Y-29633010D01*
X43731990Y-32935010D02*
X43731990Y-33189010D01*
D17*
%TO.N,/GPIO7*%
X40429990Y-29027106D02*
X40429990Y-28490010D01*
X45124990Y-32800010D02*
X44202894Y-32800010D01*
X44202894Y-32800010D02*
X40429990Y-29027106D01*
D18*
%TO.N,/GPIO6*%
X42969990Y-30866363D02*
X44319371Y-32215744D01*
X42969990Y-28490010D02*
X42969990Y-30866363D01*
%TO.N,/GPIO5*%
X45509990Y-29760010D02*
X46312046Y-30562066D01*
X46312046Y-30562066D02*
X46312046Y-31459628D01*
X45509990Y-28490010D02*
X45509990Y-29760010D01*
D17*
%TO.N,/GPIO20{slash}RX*%
X50874990Y-38125010D02*
X51359990Y-37640010D01*
X53649990Y-32070534D02*
X53649990Y-30100010D01*
X51359990Y-34360534D02*
X53649990Y-32070534D01*
X51359990Y-37640010D02*
X51359990Y-34360534D01*
%TO.N,/GPIO21{slash}TX*%
X50793190Y-36922810D02*
X50793190Y-34382810D01*
X53921490Y-29603510D02*
X55034990Y-28490010D01*
X53153490Y-32022510D02*
X53153490Y-29894352D01*
X50223195Y-37492805D02*
X50793190Y-36922810D01*
X53444332Y-29603510D02*
X53921490Y-29603510D01*
X50793190Y-34382810D02*
X53153490Y-32022510D01*
X55034990Y-28490010D02*
X55669990Y-28490010D01*
X53153490Y-29894352D02*
X53444332Y-29603510D01*
%TO.N,Net-(J1-D1+)*%
X35567500Y-36737510D02*
X35567500Y-36244510D01*
X35052000Y-37253010D02*
X35567500Y-36737510D01*
X34925000Y-37380010D02*
X31539990Y-37380010D01*
X35052000Y-37253010D02*
X34925000Y-37380010D01*
X35567500Y-36244510D02*
X35052000Y-35729010D01*
D18*
%TO.N,Net-(J1-D1-)*%
X31539990Y-34840010D02*
X34925000Y-34840010D01*
D17*
X34536500Y-35975010D02*
X35052500Y-36491010D01*
D18*
X34925000Y-34840010D02*
X35052000Y-34967010D01*
D17*
X35052000Y-34967010D02*
X34536500Y-35482510D01*
X34536500Y-35482510D02*
X34536500Y-35975010D01*
%TO.N,/USB_N*%
X41456608Y-37380010D02*
X41064990Y-37380010D01*
X39327990Y-37380010D02*
X39243000Y-37465000D01*
X40673490Y-37799510D02*
X40673490Y-37510510D01*
X48624990Y-38093412D02*
X48172088Y-37640510D01*
X40281990Y-37380010D02*
X40248618Y-37380010D01*
X40934490Y-37510510D02*
X40934490Y-37799510D01*
X40673490Y-37510510D02*
X40673490Y-36960510D01*
X40412490Y-36960510D02*
X40412490Y-37249510D01*
X40248618Y-37380010D02*
X39327990Y-37380010D01*
X48624990Y-38525010D02*
X48624990Y-38093412D01*
X48172088Y-37640510D02*
X41717108Y-37640510D01*
X41717108Y-37640510D02*
X41456608Y-37380010D01*
X40542990Y-36830010D02*
G75*
G03*
X40412510Y-36960510I10J-130490D01*
G01*
X41064990Y-37380010D02*
G75*
G03*
X40934510Y-37510510I10J-130490D01*
G01*
X40803990Y-37930010D02*
G75*
G02*
X40673490Y-37799510I10J130510D01*
G01*
X40673490Y-36960510D02*
G75*
G03*
X40542990Y-36830010I-130490J10D01*
G01*
X40412490Y-37249510D02*
G75*
G02*
X40281990Y-37379990I-130490J10D01*
G01*
X40934490Y-37799510D02*
G75*
G02*
X40803990Y-37929990I-130490J10D01*
G01*
D18*
%TO.N,/USB_P*%
X41825010Y-37380010D02*
X48279990Y-37380010D01*
X48279990Y-37380010D02*
X49324990Y-38425010D01*
X39243000Y-34798000D02*
X41825010Y-37380010D01*
%TD*%
%TA.AperFunction,Conductor*%
%TO.N,GND*%
G36*
X31772990Y-27640472D02*
G01*
X31827528Y-27695010D01*
X31847490Y-27769510D01*
X31847490Y-28584808D01*
X31883575Y-28766224D01*
X31884478Y-28770761D01*
X31889428Y-28782712D01*
X31957031Y-28945920D01*
X31957032Y-28945921D01*
X31957034Y-28945925D01*
X32062368Y-29103568D01*
X32196432Y-29237632D01*
X32354075Y-29342966D01*
X32354077Y-29342967D01*
X32354079Y-29342968D01*
X32395947Y-29360310D01*
X32529239Y-29415522D01*
X32715192Y-29452510D01*
X32904788Y-29452510D01*
X33090741Y-29415522D01*
X33265905Y-29342966D01*
X33423548Y-29237632D01*
X33557612Y-29103568D01*
X33662946Y-28945925D01*
X33735502Y-28770761D01*
X33772490Y-28584808D01*
X33772490Y-27769510D01*
X33792452Y-27695010D01*
X33846990Y-27640472D01*
X33921490Y-27620510D01*
X34238490Y-27620510D01*
X34312990Y-27640472D01*
X34367528Y-27695010D01*
X34387490Y-27769510D01*
X34387490Y-28584808D01*
X34423575Y-28766224D01*
X34424478Y-28770761D01*
X34429428Y-28782712D01*
X34497031Y-28945920D01*
X34497032Y-28945921D01*
X34497034Y-28945925D01*
X34602368Y-29103568D01*
X34736432Y-29237632D01*
X34894075Y-29342966D01*
X34894077Y-29342967D01*
X34894079Y-29342968D01*
X34935947Y-29360310D01*
X35069239Y-29415522D01*
X35255192Y-29452510D01*
X35444788Y-29452510D01*
X35630741Y-29415522D01*
X35654223Y-29405794D01*
X35654283Y-29405786D01*
X35654331Y-29405749D01*
X35654337Y-29405747D01*
X35692680Y-29400729D01*
X35730685Y-29395724D01*
X35935572Y-29422857D01*
X35956680Y-29427225D01*
X36026578Y-29447057D01*
X36171319Y-29488124D01*
X36190083Y-29494832D01*
X36381365Y-29578048D01*
X36427284Y-29609320D01*
X36664343Y-29846379D01*
X36702907Y-29913174D01*
X36702907Y-29990302D01*
X36664343Y-30057097D01*
X36597551Y-30095660D01*
X36589876Y-30097717D01*
X36573099Y-30102212D01*
X36470383Y-30161516D01*
X36470379Y-30161519D01*
X36386499Y-30245399D01*
X36386496Y-30245403D01*
X36327192Y-30348120D01*
X36296490Y-30462699D01*
X36296490Y-30581320D01*
X36302743Y-30604656D01*
X36325376Y-30689124D01*
X36327192Y-30695899D01*
X36386496Y-30798616D01*
X36386499Y-30798620D01*
X36386501Y-30798623D01*
X36423531Y-30835653D01*
X36462094Y-30902446D01*
X36462094Y-30979574D01*
X36423530Y-31046369D01*
X36356735Y-31084933D01*
X36318171Y-31090010D01*
X35974690Y-31090010D01*
X35974690Y-31490010D01*
X35674690Y-31490010D01*
X35674690Y-31090010D01*
X35205742Y-31090010D01*
X35070508Y-31116910D01*
X35070506Y-31116911D01*
X34943124Y-31169674D01*
X34943113Y-31169679D01*
X34828467Y-31246283D01*
X34828465Y-31246284D01*
X34730964Y-31343785D01*
X34730963Y-31343787D01*
X34654359Y-31458433D01*
X34654354Y-31458444D01*
X34601591Y-31585827D01*
X34590813Y-31640010D01*
X35014882Y-31640010D01*
X34995134Y-31674214D01*
X34974690Y-31750514D01*
X34974690Y-31829506D01*
X34995134Y-31905806D01*
X35014882Y-31940010D01*
X34590813Y-31940010D01*
X34601591Y-31994192D01*
X34654354Y-32121575D01*
X34654359Y-32121586D01*
X34730963Y-32236232D01*
X34730964Y-32236234D01*
X34828465Y-32333735D01*
X34828467Y-32333736D01*
X34949202Y-32414408D01*
X34947493Y-32416964D01*
X34993137Y-32459636D01*
X35015594Y-32533422D01*
X34998149Y-32608552D01*
X34949458Y-32662323D01*
X34876836Y-32710847D01*
X34876831Y-32710851D01*
X34785531Y-32802151D01*
X34785527Y-32802156D01*
X34713790Y-32909518D01*
X34664381Y-33028804D01*
X34664379Y-33028810D01*
X34639190Y-33155448D01*
X34639190Y-33284571D01*
X34664379Y-33411209D01*
X34664381Y-33411215D01*
X34713790Y-33530501D01*
X34713792Y-33530504D01*
X34713793Y-33530506D01*
X34785530Y-33637867D01*
X34876833Y-33729170D01*
X34984194Y-33800907D01*
X34984196Y-33800908D01*
X34984198Y-33800909D01*
X34999867Y-33807399D01*
X35103488Y-33850320D01*
X35230129Y-33875510D01*
X35359251Y-33875510D01*
X35485892Y-33850320D01*
X35605186Y-33800907D01*
X35712547Y-33729170D01*
X35803850Y-33637867D01*
X35875587Y-33530506D01*
X35925000Y-33411212D01*
X35950190Y-33284571D01*
X35950190Y-33155449D01*
X35925000Y-33028808D01*
X35899111Y-32966306D01*
X35875589Y-32909518D01*
X35875588Y-32909516D01*
X35875587Y-32909514D01*
X35803850Y-32802153D01*
X35712547Y-32710850D01*
X35712540Y-32710845D01*
X35708432Y-32708100D01*
X35657576Y-32650114D01*
X35642527Y-32574468D01*
X35667317Y-32501433D01*
X35674690Y-32492448D01*
X35674690Y-32090010D01*
X35974690Y-32090010D01*
X35974690Y-32490010D01*
X36443630Y-32490010D01*
X36443637Y-32490009D01*
X36578871Y-32463109D01*
X36578873Y-32463108D01*
X36706255Y-32410345D01*
X36706266Y-32410340D01*
X36820912Y-32333736D01*
X36820914Y-32333735D01*
X36918415Y-32236234D01*
X36918416Y-32236232D01*
X36995020Y-32121586D01*
X36995025Y-32121575D01*
X37047788Y-31994192D01*
X37058567Y-31940010D01*
X36634498Y-31940010D01*
X36654246Y-31905806D01*
X36674690Y-31829506D01*
X36674690Y-31750514D01*
X36654246Y-31674214D01*
X36634498Y-31640010D01*
X37058566Y-31640010D01*
X37047788Y-31585827D01*
X36995025Y-31458444D01*
X36995020Y-31458433D01*
X36918416Y-31343787D01*
X36918415Y-31343785D01*
X36820914Y-31246284D01*
X36820907Y-31246278D01*
X36797705Y-31230775D01*
X36746851Y-31172787D01*
X36731805Y-31097141D01*
X36756598Y-31024106D01*
X36814586Y-30973252D01*
X36841918Y-30962965D01*
X36920876Y-30941809D01*
X36952552Y-30923521D01*
X37023596Y-30882503D01*
X37023595Y-30882503D01*
X37023603Y-30882499D01*
X37107479Y-30798623D01*
X37131863Y-30756389D01*
X37166787Y-30695900D01*
X37166787Y-30695898D01*
X37166789Y-30695896D01*
X37173339Y-30671449D01*
X37211900Y-30604659D01*
X37278694Y-30566093D01*
X37355822Y-30566091D01*
X37422617Y-30604654D01*
X37422620Y-30604656D01*
X38644554Y-31826590D01*
X38644556Y-31826591D01*
X38672328Y-31838095D01*
X38672332Y-31838096D01*
X38672335Y-31838097D01*
X38742137Y-31867010D01*
X40067798Y-31867010D01*
X40142298Y-31886972D01*
X40173157Y-31910651D01*
X41009849Y-32747343D01*
X41048413Y-32814138D01*
X41053490Y-32852702D01*
X41053490Y-33446822D01*
X41093909Y-33544402D01*
X41093911Y-33544405D01*
X41226168Y-33676662D01*
X41237819Y-33689774D01*
X41245448Y-33699451D01*
X41250072Y-33707862D01*
X41282385Y-33746303D01*
X41283851Y-33748163D01*
X41291036Y-33764886D01*
X41312074Y-33807118D01*
X41316721Y-33827390D01*
X41317546Y-33831221D01*
X41332624Y-33905975D01*
X41335446Y-33918064D01*
X41335818Y-33919466D01*
X41339437Y-33931581D01*
X41370068Y-34023652D01*
X41372397Y-34030274D01*
X41375436Y-34038464D01*
X41375330Y-34038502D01*
X41375933Y-34040093D01*
X41376455Y-34039877D01*
X41380189Y-34048893D01*
X41439498Y-34151619D01*
X41439499Y-34151620D01*
X41439501Y-34151623D01*
X41523377Y-34235499D01*
X41523379Y-34235500D01*
X41523383Y-34235503D01*
X41626102Y-34294808D01*
X41635123Y-34298545D01*
X41634624Y-34299748D01*
X41692831Y-34333354D01*
X41731396Y-34400148D01*
X41731398Y-34477276D01*
X41716512Y-34513214D01*
X41680191Y-34576121D01*
X41649490Y-34690699D01*
X41649490Y-34815611D01*
X41629528Y-34890111D01*
X41574990Y-34944649D01*
X41500490Y-34964611D01*
X41425990Y-34944649D01*
X41395131Y-34920970D01*
X39899668Y-33425507D01*
X39899667Y-33425506D01*
X39865165Y-33411215D01*
X39801901Y-33385010D01*
X38776802Y-33385010D01*
X38670980Y-33385010D01*
X38573215Y-33425505D01*
X37778984Y-34219736D01*
X37738489Y-34317500D01*
X37738489Y-40084013D01*
X37718527Y-40158513D01*
X37663989Y-40213051D01*
X37589489Y-40233013D01*
X37570053Y-40231740D01*
X37568305Y-40231510D01*
X37568299Y-40231510D01*
X37449681Y-40231510D01*
X37335104Y-40262211D01*
X37335103Y-40262211D01*
X37335101Y-40262212D01*
X37262539Y-40304106D01*
X37188039Y-40324068D01*
X37113539Y-40304106D01*
X37059001Y-40249568D01*
X37050380Y-40232087D01*
X36995021Y-40098436D01*
X36995020Y-40098433D01*
X36918416Y-39983787D01*
X36918415Y-39983785D01*
X36820914Y-39886284D01*
X36820912Y-39886283D01*
X36706266Y-39809679D01*
X36706255Y-39809674D01*
X36578873Y-39756911D01*
X36578871Y-39756910D01*
X36443637Y-39730010D01*
X35974690Y-39730010D01*
X35974690Y-40130010D01*
X35674690Y-40130010D01*
X35674690Y-39721840D01*
X35647285Y-39674374D01*
X35647285Y-39597246D01*
X35685849Y-39530451D01*
X35708431Y-39511919D01*
X35712547Y-39509170D01*
X35803850Y-39417867D01*
X35875587Y-39310506D01*
X35925000Y-39191212D01*
X35950190Y-39064571D01*
X35950190Y-38935449D01*
X35925000Y-38808808D01*
X35875587Y-38689514D01*
X35803850Y-38582153D01*
X35712547Y-38490850D01*
X35704540Y-38485500D01*
X35659959Y-38455712D01*
X35605186Y-38419113D01*
X35605184Y-38419112D01*
X35605181Y-38419110D01*
X35485895Y-38369701D01*
X35485889Y-38369699D01*
X35359251Y-38344510D01*
X35230129Y-38344510D01*
X35103490Y-38369699D01*
X35103484Y-38369701D01*
X34984198Y-38419110D01*
X34876836Y-38490847D01*
X34876831Y-38490851D01*
X34785531Y-38582151D01*
X34785527Y-38582156D01*
X34713790Y-38689518D01*
X34664381Y-38808804D01*
X34664379Y-38808810D01*
X34639190Y-38935448D01*
X34639190Y-39064571D01*
X34664379Y-39191209D01*
X34664381Y-39191215D01*
X34713790Y-39310501D01*
X34713792Y-39310504D01*
X34713793Y-39310506D01*
X34785530Y-39417867D01*
X34876833Y-39509170D01*
X34876837Y-39509172D01*
X34876840Y-39509175D01*
X34878844Y-39510514D01*
X34939450Y-39551010D01*
X34949457Y-39557696D01*
X35000312Y-39615683D01*
X35015359Y-39691329D01*
X34990567Y-39764364D01*
X34947673Y-39803324D01*
X34949202Y-39805612D01*
X34828467Y-39886283D01*
X34828465Y-39886284D01*
X34730964Y-39983785D01*
X34730963Y-39983787D01*
X34654359Y-40098433D01*
X34654354Y-40098444D01*
X34601591Y-40225827D01*
X34590813Y-40280010D01*
X35014882Y-40280010D01*
X34995134Y-40314214D01*
X34974690Y-40390514D01*
X34974690Y-40469506D01*
X34995134Y-40545806D01*
X35014882Y-40580010D01*
X34590813Y-40580010D01*
X34601591Y-40634192D01*
X34654354Y-40761575D01*
X34654359Y-40761586D01*
X34730963Y-40876232D01*
X34730964Y-40876234D01*
X34828465Y-40973735D01*
X34828467Y-40973736D01*
X34943113Y-41050340D01*
X34943124Y-41050345D01*
X35070506Y-41103108D01*
X35070508Y-41103109D01*
X35205742Y-41130009D01*
X35205750Y-41130010D01*
X35674690Y-41130010D01*
X35674690Y-40730010D01*
X35974690Y-40730010D01*
X35974690Y-41130010D01*
X36443630Y-41130010D01*
X36443637Y-41130009D01*
X36578871Y-41103109D01*
X36578873Y-41103108D01*
X36706255Y-41050345D01*
X36706266Y-41050340D01*
X36820912Y-40973736D01*
X36820913Y-40973736D01*
X36896819Y-40897830D01*
X36963614Y-40859265D01*
X37040742Y-40859265D01*
X37107537Y-40897828D01*
X37131216Y-40928686D01*
X37148498Y-40958619D01*
X37148499Y-40958620D01*
X37148501Y-40958623D01*
X37232377Y-41042499D01*
X37232379Y-41042500D01*
X37232380Y-41042501D01*
X37278377Y-41069057D01*
X37335104Y-41101809D01*
X37335105Y-41101809D01*
X37336149Y-41102412D01*
X37390687Y-41156950D01*
X37410649Y-41231450D01*
X37390687Y-41305950D01*
X37367008Y-41336809D01*
X36272942Y-42430875D01*
X36246777Y-42451727D01*
X36045952Y-42577740D01*
X36030171Y-42586362D01*
X35837518Y-42676968D01*
X35818629Y-42684327D01*
X35724460Y-42713813D01*
X35724362Y-42713844D01*
X35688749Y-42724995D01*
X35632985Y-42742456D01*
X35611422Y-42747484D01*
X35486927Y-42766899D01*
X35449366Y-42767961D01*
X35444789Y-42767510D01*
X35444788Y-42767510D01*
X35255192Y-42767510D01*
X35244383Y-42769660D01*
X35203704Y-42777751D01*
X35195651Y-42778138D01*
X35193373Y-42778360D01*
X35184797Y-42779378D01*
X35173043Y-42783849D01*
X35160793Y-42786286D01*
X35069238Y-42804498D01*
X34894079Y-42877051D01*
X34894075Y-42877054D01*
X34736434Y-42982387D01*
X34736428Y-42982391D01*
X34602371Y-43116448D01*
X34602370Y-43116450D01*
X34602368Y-43116452D01*
X34545194Y-43202019D01*
X34497034Y-43274095D01*
X34497031Y-43274099D01*
X34424477Y-43449261D01*
X34387490Y-43635211D01*
X34387490Y-44450510D01*
X34367528Y-44525010D01*
X34312990Y-44579548D01*
X34238490Y-44599510D01*
X33921490Y-44599510D01*
X33846990Y-44579548D01*
X33792452Y-44525010D01*
X33772490Y-44450510D01*
X33772490Y-43635211D01*
X33742242Y-43483146D01*
X33735502Y-43449259D01*
X33673934Y-43300621D01*
X33662948Y-43274099D01*
X33662947Y-43274097D01*
X33662946Y-43274095D01*
X33557612Y-43116452D01*
X33423548Y-42982388D01*
X33265905Y-42877054D01*
X33265902Y-42877053D01*
X33265900Y-42877051D01*
X33107638Y-42811497D01*
X33090741Y-42804498D01*
X33090739Y-42804497D01*
X33090738Y-42804497D01*
X32904788Y-42767510D01*
X32715192Y-42767510D01*
X32529241Y-42804497D01*
X32354079Y-42877051D01*
X32354075Y-42877054D01*
X32196434Y-42982387D01*
X32196428Y-42982391D01*
X32062371Y-43116448D01*
X32062370Y-43116450D01*
X32062368Y-43116452D01*
X32005194Y-43202019D01*
X31957034Y-43274095D01*
X31957031Y-43274099D01*
X31884477Y-43449261D01*
X31847490Y-43635211D01*
X31847490Y-44450510D01*
X31827528Y-44525010D01*
X31772990Y-44579548D01*
X31698490Y-44599510D01*
X31042192Y-44599510D01*
X30967692Y-44579548D01*
X30913154Y-44525010D01*
X30893192Y-44450510D01*
X30913154Y-44376010D01*
X30936833Y-44345151D01*
X30974114Y-44307870D01*
X31073320Y-44159399D01*
X31141654Y-43994426D01*
X31176490Y-43819292D01*
X31176490Y-43640728D01*
X31141654Y-43465594D01*
X31107252Y-43382541D01*
X31073322Y-43300625D01*
X31073321Y-43300623D01*
X31073320Y-43300621D01*
X30974114Y-43152150D01*
X30847850Y-43025886D01*
X30699379Y-42926680D01*
X30699377Y-42926679D01*
X30699374Y-42926677D01*
X30534407Y-42858346D01*
X30534403Y-42858345D01*
X30359272Y-42823510D01*
X30180708Y-42823510D01*
X30005576Y-42858345D01*
X30005572Y-42858346D01*
X29840605Y-42926677D01*
X29692133Y-43025883D01*
X29692128Y-43025887D01*
X29654849Y-43063167D01*
X29588054Y-43101731D01*
X29510926Y-43101731D01*
X29444131Y-43063167D01*
X29405567Y-42996372D01*
X29400490Y-42957808D01*
X29400490Y-40280010D01*
X30660813Y-40280010D01*
X31084882Y-40280010D01*
X31065134Y-40314214D01*
X31044690Y-40390514D01*
X31044690Y-40469506D01*
X31065134Y-40545806D01*
X31084882Y-40580010D01*
X30660813Y-40580010D01*
X30671591Y-40634192D01*
X30724354Y-40761575D01*
X30724359Y-40761586D01*
X30800963Y-40876232D01*
X30800964Y-40876234D01*
X30898465Y-40973735D01*
X30898467Y-40973736D01*
X31013113Y-41050340D01*
X31013124Y-41050345D01*
X31140506Y-41103108D01*
X31140508Y-41103109D01*
X31275742Y-41130009D01*
X31275750Y-41130010D01*
X31494690Y-41130010D01*
X31494690Y-40730010D01*
X31794690Y-40730010D01*
X31794690Y-41130010D01*
X32013630Y-41130010D01*
X32013637Y-41130009D01*
X32148871Y-41103109D01*
X32148873Y-41103108D01*
X32276255Y-41050345D01*
X32276266Y-41050340D01*
X32390912Y-40973736D01*
X32390914Y-40973735D01*
X32488415Y-40876234D01*
X32488416Y-40876232D01*
X32565020Y-40761586D01*
X32565025Y-40761575D01*
X32617788Y-40634192D01*
X32628567Y-40580010D01*
X32204498Y-40580010D01*
X32224246Y-40545806D01*
X32244690Y-40469506D01*
X32244690Y-40390514D01*
X32224246Y-40314214D01*
X32204498Y-40280010D01*
X32628566Y-40280010D01*
X32617788Y-40225827D01*
X32565025Y-40098444D01*
X32565020Y-40098433D01*
X32488416Y-39983787D01*
X32488415Y-39983785D01*
X32390914Y-39886284D01*
X32390912Y-39886283D01*
X32276266Y-39809679D01*
X32276255Y-39809674D01*
X32148873Y-39756911D01*
X32148871Y-39756910D01*
X32013637Y-39730010D01*
X31794690Y-39730010D01*
X31794690Y-40130010D01*
X31494690Y-40130010D01*
X31494690Y-39730010D01*
X31275742Y-39730010D01*
X31140508Y-39756910D01*
X31140506Y-39756911D01*
X31013124Y-39809674D01*
X31013113Y-39809679D01*
X30898467Y-39886283D01*
X30898465Y-39886284D01*
X30800964Y-39983785D01*
X30800963Y-39983787D01*
X30724359Y-40098433D01*
X30724354Y-40098444D01*
X30671591Y-40225827D01*
X30660813Y-40280010D01*
X29400490Y-40280010D01*
X29400490Y-34771016D01*
X30839490Y-34771016D01*
X30839490Y-34909003D01*
X30866409Y-35044335D01*
X30866410Y-35044339D01*
X30919214Y-35171819D01*
X30919217Y-35171825D01*
X30992346Y-35281269D01*
X30995876Y-35286552D01*
X31093448Y-35384124D01*
X31093451Y-35384126D01*
X31208174Y-35460782D01*
X31208176Y-35460783D01*
X31208179Y-35460785D01*
X31335662Y-35513590D01*
X31470997Y-35540510D01*
X31608983Y-35540510D01*
X31744318Y-35513590D01*
X31871801Y-35460785D01*
X31986532Y-35384124D01*
X32084104Y-35286552D01*
X32160765Y-35171821D01*
X32160765Y-35171819D01*
X32160826Y-35171729D01*
X32218815Y-35120876D01*
X32284715Y-35105510D01*
X34183461Y-35105510D01*
X34257961Y-35125472D01*
X34312499Y-35180010D01*
X34332461Y-35254510D01*
X34326804Y-35295177D01*
X34318546Y-35324282D01*
X34310996Y-35331833D01*
X34270500Y-35429599D01*
X34270500Y-35493636D01*
X34264843Y-35513576D01*
X34255337Y-35529497D01*
X34250538Y-35547409D01*
X34235909Y-35562037D01*
X34225305Y-35579799D01*
X34209112Y-35588834D01*
X34196000Y-35601947D01*
X34176017Y-35607301D01*
X34157953Y-35617381D01*
X34139411Y-35617109D01*
X34121500Y-35621909D01*
X34101516Y-35616554D01*
X34080833Y-35616252D01*
X34064914Y-35606748D01*
X34047003Y-35601949D01*
X34038477Y-35597027D01*
X34038476Y-35597026D01*
X34038475Y-35597026D01*
X33898465Y-35559510D01*
X33753515Y-35559510D01*
X33613502Y-35597026D01*
X33487978Y-35669498D01*
X33385478Y-35771998D01*
X33313006Y-35897522D01*
X33275490Y-36037533D01*
X33275490Y-36182486D01*
X33313006Y-36322497D01*
X33385478Y-36448021D01*
X33385479Y-36448022D01*
X33385481Y-36448025D01*
X33487975Y-36550519D01*
X33487977Y-36550520D01*
X33487978Y-36550521D01*
X33613502Y-36622993D01*
X33613504Y-36622993D01*
X33613505Y-36622994D01*
X33753515Y-36660510D01*
X33898465Y-36660510D01*
X34038475Y-36622994D01*
X34164005Y-36550519D01*
X34266499Y-36448025D01*
X34287509Y-36411633D01*
X34294268Y-36399928D01*
X34309930Y-36384265D01*
X34321663Y-36365480D01*
X34336733Y-36357462D01*
X34348806Y-36345390D01*
X34370202Y-36339656D01*
X34389755Y-36329255D01*
X34406814Y-36329846D01*
X34423306Y-36325428D01*
X34444702Y-36331161D01*
X34466837Y-36331929D01*
X34481315Y-36340971D01*
X34497806Y-36345390D01*
X34513468Y-36361052D01*
X34532254Y-36372785D01*
X34540271Y-36387855D01*
X34552344Y-36399928D01*
X34568479Y-36440877D01*
X34569158Y-36443815D01*
X34570002Y-36447699D01*
X34580718Y-36500446D01*
X34585165Y-36522330D01*
X34588026Y-36534502D01*
X34588391Y-36535867D01*
X34588396Y-36535883D01*
X34591951Y-36547735D01*
X34622621Y-36639798D01*
X34624279Y-36644513D01*
X34624281Y-36644517D01*
X34624880Y-36646219D01*
X34625146Y-36646937D01*
X34629872Y-36654338D01*
X34632701Y-36664896D01*
X34692011Y-36767623D01*
X34703597Y-36779209D01*
X34713220Y-36795550D01*
X34718627Y-36815059D01*
X34728750Y-36832592D01*
X34728750Y-36851579D01*
X34733821Y-36869875D01*
X34728750Y-36889472D01*
X34728750Y-36909720D01*
X34718230Y-36930127D01*
X34714500Y-36944544D01*
X34706717Y-36952461D01*
X34699731Y-36966015D01*
X34655261Y-37019881D01*
X34647073Y-37030486D01*
X34646198Y-37031701D01*
X34638771Y-37042736D01*
X34637873Y-37044169D01*
X34637697Y-37044332D01*
X34637433Y-37044725D01*
X34637341Y-37044663D01*
X34581382Y-37096680D01*
X34511640Y-37114010D01*
X32284381Y-37114010D01*
X32209881Y-37094048D01*
X32160492Y-37047791D01*
X32084104Y-36933468D01*
X31986532Y-36835896D01*
X31986528Y-36835893D01*
X31871805Y-36759237D01*
X31871799Y-36759234D01*
X31744319Y-36706430D01*
X31744315Y-36706429D01*
X31608983Y-36679510D01*
X31470997Y-36679510D01*
X31335664Y-36706429D01*
X31335660Y-36706430D01*
X31208180Y-36759234D01*
X31208174Y-36759237D01*
X31093451Y-36835893D01*
X31093444Y-36835899D01*
X30995879Y-36933464D01*
X30995873Y-36933471D01*
X30919217Y-37048194D01*
X30919214Y-37048200D01*
X30866410Y-37175680D01*
X30866409Y-37175684D01*
X30839490Y-37311016D01*
X30839490Y-37449003D01*
X30866409Y-37584335D01*
X30866410Y-37584339D01*
X30919214Y-37711819D01*
X30919217Y-37711825D01*
X30995873Y-37826548D01*
X30995876Y-37826552D01*
X31093448Y-37924124D01*
X31093451Y-37924126D01*
X31208174Y-38000782D01*
X31208176Y-38000783D01*
X31208179Y-38000785D01*
X31335662Y-38053590D01*
X31470997Y-38080510D01*
X31608983Y-38080510D01*
X31744318Y-38053590D01*
X31871801Y-38000785D01*
X31986532Y-37924124D01*
X32084104Y-37826552D01*
X32160492Y-37712228D01*
X32218481Y-37661376D01*
X32284381Y-37646010D01*
X34552850Y-37646010D01*
X34565101Y-37646514D01*
X34577464Y-37647533D01*
X34592343Y-37651309D01*
X34676385Y-37655694D01*
X34678595Y-37655877D01*
X34679453Y-37656184D01*
X34692268Y-37657646D01*
X34740071Y-37666092D01*
X34749627Y-37668105D01*
X34777156Y-37674856D01*
X34807365Y-37682264D01*
X34813656Y-37683702D01*
X34813680Y-37683707D01*
X34814430Y-37683866D01*
X34821295Y-37685200D01*
X34852251Y-37690669D01*
X34900922Y-37699269D01*
X34903898Y-37699700D01*
X34913494Y-37701092D01*
X34914920Y-37701254D01*
X34927408Y-37702288D01*
X35029030Y-37707591D01*
X35033901Y-37707787D01*
X35034464Y-37707803D01*
X35044798Y-37705921D01*
X35071494Y-37703510D01*
X35111309Y-37703510D01*
X35225886Y-37672809D01*
X35328613Y-37613499D01*
X35412489Y-37529623D01*
X35471799Y-37426896D01*
X35471800Y-37426890D01*
X35471990Y-37426434D01*
X35476188Y-37411763D01*
X35481892Y-37401755D01*
X35512547Y-37309736D01*
X35516109Y-37297862D01*
X35516475Y-37296493D01*
X35519333Y-37284331D01*
X35534889Y-37207758D01*
X35540035Y-37185501D01*
X35571189Y-37123151D01*
X35602207Y-37086285D01*
X35602438Y-37085884D01*
X35603015Y-37085133D01*
X35605951Y-37080951D01*
X35606130Y-37081077D01*
X35626050Y-37055139D01*
X35793004Y-36888187D01*
X35833500Y-36790421D01*
X35833500Y-36684599D01*
X35833500Y-36191599D01*
X35829725Y-36182486D01*
X35793004Y-36093834D01*
X35793003Y-36093832D01*
X35626115Y-35926944D01*
X35614499Y-35913878D01*
X35606874Y-35904213D01*
X35602208Y-35895735D01*
X35569661Y-35857048D01*
X35568229Y-35855234D01*
X35561143Y-35838759D01*
X35540036Y-35796515D01*
X35535316Y-35776104D01*
X35534506Y-35772375D01*
X35519333Y-35697686D01*
X35516475Y-35685524D01*
X35516109Y-35684155D01*
X35512547Y-35672280D01*
X35481892Y-35580262D01*
X35479640Y-35573857D01*
X35479366Y-35573117D01*
X35474634Y-35565705D01*
X35471799Y-35555124D01*
X35412489Y-35452397D01*
X35400134Y-35440042D01*
X35390547Y-35423820D01*
X35385077Y-35404208D01*
X35374896Y-35386574D01*
X35374896Y-35367703D01*
X35369827Y-35349528D01*
X35374896Y-35329808D01*
X35374896Y-35309446D01*
X35384331Y-35293103D01*
X35389029Y-35274828D01*
X35403279Y-35260284D01*
X35407851Y-35252364D01*
X35406548Y-35251364D01*
X35412483Y-35243628D01*
X35412489Y-35243623D01*
X35471799Y-35140896D01*
X35502500Y-35026319D01*
X35502500Y-34907701D01*
X35471799Y-34793124D01*
X35471797Y-34793120D01*
X35412493Y-34690403D01*
X35412490Y-34690399D01*
X35412489Y-34690397D01*
X35328613Y-34606521D01*
X35328610Y-34606519D01*
X35328606Y-34606516D01*
X35225889Y-34547212D01*
X35225886Y-34547211D01*
X35111309Y-34516510D01*
X35067787Y-34516510D01*
X35046439Y-34514973D01*
X35038544Y-34513830D01*
X35028930Y-34512438D01*
X34927313Y-34517787D01*
X34927302Y-34517787D01*
X34927300Y-34517788D01*
X34914528Y-34518860D01*
X34914511Y-34518862D01*
X34913104Y-34519024D01*
X34900589Y-34520860D01*
X34821011Y-34535043D01*
X34814371Y-34536340D01*
X34814361Y-34536342D01*
X34814005Y-34536417D01*
X34813640Y-34536495D01*
X34806948Y-34538033D01*
X34749312Y-34552291D01*
X34739675Y-34554340D01*
X34692142Y-34562811D01*
X34673831Y-34564916D01*
X34592252Y-34569209D01*
X34592249Y-34569209D01*
X34592247Y-34569210D01*
X34587351Y-34570386D01*
X34552541Y-34574510D01*
X32284715Y-34574510D01*
X32210215Y-34554548D01*
X32160826Y-34508291D01*
X32160765Y-34508199D01*
X32084104Y-34393468D01*
X31986532Y-34295896D01*
X31986528Y-34295893D01*
X31871805Y-34219237D01*
X31871799Y-34219234D01*
X31744319Y-34166430D01*
X31744315Y-34166429D01*
X31608983Y-34139510D01*
X31470997Y-34139510D01*
X31335664Y-34166429D01*
X31335660Y-34166430D01*
X31208180Y-34219234D01*
X31208174Y-34219237D01*
X31093451Y-34295893D01*
X31093444Y-34295899D01*
X30995879Y-34393464D01*
X30995873Y-34393471D01*
X30919217Y-34508194D01*
X30919214Y-34508200D01*
X30866410Y-34635680D01*
X30866409Y-34635684D01*
X30839490Y-34771016D01*
X29400490Y-34771016D01*
X29400490Y-31640010D01*
X30660813Y-31640010D01*
X31084882Y-31640010D01*
X31065134Y-31674214D01*
X31044690Y-31750514D01*
X31044690Y-31829506D01*
X31065134Y-31905806D01*
X31084882Y-31940010D01*
X30660813Y-31940010D01*
X30671591Y-31994192D01*
X30724354Y-32121575D01*
X30724359Y-32121586D01*
X30800963Y-32236232D01*
X30800964Y-32236234D01*
X30898465Y-32333735D01*
X30898467Y-32333736D01*
X31013113Y-32410340D01*
X31013124Y-32410345D01*
X31140506Y-32463108D01*
X31140508Y-32463109D01*
X31275742Y-32490009D01*
X31275750Y-32490010D01*
X31494690Y-32490010D01*
X31494690Y-32090010D01*
X31794690Y-32090010D01*
X31794690Y-32490010D01*
X32013630Y-32490010D01*
X32013637Y-32490009D01*
X32148871Y-32463109D01*
X32148873Y-32463108D01*
X32276255Y-32410345D01*
X32276266Y-32410340D01*
X32390912Y-32333736D01*
X32390914Y-32333735D01*
X32488415Y-32236234D01*
X32488416Y-32236232D01*
X32565020Y-32121586D01*
X32565025Y-32121575D01*
X32617788Y-31994192D01*
X32628567Y-31940010D01*
X32204498Y-31940010D01*
X32224246Y-31905806D01*
X32244690Y-31829506D01*
X32244690Y-31750514D01*
X32224246Y-31674214D01*
X32204498Y-31640010D01*
X32628566Y-31640010D01*
X32617788Y-31585827D01*
X32565025Y-31458444D01*
X32565020Y-31458433D01*
X32488416Y-31343787D01*
X32488415Y-31343785D01*
X32390914Y-31246284D01*
X32390912Y-31246283D01*
X32276266Y-31169679D01*
X32276255Y-31169674D01*
X32148873Y-31116911D01*
X32148871Y-31116910D01*
X32013637Y-31090010D01*
X31794690Y-31090010D01*
X31794690Y-31490010D01*
X31494690Y-31490010D01*
X31494690Y-31090010D01*
X31275742Y-31090010D01*
X31140508Y-31116910D01*
X31140506Y-31116911D01*
X31013124Y-31169674D01*
X31013113Y-31169679D01*
X30898467Y-31246283D01*
X30898465Y-31246284D01*
X30800964Y-31343785D01*
X30800963Y-31343787D01*
X30724359Y-31458433D01*
X30724354Y-31458444D01*
X30671591Y-31585827D01*
X30660813Y-31640010D01*
X29400490Y-31640010D01*
X29400490Y-29262212D01*
X29420452Y-29187712D01*
X29474990Y-29133174D01*
X29549490Y-29113212D01*
X29623990Y-29133174D01*
X29654849Y-29156853D01*
X29692130Y-29194134D01*
X29840601Y-29293340D01*
X29840603Y-29293341D01*
X29840605Y-29293342D01*
X29919804Y-29326147D01*
X30005574Y-29361674D01*
X30180708Y-29396510D01*
X30359272Y-29396510D01*
X30534406Y-29361674D01*
X30699379Y-29293340D01*
X30847850Y-29194134D01*
X30974114Y-29067870D01*
X31073320Y-28919399D01*
X31141654Y-28754426D01*
X31176490Y-28579292D01*
X31176490Y-28400728D01*
X31167747Y-28356776D01*
X31156435Y-28299905D01*
X31141654Y-28225594D01*
X31103248Y-28132874D01*
X31073322Y-28060625D01*
X31073321Y-28060623D01*
X31073320Y-28060621D01*
X30974114Y-27912150D01*
X30936833Y-27874869D01*
X30898269Y-27808074D01*
X30898269Y-27730946D01*
X30936833Y-27664151D01*
X31003628Y-27625587D01*
X31042192Y-27620510D01*
X31698490Y-27620510D01*
X31772990Y-27640472D01*
G37*
%TD.AperFunction*%
%TA.AperFunction,Conductor*%
G36*
X40332990Y-37665972D02*
G01*
X40387528Y-37720510D01*
X40407490Y-37795010D01*
X40407490Y-37852421D01*
X40408028Y-37853720D01*
X40411145Y-37865352D01*
X40411149Y-37865367D01*
X40431735Y-37942178D01*
X40434518Y-37952561D01*
X40486717Y-38042967D01*
X40560533Y-38116783D01*
X40650939Y-38168982D01*
X40751773Y-38196006D01*
X40803970Y-38196010D01*
X40850873Y-38196013D01*
X40850873Y-38196012D01*
X40856020Y-38196013D01*
X40856166Y-38195994D01*
X40856166Y-38195993D01*
X40856168Y-38195994D01*
X40957011Y-38168981D01*
X40957013Y-38168980D01*
X41047423Y-38116791D01*
X41047423Y-38116790D01*
X41047426Y-38116789D01*
X41121252Y-38042975D01*
X41173458Y-37952568D01*
X41177810Y-37936333D01*
X41183394Y-37915499D01*
X41197423Y-37863153D01*
X41198843Y-37860694D01*
X41200488Y-37852424D01*
X41200490Y-37852421D01*
X41200490Y-37852417D01*
X41203354Y-37838026D01*
X41206171Y-37838586D01*
X41220452Y-37785290D01*
X41274990Y-37730752D01*
X41349490Y-37710790D01*
X41423990Y-37730752D01*
X41454849Y-37754431D01*
X41483108Y-37782690D01*
X41483111Y-37782694D01*
X41491604Y-37791187D01*
X41566431Y-37866014D01*
X41664197Y-37906510D01*
X41664198Y-37906510D01*
X41770019Y-37906510D01*
X43882865Y-37906510D01*
X43957365Y-37926472D01*
X44011903Y-37981010D01*
X44031865Y-38055510D01*
X44011903Y-38130010D01*
X44011902Y-38130011D01*
X43981007Y-38183521D01*
X43943490Y-38323533D01*
X43943490Y-38468486D01*
X43981006Y-38608497D01*
X44053478Y-38734021D01*
X44053479Y-38734022D01*
X44053481Y-38734025D01*
X44155975Y-38836519D01*
X44155977Y-38836520D01*
X44155978Y-38836521D01*
X44281502Y-38908993D01*
X44281504Y-38908993D01*
X44281505Y-38908994D01*
X44421515Y-38946510D01*
X44566465Y-38946510D01*
X44706475Y-38908994D01*
X44832005Y-38836519D01*
X44934499Y-38734025D01*
X45006974Y-38608495D01*
X45044490Y-38468485D01*
X45044490Y-38323535D01*
X45006974Y-38183525D01*
X45005941Y-38181736D01*
X44976078Y-38130011D01*
X44956115Y-38055511D01*
X44976077Y-37981011D01*
X45030614Y-37926473D01*
X45105114Y-37906510D01*
X48000189Y-37906510D01*
X48019137Y-37911587D01*
X48038753Y-37911587D01*
X48055740Y-37921394D01*
X48074689Y-37926472D01*
X48105548Y-37950151D01*
X48233876Y-38078479D01*
X48272440Y-38145274D01*
X48272440Y-38222402D01*
X48255727Y-38261417D01*
X48225680Y-38310685D01*
X48217959Y-38324514D01*
X48217166Y-38326075D01*
X48211406Y-38337688D01*
X48211380Y-38337675D01*
X48205483Y-38350418D01*
X48205191Y-38351122D01*
X48174490Y-38465700D01*
X48174490Y-38584320D01*
X48205191Y-38698898D01*
X48260971Y-38795510D01*
X48280933Y-38870010D01*
X48260971Y-38944510D01*
X48206433Y-38999048D01*
X48131933Y-39019010D01*
X47108079Y-39019010D01*
X47010314Y-39059505D01*
X46935485Y-39134334D01*
X45338356Y-40731462D01*
X45284487Y-40785331D01*
X45284485Y-40785334D01*
X45243990Y-40883098D01*
X45243990Y-42141048D01*
X45233770Y-42195281D01*
X45142576Y-42428644D01*
X45139806Y-42435257D01*
X45034104Y-42671535D01*
X45030122Y-42679751D01*
X44928134Y-42874726D01*
X44922192Y-42885058D01*
X44826255Y-43037415D01*
X44817038Y-43050447D01*
X44779562Y-43097834D01*
X44768062Y-43110757D01*
X44762369Y-43116450D01*
X44762359Y-43116462D01*
X44752205Y-43131657D01*
X44745200Y-43141283D01*
X44723737Y-43168425D01*
X44723062Y-43169280D01*
X44720595Y-43172533D01*
X44718058Y-43175877D01*
X44717523Y-43176612D01*
X44717521Y-43176617D01*
X44713932Y-43184803D01*
X44701363Y-43207749D01*
X44657033Y-43274095D01*
X44584477Y-43449261D01*
X44547490Y-43635211D01*
X44547490Y-44450510D01*
X44527528Y-44525010D01*
X44472990Y-44579548D01*
X44398490Y-44599510D01*
X44081490Y-44599510D01*
X44006990Y-44579548D01*
X43952452Y-44525010D01*
X43932490Y-44450510D01*
X43932490Y-43635211D01*
X43902242Y-43483146D01*
X43895502Y-43449259D01*
X43833934Y-43300621D01*
X43822948Y-43274099D01*
X43822947Y-43274097D01*
X43822946Y-43274095D01*
X43717612Y-43116452D01*
X43583548Y-42982388D01*
X43425905Y-42877054D01*
X43425902Y-42877053D01*
X43425900Y-42877051D01*
X43267638Y-42811497D01*
X43250741Y-42804498D01*
X43250739Y-42804497D01*
X43250738Y-42804497D01*
X43064788Y-42767510D01*
X42875192Y-42767510D01*
X42689241Y-42804497D01*
X42514079Y-42877051D01*
X42514075Y-42877054D01*
X42356434Y-42982387D01*
X42356428Y-42982391D01*
X42222371Y-43116448D01*
X42222370Y-43116450D01*
X42222368Y-43116452D01*
X42165194Y-43202019D01*
X42117034Y-43274095D01*
X42117031Y-43274099D01*
X42044477Y-43449261D01*
X42007490Y-43635211D01*
X42007490Y-44450510D01*
X41987528Y-44525010D01*
X41932990Y-44579548D01*
X41858490Y-44599510D01*
X41541490Y-44599510D01*
X41466990Y-44579548D01*
X41412452Y-44525010D01*
X41392490Y-44450510D01*
X41392490Y-43635211D01*
X41362242Y-43483146D01*
X41355502Y-43449259D01*
X41293934Y-43300621D01*
X41282948Y-43274099D01*
X41282947Y-43274097D01*
X41282946Y-43274095D01*
X41177612Y-43116452D01*
X41043548Y-42982388D01*
X40885905Y-42877054D01*
X40885902Y-42877053D01*
X40885900Y-42877051D01*
X40727638Y-42811497D01*
X40710741Y-42804498D01*
X40710739Y-42804497D01*
X40710738Y-42804497D01*
X40524788Y-42767510D01*
X40335192Y-42767510D01*
X40335185Y-42767510D01*
X40330105Y-42768010D01*
X40292606Y-42766956D01*
X40168345Y-42747626D01*
X40146776Y-42742605D01*
X39961073Y-42684531D01*
X39942178Y-42677177D01*
X39749465Y-42586623D01*
X39733676Y-42578004D01*
X39532867Y-42452086D01*
X39506664Y-42431210D01*
X38834131Y-41758677D01*
X38795567Y-41691882D01*
X38790490Y-41653318D01*
X38790490Y-37982011D01*
X38810452Y-37907511D01*
X38864990Y-37852973D01*
X38939490Y-37833011D01*
X39013990Y-37852973D01*
X39013991Y-37852974D01*
X39069110Y-37884797D01*
X39069111Y-37884797D01*
X39069114Y-37884799D01*
X39183691Y-37915500D01*
X39302309Y-37915500D01*
X39416886Y-37884799D01*
X39430562Y-37876902D01*
X39454851Y-37865655D01*
X39455934Y-37865268D01*
X39542915Y-37813117D01*
X39566393Y-37796713D01*
X39568924Y-37794668D01*
X39589897Y-37775156D01*
X39650556Y-37710264D01*
X39654801Y-37705581D01*
X39655272Y-37705045D01*
X39659172Y-37700467D01*
X39668375Y-37694126D01*
X39674610Y-37684844D01*
X39697341Y-37674167D01*
X39722683Y-37656707D01*
X39743865Y-37650895D01*
X39746282Y-37650420D01*
X39749146Y-37649956D01*
X39749894Y-37649710D01*
X39754509Y-37648804D01*
X39757976Y-37649039D01*
X39783231Y-37646010D01*
X40258490Y-37646010D01*
X40332990Y-37665972D01*
G37*
%TD.AperFunction*%
%TA.AperFunction,Conductor*%
G36*
X54412349Y-29699551D02*
G01*
X54450913Y-29766346D01*
X54455990Y-29804909D01*
X54455990Y-44450510D01*
X54436028Y-44525010D01*
X54381490Y-44579548D01*
X54306990Y-44599510D01*
X54240990Y-44599510D01*
X54166490Y-44579548D01*
X54111952Y-44525010D01*
X54091990Y-44450510D01*
X54091990Y-43742142D01*
X53341415Y-44492717D01*
X53296432Y-44518687D01*
X53196870Y-44492010D01*
X53129990Y-44492010D01*
X53129989Y-44492009D01*
X53129988Y-44492010D01*
X53063110Y-44492010D01*
X52963534Y-44518690D01*
X52918564Y-44492717D01*
X52167990Y-43742143D01*
X52167990Y-44450510D01*
X52148028Y-44525010D01*
X52093490Y-44579548D01*
X52018990Y-44599510D01*
X51701490Y-44599510D01*
X51626990Y-44579548D01*
X51572452Y-44525010D01*
X51552490Y-44450510D01*
X51552490Y-43635211D01*
X51522242Y-43483146D01*
X51515502Y-43449259D01*
X51487866Y-43382541D01*
X52232653Y-43382541D01*
X52621990Y-43771878D01*
X52621990Y-43796890D01*
X52656609Y-43926091D01*
X52723488Y-44041930D01*
X52818070Y-44136512D01*
X52933909Y-44203391D01*
X53063110Y-44238010D01*
X53088122Y-44238010D01*
X53129989Y-44279877D01*
X53171856Y-44238010D01*
X53196870Y-44238010D01*
X53326071Y-44203391D01*
X53441910Y-44136512D01*
X53536492Y-44041930D01*
X53603371Y-43926091D01*
X53637990Y-43796890D01*
X53637990Y-43771876D01*
X54027325Y-43382541D01*
X53982505Y-43274334D01*
X53877223Y-43116770D01*
X53743230Y-42982777D01*
X53743225Y-42982773D01*
X53585668Y-42877496D01*
X53585660Y-42877492D01*
X53410596Y-42804979D01*
X53410592Y-42804978D01*
X53224739Y-42768010D01*
X53035241Y-42768010D01*
X52849387Y-42804978D01*
X52849383Y-42804979D01*
X52674319Y-42877492D01*
X52674311Y-42877496D01*
X52516754Y-42982773D01*
X52516749Y-42982777D01*
X52382757Y-43116769D01*
X52382753Y-43116774D01*
X52277474Y-43274335D01*
X52232653Y-43382541D01*
X51487866Y-43382541D01*
X51453934Y-43300621D01*
X51442948Y-43274099D01*
X51442947Y-43274097D01*
X51442946Y-43274095D01*
X51337612Y-43116452D01*
X51203548Y-42982388D01*
X51045905Y-42877054D01*
X51045902Y-42877053D01*
X51045900Y-42877051D01*
X50887638Y-42811497D01*
X50870741Y-42804498D01*
X50870739Y-42804497D01*
X50870738Y-42804497D01*
X50684788Y-42767510D01*
X50598911Y-42767510D01*
X50532325Y-42751804D01*
X50523961Y-42747626D01*
X50428334Y-42699856D01*
X50376549Y-42673987D01*
X50360453Y-42664647D01*
X50145247Y-42521096D01*
X50132460Y-42511539D01*
X49905779Y-42322364D01*
X49900465Y-42318662D01*
X49900639Y-42318412D01*
X49874748Y-42298587D01*
X49055168Y-41479007D01*
X49055167Y-41479006D01*
X49008442Y-41459652D01*
X48957401Y-41438510D01*
X47635298Y-41438510D01*
X47607853Y-41434100D01*
X47499033Y-41438130D01*
X47493537Y-41438510D01*
X47492579Y-41438510D01*
X47489875Y-41438510D01*
X47487259Y-41438899D01*
X47484417Y-41439187D01*
X47471530Y-41440910D01*
X47387591Y-41454846D01*
X47370649Y-41458397D01*
X47365711Y-41459652D01*
X47365534Y-41458958D01*
X47291709Y-41461090D01*
X47223829Y-41424471D01*
X47183352Y-41358817D01*
X47181126Y-41281721D01*
X47197068Y-41241608D01*
X47199789Y-41236896D01*
X47230490Y-41122319D01*
X47230490Y-41003701D01*
X47199789Y-40889124D01*
X47199787Y-40889120D01*
X47140483Y-40786403D01*
X47140480Y-40786399D01*
X47140479Y-40786397D01*
X47056603Y-40702521D01*
X47056600Y-40702519D01*
X47056596Y-40702516D01*
X46953879Y-40643212D01*
X46953876Y-40643211D01*
X46839299Y-40612510D01*
X46720681Y-40612510D01*
X46606100Y-40643212D01*
X46575630Y-40660804D01*
X46501130Y-40680765D01*
X46426630Y-40660802D01*
X46372093Y-40606263D01*
X46352132Y-40531763D01*
X46372095Y-40457263D01*
X46395769Y-40426410D01*
X47227529Y-39594651D01*
X47294324Y-39556087D01*
X47332888Y-39551010D01*
X49411493Y-39551010D01*
X49509259Y-39510514D01*
X50029709Y-38990061D01*
X50029713Y-38990059D01*
X50050666Y-38969106D01*
X50050667Y-38969106D01*
X50125494Y-38894279D01*
X50165990Y-38796513D01*
X50165990Y-38349776D01*
X50185952Y-38275276D01*
X50240490Y-38220738D01*
X50314990Y-38200776D01*
X50389490Y-38220738D01*
X50444028Y-38275276D01*
X50452650Y-38292762D01*
X50455191Y-38298897D01*
X50514496Y-38401616D01*
X50514499Y-38401620D01*
X50514501Y-38401623D01*
X50598377Y-38485499D01*
X50598379Y-38485500D01*
X50598383Y-38485503D01*
X50701100Y-38544807D01*
X50701101Y-38544807D01*
X50701104Y-38544809D01*
X50815681Y-38575510D01*
X50934299Y-38575510D01*
X51048876Y-38544809D01*
X51151603Y-38485499D01*
X51235479Y-38401623D01*
X51294789Y-38298896D01*
X51294790Y-38298890D01*
X51294980Y-38298434D01*
X51299178Y-38283763D01*
X51304882Y-38273755D01*
X51335537Y-38181736D01*
X51339099Y-38169862D01*
X51339465Y-38168493D01*
X51342323Y-38156331D01*
X51357879Y-38079758D01*
X51363025Y-38057501D01*
X51394176Y-37995155D01*
X51425197Y-37958285D01*
X51425431Y-37957880D01*
X51426005Y-37957132D01*
X51428941Y-37952950D01*
X51429120Y-37953076D01*
X51449039Y-37927139D01*
X51489709Y-37886469D01*
X51489713Y-37886467D01*
X51510666Y-37865514D01*
X51510667Y-37865514D01*
X51585494Y-37790687D01*
X51625990Y-37692921D01*
X51625990Y-36153199D01*
X52511990Y-36153199D01*
X52511990Y-36271820D01*
X52529716Y-36337973D01*
X52540522Y-36378303D01*
X52542692Y-36386399D01*
X52601996Y-36489116D01*
X52601999Y-36489120D01*
X52602001Y-36489123D01*
X52685877Y-36572999D01*
X52685879Y-36573000D01*
X52685883Y-36573003D01*
X52788600Y-36632307D01*
X52788601Y-36632307D01*
X52788604Y-36632309D01*
X52903181Y-36663010D01*
X53021799Y-36663010D01*
X53136376Y-36632309D01*
X53239103Y-36572999D01*
X53322979Y-36489123D01*
X53382289Y-36386396D01*
X53412990Y-36271819D01*
X53412990Y-36153201D01*
X53382289Y-36038624D01*
X53382287Y-36038620D01*
X53322983Y-35935903D01*
X53322980Y-35935899D01*
X53322979Y-35935897D01*
X53239103Y-35852021D01*
X53239100Y-35852019D01*
X53239096Y-35852016D01*
X53136379Y-35792712D01*
X53136376Y-35792711D01*
X53021799Y-35762010D01*
X52903181Y-35762010D01*
X52788600Y-35792712D01*
X52685883Y-35852016D01*
X52685879Y-35852019D01*
X52601999Y-35935899D01*
X52601996Y-35935903D01*
X52542692Y-36038620D01*
X52511990Y-36153199D01*
X51625990Y-36153199D01*
X51625990Y-34532433D01*
X51645952Y-34457933D01*
X51669631Y-34427074D01*
X53875493Y-32221212D01*
X53875494Y-32221211D01*
X53915990Y-32123445D01*
X53915990Y-32017623D01*
X53915990Y-30645932D01*
X53917016Y-30628480D01*
X53918458Y-30616245D01*
X53921153Y-30606959D01*
X53925490Y-30556625D01*
X53925766Y-30554289D01*
X53932399Y-30537640D01*
X53947353Y-30492828D01*
X53958387Y-30475156D01*
X53960504Y-30471862D01*
X54002591Y-30408317D01*
X54009154Y-30397723D01*
X54009863Y-30396497D01*
X54015756Y-30385555D01*
X54059148Y-30298810D01*
X54062136Y-30292578D01*
X54062465Y-30291861D01*
X54062465Y-30291857D01*
X54065778Y-30284640D01*
X54065887Y-30284690D01*
X54066586Y-30283139D01*
X54066052Y-30282918D01*
X54069787Y-30273899D01*
X54069786Y-30273899D01*
X54069789Y-30273896D01*
X54100490Y-30159319D01*
X54100490Y-30040701D01*
X54072034Y-29934502D01*
X54072034Y-29857378D01*
X54110595Y-29790585D01*
X54155644Y-29745537D01*
X54201632Y-29699550D01*
X54268427Y-29660986D01*
X54345555Y-29660986D01*
X54412349Y-29699551D01*
G37*
%TD.AperFunction*%
%TA.AperFunction,Conductor*%
G36*
X51042849Y-31882170D02*
G01*
X51081413Y-31948965D01*
X51086490Y-31987529D01*
X51086490Y-33042718D01*
X51066528Y-33117218D01*
X51042849Y-33148077D01*
X50060111Y-34130815D01*
X50060109Y-34130816D01*
X50023280Y-34219732D01*
X50019690Y-34228397D01*
X50019690Y-35175610D01*
X49999728Y-35250110D01*
X49976049Y-35280969D01*
X49221487Y-36035531D01*
X49221485Y-36035534D01*
X49180990Y-36133298D01*
X49180990Y-37545818D01*
X49161028Y-37620318D01*
X49106490Y-37674856D01*
X49031990Y-37694818D01*
X48957490Y-37674856D01*
X48926631Y-37651177D01*
X48430385Y-37154931D01*
X48430384Y-37154930D01*
X48387744Y-37137268D01*
X48332802Y-37114510D01*
X48332801Y-37114510D01*
X41996702Y-37114510D01*
X41922202Y-37094548D01*
X41891343Y-37070869D01*
X41464843Y-36644369D01*
X41426279Y-36577574D01*
X41426279Y-36500446D01*
X41464843Y-36433651D01*
X41531638Y-36395087D01*
X41570202Y-36390010D01*
X45421901Y-36390010D01*
X45519667Y-36349514D01*
X46274709Y-35594469D01*
X46274713Y-35594467D01*
X46295666Y-35573514D01*
X46295667Y-35573514D01*
X46370494Y-35498687D01*
X46410990Y-35400921D01*
X46410990Y-34630909D01*
X46430952Y-34556409D01*
X46454631Y-34525550D01*
X47707160Y-33273021D01*
X48966072Y-32014108D01*
X48986623Y-32002243D01*
X49004322Y-31986437D01*
X49019465Y-31983281D01*
X49032865Y-31975546D01*
X49056598Y-31975546D01*
X49079829Y-31970706D01*
X49094523Y-31975546D01*
X49109993Y-31975546D01*
X49153081Y-31994834D01*
X49153668Y-31995218D01*
X49165445Y-32004794D01*
X49165630Y-32004554D01*
X49173375Y-32010497D01*
X49173377Y-32010499D01*
X49197592Y-32024480D01*
X49200331Y-32026061D01*
X49207464Y-32030451D01*
X49229933Y-32045166D01*
X49238688Y-32050337D01*
X49246297Y-32054831D01*
X49246305Y-32054835D01*
X49246323Y-32054846D01*
X49248239Y-32055861D01*
X49248255Y-32055869D01*
X49263093Y-32063382D01*
X49263030Y-32063505D01*
X49274119Y-32068663D01*
X49276104Y-32069809D01*
X49390681Y-32100510D01*
X49442609Y-32100510D01*
X49517109Y-32120472D01*
X49571647Y-32175010D01*
X49591609Y-32249510D01*
X49591609Y-32274646D01*
X49622242Y-32388971D01*
X49622311Y-32389226D01*
X49681615Y-32491943D01*
X49681618Y-32491947D01*
X49681620Y-32491950D01*
X49765496Y-32575826D01*
X49765498Y-32575827D01*
X49765502Y-32575830D01*
X49868219Y-32635134D01*
X49868220Y-32635134D01*
X49868223Y-32635136D01*
X49982800Y-32665837D01*
X50101418Y-32665837D01*
X50215995Y-32635136D01*
X50318722Y-32575826D01*
X50402598Y-32491950D01*
X50461908Y-32389223D01*
X50492609Y-32274646D01*
X50492609Y-32168403D01*
X50512571Y-32093903D01*
X50567109Y-32039365D01*
X50603042Y-32024480D01*
X50662276Y-32008609D01*
X50765003Y-31949299D01*
X50832133Y-31882168D01*
X50898926Y-31843606D01*
X50976054Y-31843606D01*
X51042849Y-31882170D01*
G37*
%TD.AperFunction*%
%TA.AperFunction,Conductor*%
G36*
X52092990Y-27640472D02*
G01*
X52147528Y-27695010D01*
X52167490Y-27769510D01*
X52167490Y-28584808D01*
X52203575Y-28766224D01*
X52204478Y-28770761D01*
X52209428Y-28782712D01*
X52277031Y-28945920D01*
X52277032Y-28945921D01*
X52277034Y-28945925D01*
X52382368Y-29103568D01*
X52516432Y-29237632D01*
X52674075Y-29342966D01*
X52674077Y-29342967D01*
X52674079Y-29342968D01*
X52715947Y-29360310D01*
X52849239Y-29415522D01*
X52849241Y-29415522D01*
X52849242Y-29415523D01*
X52901301Y-29425877D01*
X52915224Y-29428647D01*
X52919710Y-29430859D01*
X52924714Y-29430859D01*
X52954033Y-29447784D01*
X52984399Y-29462759D01*
X52987179Y-29466919D01*
X52991510Y-29469420D01*
X53008434Y-29498730D01*
X53027249Y-29526888D01*
X53027576Y-29531880D01*
X53030078Y-29536213D01*
X53030079Y-29570072D01*
X53032294Y-29603851D01*
X53030081Y-29608337D01*
X53030082Y-29613341D01*
X53013156Y-29642660D01*
X52998182Y-29673026D01*
X52991521Y-29680137D01*
X52981861Y-29689798D01*
X52981856Y-29689804D01*
X52927987Y-29743673D01*
X52927985Y-29743676D01*
X52887490Y-29841440D01*
X52887490Y-31850611D01*
X52867528Y-31925111D01*
X52843849Y-31955970D01*
X51871849Y-32927970D01*
X51805054Y-32966534D01*
X51727926Y-32966534D01*
X51661131Y-32927970D01*
X51622567Y-32861175D01*
X51617490Y-32822611D01*
X51617490Y-31358199D01*
X51616853Y-31356660D01*
X51610197Y-31340592D01*
X51577070Y-31260616D01*
X50486384Y-30169930D01*
X50460769Y-30159320D01*
X50388802Y-30129510D01*
X50388801Y-30129510D01*
X49944720Y-30129510D01*
X49870220Y-30109548D01*
X49815682Y-30055010D01*
X49795720Y-29980510D01*
X49815682Y-29906010D01*
X49819788Y-29898898D01*
X49820132Y-29897616D01*
X49850490Y-29784319D01*
X49850490Y-29665701D01*
X49819789Y-29551124D01*
X49814066Y-29541211D01*
X49802719Y-29521557D01*
X49800907Y-29514796D01*
X49796431Y-29509412D01*
X49791025Y-29477918D01*
X49782756Y-29447057D01*
X49784568Y-29440294D01*
X49783384Y-29433395D01*
X49794448Y-29403419D01*
X49802718Y-29372557D01*
X49807667Y-29367607D01*
X49810092Y-29361039D01*
X49834665Y-29340608D01*
X49857255Y-29318019D01*
X49864015Y-29316207D01*
X49869400Y-29311731D01*
X49900893Y-29306325D01*
X49931755Y-29298056D01*
X49945409Y-29298683D01*
X49956228Y-29299679D01*
X49956691Y-29299722D01*
X49978162Y-29303295D01*
X50112168Y-29335815D01*
X50134047Y-29342954D01*
X50134073Y-29342964D01*
X50134075Y-29342966D01*
X50309239Y-29415522D01*
X50358350Y-29425290D01*
X50370290Y-29429387D01*
X50372281Y-29429973D01*
X50378839Y-29431785D01*
X50393053Y-29432193D01*
X50495192Y-29452510D01*
X50495196Y-29452510D01*
X50684788Y-29452510D01*
X50870741Y-29415522D01*
X51045905Y-29342966D01*
X51203548Y-29237632D01*
X51337612Y-29103568D01*
X51442946Y-28945925D01*
X51515502Y-28770761D01*
X51552490Y-28584808D01*
X51552490Y-27769510D01*
X51572452Y-27695010D01*
X51626990Y-27640472D01*
X51701490Y-27620510D01*
X52018490Y-27620510D01*
X52092990Y-27640472D01*
G37*
%TD.AperFunction*%
%TA.AperFunction,Conductor*%
G36*
X47013490Y-27640472D02*
G01*
X47068028Y-27695010D01*
X47087990Y-27769510D01*
X47087990Y-28477876D01*
X47838564Y-27727302D01*
X47883545Y-27701332D01*
X47983110Y-27728010D01*
X48049990Y-27728010D01*
X48050696Y-27728716D01*
X48089260Y-27795511D01*
X48089260Y-27872639D01*
X48050696Y-27939434D01*
X48008120Y-27982010D01*
X47983110Y-27982010D01*
X47853909Y-28016629D01*
X47738070Y-28083508D01*
X47643488Y-28178090D01*
X47576609Y-28293929D01*
X47541990Y-28423130D01*
X47541990Y-28448140D01*
X47152653Y-28837477D01*
X47197472Y-28945680D01*
X47197476Y-28945688D01*
X47302753Y-29103245D01*
X47302757Y-29103250D01*
X47436749Y-29237242D01*
X47436754Y-29237246D01*
X47488648Y-29271921D01*
X47510963Y-29297367D01*
X47534906Y-29321310D01*
X47536202Y-29326147D01*
X47539502Y-29329910D01*
X47546105Y-29363106D01*
X47554868Y-29395810D01*
X47553572Y-29400645D01*
X47554549Y-29405556D01*
X47543667Y-29437612D01*
X47534906Y-29470310D01*
X47531366Y-29473849D01*
X47529757Y-29478590D01*
X47504310Y-29500905D01*
X47480368Y-29524848D01*
X47475530Y-29526144D01*
X47471768Y-29529444D01*
X47405868Y-29544810D01*
X47376717Y-29544810D01*
X47345066Y-29540311D01*
X47344941Y-29540987D01*
X47337744Y-29539646D01*
X47289727Y-29535507D01*
X47223610Y-29513444D01*
X47205929Y-29502404D01*
X47202572Y-29500245D01*
X47139103Y-29458211D01*
X47128488Y-29451634D01*
X47127296Y-29450945D01*
X47123872Y-29449101D01*
X47116334Y-29445041D01*
X47029581Y-29401646D01*
X47029552Y-29401632D01*
X47023300Y-29398635D01*
X47015351Y-29394992D01*
X47015402Y-29394880D01*
X47013915Y-29394209D01*
X47013693Y-29394746D01*
X47004674Y-29391010D01*
X46890102Y-29360310D01*
X46890099Y-29360310D01*
X46771481Y-29360310D01*
X46656900Y-29391012D01*
X46554183Y-29450316D01*
X46554179Y-29450319D01*
X46470299Y-29534199D01*
X46470296Y-29534203D01*
X46410992Y-29636920D01*
X46380290Y-29751499D01*
X46380290Y-29870118D01*
X46381325Y-29877982D01*
X46377522Y-29906863D01*
X46377522Y-29935991D01*
X46372553Y-29944596D01*
X46371256Y-29954450D01*
X46353523Y-29977558D01*
X46338958Y-30002786D01*
X46330350Y-30007755D01*
X46324301Y-30015639D01*
X46297389Y-30026785D01*
X46272163Y-30041350D01*
X46262226Y-30041350D01*
X46253044Y-30045153D01*
X46224163Y-30041350D01*
X46195035Y-30041350D01*
X46186429Y-30036381D01*
X46176576Y-30035084D01*
X46128240Y-30002786D01*
X46022417Y-29896963D01*
X45983853Y-29830168D01*
X45983853Y-29753040D01*
X45986069Y-29745558D01*
X46002090Y-29696279D01*
X46004057Y-29690624D01*
X46082028Y-29480327D01*
X46084890Y-29473184D01*
X46160099Y-29298817D01*
X46164457Y-29289603D01*
X46234935Y-29152899D01*
X46241888Y-29140836D01*
X46310416Y-29033871D01*
X46313748Y-29025485D01*
X46328315Y-28997752D01*
X46362946Y-28945925D01*
X46435502Y-28770761D01*
X46472490Y-28584808D01*
X46472490Y-27769510D01*
X46492452Y-27695010D01*
X46546990Y-27640472D01*
X46621490Y-27620510D01*
X46938990Y-27620510D01*
X47013490Y-27640472D01*
G37*
%TD.AperFunction*%
%TD*%
%TA.AperFunction,Conductor*%
%TO.N,Net-(J1-D1-)*%
G36*
X34832584Y-34876075D02*
G01*
X35048177Y-34964446D01*
X35054531Y-34970754D01*
X35054564Y-34970834D01*
X35142923Y-35186399D01*
X35142890Y-35195353D01*
X35136534Y-35201662D01*
X35135795Y-35201936D01*
X35043776Y-35232591D01*
X35042407Y-35232957D01*
X34963136Y-35249062D01*
X34895192Y-35264773D01*
X34895190Y-35264774D01*
X34826602Y-35298024D01*
X34826600Y-35298025D01*
X34752976Y-35359968D01*
X34744439Y-35362672D01*
X34737171Y-35359288D01*
X34659721Y-35281838D01*
X34656294Y-35273565D01*
X34659040Y-35266035D01*
X34720983Y-35192406D01*
X34754234Y-35123818D01*
X34769949Y-35055860D01*
X34786051Y-34976597D01*
X34786417Y-34975232D01*
X34790011Y-34964445D01*
X34817074Y-34883210D01*
X34822939Y-34876447D01*
X34831871Y-34875811D01*
X34832584Y-34876075D01*
G37*
%TD.AperFunction*%
%TD*%
%TA.AperFunction,Conductor*%
%TO.N,/GPIO21{slash}TX*%
G36*
X50538023Y-37100526D02*
G01*
X50615473Y-37177976D01*
X50618900Y-37186249D01*
X50616153Y-37193781D01*
X50554210Y-37267405D01*
X50554209Y-37267407D01*
X50520959Y-37335995D01*
X50520958Y-37335997D01*
X50505247Y-37403941D01*
X50489142Y-37483212D01*
X50488776Y-37484581D01*
X50458121Y-37576600D01*
X50452255Y-37583366D01*
X50443323Y-37584002D01*
X50442584Y-37583728D01*
X50227019Y-37495369D01*
X50220663Y-37489060D01*
X50132270Y-37273413D01*
X50132303Y-37264461D01*
X50138658Y-37258152D01*
X50139368Y-37257888D01*
X50231420Y-37227221D01*
X50232782Y-37226856D01*
X50312045Y-37210754D01*
X50380003Y-37195039D01*
X50448591Y-37161788D01*
X50522220Y-37099845D01*
X50530755Y-37097142D01*
X50538023Y-37100526D01*
G37*
%TD.AperFunction*%
%TD*%
%TA.AperFunction,Conductor*%
%TO.N,/GPIO10*%
G36*
X44175751Y-34680855D02*
G01*
X44212407Y-34707129D01*
X44257081Y-34739152D01*
X44257085Y-34739154D01*
X44336243Y-34753313D01*
X44415641Y-34744865D01*
X44416333Y-34744813D01*
X44505521Y-34741047D01*
X44508814Y-34741378D01*
X44607504Y-34765786D01*
X44614711Y-34771098D01*
X44616052Y-34779952D01*
X44615520Y-34781580D01*
X44527554Y-34996185D01*
X44521245Y-35002541D01*
X44521165Y-35002574D01*
X44304724Y-35091293D01*
X44295770Y-35091260D01*
X44289512Y-35085026D01*
X44255662Y-35005016D01*
X44254460Y-35002574D01*
X44224500Y-34941690D01*
X44190629Y-34890919D01*
X44177140Y-34875532D01*
X44144132Y-34837877D01*
X44144126Y-34837871D01*
X44144120Y-34837864D01*
X44083195Y-34775975D01*
X44079834Y-34767676D01*
X44083260Y-34759496D01*
X44160665Y-34682091D01*
X44168937Y-34678665D01*
X44175751Y-34680855D01*
G37*
%TD.AperFunction*%
%TD*%
%TA.AperFunction,Conductor*%
%TO.N,/GPIO4*%
G36*
X47349168Y-30892082D02*
G01*
X47425917Y-30968831D01*
X47429344Y-30977104D01*
X47426600Y-30984632D01*
X47364668Y-31058308D01*
X47331506Y-31126974D01*
X47315913Y-31195001D01*
X47299908Y-31274346D01*
X47299541Y-31275725D01*
X47268912Y-31367798D01*
X47263049Y-31374567D01*
X47254117Y-31375207D01*
X47253373Y-31374931D01*
X47037814Y-31286574D01*
X47031458Y-31280265D01*
X47031425Y-31280185D01*
X46996508Y-31195001D01*
X46943068Y-31064625D01*
X46943101Y-31055672D01*
X46949457Y-31049363D01*
X46950201Y-31049087D01*
X47042286Y-31018452D01*
X47043643Y-31018091D01*
X47122983Y-31002087D01*
X47122982Y-31002087D01*
X47122988Y-31002086D01*
X47131656Y-31000099D01*
X47191023Y-30986492D01*
X47259685Y-30953333D01*
X47333367Y-30891398D01*
X47341905Y-30888699D01*
X47349168Y-30892082D01*
G37*
%TD.AperFunction*%
%TD*%
%TA.AperFunction,Conductor*%
%TO.N,/CHIP_EN*%
G36*
X46936938Y-29585110D02*
G01*
X46937647Y-29585435D01*
X46999469Y-29616359D01*
X47024400Y-29628830D01*
X47025626Y-29629539D01*
X47093056Y-29674197D01*
X47152221Y-29711139D01*
X47188226Y-29723632D01*
X47224225Y-29736123D01*
X47224226Y-29736123D01*
X47224232Y-29736125D01*
X47320095Y-29744388D01*
X47328043Y-29748513D01*
X47330790Y-29756045D01*
X47330790Y-29865574D01*
X47327363Y-29873847D01*
X47320095Y-29877231D01*
X47259609Y-29882444D01*
X47224232Y-29885493D01*
X47224230Y-29885493D01*
X47224225Y-29885494D01*
X47152225Y-29910478D01*
X47152219Y-29910480D01*
X47093059Y-29947419D01*
X47025626Y-29992079D01*
X47024400Y-29992788D01*
X46937655Y-30036180D01*
X46928723Y-30036816D01*
X46921957Y-30030950D01*
X46921628Y-30030233D01*
X46871505Y-29910478D01*
X46831679Y-29815325D01*
X46831647Y-29806373D01*
X46921628Y-29591385D01*
X46927984Y-29585077D01*
X46936938Y-29585110D01*
G37*
%TD.AperFunction*%
%TD*%
%TA.AperFunction,Conductor*%
%TO.N,/GPIO7*%
G36*
X45033822Y-32579869D02*
G01*
X45034151Y-32580586D01*
X45124099Y-32795493D01*
X45124132Y-32804447D01*
X45124099Y-32804527D01*
X45034151Y-33019433D01*
X45027795Y-33025742D01*
X45018841Y-33025709D01*
X45018124Y-33025380D01*
X44931378Y-32981988D01*
X44930152Y-32981279D01*
X44862718Y-32936619D01*
X44803558Y-32899680D01*
X44803552Y-32899678D01*
X44731552Y-32874694D01*
X44731547Y-32874693D01*
X44731546Y-32874693D01*
X44692265Y-32871307D01*
X44635685Y-32866431D01*
X44627737Y-32862306D01*
X44624990Y-32854774D01*
X44624990Y-32745245D01*
X44628417Y-32736972D01*
X44635684Y-32733588D01*
X44731546Y-32725325D01*
X44803557Y-32700339D01*
X44862722Y-32663397D01*
X44930156Y-32618736D01*
X44931373Y-32618032D01*
X45018125Y-32574638D01*
X45027056Y-32574003D01*
X45033822Y-32579869D01*
G37*
%TD.AperFunction*%
%TD*%
%TA.AperFunction,Conductor*%
%TO.N,/GPIO2*%
G36*
X49352956Y-31423104D02*
G01*
X49358507Y-31429047D01*
X49448811Y-31644799D01*
X49448844Y-31653753D01*
X49448821Y-31653810D01*
X49359735Y-31867959D01*
X49353393Y-31874281D01*
X49344438Y-31874268D01*
X49342522Y-31873253D01*
X49260964Y-31819839D01*
X49258781Y-31817992D01*
X49189567Y-31743091D01*
X49130973Y-31679916D01*
X49130971Y-31679915D01*
X49071202Y-31656332D01*
X49071199Y-31656333D01*
X49005260Y-31694631D01*
X48996385Y-31695823D01*
X48991111Y-31692787D01*
X48913870Y-31615546D01*
X48910443Y-31607273D01*
X48913870Y-31599000D01*
X48914617Y-31598315D01*
X48994989Y-31530795D01*
X48997430Y-31529217D01*
X49071466Y-31493553D01*
X49073935Y-31492689D01*
X49148394Y-31475725D01*
X49148647Y-31475671D01*
X49237715Y-31457791D01*
X49344024Y-31422461D01*
X49352956Y-31423104D01*
G37*
%TD.AperFunction*%
%TD*%
%TA.AperFunction,Conductor*%
%TO.N,/GPIO5*%
G36*
X46374589Y-30963055D02*
G01*
X46377972Y-30970318D01*
X46386277Y-31066208D01*
X46386279Y-31066214D01*
X46411383Y-31138213D01*
X46411384Y-31138216D01*
X46448456Y-31197335D01*
X46493244Y-31264759D01*
X46493960Y-31265994D01*
X46537409Y-31352759D01*
X46538049Y-31361691D01*
X46532186Y-31368460D01*
X46531464Y-31368791D01*
X46316563Y-31458737D01*
X46307609Y-31458770D01*
X46307529Y-31458737D01*
X46092627Y-31368791D01*
X46086318Y-31362435D01*
X46086351Y-31353481D01*
X46086667Y-31352790D01*
X46130133Y-31265987D01*
X46130842Y-31264765D01*
X46175625Y-31197350D01*
X46212709Y-31138211D01*
X46237813Y-31066212D01*
X46246120Y-30970318D01*
X46250248Y-30962372D01*
X46257776Y-30959628D01*
X46366316Y-30959628D01*
X46374589Y-30963055D01*
G37*
%TD.AperFunction*%
%TD*%
%TA.AperFunction,Conductor*%
%TO.N,Net-(J1-D1+)*%
G36*
X34883523Y-37084556D02*
G01*
X34884324Y-37085283D01*
X35049530Y-37249559D01*
X35052980Y-37257822D01*
X35052980Y-37257902D01*
X35052049Y-37490733D01*
X35048589Y-37498992D01*
X35040302Y-37502386D01*
X35039739Y-37502370D01*
X34938117Y-37497067D01*
X34936691Y-37496905D01*
X34857049Y-37482834D01*
X34856299Y-37482675D01*
X34787298Y-37465755D01*
X34787282Y-37465751D01*
X34775548Y-37463677D01*
X34706567Y-37451490D01*
X34692662Y-37450764D01*
X34603053Y-37446088D01*
X34594970Y-37442235D01*
X34591963Y-37434404D01*
X34591963Y-37324697D01*
X34595390Y-37316424D01*
X34602051Y-37313108D01*
X34679927Y-37302292D01*
X34733932Y-37268326D01*
X34772281Y-37216641D01*
X34812876Y-37151905D01*
X34813750Y-37150693D01*
X34867053Y-37086128D01*
X34874961Y-37081932D01*
X34883523Y-37084556D01*
G37*
%TD.AperFunction*%
%TD*%
%TA.AperFunction,Conductor*%
%TO.N,Net-(J1-D1-)*%
G36*
X35048176Y-34720642D02*
G01*
X35052033Y-34728724D01*
X35052049Y-34729292D01*
X35052980Y-34962117D01*
X35049586Y-34970404D01*
X35049530Y-34970460D01*
X34884328Y-35134732D01*
X34876045Y-35138136D01*
X34867782Y-35134686D01*
X34867052Y-35133881D01*
X34813732Y-35069241D01*
X34812839Y-35068000D01*
X34772286Y-35003164D01*
X34772281Y-35003157D01*
X34772278Y-35003152D01*
X34733969Y-34951336D01*
X34733968Y-34951335D01*
X34733967Y-34951334D01*
X34679978Y-34917268D01*
X34602049Y-34906414D01*
X34594328Y-34901879D01*
X34591963Y-34894826D01*
X34591963Y-34786110D01*
X34595390Y-34777837D01*
X34603046Y-34774426D01*
X34706576Y-34768978D01*
X34744323Y-34762250D01*
X34787250Y-34754600D01*
X34787259Y-34754597D01*
X34787280Y-34754594D01*
X34856341Y-34737510D01*
X34857052Y-34737359D01*
X34936671Y-34723169D01*
X34938100Y-34723004D01*
X35039735Y-34717655D01*
X35048176Y-34720642D01*
G37*
%TD.AperFunction*%
%TD*%
%TA.AperFunction,Conductor*%
%TO.N,/GPIO10*%
G36*
X39520136Y-29915315D02*
G01*
X39520835Y-29915635D01*
X39607621Y-29959094D01*
X39608856Y-29959810D01*
X39676280Y-30004598D01*
X39735400Y-30041670D01*
X39735402Y-30041670D01*
X39735406Y-30041673D01*
X39807404Y-30066777D01*
X39855806Y-30070969D01*
X39859270Y-30071816D01*
X39870600Y-30076509D01*
X39870601Y-30076509D01*
X39870603Y-30076510D01*
X39870605Y-30076510D01*
X39902290Y-30076510D01*
X39910563Y-30079937D01*
X39913990Y-30088210D01*
X39913990Y-30195279D01*
X39910563Y-30203552D01*
X39903300Y-30206935D01*
X39807407Y-30215241D01*
X39807401Y-30215243D01*
X39735403Y-30240347D01*
X39735400Y-30240348D01*
X39676280Y-30277420D01*
X39608856Y-30322208D01*
X39607621Y-30322924D01*
X39520857Y-30366372D01*
X39511925Y-30367012D01*
X39505156Y-30361149D01*
X39504831Y-30360441D01*
X39414879Y-30145525D01*
X39414847Y-30136573D01*
X39504826Y-29921590D01*
X39511182Y-29915282D01*
X39520136Y-29915315D01*
G37*
%TD.AperFunction*%
%TD*%
%TA.AperFunction,Conductor*%
%TO.N,/GPIO2*%
G36*
X39416571Y-42621722D02*
G01*
X39642669Y-42763497D01*
X39876664Y-42873449D01*
X40063492Y-42931875D01*
X40110651Y-42946623D01*
X40110652Y-42946623D01*
X40110658Y-42946625D01*
X40344653Y-42983026D01*
X40344659Y-42983025D01*
X40344660Y-42983026D01*
X40347690Y-42983021D01*
X40564385Y-42982674D01*
X40572663Y-42986088D01*
X40576103Y-42994355D01*
X40575881Y-42996644D01*
X40431913Y-43724566D01*
X40426946Y-43732017D01*
X40424900Y-43733110D01*
X39681131Y-44040213D01*
X39672176Y-44040203D01*
X39665852Y-44033864D01*
X39665195Y-44031704D01*
X39597742Y-43695311D01*
X39527494Y-43386453D01*
X39457246Y-43119064D01*
X39419180Y-42996644D01*
X39386999Y-42893147D01*
X39386995Y-42893137D01*
X39319446Y-42715773D01*
X39319704Y-42706822D01*
X39322104Y-42703339D01*
X39402083Y-42623360D01*
X39410355Y-42619934D01*
X39416571Y-42621722D01*
G37*
%TD.AperFunction*%
%TD*%
%TA.AperFunction,Conductor*%
%TO.N,/GPIO6*%
G36*
X44019993Y-31823133D02*
G01*
X44093669Y-31885064D01*
X44093672Y-31885065D01*
X44093674Y-31885067D01*
X44162336Y-31918226D01*
X44208094Y-31928714D01*
X44230370Y-31933820D01*
X44258024Y-31939398D01*
X44309712Y-31949824D01*
X44311077Y-31950187D01*
X44382110Y-31973818D01*
X44403159Y-31980821D01*
X44409928Y-31986684D01*
X44410568Y-31995616D01*
X44410292Y-31996360D01*
X44321935Y-32211919D01*
X44315626Y-32218275D01*
X44315546Y-32218308D01*
X44099987Y-32306665D01*
X44091033Y-32306632D01*
X44084724Y-32300276D01*
X44084448Y-32299532D01*
X44077445Y-32278483D01*
X44053814Y-32207450D01*
X44053450Y-32206079D01*
X44037447Y-32126743D01*
X44032341Y-32104467D01*
X44021853Y-32058709D01*
X43988694Y-31990047D01*
X43988692Y-31990045D01*
X43988691Y-31990042D01*
X43926760Y-31916366D01*
X43924060Y-31907828D01*
X43927442Y-31900566D01*
X44004193Y-31823815D01*
X44012465Y-31820389D01*
X44019993Y-31823133D01*
G37*
%TD.AperFunction*%
%TD*%
%TA.AperFunction,Conductor*%
%TO.N,/GPIO1*%
G36*
X50055406Y-31728753D02*
G01*
X50058732Y-31735495D01*
X50071564Y-31832703D01*
X50108542Y-31901420D01*
X50108547Y-31901427D01*
X50159881Y-31955757D01*
X50160109Y-31956005D01*
X50216766Y-32019539D01*
X50218246Y-32021615D01*
X50266680Y-32108223D01*
X50267727Y-32117117D01*
X50262179Y-32124146D01*
X50260985Y-32124727D01*
X50046626Y-32214446D01*
X50037672Y-32214479D01*
X50037592Y-32214446D01*
X49822201Y-32124296D01*
X49815892Y-32117940D01*
X49815925Y-32108986D01*
X49816021Y-32108763D01*
X49853272Y-32025584D01*
X49853344Y-32025427D01*
X49885666Y-31958032D01*
X49908461Y-31898217D01*
X49921950Y-31826998D01*
X49925901Y-31736515D01*
X49929686Y-31728400D01*
X49937590Y-31725326D01*
X50047133Y-31725326D01*
X50055406Y-31728753D01*
G37*
%TD.AperFunction*%
%TD*%
%TA.AperFunction,Conductor*%
%TO.N,/GPIO9{slash}BOOT*%
G36*
X47623852Y-41642577D02*
G01*
X47627583Y-41650718D01*
X47627591Y-41651151D01*
X47627591Y-41760725D01*
X47624164Y-41768998D01*
X47618550Y-41772119D01*
X47550326Y-41788041D01*
X47518513Y-41837126D01*
X47518511Y-41837133D01*
X47510668Y-41909735D01*
X47510665Y-41909771D01*
X47505373Y-41997372D01*
X47505044Y-41999508D01*
X47484250Y-42082543D01*
X47478916Y-42089736D01*
X47470058Y-42091051D01*
X47468439Y-42090517D01*
X47253503Y-42001871D01*
X47247161Y-41995549D01*
X47158644Y-41779591D01*
X47158677Y-41770640D01*
X47164758Y-41764447D01*
X47267042Y-41719454D01*
X47267045Y-41719452D01*
X47267101Y-41719428D01*
X47296930Y-41705914D01*
X47347705Y-41682912D01*
X47348661Y-41682531D01*
X47419355Y-41658052D01*
X47421245Y-41657572D01*
X47505170Y-41643638D01*
X47506638Y-41643489D01*
X47615458Y-41639459D01*
X47623852Y-41642577D01*
G37*
%TD.AperFunction*%
%TD*%
%TA.AperFunction,Conductor*%
%TO.N,/GPIO7*%
G36*
X41186285Y-28291611D02*
G01*
X41191722Y-28298726D01*
X41192115Y-28301635D01*
X41195059Y-28655184D01*
X41195059Y-28655191D01*
X41195058Y-28655191D01*
X41197926Y-28960494D01*
X41198129Y-28982029D01*
X41201199Y-29267084D01*
X41203066Y-29415063D01*
X41204269Y-29510334D01*
X41207263Y-29706874D01*
X41203962Y-29715198D01*
X41203837Y-29715325D01*
X41122841Y-29796321D01*
X41114568Y-29799748D01*
X41106437Y-29796461D01*
X40893095Y-29590250D01*
X40671482Y-29415061D01*
X40671473Y-29415055D01*
X40671468Y-29415052D01*
X40449874Y-29278889D01*
X40449870Y-29278887D01*
X40228264Y-29181734D01*
X40228263Y-29181733D01*
X40228257Y-29181731D01*
X40228253Y-29181729D01*
X40228245Y-29181727D01*
X40022504Y-29127750D01*
X40015371Y-29122336D01*
X40014156Y-29113464D01*
X40015734Y-29109949D01*
X40426831Y-28492982D01*
X40433557Y-28488166D01*
X41177411Y-28290425D01*
X41186285Y-28291611D01*
G37*
%TD.AperFunction*%
%TD*%
%TA.AperFunction,Conductor*%
%TO.N,/GPIO5*%
G36*
X45515793Y-28493655D02*
G01*
X46134031Y-28906978D01*
X46139004Y-28914425D01*
X46137380Y-28923016D01*
X46059896Y-29043963D01*
X46059888Y-29043977D01*
X45976225Y-29206256D01*
X45976223Y-29206259D01*
X45892553Y-29400240D01*
X45892552Y-29400243D01*
X45808879Y-29625918D01*
X45726071Y-29880628D01*
X45723217Y-29885284D01*
X45644559Y-29963942D01*
X45636286Y-29967369D01*
X45628013Y-29963942D01*
X45625909Y-29961074D01*
X45481905Y-29684609D01*
X45330531Y-29433116D01*
X45179157Y-29220742D01*
X45027783Y-29047489D01*
X44887746Y-28923400D01*
X44883826Y-28915348D01*
X44886748Y-28906884D01*
X44888984Y-28904929D01*
X45502777Y-28493661D01*
X45511558Y-28491904D01*
X45515793Y-28493655D01*
G37*
%TD.AperFunction*%
%TD*%
%TA.AperFunction,Conductor*%
%TO.N,/CHIP_EN*%
G36*
X49837938Y-28009514D02*
G01*
X49839738Y-28010451D01*
X50583947Y-28484999D01*
X50589079Y-28492334D01*
X50589129Y-28497153D01*
X50444069Y-29223651D01*
X50439088Y-29231093D01*
X50430304Y-29232834D01*
X50428313Y-29232248D01*
X50425376Y-29231093D01*
X50221364Y-29150852D01*
X50221359Y-29150850D01*
X50001393Y-29097469D01*
X50001397Y-29097469D01*
X49781425Y-29077222D01*
X49561465Y-29090110D01*
X49561460Y-29090111D01*
X49347692Y-29134837D01*
X49338892Y-29133177D01*
X49337023Y-29131658D01*
X49256485Y-29051120D01*
X49253058Y-29042847D01*
X49255832Y-29035283D01*
X49364691Y-28906844D01*
X49364695Y-28906837D01*
X49364697Y-28906836D01*
X49480512Y-28734466D01*
X49480512Y-28734465D01*
X49480516Y-28734460D01*
X49596340Y-28526352D01*
X49712165Y-28282518D01*
X49822651Y-28015844D01*
X49828984Y-28009513D01*
X49837938Y-28009514D01*
G37*
%TD.AperFunction*%
%TD*%
%TA.AperFunction,Conductor*%
%TO.N,Net-(J1-D1+)*%
G36*
X35366828Y-36860731D02*
G01*
X35444278Y-36938181D01*
X35447705Y-36946454D01*
X35444958Y-36953986D01*
X35383015Y-37027610D01*
X35383014Y-37027612D01*
X35349764Y-37096200D01*
X35349763Y-37096202D01*
X35334052Y-37164146D01*
X35317947Y-37243417D01*
X35317581Y-37244786D01*
X35286926Y-37336805D01*
X35281060Y-37343571D01*
X35272128Y-37344207D01*
X35271389Y-37343933D01*
X35055824Y-37255574D01*
X35049468Y-37249265D01*
X34961075Y-37033618D01*
X34961108Y-37024666D01*
X34967463Y-37018357D01*
X34968173Y-37018093D01*
X35060225Y-36987426D01*
X35061587Y-36987061D01*
X35140850Y-36970959D01*
X35208808Y-36955244D01*
X35277396Y-36921993D01*
X35351025Y-36860050D01*
X35359560Y-36857347D01*
X35366828Y-36860731D01*
G37*
%TD.AperFunction*%
%TD*%
%TA.AperFunction,Conductor*%
%TO.N,/USB_P*%
G36*
X49025612Y-38032399D02*
G01*
X49099288Y-38094330D01*
X49099291Y-38094331D01*
X49099293Y-38094333D01*
X49167955Y-38127492D01*
X49213713Y-38137980D01*
X49235989Y-38143086D01*
X49263643Y-38148664D01*
X49315331Y-38159090D01*
X49316696Y-38159453D01*
X49387729Y-38183084D01*
X49408778Y-38190087D01*
X49415547Y-38195950D01*
X49416187Y-38204882D01*
X49415911Y-38205626D01*
X49327554Y-38421185D01*
X49321245Y-38427541D01*
X49321165Y-38427574D01*
X49105606Y-38515931D01*
X49096652Y-38515898D01*
X49090343Y-38509542D01*
X49090067Y-38508798D01*
X49083064Y-38487749D01*
X49059433Y-38416716D01*
X49059069Y-38415345D01*
X49043066Y-38336009D01*
X49037960Y-38313733D01*
X49027472Y-38267975D01*
X48994313Y-38199313D01*
X48994311Y-38199311D01*
X48994310Y-38199308D01*
X48932379Y-38125632D01*
X48929679Y-38117094D01*
X48933061Y-38109832D01*
X49009812Y-38033081D01*
X49018084Y-38029655D01*
X49025612Y-38032399D01*
G37*
%TD.AperFunction*%
%TD*%
%TA.AperFunction,Conductor*%
%TO.N,/GPIO6*%
G36*
X42976497Y-28493368D02*
G01*
X43343578Y-28739223D01*
X43593043Y-28906305D01*
X43598010Y-28913756D01*
X43596253Y-28922537D01*
X43595706Y-28923288D01*
X43489851Y-29057009D01*
X43489843Y-29057020D01*
X43376137Y-29237431D01*
X43376134Y-29237437D01*
X43262431Y-29454615D01*
X43262415Y-29454650D01*
X43148714Y-29708592D01*
X43148703Y-29708619D01*
X43037899Y-29991930D01*
X43031694Y-29998386D01*
X43027003Y-29999368D01*
X42912977Y-29999368D01*
X42904704Y-29995941D01*
X42902081Y-29991930D01*
X42791275Y-29708619D01*
X42791264Y-29708592D01*
X42677563Y-29454650D01*
X42677547Y-29454615D01*
X42563844Y-29237437D01*
X42563841Y-29237431D01*
X42450135Y-29057020D01*
X42450133Y-29057018D01*
X42450126Y-29057006D01*
X42344272Y-28923287D01*
X42341825Y-28914674D01*
X42346185Y-28906852D01*
X42346936Y-28906305D01*
X42963480Y-28493369D01*
X42972260Y-28491613D01*
X42976497Y-28493368D01*
G37*
%TD.AperFunction*%
%TD*%
%TA.AperFunction,Conductor*%
%TO.N,/GPIO9{slash}BOOT*%
G36*
X49774111Y-42480142D02*
G01*
X50015390Y-42681500D01*
X50264876Y-42847917D01*
X50514362Y-42972545D01*
X50763848Y-43055382D01*
X50995442Y-43093486D01*
X51003050Y-43098211D01*
X51005088Y-43106930D01*
X51003280Y-43111519D01*
X50592964Y-43727313D01*
X50586800Y-43731966D01*
X49841981Y-43970824D01*
X49833056Y-43970087D01*
X49827267Y-43963256D01*
X49826750Y-43960670D01*
X49797052Y-43609916D01*
X49797046Y-43609853D01*
X49766103Y-43286186D01*
X49735159Y-43004308D01*
X49704216Y-42764221D01*
X49674189Y-42571795D01*
X49676299Y-42563094D01*
X49677470Y-42561726D01*
X49758344Y-42480852D01*
X49766616Y-42477426D01*
X49774111Y-42480142D01*
G37*
%TD.AperFunction*%
%TD*%
%TA.AperFunction,Conductor*%
%TO.N,/GPIO20{slash}RX*%
G36*
X53869413Y-30190848D02*
G01*
X53875722Y-30197204D01*
X53875689Y-30206158D01*
X53875360Y-30206875D01*
X53831968Y-30293620D01*
X53831259Y-30294846D01*
X53786599Y-30362279D01*
X53749660Y-30421439D01*
X53749658Y-30421445D01*
X53724674Y-30493445D01*
X53716412Y-30589315D01*
X53712287Y-30597263D01*
X53704755Y-30600010D01*
X53595225Y-30600010D01*
X53586952Y-30596583D01*
X53583568Y-30589315D01*
X53575305Y-30493452D01*
X53550319Y-30421441D01*
X53513377Y-30362276D01*
X53468719Y-30294846D01*
X53468010Y-30293620D01*
X53424619Y-30206875D01*
X53423983Y-30197943D01*
X53429849Y-30191177D01*
X53430553Y-30190853D01*
X53645474Y-30100899D01*
X53654427Y-30100867D01*
X53869413Y-30190848D01*
G37*
%TD.AperFunction*%
%TD*%
%TA.AperFunction,Conductor*%
%TO.N,/USB_N*%
G36*
X48630823Y-38007389D02*
G01*
X48631192Y-38007775D01*
X48704063Y-38087629D01*
X48705135Y-38088995D01*
X48752173Y-38159070D01*
X48753181Y-38160908D01*
X48783131Y-38229484D01*
X48783472Y-38230360D01*
X48812362Y-38314307D01*
X48851952Y-38418766D01*
X48851679Y-38427716D01*
X48845528Y-38433705D01*
X48630200Y-38523831D01*
X48621246Y-38523864D01*
X48621189Y-38523841D01*
X48406621Y-38434581D01*
X48400299Y-38428239D01*
X48400312Y-38419284D01*
X48401121Y-38417694D01*
X48446741Y-38342891D01*
X48448117Y-38341068D01*
X48509222Y-38274753D01*
X48558075Y-38217505D01*
X48572302Y-38159824D01*
X48535130Y-38099223D01*
X48533726Y-38090382D01*
X48536829Y-38084837D01*
X48614278Y-38007388D01*
X48622550Y-38003962D01*
X48630823Y-38007389D01*
G37*
%TD.AperFunction*%
%TD*%
%TA.AperFunction,Conductor*%
%TO.N,/GPIO0*%
G36*
X50189365Y-31195850D02*
G01*
X50190174Y-31196531D01*
X50262990Y-31257792D01*
X50262992Y-31257793D01*
X50331580Y-31291044D01*
X50399538Y-31306759D01*
X50478800Y-31322861D01*
X50480162Y-31323226D01*
X50572187Y-31353884D01*
X50578952Y-31359749D01*
X50579588Y-31368681D01*
X50579314Y-31369421D01*
X50490954Y-31584986D01*
X50484645Y-31591341D01*
X50484566Y-31591374D01*
X50293403Y-31669731D01*
X50269082Y-31679701D01*
X50269001Y-31679734D01*
X50260046Y-31679701D01*
X50253737Y-31673346D01*
X50253471Y-31672628D01*
X50222806Y-31580582D01*
X50222441Y-31579217D01*
X50206339Y-31499958D01*
X50190624Y-31432000D01*
X50189060Y-31428774D01*
X50188186Y-31424964D01*
X50188115Y-31424979D01*
X50187889Y-31423844D01*
X50176867Y-31397235D01*
X50158051Y-31351809D01*
X50102915Y-31296673D01*
X50096440Y-31290198D01*
X50093013Y-31281925D01*
X50096439Y-31273653D01*
X50173562Y-31196530D01*
X50181834Y-31193104D01*
X50189365Y-31195850D01*
G37*
%TD.AperFunction*%
%TD*%
%TA.AperFunction,Conductor*%
%TO.N,Net-(J1-D1+)*%
G36*
X35280343Y-35638118D02*
G01*
X35286652Y-35644473D01*
X35286926Y-35645213D01*
X35317581Y-35737231D01*
X35317947Y-35738600D01*
X35334052Y-35817871D01*
X35349763Y-35885815D01*
X35349764Y-35885817D01*
X35383014Y-35954405D01*
X35383015Y-35954407D01*
X35416823Y-35994591D01*
X35443898Y-36026774D01*
X35444958Y-36028033D01*
X35447662Y-36036570D01*
X35444278Y-36043838D01*
X35366828Y-36121288D01*
X35358555Y-36124715D01*
X35351023Y-36121968D01*
X35277397Y-36060025D01*
X35277395Y-36060024D01*
X35242058Y-36042893D01*
X35208808Y-36026774D01*
X35208806Y-36026773D01*
X35208805Y-36026773D01*
X35140861Y-36011062D01*
X35061590Y-35994957D01*
X35060221Y-35994591D01*
X34995693Y-35973094D01*
X34968202Y-35963935D01*
X34961437Y-35958070D01*
X34960801Y-35949138D01*
X34961061Y-35948434D01*
X35049436Y-35732831D01*
X35055743Y-35726478D01*
X35271391Y-35638085D01*
X35280343Y-35638118D01*
G37*
%TD.AperFunction*%
%TD*%
%TA.AperFunction,Conductor*%
%TO.N,/GPIO1*%
G36*
X38328531Y-42317832D02*
G01*
X38331762Y-42323972D01*
X38391459Y-42646015D01*
X38452934Y-42938525D01*
X38514404Y-43191908D01*
X38575872Y-43406172D01*
X38575877Y-43406186D01*
X38632890Y-43568648D01*
X38632396Y-43577589D01*
X38625724Y-43583562D01*
X38624147Y-43583994D01*
X37894758Y-43730055D01*
X37885973Y-43728320D01*
X37271535Y-43316795D01*
X37266568Y-43309344D01*
X37268325Y-43300563D01*
X37271904Y-43297116D01*
X37445125Y-43190369D01*
X37633841Y-43032995D01*
X37822557Y-42834543D01*
X38011273Y-42595013D01*
X38196511Y-42319575D01*
X38203972Y-42314623D01*
X38206220Y-42314405D01*
X38320258Y-42314405D01*
X38328531Y-42317832D01*
G37*
%TD.AperFunction*%
%TD*%
%TA.AperFunction,Conductor*%
%TO.N,/GPIO8{slash}PWM*%
G36*
X43877112Y-33240899D02*
G01*
X43950788Y-33302830D01*
X43950791Y-33302831D01*
X43950793Y-33302833D01*
X44019455Y-33335992D01*
X44065213Y-33346480D01*
X44087489Y-33351586D01*
X44115143Y-33357164D01*
X44166831Y-33367590D01*
X44168196Y-33367953D01*
X44239229Y-33391584D01*
X44260278Y-33398587D01*
X44267047Y-33404450D01*
X44267687Y-33413382D01*
X44267411Y-33414126D01*
X44179054Y-33629685D01*
X44172745Y-33636041D01*
X44172665Y-33636074D01*
X43957106Y-33724431D01*
X43948152Y-33724398D01*
X43941843Y-33718042D01*
X43941567Y-33717298D01*
X43934564Y-33696249D01*
X43910933Y-33625216D01*
X43910569Y-33623845D01*
X43894566Y-33544509D01*
X43889460Y-33522233D01*
X43878972Y-33476475D01*
X43845813Y-33407813D01*
X43845811Y-33407811D01*
X43845810Y-33407808D01*
X43783879Y-33334132D01*
X43781179Y-33325594D01*
X43784561Y-33318332D01*
X43861312Y-33241581D01*
X43869584Y-33238155D01*
X43877112Y-33240899D01*
G37*
%TD.AperFunction*%
%TD*%
%TA.AperFunction,Conductor*%
%TO.N,Net-(J1-D1-)*%
G36*
X34753475Y-36098050D02*
G01*
X34754284Y-36098731D01*
X34827100Y-36159992D01*
X34827102Y-36159993D01*
X34895690Y-36193244D01*
X34963648Y-36208959D01*
X35042910Y-36225061D01*
X35044272Y-36225426D01*
X35136297Y-36256084D01*
X35143062Y-36261949D01*
X35143698Y-36270881D01*
X35143424Y-36271621D01*
X35055064Y-36487186D01*
X35048755Y-36493541D01*
X35048676Y-36493574D01*
X34857513Y-36571931D01*
X34833192Y-36581901D01*
X34833111Y-36581934D01*
X34824156Y-36581901D01*
X34817847Y-36575546D01*
X34817581Y-36574828D01*
X34786916Y-36482782D01*
X34786551Y-36481417D01*
X34770449Y-36402158D01*
X34754734Y-36334200D01*
X34721483Y-36265612D01*
X34721482Y-36265610D01*
X34673818Y-36208956D01*
X34659540Y-36191985D01*
X34656837Y-36183449D01*
X34660220Y-36176182D01*
X34737672Y-36098730D01*
X34745944Y-36095304D01*
X34753475Y-36098050D01*
G37*
%TD.AperFunction*%
%TD*%
%TA.AperFunction,Conductor*%
%TO.N,/GPIO9{slash}BOOT*%
G36*
X41500612Y-33482399D02*
G01*
X41574288Y-33544330D01*
X41574291Y-33544331D01*
X41574293Y-33544333D01*
X41642955Y-33577492D01*
X41688713Y-33587980D01*
X41710989Y-33593086D01*
X41738643Y-33598664D01*
X41790331Y-33609090D01*
X41791696Y-33609453D01*
X41862729Y-33633084D01*
X41883778Y-33640087D01*
X41890547Y-33645950D01*
X41891187Y-33654882D01*
X41890911Y-33655626D01*
X41802554Y-33871185D01*
X41796245Y-33877541D01*
X41796165Y-33877574D01*
X41580606Y-33965931D01*
X41571652Y-33965898D01*
X41565343Y-33959542D01*
X41565067Y-33958798D01*
X41558064Y-33937749D01*
X41534433Y-33866716D01*
X41534069Y-33865345D01*
X41518066Y-33786009D01*
X41512960Y-33763733D01*
X41502472Y-33717975D01*
X41469313Y-33649313D01*
X41469311Y-33649311D01*
X41469310Y-33649308D01*
X41407379Y-33575632D01*
X41404679Y-33567094D01*
X41408061Y-33559832D01*
X41484812Y-33483081D01*
X41493084Y-33479655D01*
X41500612Y-33482399D01*
G37*
%TD.AperFunction*%
%TD*%
%TA.AperFunction,Conductor*%
%TO.N,/GPIO8{slash}PWM*%
G36*
X38647802Y-28179815D02*
G01*
X38654127Y-28186154D01*
X38654785Y-28188319D01*
X38722237Y-28524702D01*
X38792489Y-28833576D01*
X38862735Y-29100962D01*
X38932980Y-29326871D01*
X38932984Y-29326881D01*
X39000533Y-29504246D01*
X39000275Y-29513197D01*
X38997872Y-29516683D01*
X38917897Y-29596658D01*
X38909624Y-29600085D01*
X38903408Y-29598297D01*
X38677312Y-29456523D01*
X38677300Y-29456517D01*
X38443318Y-29346571D01*
X38209327Y-29273395D01*
X38209315Y-29273393D01*
X37975329Y-29236993D01*
X37975318Y-29236992D01*
X37755595Y-29237345D01*
X37747316Y-29233931D01*
X37743876Y-29225664D01*
X37744097Y-29223380D01*
X37888066Y-28495451D01*
X37893033Y-28488002D01*
X37895072Y-28486912D01*
X38638848Y-28179805D01*
X38647802Y-28179815D01*
G37*
%TD.AperFunction*%
%TD*%
%TA.AperFunction,Conductor*%
%TO.N,/USB_N*%
G36*
X39430159Y-37271473D02*
G01*
X39497027Y-37295066D01*
X39529623Y-37302100D01*
X39556888Y-37307985D01*
X39556890Y-37307985D01*
X39556894Y-37307986D01*
X39627377Y-37313408D01*
X39714527Y-37314380D01*
X39722760Y-37317899D01*
X39726095Y-37326079D01*
X39726095Y-37435554D01*
X39722668Y-37443827D01*
X39716267Y-37447103D01*
X39617689Y-37463081D01*
X39617684Y-37463083D01*
X39551449Y-37508247D01*
X39551448Y-37508249D01*
X39500903Y-37569396D01*
X39500432Y-37569932D01*
X39439773Y-37634824D01*
X39437242Y-37636869D01*
X39350261Y-37689020D01*
X39341404Y-37690335D01*
X39334210Y-37685001D01*
X39333455Y-37683508D01*
X39243889Y-37469515D01*
X39243857Y-37460563D01*
X39334190Y-37244735D01*
X39340545Y-37238428D01*
X39349412Y-37238426D01*
X39430159Y-37271473D01*
G37*
%TD.AperFunction*%
%TD*%
%TA.AperFunction,Conductor*%
%TO.N,/GPIO0*%
G36*
X36377545Y-42623010D02*
G01*
X36458223Y-42703688D01*
X36461650Y-42711961D01*
X36460882Y-42716130D01*
X36393266Y-42893436D01*
X36393255Y-42893468D01*
X36322944Y-43119301D01*
X36252628Y-43386610D01*
X36182306Y-43695406D01*
X36114787Y-44031705D01*
X36109799Y-44039142D01*
X36101013Y-44040873D01*
X36098851Y-44040216D01*
X36078238Y-44031705D01*
X35355079Y-43733110D01*
X35348740Y-43726785D01*
X35348066Y-43724566D01*
X35342297Y-43695399D01*
X35204097Y-42996638D01*
X35205854Y-42987858D01*
X35213305Y-42982891D01*
X35215583Y-42982669D01*
X35432862Y-42982939D01*
X35435249Y-42982942D01*
X35435249Y-42982941D01*
X35435255Y-42982942D01*
X35435260Y-42982941D01*
X35435263Y-42982941D01*
X35605992Y-42956316D01*
X35669179Y-42946463D01*
X35669188Y-42946460D01*
X35669197Y-42946458D01*
X35787072Y-42909547D01*
X35903103Y-42873216D01*
X36137027Y-42763200D01*
X36363056Y-42621371D01*
X36371883Y-42619878D01*
X36377545Y-42623010D01*
G37*
%TD.AperFunction*%
%TD*%
%TA.AperFunction,Conductor*%
%TO.N,/GPIO21{slash}TX*%
G36*
X54919830Y-28029245D02*
G01*
X55663738Y-28485039D01*
X55669002Y-28492283D01*
X55669099Y-28497306D01*
X55523949Y-29224253D01*
X55518968Y-29231695D01*
X55510184Y-29233436D01*
X55508680Y-29233030D01*
X55399416Y-29195567D01*
X55302440Y-29162318D01*
X55302437Y-29162317D01*
X55302436Y-29162317D01*
X55250395Y-29152287D01*
X55083549Y-29120132D01*
X55083544Y-29120131D01*
X55083540Y-29120131D01*
X54864662Y-29110808D01*
X54864658Y-29110808D01*
X54645770Y-29134348D01*
X54645769Y-29134348D01*
X54433346Y-29189086D01*
X54424480Y-29187832D01*
X54422154Y-29186029D01*
X54341687Y-29105562D01*
X54338260Y-29097289D01*
X54340857Y-29089938D01*
X54448995Y-28956067D01*
X54563744Y-28777426D01*
X54563751Y-28777411D01*
X54563758Y-28777401D01*
X54678479Y-28562225D01*
X54678481Y-28562220D01*
X54678492Y-28562200D01*
X54793241Y-28310388D01*
X54902854Y-28034898D01*
X54909096Y-28028479D01*
X54918049Y-28028354D01*
X54919830Y-28029245D01*
G37*
%TD.AperFunction*%
%TD*%
%TA.AperFunction,Conductor*%
%TO.N,/GPIO9{slash}BOOT*%
G36*
X36115299Y-28112274D02*
G01*
X36116063Y-28114167D01*
X36210480Y-28423323D01*
X36308962Y-28706371D01*
X36308969Y-28706388D01*
X36407449Y-28950017D01*
X36407454Y-28950028D01*
X36407458Y-28950037D01*
X36505948Y-29154267D01*
X36505950Y-29154272D01*
X36599760Y-29311248D01*
X36601063Y-29320108D01*
X36597990Y-29325523D01*
X36518148Y-29405365D01*
X36509875Y-29408792D01*
X36505208Y-29407821D01*
X36250277Y-29296916D01*
X35988040Y-29222511D01*
X35988037Y-29222510D01*
X35988036Y-29222510D01*
X35725806Y-29187784D01*
X35725804Y-29187784D01*
X35715711Y-29187974D01*
X35463570Y-29192735D01*
X35463560Y-29192736D01*
X35218065Y-29234519D01*
X35209334Y-29232529D01*
X35204568Y-29224948D01*
X35204623Y-29220718D01*
X35348180Y-28494878D01*
X35353147Y-28487428D01*
X35354348Y-28486723D01*
X35478834Y-28423318D01*
X36099564Y-28107157D01*
X36108490Y-28106457D01*
X36115299Y-28112274D01*
G37*
%TD.AperFunction*%
%TD*%
%TA.AperFunction,Conductor*%
%TO.N,/GPIO4*%
G36*
X45575774Y-42224079D02*
G01*
X45578398Y-42228093D01*
X45689099Y-42511375D01*
X45689104Y-42511388D01*
X45689106Y-42511391D01*
X45802722Y-42765362D01*
X45916338Y-42982565D01*
X45989396Y-43098589D01*
X46029953Y-43162998D01*
X46135715Y-43296732D01*
X46138159Y-43305347D01*
X46133796Y-43313167D01*
X46133049Y-43313711D01*
X45516501Y-43726649D01*
X45507720Y-43728406D01*
X45503479Y-43726649D01*
X44886930Y-43313711D01*
X44881963Y-43306260D01*
X44883720Y-43297479D01*
X44884248Y-43296753D01*
X44990026Y-43162999D01*
X45103642Y-42982565D01*
X45217258Y-42765362D01*
X45330874Y-42511391D01*
X45441582Y-42228092D01*
X45447785Y-42221635D01*
X45452479Y-42220652D01*
X45567501Y-42220652D01*
X45575774Y-42224079D01*
G37*
%TD.AperFunction*%
%TD*%
%TA.AperFunction,Conductor*%
%TO.N,/USB_P*%
G36*
X39471337Y-34707111D02*
G01*
X39477646Y-34713467D01*
X39477922Y-34714211D01*
X39508551Y-34806283D01*
X39508918Y-34807662D01*
X39524923Y-34887006D01*
X39540516Y-34955033D01*
X39573678Y-35023699D01*
X39635610Y-35097377D01*
X39638310Y-35105915D01*
X39634927Y-35113178D01*
X39558178Y-35189927D01*
X39549905Y-35193354D01*
X39542377Y-35190610D01*
X39468699Y-35128678D01*
X39400033Y-35095516D01*
X39332006Y-35079923D01*
X39252662Y-35063918D01*
X39251283Y-35063551D01*
X39159211Y-35032922D01*
X39152442Y-35027059D01*
X39151802Y-35018127D01*
X39152078Y-35017383D01*
X39240436Y-34801822D01*
X39246743Y-34795468D01*
X39462384Y-34707078D01*
X39471337Y-34707111D01*
G37*
%TD.AperFunction*%
%TD*%
%TA.AperFunction,Conductor*%
%TO.N,/GPIO20{slash}RX*%
G36*
X51189818Y-37732731D02*
G01*
X51267268Y-37810181D01*
X51270695Y-37818454D01*
X51267948Y-37825986D01*
X51206005Y-37899610D01*
X51206004Y-37899612D01*
X51172754Y-37968200D01*
X51172753Y-37968202D01*
X51157042Y-38036146D01*
X51140937Y-38115417D01*
X51140571Y-38116786D01*
X51109916Y-38208805D01*
X51104050Y-38215571D01*
X51095118Y-38216207D01*
X51094379Y-38215933D01*
X50878814Y-38127574D01*
X50872458Y-38121265D01*
X50784065Y-37905618D01*
X50784098Y-37896666D01*
X50790453Y-37890357D01*
X50791163Y-37890093D01*
X50883215Y-37859426D01*
X50884577Y-37859061D01*
X50963840Y-37842959D01*
X51031798Y-37827244D01*
X51100386Y-37793993D01*
X51174015Y-37732050D01*
X51182550Y-37729347D01*
X51189818Y-37732731D01*
G37*
%TD.AperFunction*%
%TD*%
M02*
