M48
; DRILL file {KiCad 9.0.0} date 2025-03-05T11:41:38+0900
; FORMAT={-:-/ absolute / inch / decimal}
; #@! TF.CreationDate,2025-03-05T11:41:38+09:00
; #@! TF.GenerationSoftware,Kicad,Pcbnew,9.0.0
; #@! TF.FileFunction,Plated,1,4,PTH
FMAT,2
INCH
; #@! TA.AperFunction,Plated,PTH,ViaDrill
T1C0.0079
; #@! TA.AperFunction,Plated,PTH,ViaDrill
T2C0.0157
; #@! TA.AperFunction,Plated,PTH,ComponentDrill
T3C0.0236
; #@! TA.AperFunction,Plated,PTH,ComponentDrill
T4C0.0400
%
G90
G05
T1
X1.1917Y-1.2717
X1.1917Y-1.3217
X1.1917Y-1.5217
X1.1917Y-1.5717
X1.38Y-1.3767
X1.38Y-1.4067
X1.38Y-1.4667
X1.38Y-1.4367
X1.4467Y-1.2017
X1.4767Y-1.6017
X1.545Y-1.37
X1.545Y-1.475
X1.5517Y-1.1867
X1.6457Y-1.3337
X1.6575Y-1.3681
X1.6585Y-1.2923
X1.7392Y-1.3242
X1.7449Y-1.2683
X1.75Y-1.5787
X1.753Y-1.378
X1.7766Y-1.2913
X1.7933Y-1.2151
X1.8233Y-1.2386
X1.8346Y-1.5049
X1.8417Y-1.3717
X1.8417Y-1.6167
X1.8437Y-1.1737
X1.8517Y-1.2317
X1.8602Y-1.6535
X1.8667Y-1.3467
X1.8667Y-1.3967
X1.8917Y-1.3217
X1.8917Y-1.3717
X1.8917Y-1.4217
X1.8917Y-1.6614
X1.9144Y-1.5167
X1.9167Y-1.3467
X1.9167Y-1.3967
X1.9417Y-1.3717
X1.9419Y-1.5128
X1.9449Y-1.1703
X1.9468Y-1.2461
X1.9528Y-1.565
X1.9702Y-1.2683
X1.9773Y-1.4761
X1.9877Y-1.2437
X2.003Y-1.501
X2.0667Y-1.2467
X2.0851Y-1.4257
X2.0917Y-1.3217
X2.1122Y-1.185
X2.1317Y-1.2817
X2.1317Y-1.3217
X2.1317Y-1.3617
X2.1317Y-1.4017
X2.1317Y-1.4417
X2.1317Y-1.4817
T2
X1.3317Y-1.4217
X1.5367Y-1.2867
X1.5917Y-1.3117
X1.5917Y-1.5417
X1.6467Y-1.5917
X1.6717Y-1.4467
X1.7517Y-1.5117
X1.8758Y-1.5806
X2.0417Y-1.1717
T4
X1.2917Y-1.0717
X1.2917Y-1.1217
X1.2917Y-1.7217
X1.2917Y-1.7717
X1.3917Y-1.0717
X1.3917Y-1.1217
X1.3917Y-1.7217
X1.3917Y-1.7717
X1.4917Y-1.0717
X1.4917Y-1.1217
X1.4917Y-1.7217
X1.4917Y-1.7717
X1.5917Y-1.0717
X1.5917Y-1.1217
X1.5917Y-1.7217
X1.5917Y-1.7717
X1.6917Y-1.0717
X1.6917Y-1.1217
X1.6917Y-1.7217
X1.6917Y-1.7717
X1.7917Y-1.0717
X1.7917Y-1.1217
X1.7917Y-1.7217
X1.7917Y-1.7717
X1.8917Y-1.0717
X1.8917Y-1.1217
X1.8917Y-1.7217
X1.8917Y-1.7717
X1.9917Y-1.0717
X1.9917Y-1.1217
X1.9917Y-1.7217
X1.9917Y-1.7717
X2.0917Y-1.0717
X2.0917Y-1.1217
X2.0917Y-1.7217
X2.0917Y-1.7717
X2.1917Y-1.0717
X2.1917Y-1.1217
X2.1917Y-1.7217
X2.1917Y-1.7717
T3
G00X1.234Y-1.2516
M15
G01X1.2577Y-1.2516
M16
G05
G00X1.234Y-1.5917
M15
G01X1.2577Y-1.5917
M16
G05
G00X1.3888Y-1.2516
M15
G01X1.4321Y-1.2516
M16
G05
G00X1.3888Y-1.5917
M15
G01X1.4321Y-1.5917
M16
G05
M30
